<svg width="189" height="36" viewBox="0 0 189 36" fill="none" xmlns="http://www.w3.org/2000/svg">
<g clip-path="url(#clip0_7_844)">
<path d="M48.4391 7.62957C49.2337 7.54616 49.2908 8.08612 49.5761 8.52951C51.8545 12.081 54.0934 15.6632 56.3411 19.2323C56.4596 19.4167 56.5825 19.5923 56.7055 19.7723C57.0742 19.5923 56.8942 19.3069 56.8942 19.0743C56.8855 15.5272 56.8855 11.98 56.8459 8.43293C56.8372 7.79639 57.0391 7.63835 57.6581 7.62518C60.5686 7.55933 60.5467 7.53738 60.5467 10.4084C60.5467 15.3955 60.5555 20.3869 60.6169 25.3739C60.6257 26.2299 60.3887 26.4758 59.5677 26.3968C58.8346 26.3265 58.0883 26.3792 57.3508 26.3748C56.6308 26.3748 56.1523 26.3616 55.8143 25.3914C55.4807 24.4213 54.809 23.4818 54.2383 22.5599C52.6228 19.9566 50.9897 17.3622 49.3566 14.7677C49.2469 14.5921 49.102 14.4384 48.8123 14.0697C48.8123 15.6676 48.8079 17.011 48.8123 18.3543C48.8254 20.7205 48.8123 23.0867 48.8825 25.4485C48.9045 26.2036 48.6586 26.4319 47.9518 26.3704C47.0387 26.2914 45.8315 26.7567 45.2959 26.1904C44.8525 25.7207 45.173 24.5178 45.173 23.6398C45.173 18.7977 45.1686 13.9599 45.1905 9.11777C45.1993 7.43202 45.0237 7.68225 46.6919 7.65591C47.0563 7.65152 48.4303 7.65591 48.4303 7.62518L48.4391 7.62957Z" fill="#2C2C2C"/>
<path d="M114.587 20.6946C114.798 19.8079 114.359 19.764 113.582 20.0318C112.814 20.2952 112.006 20.4269 111.233 20.6683C110.325 20.9493 109.754 21.5507 109.877 22.5516C110.004 23.5833 110.79 23.9301 111.699 24.0047C113.472 24.1583 114.535 22.9599 114.596 20.6903L114.587 20.6946ZM118.218 20.2293C118.394 22.0863 117.95 24.0442 118.841 25.8617C119.07 26.3314 118.74 26.3402 118.42 26.3402C117.573 26.3446 116.721 26.3226 115.869 26.3621C115.198 26.3928 115.206 25.9451 115.145 25.4973C115.053 24.8256 114.855 24.6895 114.276 25.2119C112.476 26.8318 110.338 26.9767 108.152 26.2919C107.19 25.989 106.62 25.1241 106.339 24.0925C105.663 21.599 106.317 20.023 108.775 19.0001C110.255 18.3855 111.866 18.3241 113.38 17.8587C113.85 17.7138 114.434 17.6085 114.548 17.0202C114.653 16.4715 114.359 16.0325 113.907 15.712C112.634 14.8033 110.816 15.1589 110.053 16.4978C109.912 16.7393 109.837 16.9588 109.508 16.9105C108.705 16.7963 107.901 16.6822 107.098 16.5724C106.628 16.5066 106.615 16.23 106.725 15.8525C107.177 14.3423 107.994 13.1834 109.644 12.8234C111.536 12.4151 113.437 12.3581 115.312 12.8805C117.243 13.4204 118.091 14.4433 118.2 16.4144C118.266 17.6656 118.214 18.9255 118.214 20.2205L118.218 20.2293Z" fill="#2C2C2C"/>
<path d="M135.405 18.4117C136.068 18.4117 136.735 18.3942 137.402 18.4161C137.911 18.4337 138.126 18.2888 138.065 17.7137C137.911 16.3528 136.972 15.387 135.615 15.2817C134.189 15.1719 133.074 15.9884 132.736 17.3318C132.534 18.1351 132.727 18.5215 133.631 18.4249C134.215 18.3634 134.812 18.4117 135.405 18.4117ZM137.055 20.633C135.765 20.633 134.47 20.6506 133.175 20.6243C132.599 20.6111 132.494 20.8438 132.573 21.3618C132.779 22.6919 133.587 23.5963 134.887 23.8685C136.032 24.1099 136.954 23.6973 137.648 22.5471C137.854 22.209 138.021 22.0817 138.421 22.1476C139.184 22.2793 139.957 22.3846 140.73 22.4373C141.419 22.4812 141.432 22.8017 141.199 23.3109C140.822 24.1275 140.313 24.843 139.606 25.405C135.971 28.2936 130.203 26.4278 129.105 21.9413C128.521 19.5575 128.591 17.2045 130.036 15.0095C131.59 12.6433 133.903 12.2921 136.375 12.5335C138.987 12.7925 140.598 14.4168 141.371 16.8752C141.669 17.8278 141.691 18.8375 141.775 19.8297C141.832 20.5145 141.524 20.6374 140.94 20.6199C139.65 20.5935 138.355 20.6111 137.06 20.6111V20.6287L137.055 20.633Z" fill="#2C2C2C"/>
<path d="M181.728 18.4161V18.4073C182.43 18.4073 183.128 18.3941 183.831 18.4073C184.327 18.4161 184.454 18.1966 184.401 17.7269C184.256 16.4055 183.361 15.4353 182.092 15.2773C180.705 15.1017 179.634 15.7733 179.182 17.1035C178.813 18.1878 178.962 18.4029 180.073 18.4117C180.626 18.4161 181.179 18.4117 181.732 18.4117L181.728 18.4161ZM183.326 20.6287C182.11 20.6287 180.885 20.6813 179.669 20.6111C178.87 20.5628 178.826 20.8745 178.967 21.511C179.287 22.951 179.998 23.8377 181.421 23.8948C182.426 23.9343 183.523 23.649 184.05 22.5251C184.138 22.3364 184.169 22.0642 184.472 22.0993C185.499 22.2222 186.526 22.3364 187.549 22.49C187.891 22.5427 187.76 22.8193 187.672 23.0124C187.259 23.886 186.807 24.7508 186.008 25.3303C183.817 26.9239 181.394 27.0512 178.949 26.1381C176.732 25.3084 175.648 23.4558 175.314 21.2169C174.941 18.6971 175.314 16.3177 177.022 14.2588C177.461 13.7276 177.979 13.3852 178.558 13.1262C182.821 11.2209 187.597 13.293 187.97 18.3415C188.137 20.6067 188.207 20.6023 185.977 20.6067C185.091 20.6067 184.204 20.6067 183.317 20.6067V20.633L183.326 20.6287Z" fill="#2C2C2C"/>
<path d="M70.3364 18.4076C70.9993 18.4076 71.6666 18.3681 72.3251 18.4164C73.0187 18.4691 73.1153 18.175 73.0275 17.5691C72.8255 16.2434 71.9387 15.3961 70.5778 15.3083C68.9492 15.2073 68.0492 15.879 67.6717 17.3892C67.4917 18.1179 67.5444 18.5262 68.4619 18.4164C69.0809 18.3418 69.713 18.4032 70.3408 18.3988L70.3364 18.4076ZM72.1363 20.6246C70.8808 20.6246 69.6208 20.6685 68.3653 20.607C67.5356 20.5675 67.4522 20.888 67.6322 21.5816C67.9965 22.982 68.9448 23.9829 70.3013 23.9171C71.1002 23.8819 72.0309 23.6054 72.4392 22.7054C72.6587 22.2181 72.944 22.0777 73.4621 22.1742C74.1864 22.3103 74.9239 22.3806 75.6571 22.4771C76.4297 22.5825 76.6053 23.0171 76.1356 23.6844C73.5279 27.372 69.274 27.8461 65.9464 25.2121C64.028 23.6932 63.6109 21.2479 63.7821 18.851C63.9402 16.6341 64.704 14.6542 66.6708 13.3548C70.3452 10.9271 75.7361 13.1967 76.557 17.4989C76.9521 19.5798 76.1092 20.6202 74.024 20.6158H72.1363V20.6246Z" fill="#2C2C2C"/>
<path d="M144.694 19.5003C144.694 17.5072 144.712 15.5142 144.685 13.5211C144.676 12.9065 144.865 12.6431 145.506 12.6914C146.094 12.7353 146.687 12.7046 147.28 12.7046C147.872 12.7046 148.355 12.6783 148.259 13.5519C148.219 13.9338 148.592 14.1884 149.014 13.7889C150.572 12.3183 152.464 12.2919 154.361 12.7485C156.09 13.1655 156.986 14.4781 157.162 16.199C157.451 18.9954 157.258 21.805 157.328 24.6102C157.372 26.3882 157.346 26.3882 155.52 26.3882C153.61 26.3882 153.614 26.3882 153.614 24.461C153.61 22.2835 153.614 20.1061 153.571 17.9287C153.54 16.2956 152.938 15.4966 151.718 15.3342C150.146 15.1279 149.084 15.8171 148.597 17.3404C148.439 17.8409 148.403 18.3501 148.403 18.8725C148.403 21.05 148.377 23.2274 148.425 25.4048C148.443 26.1423 148.294 26.4277 147.477 26.4321C144.716 26.4409 144.716 26.476 144.716 23.7191V19.5091H144.69L144.694 19.5003Z" fill="#2C2C2C"/>
<path d="M88.6733 24.4085C88.028 25.0934 87.4749 25.5587 86.8647 25.9538C85.0955 27.104 82.1718 26.8406 80.745 25.3348C79.9768 24.5227 79.7222 23.4647 79.7046 22.3847C79.6563 19.3952 79.6783 16.4056 79.6388 13.4116C79.63 12.8585 79.8363 12.7487 80.3412 12.718C83.2693 12.5512 83.2649 12.538 83.2912 15.4134C83.3088 17.446 83.2737 19.4742 83.3878 21.5024C83.4668 22.9247 84.2043 23.6491 85.3765 23.7676C86.733 23.9081 87.8612 23.1749 88.2695 21.8755C88.4582 21.2741 88.5153 20.6507 88.5109 20.0185C88.5021 17.9509 88.546 15.8832 88.489 13.8155C88.467 13.0033 88.6865 12.6609 89.5294 12.7356C90.3328 12.8058 91.36 12.5073 91.8868 12.9024C92.4575 13.3326 92.0229 14.4125 92.0931 15.2115C92.3917 18.6357 92.1414 22.0687 92.2687 25.4972C92.2951 26.2523 92.0361 26.4938 91.3293 26.3972C91.1098 26.3665 90.8859 26.3928 90.6664 26.3928C89.446 26.3928 88.7787 25.7343 88.669 24.4129L88.6733 24.4085Z" fill="#2C2C2C"/>
<path d="M160.344 18.5873C160.371 17.1079 160.836 14.8295 163.101 13.473C165.876 11.8091 171.376 11.7609 172.948 16.0235C173.176 16.6425 173.22 16.9849 172.425 17.0025C172.057 17.0113 171.679 17.0552 171.332 17.1561C170.34 17.4415 169.677 17.4283 169.076 16.2782C168.29 14.7724 165.568 15.0446 164.695 16.682C163.694 18.5522 163.79 20.554 164.708 22.4329C165.204 23.4514 166.258 23.7938 167.351 23.6928C168.426 23.5963 169.265 23.0212 169.537 21.9368C169.743 21.1115 170.108 20.9886 170.854 21.2388C171.407 21.4232 172.013 21.4627 172.601 21.511C173.238 21.5637 173.303 21.8534 173.132 22.4022C172.452 24.5972 171.078 26.0195 168.769 26.4717C163.751 27.4551 160.292 24.6103 160.344 18.5829V18.5873Z" fill="#2C2C2C"/>
<path d="M122.09 16.8751C122.09 14.1094 122.116 11.3393 122.072 8.57365C122.064 7.86247 122.235 7.53761 122.981 7.64297C123.236 7.67809 123.499 7.64736 123.754 7.64297C125.716 7.6298 125.729 7.6298 125.738 9.56578C125.764 14.8777 125.764 20.1939 125.804 25.5058C125.808 26.1687 125.646 26.3838 124.952 26.397C122.107 26.4453 122.107 26.4716 122.103 23.6225C122.103 21.3748 122.103 19.1228 122.103 16.8707H122.086L122.09 16.8751Z" fill="#2C2C2C"/>
<path d="M99.7273 14.5397C100.215 14.3597 100.28 13.9514 100.504 13.6793C101.532 12.4193 103.38 12.0594 104.776 12.8496C105.013 12.9857 105.267 13.1086 105.18 13.4159C104.925 14.2939 104.675 15.1719 104.346 16.0235C104.196 16.4142 103.849 16.1464 103.582 16.0674C101.562 15.4704 100.324 16.1772 100.017 18.2668C99.6702 20.6111 99.8897 22.986 99.8985 25.3478C99.8985 26.1512 99.7405 26.4278 98.8756 26.4234C96.1933 26.4058 96.1846 26.4453 96.1758 23.7543C96.1626 20.3916 96.1758 17.0332 96.1407 13.6705C96.1319 12.9725 96.3031 12.6125 97.0582 12.7135C97.2777 12.7442 97.5016 12.7179 97.7211 12.7179C98.9371 12.7179 99.6044 13.3281 99.7273 14.5485V14.5397Z" fill="#2C2C2C"/>
<path d="M12.6168 18.4248L12.8363 18.4292H12.6168V18.4248ZM12.6168 18.416H12.3973L12.6168 18.4204L12.8363 18.4116H12.6168V18.416ZM12.6168 18.416H12.3973L12.5246 18.4248H12.8363V18.4204V18.4116H12.6168V18.416ZM12.6168 18.4204L12.8363 18.4292V18.4116L12.6168 18.4204ZM12.6168 18.4204H12.5642L12.6168 18.4248L12.8363 18.4292V18.4116L12.6168 18.4204Z" fill="url(#paint0_linear_7_844)"/>
<path d="M12.8363 18.4116V18.4292H12.6168V18.416H12.8363V18.4116Z" fill="url(#paint1_linear_7_844)"/>
<path d="M0.105408 8.55615L0.324907 8.56054H0.105408V8.55615Z" fill="url(#paint2_linear_7_844)"/>
<path d="M0.544389 8.56055V8.56494L0.32489 8.56055H0.544389Z" fill="url(#paint3_linear_7_844)"/>
<path d="M36.9067 8.48633H36.6872V8.49072H36.9067V8.48633Z" fill="url(#paint4_linear_7_844)"/>
<path d="M11.8969 12.8239H11.9065C11.9065 12.8239 11.9017 12.8191 11.8969 12.8239Z" fill="url(#paint5_linear_7_844)"/>
<path fill-rule="evenodd" clip-rule="evenodd" d="M19.9788 13.429C19.5618 13.4466 19.2457 13.4027 18.9867 13.2885C18.6574 13.1437 18.3677 12.8671 18.0867 12.3403L18.0297 12.2305C16.7171 9.60972 14.6187 7.65618 11.9627 6.37869C11.1725 6.00116 10.3165 5.68508 9.36823 5.63679C8.12147 5.57094 7.07227 5.9397 6.40499 6.71233C5.73771 7.48497 5.52699 8.57808 5.77722 9.81166L5.82551 10.0312C6.07135 11.133 6.4884 12.2218 7.26982 13.1305C7.31372 13.1832 7.34006 13.2227 7.35762 13.249C7.3225 13.2666 7.27421 13.2929 7.20836 13.3149C7.00203 13.3851 6.8396 13.5388 6.74302 13.6353C6.71229 13.6617 6.69034 13.688 6.664 13.71L6.63766 13.7363L6.62888 13.7495L6.60254 13.7714C6.5762 13.8022 6.54547 13.8241 6.51913 13.8504H6.51474C6.51474 13.8504 6.50157 13.8636 6.49279 13.8724C6.4884 13.8768 6.48401 13.8812 6.47962 13.8856H6.47523H6.47084C6.45328 13.868 6.43133 13.8461 6.40938 13.8109C5.15823 12.0681 4.24073 10.277 4.52608 8.18298C4.71924 6.80013 5.42163 5.72459 6.41816 5.08804C7.41908 4.4471 8.75363 4.21882 10.2418 4.59636C14.9962 5.79922 17.9726 8.98196 19.9788 13.4246V13.429Z" fill="url(#paint6_linear_7_844)"/>
<path fill-rule="evenodd" clip-rule="evenodd" d="M17.7005 31.9681C17.661 32.0779 17.5864 32.1701 17.5117 32.2403C17.4371 32.3149 17.3493 32.3852 17.2659 32.4466C14.6187 34.3914 11.7521 35.8708 8.3191 35.7918C6.54993 35.7479 5.03539 35.2869 3.77985 34.4265C2.52432 33.5705 1.53218 32.3281 0.790274 30.7521C-0.575011 27.8459 -0.00870332 24.9968 1.25122 22.3145C3.31452 17.9202 6.72553 14.8999 11.1462 13.0034C11.2648 12.9551 11.3833 12.9244 11.5062 12.898C11.6248 12.8761 11.7301 12.8585 11.8662 12.8278C11.8706 12.8234 11.8838 12.8234 11.8925 12.8234H11.9013C11.976 12.8014 12.0506 12.8234 12.1033 12.8761C12.1472 12.92 12.1691 12.977 12.1691 13.0385C12.1428 13.8067 12.0023 14.4345 11.6862 14.9657C11.3701 15.4969 10.8916 15.9096 10.2331 16.2827C6.54115 18.3548 3.77107 21.2873 2.77455 25.5324C2.23019 27.824 2.74382 29.8521 3.95545 31.2526C5.16709 32.653 7.09868 33.4563 9.44293 33.2544C11.3043 33.0963 13.0032 32.4247 14.4695 31.2701C14.7065 31.0857 14.9568 30.9584 15.1938 30.8443C15.4353 30.7301 15.6548 30.6336 15.8655 30.5063C16.0894 30.3658 16.3001 30.3087 16.4976 30.3526C16.6952 30.3965 16.8357 30.5238 16.9322 30.6467C17.0288 30.7653 17.121 30.9189 17.1913 31.0287C17.2703 31.1472 17.3361 31.2306 17.402 31.2745C17.5337 31.3623 17.6346 31.4633 17.6917 31.5862C17.7488 31.7179 17.7444 31.8496 17.6961 31.9681H17.7005Z" fill="url(#paint7_linear_7_844)"/>
<path fill-rule="evenodd" clip-rule="evenodd" d="M24.7903 15.3869C24.7244 15.58 24.5884 15.7513 24.3776 15.8961C24.1537 16.0498 23.886 16.199 23.6094 16.3044C23.3372 16.4054 23.0387 16.4712 22.7533 16.4405C22.5646 16.4185 22.4197 16.3351 22.3231 16.199C22.2353 16.0761 22.2046 15.9269 22.1914 15.7995C22.1826 15.6678 22.187 15.5318 22.187 15.4132C22.187 15.2947 22.187 15.1937 22.1739 15.1191C21.6339 12.1207 19.8691 9.12677 17.5249 6.80447C15.1806 4.47778 12.2701 2.84031 9.46925 2.51545C5.13633 2.01938 1.84823 5.57527 2.67355 9.86429C3.01158 11.6159 3.67886 13.2402 4.7544 14.6274C4.96951 14.904 5.08804 15.1586 5.1056 15.3957C5.12755 15.6459 5.04853 15.8478 4.92561 16.0103C4.80708 16.1683 4.64904 16.2956 4.50417 16.401C4.35491 16.5151 4.2276 16.6029 4.13102 16.6995C3.95542 16.8663 3.77544 16.9717 3.58667 16.9717C3.38912 16.9761 3.24425 16.8619 3.15206 16.7522C3.05548 16.6424 2.98524 16.5063 2.92817 16.3922C2.86671 16.2693 2.8272 16.1859 2.78769 16.1288C1.10632 13.8723 0.105408 10.9925 0.105408 8.56046C0.144918 5.62356 1.34777 3.2398 3.23986 1.74281C5.13633 0.25022 7.70008 -0.351208 10.4438 0.23705C17.9287 1.84817 22.2397 6.93617 24.4742 13.9601C24.5137 14.0743 24.5708 14.1972 24.6366 14.3509C24.6981 14.4957 24.7683 14.6625 24.8035 14.8338C24.843 15.005 24.8561 15.1981 24.7903 15.3869Z" fill="url(#paint8_linear_7_844)"/>
<path fill-rule="evenodd" clip-rule="evenodd" d="M31.5069 9.3816C31.6605 8.27971 31.4323 7.3183 30.8177 6.64224C30.247 6.0057 29.3909 5.67645 28.3812 5.65889H28.1793C26.4233 5.69401 24.9439 6.4403 23.64 7.41049C23.5083 7.51146 23.4118 7.56414 23.3459 7.59048C23.3284 7.59926 23.3152 7.60365 23.3064 7.60365C23.2932 7.60804 23.2888 7.60804 23.2845 7.60804C23.2757 7.60804 23.2669 7.59926 23.2493 7.5817C23.2098 7.5378 23.1528 7.45878 23.0781 7.3183C23.0079 7.18221 22.9157 7.05051 22.8455 6.95393C22.8411 6.94515 22.8367 6.93637 22.8323 6.93198C22.8279 6.9232 22.8191 6.91442 22.8147 6.90564C22.7313 6.78272 22.6918 6.71248 22.6743 6.66419C22.6655 6.63785 22.6743 6.63785 22.6743 6.63346C22.6874 6.61151 22.7445 6.5281 22.942 6.40519C24.6497 5.32964 26.2916 4.43847 28.2539 4.43408H28.412C29.9485 4.46481 31.1864 5.11892 31.9371 6.11106C32.6922 7.10319 32.9907 8.46409 32.5868 9.96546L32.5473 10.1103C31.1206 14.9086 27.6832 17.7621 23.0957 19.5137L22.9815 19.5576C22.9815 19.5576 22.9508 19.5708 22.9376 19.5751C22.9333 19.4917 22.9289 19.4127 22.9201 19.3337V19.3161C22.9201 19.2898 22.9157 19.2635 22.9157 19.2415C22.9025 19.044 22.8981 18.8771 22.9113 18.7235C22.9245 18.5742 22.9552 18.4689 22.9991 18.3898C23.043 18.3196 23.1089 18.2494 23.2362 18.1967C24.8956 17.4679 26.4321 16.5856 27.8369 15.3827C29.6851 13.8023 31.1601 11.941 31.5113 9.3816H31.5069Z" fill="url(#paint9_linear_7_844)"/>
<path fill-rule="evenodd" clip-rule="evenodd" d="M37.1261 8.49039V8.48161C37.1129 3.95993 33.8117 0.351359 29.4261 0.0308904C25.9668 -0.223729 23.0474 1.09766 20.3783 3.03364C20.3168 3.07315 20.2378 3.11705 20.1149 3.1829C20.0096 3.24436 19.8779 3.32777 19.7725 3.43313C19.6671 3.54288 19.5749 3.69653 19.5881 3.89408C19.6013 4.08285 19.711 4.26723 19.8866 4.44722C19.992 4.55697 20.0842 4.67549 20.2071 4.81158C20.3168 4.93889 20.4485 5.07498 20.6066 5.17156C20.7734 5.27253 20.9622 5.3296 21.1905 5.29887C21.41 5.26814 21.6382 5.15839 21.8841 4.96962C23.2098 3.95115 24.6761 3.15656 26.3136 2.7439C28.4647 2.19954 30.4445 2.49806 31.9415 3.41557C33.4341 4.33747 34.457 5.88713 34.6853 7.88457C34.9004 9.79422 34.2594 11.5678 33.3244 13.1789C30.7123 17.683 26.8184 20.5058 21.6734 21.454C21.388 21.5067 21.1553 21.5725 20.9841 21.6647C20.8085 21.7569 20.6724 21.8842 20.611 22.0598C20.5539 22.231 20.5715 22.411 20.6198 22.5822C20.668 22.7535 20.7515 22.9422 20.848 23.1486C21.0631 23.5963 21.3529 23.8114 21.7041 23.8685C22.0246 23.9212 22.3714 23.8378 22.6611 23.7763C27.534 22.7886 31.3664 20.1151 34.3341 16.2651C36.0549 14.0306 37.2183 11.458 37.1261 8.49039ZM36.9066 8.49039H36.6871L36.9066 8.486V8.49039Z" fill="url(#paint10_linear_7_844)"/>
<path fill-rule="evenodd" clip-rule="evenodd" d="M34.3604 33.7372C32.5079 35.3922 29.887 36.1648 26.9457 35.66C24.3557 35.2166 22.0114 34.1981 19.9701 32.4377C15.7425 28.7897 12.709 24.4875 12.3973 18.4337L12.5246 18.4249H12.6168L12.8363 18.4293V18.4117H12.6168L12.3973 18.4205C12.4412 16.0543 12.8363 13.5389 14.0392 11.1814C14.127 11.0102 14.2148 10.8654 14.3114 10.7512C14.408 10.6371 14.5265 10.5405 14.6801 10.5098C14.8426 10.479 14.9874 10.5273 15.1191 10.6151C15.2508 10.6985 15.3781 10.8258 15.5142 10.9883C15.8171 11.357 16.0849 11.7082 16.1903 12.1253C16.2956 12.5555 16.2254 13.0208 15.9444 13.6135C14.6933 16.2563 14.6494 19.1405 15.5362 21.9325C17.0419 26.6956 20.0666 30.2471 24.5971 32.3851C27.0862 33.5616 29.571 33.8733 32.0776 32.2226C33.1795 31.4983 33.8863 30.6378 34.2858 29.6677C34.6897 28.6975 34.7907 27.5912 34.6502 26.3664C34.4307 24.4304 33.6756 22.6481 32.5386 21.0589C32.2225 20.6155 32.1128 20.2292 32.2401 19.8648C32.3586 19.5268 32.6615 19.2722 32.982 19.0351C33.2146 18.8639 33.4254 18.7717 33.6273 18.7673C33.8424 18.7629 34.0048 18.8595 34.1234 18.9824C34.2375 19.101 34.3165 19.2502 34.3824 19.3819C34.4482 19.5224 34.4921 19.6278 34.5448 19.7156C35.796 21.814 36.9988 23.987 37.1305 26.5815C37.2754 29.5579 36.213 32.0821 34.3604 33.7372Z" fill="url(#paint11_linear_7_844)"/>
<path fill-rule="evenodd" clip-rule="evenodd" d="M17.4195 22.4198C17.358 22.3013 17.3097 22.2003 17.2834 22.1125C17.5556 22.0423 17.8321 21.9852 18.0868 22.0072C18.3458 22.0291 18.5609 22.1257 18.7233 22.3935C18.9209 22.7271 19.0964 23.0739 19.2808 23.4339L19.3072 23.4866C19.4959 23.8597 19.6979 24.2548 19.9305 24.628C21.331 26.902 23.3152 28.5131 25.6726 29.6501C26.577 30.0891 27.5647 30.3481 28.6139 30.2735L28.7939 30.2559C29.6939 30.155 30.4314 29.7994 30.9319 29.198C31.4279 28.6009 31.643 27.8063 31.586 26.9064L31.5684 26.7264C31.4191 25.304 30.9582 23.9563 30.0934 22.7974C29.9573 22.6086 29.9353 22.5164 29.9309 22.4901H29.9353C29.9353 22.4901 29.9397 22.4813 29.9441 22.4769C29.9836 22.4374 30.0539 22.3891 30.1856 22.3101L30.2119 22.2925C30.3216 22.2267 30.4753 22.1301 30.607 22.0159C30.7738 21.8667 30.8528 21.8447 30.866 21.8447C30.8836 21.8535 30.9582 21.9018 31.0723 22.1037C31.9898 23.6885 32.7317 25.2338 32.7274 27.0074V27.161C32.6835 28.7414 32.0206 29.9706 31.0021 30.7037C29.9485 31.4588 28.4603 31.7222 26.7526 31.2086C22.4021 29.9003 19.4784 26.8888 17.5951 22.771C17.5468 22.6657 17.4722 22.5252 17.4195 22.4198Z" fill="url(#paint12_linear_7_844)"/>
<path fill-rule="evenodd" clip-rule="evenodd" d="M5.79474 25.9979C5.49622 27.3061 5.6806 28.4475 6.38299 29.2333C7.081 30.0148 8.19606 30.3308 9.53061 30.1947C11.2164 30.0235 12.608 29.2246 13.824 28.228C13.9294 28.1402 14.004 28.1007 14.0523 28.0832C14.0742 28.1095 14.105 28.1622 14.1401 28.2544L14.1708 28.3246C14.2586 28.4914 14.3859 28.6275 14.4693 28.7109C14.4825 28.7241 14.4913 28.7373 14.5045 28.7504C14.5176 28.7592 14.5264 28.768 14.5352 28.7812C14.6142 28.8602 14.6669 28.9129 14.702 28.9655C14.702 28.9655 14.7035 28.9685 14.7064 28.9743C14.6888 29.0007 14.6406 29.0533 14.5396 29.1236C12.7704 30.4055 11.0144 31.4327 8.85016 31.4108C5.9835 31.38 4.02996 29.1455 4.54359 26.3491C5.2416 22.5298 7.6078 19.9266 10.8257 17.8545C10.8915 18.2891 10.8696 18.6447 10.7686 18.952C10.6237 19.3866 10.2989 19.7949 9.69304 20.2163C7.70877 21.5992 6.34787 23.579 5.79474 25.9979Z" fill="url(#paint13_linear_7_844)"/>
</g>
<defs>
<linearGradient id="paint0_linear_7_844" x1="12.3973" y1="18.4204" x2="12.8363" y2="18.4204" gradientUnits="userSpaceOnUse">
<stop stop-color="#6C63FF"/>
<stop offset="1" stop-color="#9A6AFF"/>
</linearGradient>
<linearGradient id="paint1_linear_7_844" x1="12.6168" y1="-0.000397655" x2="0.439002" y2="-0.000397655" gradientUnits="userSpaceOnUse">
<stop stop-color="#6C63FF"/>
<stop offset="1" stop-color="#9A6AFF"/>
</linearGradient>
<linearGradient id="paint2_linear_7_844" x1="0.105408" y1="8.56054" x2="0.544406" y2="8.56054" gradientUnits="userSpaceOnUse">
<stop stop-color="#6C63FF"/>
<stop offset="1" stop-color="#9A6AFF"/>
</linearGradient>
<linearGradient id="paint3_linear_7_844" x1="0.32489" y1="8.56494" x2="0.544389" y2="8.56494" gradientUnits="userSpaceOnUse">
<stop stop-color="#6C63FF"/>
<stop offset="1" stop-color="#9A6AFF"/>
</linearGradient>
<linearGradient id="paint4_linear_7_844" x1="36.6872" y1="8.49072" x2="36.9067" y2="8.49072" gradientUnits="userSpaceOnUse">
<stop stop-color="#6C63FF"/>
<stop offset="1" stop-color="#9A6AFF"/>
</linearGradient>
<linearGradient id="paint5_linear_7_844" x1="11.8969" y1="12.8239" x2="11.9065" y2="12.8239" gradientUnits="userSpaceOnUse">
<stop stop-color="#6C63FF"/>
<stop offset="1" stop-color="#9A6AFF"/>
</linearGradient>
<linearGradient id="paint6_linear_7_844" x1="4.4734" y1="9.15317" x2="19.9788" y2="9.15317" gradientUnits="userSpaceOnUse">
<stop stop-color="#6C63FF"/>
<stop offset="1" stop-color="#9A6AFF"/>
</linearGradient>
<linearGradient id="paint7_linear_7_844" x1="7.66606e-05" y1="24.3076" x2="17.74" y2="24.3076" gradientUnits="userSpaceOnUse">
<stop stop-color="#6C63FF"/>
<stop offset="1" stop-color="#9A6AFF"/>
</linearGradient>
<linearGradient id="paint8_linear_7_844" x1="0.105408" y1="8.49461" x2="24.8386" y2="8.49461" gradientUnits="userSpaceOnUse">
<stop stop-color="#6C63FF"/>
<stop offset="1" stop-color="#9A6AFF"/>
</linearGradient>
<linearGradient id="paint9_linear_7_844" x1="22.6699" y1="12.0068" x2="32.7624" y2="12.0068" gradientUnits="userSpaceOnUse">
<stop stop-color="#6C63FF"/>
<stop offset="1" stop-color="#9A6AFF"/>
</linearGradient>
<linearGradient id="paint10_linear_7_844" x1="19.5881" y1="11.9409" x2="37.1305" y2="11.9409" gradientUnits="userSpaceOnUse">
<stop stop-color="#6C63FF"/>
<stop offset="1" stop-color="#9A6AFF"/>
</linearGradient>
<linearGradient id="paint11_linear_7_844" x1="2.00799e-05" y1="23.1573" x2="37.1437" y2="23.1573" gradientUnits="userSpaceOnUse">
<stop stop-color="#6C63FF"/>
<stop offset="1" stop-color="#9A6AFF"/>
</linearGradient>
<linearGradient id="paint12_linear_7_844" x1="17.2834" y1="26.6605" x2="32.7274" y2="26.6605" gradientUnits="userSpaceOnUse">
<stop stop-color="#6C63FF"/>
<stop offset="1" stop-color="#9A6AFF"/>
</linearGradient>
<linearGradient id="paint13_linear_7_844" x1="4.46018" y1="24.6326" x2="14.7064" y2="24.6326" gradientUnits="userSpaceOnUse">
<stop stop-color="#6C63FF"/>
<stop offset="1" stop-color="#9A6AFF"/>
</linearGradient>
<clipPath id="clip0_7_844">
<rect width="188.049" height="35.8135" fill="white"/>
</clipPath>
</defs>
</svg>
