<svg width="131" height="131" viewBox="0 0 131 131" fill="none" xmlns="http://www.w3.org/2000/svg">
<path d="M61.9392 18.8805L61.9645 12.4005L65.7444 12.4152L65.7413 13.2162L62.7623 13.2046L62.7544 15.2431L65.1934 15.2526L65.1903 16.0536L62.7513 16.0441L62.7402 18.8836L61.9392 18.8805ZM70.1342 18.973L71.3584 12.6097L73.8728 13.0934C73.9346 13.1053 74.0077 13.1224 74.092 13.1447C74.1769 13.1641 74.2577 13.1888 74.3344 13.2188C74.6689 13.3382 74.9349 13.5115 75.1325 13.739C75.333 13.9669 75.4653 14.2322 75.5293 14.5347C75.5939 14.8343 75.5936 15.1535 75.5284 15.4923C75.4337 15.9843 75.2234 16.3868 74.8974 16.6999C74.572 17.01 74.153 17.1631 73.6405 17.1592L73.3307 17.15L71.3731 16.7734L70.9208 19.1243L70.1342 18.973ZM73.9213 19.7015L73.1645 16.8706L73.9881 16.7816L74.8228 19.8749L73.9213 19.7015ZM71.5167 16.0266L73.218 16.3539C73.274 16.3646 73.3379 16.3739 73.4098 16.3816C73.4845 16.3899 73.5558 16.3929 73.6234 16.3906C73.8357 16.3826 74.0171 16.3289 74.1676 16.2295C74.3216 16.1278 74.4442 15.9986 74.5354 15.842C74.6272 15.6825 74.6901 15.5144 74.7241 15.3376C74.7581 15.1608 74.7618 14.9828 74.7352 14.8036C74.7092 14.6214 74.6435 14.4545 74.5383 14.3029C74.436 14.1518 74.2874 14.0346 74.0926 13.9513C74.0312 13.9212 73.964 13.8976 73.8909 13.8805C73.8213 13.861 73.7586 13.8458 73.7026 13.8351L72.0013 13.5078L71.5167 16.0266ZM79.2965 20.7973L81.7238 14.7891L85.5206 16.323L85.2358 17.0281L82.1816 15.7943L81.4214 17.676L83.9749 18.7076L83.69 19.4127L81.1365 18.3811L80.324 20.3922L83.3782 21.6261L83.0934 22.3312L79.2965 20.7973ZM87.4209 24.1448L90.9084 18.6834L94.3598 20.8873L93.9505 21.5283L91.1742 19.7555L90.0819 21.466L92.4031 22.9482L91.9938 23.5891L89.6726 22.1069L88.5053 23.935L91.2815 25.7078L90.8722 26.3488L87.4209 24.1448ZM96.3974 30.7229C95.9319 30.2764 95.6355 29.7945 95.5082 29.2773C95.3808 28.7601 95.4071 28.2365 95.5871 27.7066C95.7692 27.1788 96.0909 26.6746 96.552 26.194C97.013 25.7134 97.5035 25.3712 98.0234 25.1674C98.5454 24.9656 99.0674 24.9177 99.5895 25.0236C100.111 25.1295 100.605 25.4057 101.071 25.8523C101.612 26.3715 101.925 26.9358 102.01 27.5451C102.096 28.1565 101.983 28.7583 101.668 29.3504L100.931 28.9424C101.17 28.5024 101.264 28.0645 101.212 27.6285C101.161 27.1924 100.937 26.7844 100.541 26.4043C100.192 26.0699 99.8266 25.8706 99.4433 25.8064C99.0601 25.7422 98.674 25.7958 98.285 25.9672C97.8981 26.1364 97.5239 26.4073 97.1624 26.7797C96.803 27.15 96.5457 27.533 96.3905 27.9287C96.2374 28.3223 96.2009 28.7113 96.281 29.0958C96.3631 29.4782 96.5785 29.8365 96.927 30.1709C97.3231 30.551 97.7401 30.7577 98.1779 30.7911C98.6177 30.8223 99.0514 30.7105 99.479 30.4555L99.9172 31.1753C99.3407 31.5118 98.7441 31.6504 98.1276 31.591C97.5153 31.5315 96.9385 31.2422 96.3974 30.7229ZM103.128 38.0413C102.768 37.5064 102.58 36.9727 102.565 36.4403C102.55 35.9078 102.687 35.4017 102.975 34.9219C103.265 34.4445 103.686 34.0198 104.238 33.6477C104.79 33.2756 105.342 33.0449 105.893 32.9557C106.446 32.869 106.967 32.9327 107.454 33.1467C107.942 33.3606 108.366 33.7351 108.727 34.27C109.089 34.8075 109.277 35.3424 109.292 35.8748C109.307 36.4073 109.17 36.9122 108.88 37.3895C108.59 37.8668 108.169 38.2916 107.617 38.6637C107.065 39.0358 106.513 39.2664 105.962 39.3556C105.41 39.4448 104.891 39.3824 104.403 39.1685C103.915 38.9545 103.49 38.5788 103.128 38.0413ZM103.763 37.6139C104.03 38.0162 104.344 38.2892 104.705 38.4331C105.071 38.5778 105.46 38.6063 105.875 38.5186C106.292 38.4334 106.714 38.2466 107.142 37.9583C107.572 37.6683 107.904 37.3472 108.137 36.995C108.372 36.6452 108.489 36.2748 108.49 35.8837C108.492 35.4951 108.359 35.0997 108.092 34.6974C107.825 34.2952 107.511 34.0221 107.15 33.8783C106.79 33.7369 106.402 33.7088 105.986 33.794C105.57 33.8792 105.145 34.0656 104.713 34.3531C104.284 34.6389 103.952 34.9579 103.719 35.3102C103.486 35.6624 103.367 36.0337 103.363 36.4239C103.362 36.815 103.495 37.2117 103.763 37.6139ZM107.347 44.1695L113.363 41.7615L113.664 42.5135L110.22 47.5323L114.92 45.651L115.221 46.403L109.205 48.811L108.904 48.059L112.352 43.0386L107.648 44.9215L107.347 44.1695ZM111.207 55.5782C111.126 55.1264 111.129 54.7052 111.217 54.3144C111.306 53.9266 111.471 53.5891 111.712 53.302C111.957 53.0173 112.268 52.8045 112.645 52.6636L112.919 53.4555C112.536 53.6309 112.26 53.9015 112.091 54.2671C111.926 54.6352 111.883 55.0407 111.962 55.4836C112.014 55.77 112.105 56.0204 112.235 56.2348C112.368 56.4517 112.531 56.6129 112.724 56.7185C112.916 56.8241 113.128 56.8562 113.358 56.8148C113.5 56.7893 113.617 56.7425 113.708 56.6743C113.803 56.6085 113.878 56.5264 113.933 56.428C113.992 56.3321 114.037 56.2265 114.069 56.1111C114.1 55.9958 114.121 55.8777 114.133 55.7567L114.324 54.0445C114.345 53.8578 114.381 53.6746 114.431 53.4949C114.484 53.3147 114.559 53.1488 114.657 52.9971C114.757 52.8449 114.887 52.715 115.044 52.6075C115.204 52.4994 115.403 52.4242 115.639 52.3818C116.017 52.3139 116.356 52.3535 116.657 52.5007C116.961 52.6502 117.214 52.8806 117.417 53.1917C117.619 53.5029 117.756 53.8699 117.829 54.2926C117.903 54.7213 117.895 55.1175 117.805 55.4811C117.718 55.8472 117.556 56.1659 117.318 56.4372C117.081 56.7115 116.776 56.9218 116.403 57.068L116.106 56.2572C116.358 56.1662 116.564 56.0272 116.722 55.8403C116.884 55.6557 116.995 55.4408 117.054 55.1954C117.117 54.9495 117.125 54.6904 117.079 54.4182C117.035 54.1579 116.952 53.9305 116.829 53.7363C116.705 53.542 116.556 53.3967 116.38 53.3002C116.207 53.2033 116.022 53.1725 115.824 53.2081C115.629 53.2431 115.481 53.3276 115.38 53.4615C115.282 53.5949 115.212 53.7492 115.171 53.9243C115.133 54.1019 115.105 54.2729 115.089 54.4373L114.957 55.7138C114.944 55.8594 114.919 56.0284 114.884 56.2207C114.849 56.416 114.785 56.6104 114.691 56.804C114.601 56.997 114.464 57.1679 114.281 57.3167C114.1 57.4649 113.856 57.5666 113.549 57.6218C113.242 57.677 112.958 57.664 112.696 57.583C112.435 57.5049 112.204 57.3711 112.002 57.1818C111.804 56.9919 111.637 56.7598 111.502 56.4852C111.365 56.2113 111.266 55.9089 111.207 55.5782ZM112.307 64.927C112.319 64.4261 112.433 63.9863 112.649 63.6074C112.865 63.2285 113.162 62.9341 113.539 62.7241C113.919 62.5172 114.361 62.4199 114.865 62.4321L118.977 62.5314L118.962 63.3413L114.913 63.2435C114.607 63.2361 114.339 63.2806 114.109 63.3771C113.881 63.4766 113.69 63.61 113.536 63.7774C113.382 63.9447 113.265 64.1294 113.185 64.3315C113.108 64.5367 113.067 64.7413 113.062 64.9452C113.057 65.1522 113.09 65.36 113.16 65.5688C113.23 65.7775 113.336 65.9677 113.479 66.1392C113.625 66.3137 113.811 66.4548 114.036 66.5622C114.262 66.6697 114.526 66.7271 114.829 66.7344L118.877 66.8323L118.858 67.6421L114.742 67.5426C114.241 67.5305 113.805 67.4104 113.436 67.1824C113.066 66.9574 112.783 66.6505 112.585 66.2616C112.387 65.8727 112.294 65.4278 112.307 64.927ZM112.183 72.4388L118.524 73.7731L118.359 74.5569L112.762 73.3792L112.143 76.3208L111.399 76.1642L112.183 72.4388ZM109.995 81.1374L115.301 83.2705L116.125 81.2204L116.831 81.504L114.884 86.3474L114.179 86.0638L115.003 84.0137L109.696 81.8806L109.995 81.1374ZM107.515 87.3685L111.798 92.6931L111.196 93.6325L104.57 91.959L105.02 91.2583L111.176 92.7965L111.04 93.0086L107.066 88.0692L107.515 87.3685ZM108.228 89.0661L108.861 89.4719L107.043 92.3049L106.411 91.8992L108.228 89.0661ZM101.284 96.3891L105.432 100.327L106.953 98.7242L107.505 99.2478L103.911 103.034L103.359 102.51L104.88 100.908L100.732 96.9701L101.284 96.3891ZM96.0578 101.789L100 106.932L99.3643 107.419L95.4221 102.276L96.0578 101.789ZM88.9875 106.385C89.5595 106.087 90.1109 105.961 90.6416 106.005C91.1724 106.05 91.66 106.243 92.1045 106.583C92.5464 106.924 92.9212 107.39 93.229 107.981C93.5368 108.571 93.7041 109.145 93.731 109.703C93.7551 110.262 93.6335 110.772 93.3662 111.233C93.0989 111.694 92.6792 112.073 92.1072 112.371C91.5326 112.671 90.9799 112.798 90.4491 112.753C89.9183 112.709 89.432 112.515 88.9902 112.174C88.5484 111.833 88.1736 111.367 87.8657 110.776C87.5579 110.185 87.3906 109.611 87.3638 109.053C87.337 108.496 87.4572 107.986 87.7246 107.526C87.9919 107.065 88.4129 106.685 88.9875 106.385ZM89.3411 107.064C88.9114 107.284 88.6048 107.566 88.4214 107.908C88.2366 108.255 88.1646 108.639 88.2052 109.061C88.2432 109.485 88.3815 109.925 88.6199 110.383C88.8598 110.843 89.1417 111.209 89.4656 111.48C89.7869 111.752 90.1418 111.91 90.5303 111.955C90.9162 112.001 91.324 111.913 91.7537 111.693C92.1834 111.472 92.4899 111.191 92.6734 110.848C92.8542 110.507 92.9256 110.125 92.8876 109.701C92.8496 109.278 92.712 108.835 92.4748 108.374C92.239 107.915 91.9591 107.55 91.6352 107.279C91.3113 107.008 90.9557 106.848 90.5684 106.8C90.1799 106.755 89.7708 106.843 89.3411 107.064ZM82.4227 109.891L84.1453 116.138L83.3645 116.354L78.7608 112.372L80.1066 117.252L79.3257 117.467L77.6031 111.22L78.3839 111.005L82.9888 114.991L81.6418 110.107L82.4227 109.891ZM67.3142 113L67.0407 119.474L63.264 119.314L63.2978 118.514L66.2742 118.64L66.3602 116.603L63.9234 116.5L63.9572 115.7L66.394 115.803L66.5139 112.966L67.3142 113ZM59.125 112.593L57.6648 118.906L55.1701 118.33C55.1088 118.315 55.0364 118.295 54.9529 118.27C54.8689 118.248 54.789 118.22 54.7135 118.187C54.3837 118.055 54.1243 117.872 53.9353 117.637C53.7434 117.402 53.6211 117.132 53.5684 116.827C53.515 116.526 53.5272 116.207 53.605 115.871C53.7179 115.382 53.943 114.988 54.2805 114.687C54.6172 114.39 55.0416 114.252 55.5536 114.275L55.8629 114.296L57.8051 114.745L58.3446 112.413L59.125 112.593ZM55.3677 111.724L56.0186 114.581L55.1922 114.64L54.4733 111.517L55.3677 111.724ZM57.6337 115.486L55.9458 115.096C55.8903 115.083 55.8268 115.071 55.7553 115.061C55.6808 115.05 55.6098 115.044 55.5421 115.044C55.3296 115.044 55.1463 115.091 54.9922 115.185C54.8346 115.28 54.7072 115.405 54.6102 115.558C54.5126 115.714 54.4435 115.88 54.4029 116.055C54.3623 116.231 54.352 116.408 54.372 116.588C54.3912 116.771 54.4506 116.941 54.5501 117.096C54.6467 117.251 54.7908 117.373 54.9823 117.464C55.0426 117.496 55.1089 117.522 55.1813 117.542C55.2501 117.564 55.3123 117.582 55.3678 117.595L57.0557 117.985L57.6337 115.486ZM50.0368 110.429L47.3896 116.344L43.6519 114.671L43.9626 113.977L46.9692 115.322L47.7983 113.47L45.2846 112.345L45.5952 111.651L48.1089 112.776L48.995 110.796L45.9884 109.45L46.2991 108.756L50.0368 110.429ZM42.0405 106.784L38.3558 112.114L34.9873 109.786L35.4197 109.16L38.1294 111.033L39.2834 109.364L37.0179 107.798L37.4504 107.172L39.7158 108.738L40.9492 106.954L38.2395 105.081L38.6719 104.455L42.0405 106.784ZM33.3167 99.882C33.7648 100.346 34.0427 100.839 34.1503 101.36C34.2579 101.882 34.2117 102.404 34.0117 102.927C33.8096 103.447 33.469 103.939 32.99 104.402C32.5109 104.864 32.0078 105.188 31.4805 105.372C30.9512 105.553 30.4278 105.581 29.9101 105.456C29.3925 105.33 28.9097 105.035 28.4616 104.571C27.9405 104.032 27.6492 103.456 27.5877 102.844C27.5242 102.23 27.6608 101.633 27.9976 101.053L28.7188 101.489C28.4631 101.919 28.3526 102.353 28.3875 102.791C28.4223 103.229 28.6304 103.645 29.0118 104.04C29.3474 104.387 29.7054 104.6 30.0859 104.679C30.4665 104.758 30.8543 104.719 31.2496 104.562C31.6426 104.408 32.0268 104.152 32.4022 103.793C32.7755 103.437 33.0471 103.064 33.2173 102.674C33.3852 102.287 33.4365 101.9 33.3711 101.512C33.3036 101.127 33.102 100.761 32.7664 100.413C32.385 100.019 31.9762 99.7961 31.5401 99.7461C31.1017 99.6982 30.6641 99.7935 30.2271 100.032L29.8166 99.2961C30.4055 98.9817 31.0069 98.8659 31.6207 98.9487C32.2303 99.0314 32.7957 99.3425 33.3167 99.882ZM26.8584 92.3101C27.1994 92.8576 27.3679 93.3977 27.3639 93.9303C27.3599 94.463 27.2054 94.9639 26.9003 95.4331C26.5937 95.8998 26.1577 96.3092 25.5924 96.6613C25.0271 97.0134 24.4674 97.2241 23.9133 97.2935C23.3576 97.3604 22.8399 97.2782 22.3601 97.0469C21.8803 96.8156 21.4699 96.4262 21.1289 95.8787C20.7863 95.3287 20.617 94.7873 20.621 94.2547C20.625 93.7221 20.7803 93.2224 21.087 92.7557C21.3936 92.2891 21.8296 91.8797 22.3949 91.5276C22.9602 91.1755 23.5199 90.9647 24.074 90.8953C24.6281 90.8259 25.145 90.9068 25.6248 91.1381C26.1046 91.3694 26.5158 91.7601 26.8584 92.3101ZM26.2091 92.7146C25.9563 92.303 25.6521 92.0189 25.2965 91.8622C24.9367 91.7045 24.5481 91.6621 24.1304 91.7349C23.7112 91.8052 23.2826 91.9767 22.8446 92.2495C22.404 92.5239 22.0611 92.8329 21.8157 93.1766C21.5687 93.5178 21.4379 93.8838 21.4233 94.2745C21.4071 94.6628 21.5254 95.0627 21.7782 95.4743C22.031 95.8858 22.3352 96.17 22.6908 96.3267C23.0448 96.4808 23.4315 96.5228 23.8507 96.4525C24.2699 96.3822 24.7006 96.2112 25.1427 95.9393C25.5823 95.6691 25.9248 95.3621 26.1702 95.0184C26.4156 94.6747 26.5476 94.308 26.5664 93.9181C26.581 93.5273 26.4619 93.1261 26.2091 92.7146ZM22.8651 86.0408L16.7618 88.218L16.4897 87.4551L20.1224 82.5711L15.3542 84.272L15.0821 83.5091L21.1854 81.332L21.4575 82.0949L17.8205 86.9803L22.593 85.2779L22.8651 86.0408ZM19.4383 74.4887C19.5027 74.9432 19.4836 75.3641 19.381 75.7513C19.2779 76.1356 19.1006 76.4667 18.8492 76.7448C18.5943 77.0203 18.2759 77.2215 17.894 77.3484L17.6485 76.5469C18.0377 76.3857 18.3235 76.1255 18.5059 75.7663C18.6849 75.4046 18.7428 75.001 18.6796 74.5554C18.6388 74.2673 18.5574 74.0137 18.4354 73.7947C18.31 73.5731 18.153 73.406 17.9644 73.2933C17.7757 73.1807 17.5655 73.1408 17.3338 73.1737C17.1912 73.1939 17.073 73.2364 16.9792 73.3012C16.882 73.3635 16.8038 73.4427 16.7448 73.539C16.6823 73.6327 16.6334 73.7366 16.5981 73.8507C16.5627 73.9648 16.5369 74.082 16.5207 74.2025L16.2669 75.9065C16.2387 76.0923 16.1963 76.2741 16.1397 76.4518C16.0801 76.6299 15.9987 76.793 15.8955 76.9409C15.7892 77.0893 15.6555 77.2143 15.4941 77.316C15.3298 77.4181 15.1289 77.4859 14.8913 77.5196C14.5111 77.5735 14.1734 77.5214 13.8783 77.3633C13.5798 77.2026 13.3352 76.9631 13.1446 76.6447C12.954 76.3263 12.8301 75.9545 12.7729 75.5293C12.7148 75.0982 12.7374 74.7026 12.8409 74.3425C12.941 73.9799 13.1148 73.6674 13.3625 73.405C13.6096 73.1397 13.9223 72.9408 14.3005 72.8084L14.5669 73.6296C14.3118 73.7113 14.1017 73.8426 13.9365 74.0236C13.7679 74.202 13.6493 74.4127 13.5807 74.6558C13.5092 74.8992 13.4913 75.1578 13.5271 75.4315C13.5612 75.6933 13.6362 75.9235 13.7523 76.1222C13.8683 76.3209 14.0124 76.4716 14.1846 76.5745C14.3537 76.6778 14.5378 76.7153 14.7368 76.6871C14.9329 76.6593 15.0838 76.5803 15.1896 76.4502C15.2924 76.3204 15.3678 76.1689 15.416 75.9954C15.4607 75.8194 15.4942 75.6495 15.5164 75.4857L15.6953 74.215C15.7141 74.07 15.7448 73.902 15.7874 73.7111C15.8296 73.5173 15.9009 73.3253 16.0012 73.1354C16.0986 72.9458 16.2417 72.7801 16.4307 72.6382C16.6167 72.4967 16.8641 72.404 17.173 72.3602C17.4819 72.3164 17.7655 72.3398 18.0238 72.4304C18.2817 72.5181 18.5079 72.6603 18.7024 72.8569C18.894 73.054 19.052 73.2921 19.1764 73.5714C19.3038 73.8503 19.3911 74.1561 19.4383 74.4887ZM18.6836 65.1046C18.6531 65.6047 18.5228 66.0401 18.2928 66.4107C18.0627 66.7814 17.7554 67.0647 17.3707 67.2606C16.9832 67.4533 16.538 67.5343 16.0349 67.5036L11.9296 67.2527L11.9745 66.4439L16.0169 66.6909C16.3224 66.7096 16.592 66.675 16.8258 66.5871C17.0568 66.496 17.2523 66.3697 17.4125 66.2082C17.5726 66.0466 17.6964 65.8663 17.7837 65.6673C17.8681 65.4651 17.9166 65.2622 17.9291 65.0585C17.9417 64.8519 17.9169 64.643 17.8546 64.4318C17.7924 64.2206 17.693 64.0267 17.5566 63.8501C17.4173 63.6702 17.237 63.5225 17.0156 63.4067C16.7942 63.291 16.5323 63.2239 16.2299 63.2054L12.1875 62.9584L12.2369 62.1499L16.3467 62.4011C16.8468 62.4316 17.2773 62.5676 17.6382 62.8091C17.9993 63.0476 18.2715 63.3648 18.4547 63.7607C18.6379 64.1566 18.7142 64.6046 18.6836 65.1046ZM19.0839 57.6053L12.7982 56.0305L12.9928 55.2535L18.5408 56.6435L19.2714 53.7276L20.0091 53.9125L19.0839 57.6053ZM21.6011 48.9908L16.3763 46.6642L15.4774 48.6826L14.7827 48.3732L16.9062 43.6047L17.6009 43.914L16.7021 45.9324L21.927 48.2591L21.6011 48.9908ZM24.307 42.8559L20.2257 37.3752L20.8629 36.459L27.4212 38.3785L26.9459 39.0619L20.8515 37.2952L20.9953 37.0883L24.7824 42.1725L24.307 42.8559ZM23.6581 41.1329L23.0412 40.7038L24.9632 37.9405L25.5801 38.3696L23.6581 41.1329ZM30.8719 34.0711L26.8712 29.9836L25.2922 31.5292L24.7602 30.9857L28.4907 27.3344L29.0226 27.8778L27.4436 29.4234L31.4443 33.5108L30.8719 34.0711ZM36.2903 28.8699L32.5471 23.5804L33.201 23.1177L36.9441 28.4072L36.2903 28.8699ZM43.5341 24.5379C42.9517 24.8151 42.396 24.9216 41.8672 24.8576C41.3384 24.7936 40.8581 24.5836 40.4263 24.2277C39.9971 23.8704 39.6395 23.3911 39.3533 22.7897C39.0671 22.1883 38.9208 21.6084 38.9142 21.0501C38.9104 20.4904 39.0504 19.9852 39.3343 19.5345C39.6182 19.0838 40.0514 18.7199 40.6338 18.4428C41.2189 18.1644 41.7759 18.0571 42.3047 18.1211C42.8335 18.1851 43.3125 18.3958 43.7416 18.753C44.1707 19.1103 44.5284 19.5896 44.8146 20.191C45.1007 20.7924 45.2471 21.3723 45.2536 21.9306C45.2602 22.489 45.1215 22.9935 44.8376 23.4442C44.5537 23.8949 44.1192 24.2595 43.5341 24.5379ZM43.2054 23.8471C43.6428 23.6423 43.9594 23.3721 44.1552 23.0364C44.3523 22.6967 44.4383 22.3153 44.413 21.8921C44.3904 21.4676 44.2683 21.0224 44.0466 20.5565C43.8236 20.0878 43.5551 19.7122 43.2413 19.4296C42.9301 19.1458 42.5812 18.9746 42.1946 18.9161C41.8106 18.8562 41.3999 18.9287 40.9625 19.1336C40.5251 19.3384 40.2085 19.6086 40.0127 19.9443C39.8197 20.2787 39.7344 20.6581 39.757 21.0826C39.7796 21.5071 39.901 21.9543 40.1213 22.4242C40.3403 22.8915 40.6067 23.2664 40.9206 23.5489C41.2344 23.8315 41.584 24.004 41.9692 24.0666C42.3559 24.1251 42.768 24.052 43.2054 23.8471ZM50.3423 21.2152L48.596 14.975L49.376 14.7567L53.9948 18.7212L52.6305 13.8459L53.4105 13.6277L55.1568 19.8679L54.3768 20.0862L49.7568 16.1174L51.1223 20.9969L50.3423 21.2152Z" fill="white"/>
<path d="M52.9302 53.5386H77.9624V78.212" stroke="white" stroke-width="6"/>
<path d="M52.8943 78.4951L76.8849 54.5045" stroke="white" stroke-width="6"/>
<circle cx="57.9268" cy="15.4521" r="1.63818" fill="white"/>
<circle cx="73.095" cy="116.322" r="1.63818" fill="white"/>
</svg>
