<svg width="101" height="24" viewBox="0 0 101 24" fill="none" xmlns="http://www.w3.org/2000/svg">
<path d="M89.7328 17.7751C89.7328 18.9518 89.5489 19.8343 89.1812 20.4227C88.8135 21.011 88.0735 21.3052 86.9611 21.3052H79.501C78.7472 21.3052 78.1543 21.0845 77.7222 20.6433C77.2993 20.202 77.0879 19.5999 77.0879 18.8369V2.59295L77.2809 2.3999H89.0571C89.1214 2.71246 89.1628 3.00664 89.1812 3.28242C89.1996 3.55821 89.2088 3.81561 89.2088 4.05463C89.2088 4.29365 89.1766 4.58782 89.1122 4.93715C89.0571 5.27729 88.9744 5.60824 88.864 5.92999H83.1001C82.6588 5.92999 82.0337 5.9208 81.2247 5.90241C81.2247 6.27932 81.2293 6.61486 81.2385 6.90904C81.2477 7.19402 81.2523 7.52037 81.2523 7.88808V10.0668C81.6108 10.0668 81.9601 10.0668 82.3003 10.0668C82.6404 10.0576 82.907 10.053 83.1001 10.053H87.4437C87.5265 10.3104 87.5862 10.6046 87.623 10.9355C87.669 11.2573 87.6919 11.5331 87.6919 11.7629C87.6919 12.0019 87.669 12.2823 87.623 12.6041C87.5862 12.9166 87.5265 13.2062 87.4437 13.4728H83.1001C82.907 13.4728 82.6404 13.4728 82.3003 13.4728C81.9601 13.4728 81.6108 13.4682 81.2523 13.459V15.9135C81.2523 16.2537 81.2477 16.5662 81.2385 16.8512C81.2293 17.1362 81.2247 17.4579 81.2247 17.8165V17.8302C81.5373 17.8211 81.8544 17.8119 82.1762 17.8027C82.5071 17.7843 82.8611 17.7751 83.238 17.7751H89.7328Z" fill="white"/>
<path d="M74.3983 17.6786C74.3983 19.0208 74.1822 19.9631 73.7502 20.5055C73.3181 21.0386 72.5826 21.3052 71.5438 21.3052H65.1731C64.4285 21.3052 63.8356 21.0892 63.3943 20.6571C62.9531 20.2159 62.7324 19.6091 62.7324 18.8369V2.41376L62.9255 2.2207H64.4699C65.2881 2.2207 65.904 2.43214 66.3177 2.85502C66.7405 3.27789 66.952 3.95817 66.952 4.89585V17.7752C67.8437 17.7108 68.6986 17.6786 69.5168 17.6786H74.3983Z" fill="white"/>
<path d="M43.3145 11.8043C43.3145 9.84617 43.6086 8.13169 44.197 6.66082C44.7853 5.18995 45.677 4.04543 46.8721 3.22726C48.0764 2.40909 49.5978 2 51.4364 2C53.2934 2 54.8194 2.41368 56.0145 3.24105C57.2188 4.06841 58.1105 5.21753 58.6896 6.6884C59.278 8.15927 59.5722 9.86456 59.5722 11.8043C59.5722 13.7624 59.278 15.4814 58.6896 16.9615C58.1013 18.4324 57.205 19.5815 56.0007 20.4089C54.8056 21.227 53.2842 21.6361 51.4364 21.6361C49.5886 21.6361 48.0626 21.2224 46.8583 20.3951C45.6541 19.5677 44.7623 18.414 44.1832 16.9339C43.604 15.4539 43.3145 13.744 43.3145 11.8043ZM47.6995 11.8043C47.6995 12.5489 47.7409 13.3073 47.8236 14.0795C47.9155 14.8425 48.0902 15.555 48.3476 16.2169C48.605 16.8696 48.9773 17.3982 49.4645 17.8027C49.9609 18.198 50.6182 18.3956 51.4364 18.3956C52.2638 18.3956 52.9211 18.198 53.4083 17.8027C53.9047 17.3982 54.2816 16.8696 54.539 16.2169C54.7964 15.555 54.9665 14.8425 55.0492 14.0795C55.132 13.3073 55.1733 12.5489 55.1733 11.8043C55.1733 11.0596 55.132 10.3058 55.0492 9.5428C54.9665 8.7706 54.7964 8.06274 54.539 7.41924C54.2816 6.76654 53.9047 6.24254 53.4083 5.84724C52.9211 5.44275 52.2638 5.24051 51.4364 5.24051C50.6182 5.24051 49.9609 5.44275 49.4645 5.84724C48.9773 6.24254 48.605 6.76654 48.3476 7.41924C48.0902 8.06274 47.9155 8.7706 47.8236 9.5428C47.7409 10.3058 47.6995 11.0596 47.6995 11.8043Z" fill="white"/>
<path d="M34.6416 8.41208C34.9082 8.04436 35.2529 7.59851 35.6758 7.07451C36.1078 6.54132 36.5031 6.07708 36.8617 5.68178L36.7789 5.59904C36.3652 5.6542 35.8918 5.70017 35.3586 5.73694C34.8346 5.77371 34.3198 5.80129 33.8142 5.81967C33.3086 5.82887 32.8765 5.83346 32.518 5.83346H28.4915C28.4271 5.58525 28.3858 5.34624 28.3674 5.11641C28.349 4.88659 28.3398 4.65677 28.3398 4.42694C28.3398 4.05923 28.3628 3.71909 28.4088 3.40653C28.4547 3.08478 28.5237 2.74923 28.6156 2.3999H40.7089C40.8928 3.0526 41.0261 3.54902 41.1088 3.88916C41.1915 4.2201 41.2421 4.45912 41.2605 4.60621C41.2789 4.75329 41.2881 4.88199 41.2881 4.99231C41.2881 5.23133 41.2559 5.47494 41.1915 5.72315C41.1272 5.97136 41.0031 6.22416 40.8192 6.48157L34.5726 15.1827C34.2968 15.5596 33.9567 16.0009 33.5522 16.5065C33.1477 17.0029 32.7662 17.4441 32.4077 17.8302L32.4904 17.913C33.088 17.867 33.7682 17.8256 34.5313 17.7889C35.2943 17.7429 35.9562 17.7199 36.5169 17.7199H38.2406C38.9209 17.7199 39.5184 17.6602 40.0332 17.5407C40.5572 17.4212 41.0031 17.2741 41.3708 17.0994C41.4443 17.3568 41.5087 17.6556 41.5639 17.9957C41.6282 18.3359 41.6604 18.6714 41.6604 19.0023C41.6604 19.7562 41.403 20.3169 40.8882 20.6846C40.3734 21.0524 39.7069 21.2362 38.8887 21.2362H28.3398C28.2019 20.6203 28.1008 20.1515 28.0364 19.8297C27.9721 19.508 27.9307 19.2689 27.9123 19.1127C27.894 18.9564 27.8848 18.8185 27.8848 18.699C27.8848 18.4416 27.9261 18.175 28.0089 17.8992C28.0916 17.6142 28.2203 17.3568 28.395 17.127L34.6416 8.41208Z" fill="white"/>
<path d="M10 11.8043C10 9.84617 10.2942 8.13169 10.8825 6.66082C11.4709 5.18995 12.3626 4.04543 13.5577 3.22726C14.7619 2.40909 16.2834 2 18.122 2C19.9789 2 21.505 2.41368 22.7 3.24105C23.9043 4.06841 24.796 5.21753 25.3752 6.6884C25.9635 8.15927 26.2577 9.86456 26.2577 11.8043C26.2577 13.7624 25.9635 15.4814 25.3752 16.9615C24.7868 18.4324 23.8905 19.5815 22.6863 20.4089C21.4912 21.227 19.9697 21.6361 18.122 21.6361C16.2742 21.6361 14.7482 21.2224 13.5439 20.3951C12.3396 19.5677 11.4479 18.414 10.8687 16.9339C10.2896 15.4539 10 13.744 10 11.8043ZM14.385 11.8043C14.385 12.5489 14.4264 13.3073 14.5091 14.0795C14.6011 14.8425 14.7757 15.555 15.0331 16.2169C15.2905 16.8696 15.6628 17.3982 16.1501 17.8027C16.6465 18.198 17.3038 18.3956 18.122 18.3956C18.9493 18.3956 19.6066 18.198 20.0938 17.8027C20.5903 17.3982 20.9672 16.8696 21.2246 16.2169C21.482 15.555 21.652 14.8425 21.7348 14.0795C21.8175 13.3073 21.8589 12.5489 21.8589 11.8043C21.8589 11.0596 21.8175 10.3058 21.7348 9.5428C21.652 8.7706 21.482 8.06274 21.2246 7.41924C20.9672 6.76654 20.5903 6.24254 20.0938 5.84724C19.6066 5.44275 18.9493 5.24051 18.122 5.24051C17.3038 5.24051 16.6465 5.44275 16.1501 5.84724C15.6628 6.24254 15.2905 6.76654 15.0331 7.41924C14.7757 8.06274 14.6011 8.7706 14.5091 9.5428C14.4264 10.3058 14.385 11.0596 14.385 11.8043Z" fill="white"/>
</svg>
