<svg width="190" height="38" viewBox="0 0 190 38" fill="none" xmlns="http://www.w3.org/2000/svg">
<g clip-path="url(#clip0_76_21)">
<g clip-path="url(#clip1_76_21)">
<g clip-path="url(#clip2_76_21)">
<mask id="mask0_76_21" style="mask-type:luminance" maskUnits="userSpaceOnUse" x="1" y="1" width="189" height="36">
<path d="M189.049 1H1V36.8135H189.049V1Z" fill="white"/>
</mask>
<g mask="url(#mask0_76_21)">
<path d="M49.4391 8.62957C50.2337 8.54616 50.2908 9.08612 50.5761 9.52951C52.8545 13.081 55.0934 16.6632 57.3411 20.2323C57.4596 20.4167 57.5825 20.5923 57.7055 20.7723C58.0742 20.5923 57.8942 20.3069 57.8942 20.0743C57.8855 16.5272 57.8855 12.98 57.8459 9.43293C57.8372 8.79639 58.0391 8.63835 58.6581 8.62518C61.5686 8.55933 61.5467 8.53738 61.5467 11.4084C61.5467 16.3955 61.5555 21.3869 61.6169 26.3739C61.6257 27.2299 61.3887 27.4758 60.5677 27.3968C59.8346 27.3265 59.0883 27.3792 58.3508 27.3748C57.6308 27.3748 57.1523 27.3616 56.8143 26.3914C56.4807 25.4213 55.809 24.4818 55.2383 23.5599C53.6228 20.9566 51.9897 18.3622 50.3566 15.7677C50.2469 15.5921 50.102 15.4384 49.8123 15.0697C49.8123 16.6676 49.8079 18.011 49.8123 19.3543C49.8254 21.7205 49.8123 24.0867 49.8825 26.4485C49.9045 27.2036 49.6586 27.4319 48.9518 27.3704C48.0387 27.2914 46.8315 27.7567 46.2959 27.1904C45.8525 26.7207 46.173 25.5178 46.173 24.6398C46.173 19.7977 46.1686 14.9599 46.1905 10.1178C46.1993 8.43202 46.0237 8.68225 47.6919 8.65591C48.0563 8.65152 49.4303 8.65591 49.4303 8.62518L49.4391 8.62957Z" fill="#2C2C2C"/>
<path d="M115.587 21.6946C115.798 20.8079 115.359 20.764 114.582 21.0318C113.814 21.2952 113.006 21.4269 112.233 21.6683C111.325 21.9493 110.754 22.5507 110.877 23.5516C111.004 24.5833 111.79 24.9301 112.699 25.0047C114.472 25.1583 115.535 23.9599 115.596 21.6903L115.587 21.6946ZM119.218 21.2293C119.394 23.0863 118.95 25.0442 119.841 26.8617C120.07 27.3314 119.74 27.3402 119.42 27.3402C118.573 27.3446 117.721 27.3226 116.869 27.3621C116.198 27.3928 116.206 26.9451 116.145 26.4973C116.053 25.8256 115.855 25.6895 115.276 26.2119C113.476 27.8318 111.338 27.9767 109.152 27.2919C108.19 26.989 107.62 26.1241 107.339 25.0925C106.663 22.599 107.317 21.023 109.775 20.0001C111.255 19.3855 112.866 19.3241 114.38 18.8587C114.85 18.7138 115.434 18.6085 115.548 18.0202C115.653 17.4715 115.359 17.0325 114.907 16.712C113.634 15.8033 111.816 16.1589 111.053 17.4978C110.912 17.7393 110.837 17.9588 110.508 17.9105C109.705 17.7963 108.901 17.6822 108.098 17.5724C107.628 17.5066 107.615 17.23 107.725 16.8525C108.177 15.3423 108.994 14.1834 110.644 13.8234C112.536 13.4151 114.437 13.3581 116.312 13.8805C118.243 14.4204 119.091 15.4433 119.2 17.4144C119.266 18.6656 119.214 19.9255 119.214 21.2205L119.218 21.2293Z" fill="#2C2C2C"/>
<path d="M136.405 19.4117C137.068 19.4117 137.735 19.3942 138.402 19.4161C138.911 19.4337 139.126 19.2888 139.065 18.7137C138.911 17.3528 137.972 16.387 136.615 16.2817C135.189 16.1719 134.074 16.9884 133.736 18.3318C133.534 19.1351 133.727 19.5215 134.631 19.4249C135.215 19.3634 135.812 19.4117 136.405 19.4117ZM138.055 21.633C136.765 21.633 135.47 21.6506 134.175 21.6243C133.599 21.6111 133.494 21.8438 133.573 22.3618C133.779 23.6919 134.587 24.5963 135.887 24.8685C137.032 25.1099 137.954 24.6973 138.648 23.5471C138.854 23.209 139.021 23.0817 139.421 23.1476C140.184 23.2793 140.957 23.3846 141.73 23.4373C142.419 23.4812 142.432 23.8017 142.199 24.3109C141.822 25.1275 141.313 25.843 140.606 26.405C136.971 29.2936 131.203 27.4278 130.105 22.9413C129.521 20.5575 129.591 18.2045 131.036 16.0095C132.59 13.6433 134.903 13.2921 137.375 13.5335C139.987 13.7925 141.598 15.4168 142.371 17.8752C142.669 18.8278 142.691 19.8375 142.775 20.8297C142.832 21.5145 142.524 21.6374 141.94 21.6199C140.65 21.5935 139.355 21.6111 138.06 21.6111V21.6287L138.055 21.633Z" fill="#2C2C2C"/>
<path d="M182.728 19.4161V19.4073C183.43 19.4073 184.128 19.3941 184.831 19.4073C185.327 19.4161 185.454 19.1966 185.401 18.7269C185.256 17.4055 184.361 16.4353 183.092 16.2773C181.705 16.1017 180.634 16.7733 180.182 18.1035C179.813 19.1878 179.962 19.4029 181.073 19.4117C181.626 19.4161 182.179 19.4117 182.732 19.4117L182.728 19.4161ZM184.326 21.6287C183.11 21.6287 181.885 21.6813 180.669 21.6111C179.87 21.5628 179.826 21.8745 179.967 22.511C180.287 23.951 180.998 24.8377 182.421 24.8948C183.426 24.9343 184.523 24.649 185.05 23.5251C185.138 23.3364 185.169 23.0642 185.472 23.0993C186.499 23.2222 187.526 23.3364 188.549 23.49C188.891 23.5427 188.76 23.8193 188.672 24.0124C188.259 24.886 187.807 25.7508 187.008 26.3303C184.817 27.9239 182.394 28.0512 179.949 27.1381C177.732 26.3084 176.648 24.4558 176.314 22.2169C175.941 19.6971 176.314 17.3177 178.022 15.2588C178.461 14.7276 178.979 14.3852 179.558 14.1262C183.821 12.2209 188.597 14.293 188.97 19.3415C189.137 21.6067 189.207 21.6023 186.977 21.6067C186.091 21.6067 185.204 21.6067 184.317 21.6067V21.633L184.326 21.6287Z" fill="#2C2C2C"/>
<path d="M71.3363 19.4076C71.9992 19.4076 72.6665 19.3681 73.325 19.4164C74.0186 19.4691 74.1152 19.175 74.0274 18.5691C73.8254 17.2434 72.9386 16.3961 71.5777 16.3083C69.9491 16.2073 69.0491 16.879 68.6716 18.3892C68.4916 19.1179 68.5443 19.5262 69.4618 19.4164C70.0808 19.3418 70.7129 19.4032 71.3407 19.3988L71.3363 19.4076ZM73.1362 21.6246C71.8807 21.6246 70.6207 21.6685 69.3652 21.607C68.5355 21.5675 68.4521 21.888 68.6321 22.5816C68.9964 23.982 69.9447 24.9829 71.3012 24.9171C72.1001 24.8819 73.0308 24.6054 73.4391 23.7054C73.6586 23.2181 73.9439 23.0777 74.462 23.1742C75.1863 23.3103 75.9238 23.3806 76.657 23.4771C77.4296 23.5825 77.6052 24.0171 77.1355 24.6844C74.5278 28.372 70.2739 28.8461 66.9463 26.2121C65.0279 24.6932 64.6108 22.2479 64.782 19.851C64.9401 17.6341 65.7039 15.6542 67.6707 14.3548C71.3451 11.9271 76.736 14.1967 77.5569 18.4989C77.952 20.5798 77.1091 21.6202 75.0239 21.6158H73.1362V21.6246Z" fill="#2C2C2C"/>
<path d="M145.694 20.5003C145.694 18.5072 145.712 16.5142 145.685 14.5211C145.676 13.9065 145.865 13.6431 146.506 13.6914C147.094 13.7353 147.687 13.7046 148.28 13.7046C148.872 13.7046 149.355 13.6783 149.259 14.5519C149.219 14.9338 149.592 15.1884 150.014 14.7889C151.572 13.3183 153.464 13.2919 155.361 13.7485C157.09 14.1655 157.986 15.4781 158.162 17.199C158.451 19.9954 158.258 22.805 158.328 25.6102C158.372 27.3882 158.346 27.3882 156.52 27.3882C154.61 27.3882 154.614 27.3882 154.614 25.461C154.61 23.2835 154.614 21.1061 154.571 18.9287C154.54 17.2956 153.938 16.4966 152.718 16.3342C151.146 16.1279 150.084 16.8171 149.597 18.3404C149.439 18.8409 149.403 19.3501 149.403 19.8725C149.403 22.05 149.377 24.2274 149.425 26.4048C149.443 27.1423 149.294 27.4277 148.477 27.4321C145.716 27.4409 145.716 27.476 145.716 24.7191V20.5091H145.69L145.694 20.5003Z" fill="#2C2C2C"/>
<path d="M89.673 25.4085C89.0277 26.0934 88.4746 26.5587 87.8644 26.9538C86.0952 28.104 83.1715 27.8406 81.7447 26.3348C80.9765 25.5227 80.7218 24.4647 80.7042 23.3847C80.6559 20.3952 80.678 17.4056 80.6385 14.4116C80.6297 13.8585 80.836 13.7487 81.3409 13.718C84.269 13.5512 84.2646 13.538 84.2909 16.4134C84.3085 18.446 84.2734 20.4742 84.3875 22.5024C84.4665 23.9247 85.204 24.6491 86.3762 24.7676C87.7327 24.9081 88.8609 24.1749 89.2692 22.8755C89.4579 22.2741 89.515 21.6507 89.5106 21.0185C89.5018 18.9509 89.5456 16.8832 89.4886 14.8155C89.4666 14.0033 89.6862 13.6609 90.5291 13.7356C91.3325 13.8058 92.3597 13.5073 92.8865 13.9024C93.4572 14.3326 93.0226 15.4125 93.0928 16.2115C93.3914 19.6357 93.1411 23.0687 93.2684 26.4972C93.2948 27.2523 93.0358 27.4938 92.329 27.3972C92.1095 27.3665 91.8855 27.3928 91.666 27.3928C90.4456 27.3928 89.7783 26.7343 89.6686 25.4129L89.673 25.4085Z" fill="#2C2C2C"/>
<path d="M161.344 19.5873C161.371 18.1079 161.836 15.8295 164.101 14.473C166.876 12.8091 172.376 12.7609 173.948 17.0235C174.176 17.6425 174.22 17.9849 173.425 18.0025C173.057 18.0113 172.679 18.0552 172.332 18.1561C171.34 18.4415 170.677 18.4283 170.076 17.2782C169.29 15.7724 166.568 16.0446 165.695 17.682C164.694 19.5522 164.79 21.554 165.708 23.4329C166.204 24.4514 167.258 24.7938 168.351 24.6928C169.426 24.5963 170.265 24.0212 170.537 22.9368C170.743 22.1115 171.108 21.9886 171.854 22.2388C172.407 22.4232 173.013 22.4627 173.601 22.511C174.238 22.5637 174.303 22.8534 174.132 23.4022C173.452 25.5972 172.078 27.0195 169.769 27.4717C164.751 28.4551 161.292 25.6103 161.344 19.5829V19.5873Z" fill="#2C2C2C"/>
<path d="M123.09 17.8751C123.09 15.1094 123.116 12.3393 123.072 9.57365C123.064 8.86247 123.235 8.53761 123.981 8.64297C124.236 8.67809 124.499 8.64736 124.754 8.64297C126.716 8.6298 126.729 8.6298 126.738 10.5658C126.764 15.8777 126.764 21.1939 126.804 26.5058C126.808 27.1687 126.646 27.3838 125.952 27.397C123.107 27.4453 123.107 27.4716 123.103 24.6225C123.103 22.3748 123.103 20.1228 123.103 17.8707H123.086L123.09 17.8751Z" fill="#2C2C2C"/>
<path d="M100.727 15.5397C101.215 15.3597 101.28 14.9514 101.504 14.6793C102.532 13.4193 104.38 13.0594 105.776 13.8496C106.013 13.9857 106.267 14.1086 106.18 14.4159C105.925 15.2939 105.675 16.1719 105.346 17.0235C105.196 17.4142 104.849 17.1464 104.582 17.0674C102.562 16.4704 101.324 17.1772 101.017 19.2668C100.67 21.6111 100.889 23.986 100.898 26.3478C100.898 27.1512 100.74 27.4278 99.8754 27.4234C97.1931 27.4058 97.1843 27.4453 97.1755 24.7543C97.1623 21.3916 97.1756 18.0332 97.1405 14.6705C97.1317 13.9725 97.3028 13.6125 98.0579 13.7135C98.2774 13.7442 98.5014 13.7179 98.7209 13.7179C99.9369 13.7179 100.604 14.3281 100.727 15.5485V15.5397Z" fill="#2C2C2C"/>
<path d="M13.6165 19.4248L13.836 19.4292H13.6165V19.4248ZM13.6165 19.416H13.397L13.6165 19.4204L13.836 19.4116H13.6165V19.416ZM13.6165 19.416H13.397L13.5243 19.4248H13.836V19.4204V19.4116H13.6165V19.416ZM13.6165 19.4204L13.836 19.4292V19.4116L13.6165 19.4204ZM13.6165 19.4204H13.5639L13.6165 19.4248L13.836 19.4292V19.4116L13.6165 19.4204Z" fill="url(#paint0_linear_76_21)"/>
<path d="M13.8362 19.4116V19.4292H13.6167V19.416H13.8362V19.4116Z" fill="url(#paint1_linear_76_21)"/>
<path d="M1.10547 9.55615L1.32497 9.56054H1.10547V9.55615Z" fill="url(#paint2_linear_76_21)"/>
<path d="M1.54421 9.56055V9.56494L1.32471 9.56055H1.54421Z" fill="url(#paint3_linear_76_21)"/>
<path d="M37.9065 9.48633H37.687V9.49072H37.9065V9.48633Z" fill="url(#paint4_linear_76_21)"/>
<path d="M12.8965 13.8239H12.9061C12.9061 13.8239 12.9013 13.8191 12.8965 13.8239Z" fill="url(#paint5_linear_76_21)"/>
<path fill-rule="evenodd" clip-rule="evenodd" d="M20.9786 14.429C20.5616 14.4466 20.2455 14.4027 19.9865 14.2885C19.6572 14.1437 19.3675 13.8671 19.0865 13.3403L19.0295 13.2305C17.7169 10.6097 15.6185 8.65618 12.9625 7.37869C12.1723 7.00116 11.3163 6.68508 10.368 6.63679C9.12129 6.57094 8.07209 6.9397 7.40481 7.71233C6.73753 8.48497 6.52681 9.57808 6.77704 10.8117L6.82533 11.0312C7.07117 12.133 7.48822 13.2218 8.26964 14.1305C8.31354 14.1832 8.33988 14.2227 8.35744 14.249C8.32232 14.2666 8.27403 14.2929 8.20818 14.3149C8.00185 14.3851 7.83942 14.5388 7.74284 14.6353C7.71211 14.6617 7.69016 14.688 7.66382 14.71L7.63748 14.7363L7.6287 14.7495L7.60236 14.7714C7.57602 14.8022 7.54529 14.8241 7.51895 14.8504H7.51456C7.51456 14.8504 7.50139 14.8636 7.49261 14.8724C7.48822 14.8768 7.48383 14.8812 7.47944 14.8856H7.47066C7.4531 14.868 7.43115 14.8461 7.4092 14.8109C6.15805 13.0681 5.24055 11.277 5.5259 9.18298C5.71906 7.80013 6.42145 6.72459 7.41798 6.08804C8.4189 5.4471 9.75345 5.21882 11.2416 5.59636C15.996 6.79922 18.9724 9.98196 20.9786 14.4246V14.429Z" fill="url(#paint6_linear_76_21)"/>
<path fill-rule="evenodd" clip-rule="evenodd" d="M18.7003 32.9681C18.6608 33.0779 18.5862 33.1701 18.5115 33.2403C18.4369 33.3149 18.3491 33.3852 18.2657 33.4466C15.6185 35.3914 12.7519 36.8708 9.31892 36.7918C7.54975 36.7479 6.03521 36.2869 4.77967 35.4265C3.52414 34.5705 2.532 33.3281 1.79009 31.7521C0.424806 28.8459 0.991114 25.9968 2.25104 23.3145C4.31434 18.9202 7.72535 15.8999 12.146 14.0034C12.2646 13.9551 12.3831 13.9244 12.506 13.898C12.6246 13.8761 12.7299 13.8585 12.866 13.8278C12.8704 13.8234 12.8836 13.8234 12.8923 13.8234H12.9011C12.9758 13.8014 13.0504 13.8234 13.1031 13.8761C13.147 13.92 13.1689 13.977 13.1689 14.0385C13.1426 14.8067 13.0021 15.4345 12.686 15.9657C12.3699 16.4969 11.8914 16.9096 11.2329 17.2827C7.54097 19.3548 4.77089 22.2873 3.77437 26.5324C3.23001 28.824 3.74364 30.8521 4.95527 32.2526C6.16691 33.653 8.0985 34.4563 10.4427 34.2544C12.3041 34.0963 14.003 33.4247 15.4693 32.2701C15.7063 32.0857 15.9566 31.9584 16.1936 31.8443C16.4351 31.7301 16.6546 31.6336 16.8653 31.5063C17.0892 31.3658 17.2999 31.3087 17.4974 31.3526C17.695 31.3965 17.8355 31.5238 17.932 31.6467C18.0286 31.7653 18.1208 31.9189 18.1911 32.0287C18.2701 32.1472 18.3359 32.2306 18.4018 32.2745C18.5335 32.3623 18.6344 32.4633 18.6915 32.5862C18.7486 32.7179 18.7442 32.8496 18.6959 32.9681H18.7003Z" fill="url(#paint7_linear_76_21)"/>
<path fill-rule="evenodd" clip-rule="evenodd" d="M25.7901 16.3869C25.7242 16.58 25.5882 16.7513 25.3774 16.8961C25.1535 17.0498 24.8858 17.199 24.6092 17.3044C24.337 17.4054 24.0385 17.4712 23.7531 17.4405C23.5644 17.4185 23.4195 17.3351 23.3229 17.199C23.2351 17.0761 23.2044 16.9269 23.1912 16.7995C23.1824 16.6678 23.1868 16.5318 23.1868 16.4132C23.1868 16.2947 23.1868 16.1937 23.1737 16.1191C22.6337 13.1207 20.8689 10.1268 18.5247 7.80447C16.1804 5.47778 13.2699 3.84031 10.4691 3.51545C6.13615 3.01938 2.84805 6.57527 3.67337 10.8643C4.0114 12.6159 4.67868 14.2402 5.75422 15.6274C5.96933 15.904 6.08786 16.1586 6.10542 16.3957C6.12737 16.6459 6.04835 16.8478 5.92543 17.0103C5.8069 17.1683 5.64886 17.2956 5.50399 17.401C5.35473 17.5151 5.22742 17.6029 5.13084 17.6995C4.95524 17.8663 4.77526 17.9717 4.58649 17.9717C4.38894 17.9761 4.24407 17.8619 4.15188 17.7522C4.0553 17.6424 3.98506 17.5063 3.92799 17.3922C3.86653 17.2693 3.82702 17.1859 3.78751 17.1288C2.10614 14.8723 1.10522 11.9925 1.10522 9.56046C1.14473 6.62356 2.34759 4.2398 4.23968 2.74281C6.13615 1.25022 8.6999 0.648792 11.4436 1.23705C18.9285 2.84817 23.2395 7.93617 25.474 14.9601C25.5135 15.0743 25.5706 15.1972 25.6364 15.3509C25.6979 15.4957 25.7681 15.6625 25.8033 15.8338C25.8428 16.005 25.8559 16.1981 25.7901 16.3869Z" fill="url(#paint8_linear_76_21)"/>
<path fill-rule="evenodd" clip-rule="evenodd" d="M32.5067 10.3816C32.6603 9.27971 32.4321 8.3183 31.8175 7.64224C31.2468 7.0057 30.3907 6.67645 29.381 6.65889H29.1791C27.4231 6.69401 25.9437 7.4403 24.6398 8.41049C24.5081 8.51146 24.4116 8.56414 24.3457 8.59048C24.3282 8.59926 24.315 8.60365 24.3062 8.60365C24.293 8.60804 24.2886 8.60804 24.2843 8.60804C24.2755 8.60804 24.2667 8.59926 24.2491 8.5817C24.2096 8.5378 24.1526 8.45878 24.0779 8.3183C24.0077 8.18221 23.9155 8.05051 23.8453 7.95393C23.8409 7.94515 23.8365 7.93637 23.8321 7.93198C23.8277 7.9232 23.8189 7.91442 23.8145 7.90564C23.7311 7.78272 23.6916 7.71248 23.6741 7.66419C23.6653 7.63785 23.6741 7.63785 23.6741 7.63346C23.6872 7.61151 23.7443 7.5281 23.9418 7.40519C25.6495 6.32964 27.2914 5.43847 29.2537 5.43408H29.4118C30.9483 5.46481 32.1862 6.11892 32.9369 7.11106C33.692 8.10319 33.9905 9.46409 33.5866 10.9655L33.5471 11.1103C32.1204 15.9086 28.683 18.7621 24.0955 20.5137L23.9813 20.5576C23.9813 20.5576 23.9506 20.5708 23.9374 20.5751C23.9331 20.4917 23.9287 20.4127 23.9199 20.3337V20.3161C23.9199 20.2898 23.9155 20.2635 23.9155 20.2415C23.9023 20.044 23.8979 19.8771 23.9111 19.7235C23.9243 19.5742 23.955 19.4689 23.9989 19.3898C24.0428 19.3196 24.1087 19.2494 24.236 19.1967C25.8954 18.4679 27.4319 17.5856 28.8367 16.3827C30.6849 14.8023 32.1599 12.941 32.5111 10.3816H32.5067Z" fill="url(#paint9_linear_76_21)"/>
<path fill-rule="evenodd" clip-rule="evenodd" d="M38.1259 9.49039V9.48161C38.1127 4.95993 34.8115 1.35136 30.4259 1.03089C26.9666 0.776271 24.0472 2.09766 21.3781 4.03364C21.3166 4.07315 21.2376 4.11705 21.1147 4.1829C21.0094 4.24436 20.8777 4.32777 20.7723 4.43313C20.6669 4.54288 20.5747 4.69653 20.5879 4.89408C20.6011 5.08285 20.7108 5.26723 20.8864 5.44722C20.9918 5.55697 21.084 5.67549 21.2069 5.81158C21.3166 5.93889 21.4483 6.07498 21.6064 6.17156C21.7732 6.27253 21.962 6.3296 22.1903 6.29887C22.4098 6.26814 22.638 6.15839 22.8839 5.96962C24.2096 4.95115 25.6759 4.15656 27.3134 3.7439C29.4645 3.19954 31.4443 3.49806 32.9413 4.41557C34.4339 5.33747 35.4568 6.88713 35.6851 8.88457C35.9002 10.7942 35.2592 12.5678 34.3242 14.1789C31.7121 18.683 27.8182 21.5058 22.6732 22.454C22.3878 22.5067 22.1551 22.5725 21.9839 22.6647C21.8083 22.7569 21.6722 22.8842 21.6108 23.0598C21.5537 23.231 21.5713 23.411 21.6196 23.5822C21.6678 23.7535 21.7513 23.9422 21.8478 24.1486C22.0629 24.5963 22.3527 24.8114 22.7039 24.8685C23.0244 24.9212 23.3712 24.8378 23.6609 24.7763C28.5338 23.7886 32.3662 21.1151 35.3339 17.2651C37.0547 15.0306 38.2181 12.458 38.1259 9.49039ZM37.9064 9.49039H37.6869L37.9064 9.486V9.49039Z" fill="url(#paint10_linear_76_21)"/>
<path fill-rule="evenodd" clip-rule="evenodd" d="M35.3602 34.7372C33.5077 36.3922 30.8868 37.1648 27.9455 36.66C25.3555 36.2166 23.0112 35.1981 20.9699 33.4377C16.7423 29.7897 13.7088 25.4875 13.3971 19.4337L13.5244 19.4249H13.6166L13.8361 19.4293V19.4117H13.6166L13.3971 19.4205C13.441 17.0543 13.8361 14.5389 15.039 12.1814C15.1268 12.0102 15.2146 11.8654 15.3112 11.7512C15.4078 11.6371 15.5263 11.5405 15.6799 11.5098C15.8424 11.479 15.9872 11.5273 16.1189 11.6151C16.2506 11.6985 16.3779 11.8258 16.514 11.9883C16.8169 12.357 17.0847 12.7082 17.1901 13.1253C17.2954 13.5555 17.2252 14.0208 16.9442 14.6135C15.6931 17.2563 15.6492 20.1405 16.536 22.9325C18.0417 27.6956 21.0664 31.2471 25.5969 33.3851C28.086 34.5616 30.5708 34.8733 33.0774 33.2226C34.1793 32.4983 34.8861 31.6378 35.2856 30.6677C35.6895 29.6975 35.7905 28.5912 35.65 27.3664C35.4305 25.4304 34.6754 23.6481 33.5384 22.0589C33.2223 21.6155 33.1126 21.2292 33.2399 20.8648C33.3584 20.5268 33.6613 20.2722 33.9818 20.0351C34.2144 19.8639 34.4252 19.7717 34.6271 19.7673C34.8422 19.7629 35.0046 19.8595 35.1232 19.9824C35.2373 20.101 35.3163 20.2502 35.3822 20.3819C35.448 20.5224 35.4919 20.6278 35.5446 20.7156C36.7958 22.814 37.9986 24.987 38.1303 27.5815C38.2752 30.5579 37.2128 33.0821 35.3602 34.7372Z" fill="url(#paint11_linear_76_21)"/>
<path fill-rule="evenodd" clip-rule="evenodd" d="M18.4193 23.4198C18.3578 23.3013 18.3095 23.2003 18.2832 23.1125C18.5554 23.0423 18.8319 22.9852 19.0866 23.0072C19.3456 23.0291 19.5607 23.1257 19.7231 23.3935C19.9207 23.7271 20.0962 24.0739 20.2806 24.4339L20.307 24.4866C20.4957 24.8597 20.6977 25.2548 20.9303 25.628C22.3308 27.902 24.315 29.5131 26.6724 30.6501C27.5768 31.0891 28.5645 31.3481 29.6137 31.2735L29.7937 31.2559C30.6937 31.155 31.4312 30.7994 31.9317 30.198C32.4277 29.6009 32.6428 28.8063 32.5858 27.9064L32.5682 27.7264C32.4189 26.304 31.958 24.9563 31.0932 23.7974C30.9571 23.6086 30.9351 23.5164 30.9307 23.4901H30.9351C30.9351 23.4901 30.9395 23.4813 30.9439 23.4769C30.9834 23.4374 31.0537 23.3891 31.1854 23.3101L31.2117 23.2925C31.3214 23.2267 31.4751 23.1301 31.6068 23.0159C31.7736 22.8667 31.8526 22.8447 31.8658 22.8447C31.8834 22.8535 31.958 22.9018 32.0721 23.1037C32.9896 24.6885 33.7315 26.2338 33.7272 28.0074V28.161C33.6833 29.7414 33.0204 30.9706 32.0019 31.7037C30.9483 32.4588 29.4601 32.7222 27.7524 32.2086C23.4019 30.9003 20.4782 27.8888 18.5949 23.771C18.5466 23.6657 18.472 23.5252 18.4193 23.4198Z" fill="url(#paint12_linear_76_21)"/>
<path fill-rule="evenodd" clip-rule="evenodd" d="M6.79456 26.9979C6.49604 28.3061 6.68042 29.4475 7.38281 30.2333C8.08082 31.0148 9.19588 31.3308 10.5304 31.1947C12.2162 31.0235 13.6078 30.2246 14.8238 29.228C14.9292 29.1402 15.0038 29.1007 15.0521 29.0832C15.074 29.1095 15.1048 29.1622 15.1399 29.2544L15.1706 29.3246C15.2584 29.4914 15.3857 29.6275 15.4691 29.7109C15.4823 29.7241 15.4911 29.7373 15.5043 29.7504C15.5174 29.7592 15.5262 29.768 15.535 29.7812C15.614 29.8602 15.6667 29.9129 15.7018 29.9655C15.7018 29.9655 15.7033 29.9685 15.7062 29.9743C15.6886 30.0007 15.6404 30.0533 15.5394 30.1236C13.7702 31.4055 12.0142 32.4327 9.84998 32.4108C6.98332 32.38 5.02978 30.1455 5.54341 27.3491C6.24142 23.5298 8.60762 20.9266 11.8255 18.8545C11.8913 19.2891 11.8694 19.6447 11.7684 19.952C11.6235 20.3866 11.2987 20.7949 10.6929 21.2163C8.70859 22.5992 7.34769 24.579 6.79456 26.9979Z" fill="url(#paint13_linear_76_21)"/>
</g>
</g>
</g>
</g>
<defs>
<linearGradient id="paint0_linear_76_21" x1="13.397" y1="19.4204" x2="13.836" y2="19.4204" gradientUnits="userSpaceOnUse">
<stop stop-color="#6C63FF"/>
<stop offset="1" stop-color="#9A6AFF"/>
</linearGradient>
<linearGradient id="paint1_linear_76_21" x1="13.6167" y1="1.00056" x2="1.43892" y2="1.00056" gradientUnits="userSpaceOnUse">
<stop stop-color="#6C63FF"/>
<stop offset="1" stop-color="#9A6AFF"/>
</linearGradient>
<linearGradient id="paint2_linear_76_21" x1="1.10547" y1="9.56054" x2="1.54447" y2="9.56054" gradientUnits="userSpaceOnUse">
<stop stop-color="#6C63FF"/>
<stop offset="1" stop-color="#9A6AFF"/>
</linearGradient>
<linearGradient id="paint3_linear_76_21" x1="1.32471" y1="9.56494" x2="1.54421" y2="9.56494" gradientUnits="userSpaceOnUse">
<stop stop-color="#6C63FF"/>
<stop offset="1" stop-color="#9A6AFF"/>
</linearGradient>
<linearGradient id="paint4_linear_76_21" x1="37.687" y1="9.49072" x2="37.9065" y2="9.49072" gradientUnits="userSpaceOnUse">
<stop stop-color="#6C63FF"/>
<stop offset="1" stop-color="#9A6AFF"/>
</linearGradient>
<linearGradient id="paint5_linear_76_21" x1="12.8965" y1="13.8239" x2="12.9061" y2="13.8239" gradientUnits="userSpaceOnUse">
<stop stop-color="#6C63FF"/>
<stop offset="1" stop-color="#9A6AFF"/>
</linearGradient>
<linearGradient id="paint6_linear_76_21" x1="6.98473" y1="7.21076" x2="40.166" y2="39.766" gradientUnits="userSpaceOnUse">
<stop stop-color="#2F86FC"/>
<stop offset="1" stop-color="#9A6AFF"/>
</linearGradient>
<linearGradient id="paint7_linear_76_21" x1="6.98473" y1="7.21076" x2="40.166" y2="39.766" gradientUnits="userSpaceOnUse">
<stop stop-color="#2F86FC"/>
<stop offset="1" stop-color="#9A6AFF"/>
</linearGradient>
<linearGradient id="paint8_linear_76_21" x1="6.98473" y1="7.21076" x2="40.166" y2="39.766" gradientUnits="userSpaceOnUse">
<stop stop-color="#2F86FC"/>
<stop offset="1" stop-color="#9A6AFF"/>
</linearGradient>
<linearGradient id="paint9_linear_76_21" x1="6.98473" y1="7.21076" x2="40.166" y2="39.766" gradientUnits="userSpaceOnUse">
<stop stop-color="#2F86FC"/>
<stop offset="1" stop-color="#9A6AFF"/>
</linearGradient>
<linearGradient id="paint10_linear_76_21" x1="6.98473" y1="7.21076" x2="40.166" y2="39.766" gradientUnits="userSpaceOnUse">
<stop stop-color="#2F86FC"/>
<stop offset="1" stop-color="#9A6AFF"/>
</linearGradient>
<linearGradient id="paint11_linear_76_21" x1="6.98473" y1="7.21076" x2="40.166" y2="39.766" gradientUnits="userSpaceOnUse">
<stop stop-color="#2F86FC"/>
<stop offset="1" stop-color="#9A6AFF"/>
</linearGradient>
<linearGradient id="paint12_linear_76_21" x1="6.98473" y1="7.21076" x2="40.166" y2="39.766" gradientUnits="userSpaceOnUse">
<stop stop-color="#2F86FC"/>
<stop offset="1" stop-color="#9A6AFF"/>
</linearGradient>
<linearGradient id="paint13_linear_76_21" x1="6.98473" y1="7.21076" x2="40.166" y2="39.766" gradientUnits="userSpaceOnUse">
<stop stop-color="#2F86FC"/>
<stop offset="1" stop-color="#9A6AFF"/>
</linearGradient>
<clipPath id="clip0_76_21">
<rect width="189" height="36" fill="white" transform="translate(1 1)"/>
</clipPath>
<clipPath id="clip1_76_21">
<rect width="189" height="36" fill="white" transform="translate(1 1)"/>
</clipPath>
<clipPath id="clip2_76_21">
<rect width="189" height="36" fill="white" transform="translate(1 1)"/>
</clipPath>
</defs>
</svg>
