<svg width="110" height="31" viewBox="0 0 110 31" fill="none" xmlns="http://www.w3.org/2000/svg">
<g clip-path="url(#clip0_211_2)">
<path d="M18.7935 15.5012C18.7935 17.1712 17.4397 18.5249 15.7698 18.5249C14.0998 18.5249 12.7461 17.1712 12.7461 15.5012C12.7461 13.8313 14.0998 12.4775 15.7698 12.4775C17.4397 12.4775 18.7935 13.8313 18.7935 15.5012Z" fill="#C64444"/>
<path d="M18.7935 15.5012C18.7935 17.1712 17.4397 18.5249 15.7698 18.5249C14.0998 18.5249 12.7461 17.1712 12.7461 15.5012C12.7461 13.8313 14.0998 12.4775 15.7698 12.4775C17.4397 12.4775 18.7935 13.8313 18.7935 15.5012Z" fill="#F39E4F"/>
<path fill-rule="evenodd" clip-rule="evenodd" d="M22.1621 16.1828C22.2525 15.3426 22.1765 14.4927 21.9384 13.6818C21.7004 12.8709 21.305 12.1148 20.7748 11.4567C20.2445 10.7987 19.5899 10.2515 18.8481 9.84637C18.1064 9.44129 17.2922 9.18627 16.4519 9.09587C15.6117 9.00546 14.7618 9.08145 13.9509 9.31948C13.14 9.55752 12.3839 9.95294 11.7258 10.4832C11.0677 11.0134 10.5205 11.6681 10.1155 12.4098C9.71038 13.1515 9.45535 13.9657 9.36495 14.806C9.27455 15.6463 9.35053 16.4961 9.58857 17.307C9.8266 18.1179 10.222 18.874 10.7523 19.5321C11.2825 20.1902 11.9372 20.7374 12.6789 21.1425C13.4206 21.5475 14.2348 21.8026 15.0751 21.893C15.9154 21.9834 16.7652 21.9074 17.5761 21.6694C18.387 21.4313 19.1431 21.0359 19.8012 20.5057C20.4593 19.9754 21.0065 19.3208 21.4116 18.5791C21.8166 17.8373 22.0717 17.0231 22.1621 16.1828ZM24.7323 12.8617C25.078 14.0395 25.1884 15.2739 25.0571 16.4943C24.9257 17.7148 24.5553 18.8974 23.967 19.9747C23.3786 21.052 22.5838 22.0028 21.628 22.773C20.6722 23.5431 19.574 24.1174 18.3962 24.4632C17.2184 24.8089 15.9841 24.9193 14.7636 24.788C13.5432 24.6567 12.3605 24.2863 11.2832 23.6979C10.2059 23.1095 9.25508 22.3148 8.48495 21.3589C7.71481 20.4031 7.14048 19.3049 6.79475 18.1271C6.44901 16.9493 6.33865 15.715 6.46996 14.4945C6.60126 13.2741 6.97167 12.0915 7.56002 11.0142C8.14838 9.93686 8.94317 8.986 9.899 8.21586C10.8548 7.44572 11.953 6.87139 13.1308 6.52566C14.3086 6.17993 15.5429 6.06956 16.7634 6.20087C17.9838 6.33218 19.1665 6.70258 20.2438 7.29094C21.3211 7.87929 22.2719 8.67408 23.0421 9.62991C23.8122 10.5857 24.3865 11.6839 24.7323 12.8617Z" fill="url(#paint0_linear_211_2)"/>
<path fill-rule="evenodd" clip-rule="evenodd" d="M6.66521 3.02712C9.65209 0.847385 13.3223 -0.187569 17.0079 0.11058C20.6935 0.40873 24.1496 2.02017 26.7473 4.65166C29.345 7.28316 30.9116 10.7598 31.162 14.449C31.4125 18.1381 30.3301 21.7946 28.1119 24.7531C27.5925 25.4459 26.6098 25.5864 25.917 25.0669C25.2242 24.5475 25.0837 23.5648 25.6031 22.872C27.3706 20.5146 28.2331 17.601 28.0335 14.6614C27.834 11.7217 26.5856 8.9514 24.5157 6.85454C22.4458 4.75767 19.6919 3.47363 16.7551 3.23605C13.8182 2.99847 10.8937 3.82316 8.51366 5.56004C7.81421 6.07048 6.8334 5.91725 6.32297 5.21781C5.81253 4.51836 5.96576 3.53755 6.66521 3.02712Z" fill="url(#paint1_linear_211_2)"/>
<path fill-rule="evenodd" clip-rule="evenodd" d="M24.2445 28.3894C21.294 30.33 17.7672 31.2 14.2527 30.8543C10.7381 30.5087 7.44846 28.9682 4.93255 26.49C2.41665 24.0117 0.826714 20.7457 0.428051 17.2368C0.029385 13.7278 0.846111 10.1883 2.74194 7.20888C3.20678 6.47834 4.17583 6.26294 4.90638 6.72779C5.63692 7.19263 5.85231 8.16168 5.38747 8.89223C3.87681 11.2664 3.22602 14.0868 3.54369 16.8828C3.86136 19.6788 5.12827 22.2813 7.13303 24.256C9.13778 26.2308 11.7591 27.4583 14.5596 27.7337C17.3601 28.0092 20.1703 27.3159 22.5214 25.7696C23.2449 25.2938 24.2171 25.4945 24.6929 26.218C25.1687 26.9414 24.9679 27.9136 24.2445 28.3894Z" fill="url(#paint2_linear_211_2)"/>
<path d="M108.439 21.2218C108.439 22.2786 108.274 23.0713 107.944 23.5997C107.613 24.1281 106.949 24.3923 105.95 24.3923H99.2494C98.5723 24.3923 98.0398 24.1942 97.6517 23.7978C97.2719 23.4015 97.082 22.8607 97.082 22.1754V7.58599L97.2554 7.4126H107.832C107.89 7.69332 107.927 7.95753 107.944 8.20523C107.96 8.45293 107.968 8.68411 107.968 8.89879C107.968 9.11346 107.939 9.37767 107.882 9.69142C107.832 9.99692 107.758 10.2942 107.659 10.5831H102.482C102.086 10.5831 101.524 10.5749 100.798 10.5584C100.798 10.8969 100.802 11.1983 100.81 11.4625C100.818 11.7184 100.822 12.0115 100.822 12.3418V14.2986C101.144 14.2986 101.458 14.2986 101.764 14.2986C102.069 14.2904 102.308 14.2862 102.482 14.2862H106.383C106.457 14.5174 106.511 14.7816 106.544 15.0789C106.585 15.3678 106.606 15.6155 106.606 15.822C106.606 16.0366 106.585 16.2885 106.544 16.5774C106.511 16.8582 106.457 17.1182 106.383 17.3577H102.482C102.308 17.3577 102.069 17.3577 101.764 17.3577C101.458 17.3577 101.144 17.3536 100.822 17.3453V19.5498C100.822 19.8553 100.818 20.136 100.81 20.392C100.802 20.6479 100.798 20.9369 100.798 21.2589V21.2713C101.078 21.2631 101.363 21.2548 101.652 21.2465C101.949 21.23 102.267 21.2218 102.606 21.2218H108.439Z" fill="#2C2E33"/>
<path d="M94.6671 21.1352C94.6671 22.3407 94.4731 23.187 94.085 23.6741C93.6969 24.153 93.0364 24.3924 92.1034 24.3924H86.3816C85.7128 24.3924 85.1802 24.1984 84.7839 23.8103C84.3876 23.414 84.1895 22.8691 84.1895 22.1755V7.4251L84.3628 7.25171H85.75C86.4848 7.25171 87.038 7.44161 87.4095 7.82142C87.7893 8.20122 87.9792 8.81221 87.9792 9.65438V21.2219C88.7801 21.1641 89.548 21.1352 90.2828 21.1352H94.6671Z" fill="#2C2E33"/>
<path d="M66.75 15.8591C66.75 14.1005 67.0142 12.5606 67.5426 11.2396C68.0711 9.91851 68.8719 8.89056 69.9453 8.15572C71.0269 7.42089 72.3934 7.05347 74.0447 7.05347C75.7125 7.05347 77.0831 7.42501 78.1565 8.16811C79.2381 8.9112 80.039 9.94328 80.5592 11.2643C81.0876 12.5854 81.3518 14.117 81.3518 15.8591C81.3518 17.6178 81.0876 19.1618 80.5592 20.4911C80.0308 21.8122 79.2257 22.8442 78.1441 23.5873C77.0708 24.3222 75.7043 24.6896 74.0447 24.6896C72.3851 24.6896 71.0145 24.318 69.9329 23.5749C68.8513 22.8318 68.0504 21.7956 67.5302 20.4663C67.0101 19.137 66.75 17.6013 66.75 15.8591ZM70.6884 15.8591C70.6884 16.5279 70.7256 17.2091 70.7999 17.9026C70.8824 18.5879 71.0393 19.2278 71.2705 19.8223C71.5017 20.4085 71.8361 20.8833 72.2737 21.2466C72.7195 21.6016 73.3099 21.7791 74.0447 21.7791C74.7878 21.7791 75.3782 21.6016 75.8158 21.2466C76.2616 20.8833 76.6001 20.4085 76.8313 19.8223C77.0625 19.2278 77.2152 18.5879 77.2896 17.9026C77.3639 17.2091 77.401 16.5279 77.401 15.8591C77.401 15.1904 77.3639 14.5133 77.2896 13.828C77.2152 13.1345 77.0625 12.4987 76.8313 11.9207C76.6001 11.3345 76.2616 10.8639 75.8158 10.5089C75.3782 10.1456 74.7878 9.96392 74.0447 9.96392C73.3099 9.96392 72.7195 10.1456 72.2737 10.5089C71.8361 10.8639 71.5017 11.3345 71.2705 11.9207C71.0393 12.4987 70.8824 13.1345 70.7999 13.828C70.7256 14.5133 70.6884 15.1904 70.6884 15.8591Z" fill="#2C2E33"/>
<path d="M58.9592 12.8124C59.1987 12.4822 59.5083 12.0817 59.8881 11.6111C60.2762 11.1322 60.6312 10.7152 60.9532 10.3602L60.8789 10.2859C60.5073 10.3354 60.0821 10.3767 59.6032 10.4097C59.1326 10.4428 58.6703 10.4675 58.2161 10.4841C57.762 10.4923 57.374 10.4964 57.052 10.4964H53.4356C53.3778 10.2735 53.3406 10.0588 53.3241 9.85242C53.3076 9.64601 53.2993 9.43959 53.2993 9.23318C53.2993 8.90291 53.32 8.59742 53.3613 8.3167C53.4025 8.02771 53.4645 7.72635 53.547 7.4126H64.4086C64.5737 7.99882 64.6934 8.44467 64.7678 8.75017C64.8421 9.04741 64.8875 9.26208 64.904 9.39418C64.9205 9.52629 64.9288 9.64188 64.9288 9.74096C64.9288 9.95563 64.8999 10.1744 64.8421 10.3974C64.7843 10.6203 64.6728 10.8473 64.5077 11.0785L58.8973 18.8934C58.6496 19.2319 58.3441 19.6282 57.9808 20.0824C57.6175 20.5282 57.2749 20.9245 56.9529 21.2713L57.0272 21.3456C57.5639 21.3043 58.1749 21.2672 58.8602 21.2342C59.5454 21.1929 60.1399 21.1722 60.6436 21.1722H62.1917C62.8027 21.1722 63.3394 21.1186 63.8017 21.0112C64.2724 20.9039 64.6728 20.7718 65.0031 20.6149C65.0691 20.8461 65.1269 21.1144 65.1765 21.4199C65.2343 21.7254 65.2632 22.0268 65.2632 22.324C65.2632 23.0011 65.032 23.5047 64.5696 23.835C64.1072 24.1653 63.5086 24.3304 62.7738 24.3304H53.2993C53.1755 23.7772 53.0847 23.3561 53.0269 23.0671C52.9691 22.7781 52.9319 22.5635 52.9154 22.4231C52.8989 22.2827 52.8906 22.1589 52.8906 22.0516C52.8906 21.8204 52.9278 21.5809 53.0021 21.3332C53.0764 21.0773 53.192 20.8461 53.3489 20.6397L58.9592 12.8124Z" fill="#2C2E33"/>
<path d="M36.8281 15.8591C36.8281 14.1005 37.0923 12.5606 37.6208 11.2396C38.1492 9.91851 38.9501 8.89056 40.0234 8.15572C41.105 7.42089 42.4715 7.05347 44.1228 7.05347C45.7907 7.05347 47.1613 7.42501 48.2346 8.16811C49.3162 8.9112 50.1171 9.94328 50.6373 11.2643C51.1657 12.5854 51.4299 14.117 51.4299 15.8591C51.4299 17.6178 51.1657 19.1618 50.6373 20.4911C50.1089 21.8122 49.3039 22.8442 48.2222 23.5873C47.1489 24.3222 45.7824 24.6896 44.1228 24.6896C42.4633 24.6896 41.0927 24.318 40.011 23.5749C38.9294 22.8318 38.1285 21.7956 37.6084 20.4663C37.0882 19.137 36.8281 17.6013 36.8281 15.8591ZM40.7665 15.8591C40.7665 16.5279 40.8037 17.2091 40.878 17.9026C40.9606 18.5879 41.1174 19.2278 41.3486 19.8223C41.5798 20.4085 41.9142 20.8833 42.3518 21.2466C42.7977 21.6016 43.388 21.7791 44.1228 21.7791C44.8659 21.7791 45.4563 21.6016 45.8939 21.2466C46.3397 20.8833 46.6783 20.4085 46.9094 19.8223C47.1406 19.2278 47.2934 18.5879 47.3677 17.9026C47.442 17.2091 47.4791 16.5279 47.4791 15.8591C47.4791 15.1904 47.442 14.5133 47.3677 13.828C47.2934 13.1345 47.1406 12.4987 46.9094 11.9207C46.6783 11.3345 46.3397 10.8639 45.8939 10.5089C45.4563 10.1456 44.8659 9.96392 44.1228 9.96392C43.388 9.96392 42.7977 10.1456 42.3518 10.5089C41.9142 10.8639 41.5798 11.3345 41.3486 11.9207C41.1174 12.4987 40.9606 13.1345 40.878 13.828C40.8037 14.5133 40.7665 15.1904 40.7665 15.8591Z" fill="#2C2E33"/>
</g>
<defs>
<linearGradient id="paint0_linear_211_2" x1="23.5643" y1="14.3026" x2="7.96269" y2="16.6862" gradientUnits="userSpaceOnUse">
<stop stop-color="#FD5623"/>
<stop offset="0.46875" stop-color="#FF2480"/>
<stop offset="1" stop-color="#FFC224"/>
</linearGradient>
<linearGradient id="paint1_linear_211_2" x1="5.91524" y1="1.61462" x2="25.0093" y2="27.484" gradientUnits="userSpaceOnUse">
<stop offset="0.000422723" stop-color="#31F981"/>
<stop offset="0.231414" stop-color="#318DF9"/>
<stop offset="1" stop-color="#F44BBF"/>
</linearGradient>
<linearGradient id="paint2_linear_211_2" x1="16.8256" y1="29.3199" x2="5.27237" y2="5.9616" gradientUnits="userSpaceOnUse">
<stop stop-color="#C653EF"/>
<stop offset="1" stop-color="#E232AB"/>
</linearGradient>
<clipPath id="clip0_211_2">
<rect width="109.134" height="31" fill="white"/>
</clipPath>
</defs>
</svg>
