<svg width="2584" height="734" viewBox="0 0 2584 734" fill="none" xmlns="http://www.w3.org/2000/svg">
<g clip-path="url(#clip0_211_2)">
<path d="M445.044 367.02C445.044 406.56 412.99 438.614 373.451 438.614C333.911 438.614 301.857 406.56 301.857 367.02C301.857 327.481 333.911 295.427 373.451 295.427C412.99 295.427 445.044 327.481 445.044 367.02Z" fill="#C64444"/>
<path d="M445.044 367.02C445.044 406.56 412.99 438.614 373.451 438.614C333.911 438.614 301.857 406.56 301.857 367.02C301.857 327.481 333.911 295.427 373.451 295.427C412.99 295.427 445.044 327.481 445.044 367.02Z" fill="#F39E4F"/>
<path fill-rule="evenodd" clip-rule="evenodd" d="M524.796 383.158C526.936 363.263 525.137 343.141 519.501 323.94C513.865 304.74 504.503 286.838 491.948 271.256C479.393 255.675 463.893 242.718 446.331 233.127C428.769 223.536 409.49 217.498 389.595 215.357C369.699 213.217 349.577 215.016 330.377 220.652C311.177 226.288 293.275 235.65 277.693 248.205C262.111 260.76 249.155 276.26 239.564 293.822C229.972 311.384 223.934 330.663 221.793 350.558C219.653 370.454 221.452 390.576 227.088 409.776C232.724 428.976 242.087 446.878 254.641 462.46C267.196 478.042 282.697 490.998 300.259 500.589C317.82 510.181 337.099 516.219 356.995 518.36C376.89 520.5 397.012 518.701 416.213 513.065C435.413 507.429 453.315 498.066 468.896 485.512C484.478 472.957 497.435 457.456 507.026 439.894C516.617 422.333 522.655 403.054 524.796 383.158ZM585.652 304.522C593.838 332.41 596.451 361.636 593.342 390.533C590.233 419.43 581.463 447.432 567.532 472.939C553.601 498.447 534.783 520.961 512.151 539.196C489.519 557.431 463.518 571.029 435.631 579.215C407.743 587.401 378.517 590.015 349.62 586.906C320.723 583.797 292.721 575.026 267.214 561.096C241.706 547.165 219.192 528.346 200.957 505.715C182.722 483.083 169.124 457.081 160.938 429.194C152.752 401.307 150.138 372.081 153.247 343.184C156.356 314.287 165.127 286.285 179.057 260.777C192.988 235.27 211.807 212.756 234.438 194.521C257.07 176.286 283.072 162.687 310.959 154.501C338.846 146.315 368.072 143.702 396.969 146.811C425.866 149.92 453.868 158.69 479.376 172.621C504.883 186.552 527.397 205.37 545.632 228.002C563.867 250.634 577.466 276.635 585.652 304.522Z" fill="url(#paint0_linear_211_2)"/>
<path fill-rule="evenodd" clip-rule="evenodd" d="M157.876 71.6659C228.598 20.0555 315.498 -4.44954 402.764 2.60988C490.03 9.66929 571.862 47.824 633.368 110.131C694.874 172.438 731.967 254.756 737.897 342.106C743.827 429.456 718.2 516.032 665.679 586.08C653.38 602.484 630.113 605.811 613.709 593.512C597.306 581.213 593.978 557.945 606.277 541.542C648.128 485.725 668.548 416.738 663.823 347.135C659.098 277.532 629.541 211.938 580.531 162.289C531.52 112.641 466.314 82.2381 396.778 76.6129C327.241 70.9878 257.996 90.5142 201.643 131.639C185.082 143.725 161.859 140.097 149.773 123.536C137.687 106.975 141.315 83.7517 157.876 71.6659Z" fill="url(#paint1_linear_211_2)"/>
<path fill-rule="evenodd" clip-rule="evenodd" d="M574.105 672.179C504.245 718.127 420.74 738.727 337.525 730.542C254.31 722.357 176.419 685.882 116.849 627.204C57.2786 568.526 19.633 491.194 10.1937 408.113C0.754282 325.031 20.0922 241.224 64.9805 170.678C75.9868 153.381 98.9315 148.281 116.229 159.287C133.526 170.294 138.626 193.238 127.62 210.536C91.8514 266.749 76.4423 333.529 83.9639 399.731C91.4854 465.934 121.483 527.554 168.95 574.311C216.418 621.068 278.484 650.132 344.792 656.654C411.101 663.176 477.64 646.761 533.308 610.148C550.437 598.882 573.456 603.635 584.722 620.765C595.988 637.894 591.235 660.913 574.105 672.179Z" fill="url(#paint2_linear_211_2)"/>
<path d="M2567.56 502.47C2567.56 527.493 2563.65 546.26 2555.83 558.772C2548.01 571.284 2532.27 577.54 2508.62 577.54H2349.98C2333.95 577.54 2321.34 572.848 2312.15 563.464C2303.15 554.08 2298.66 541.275 2298.66 525.049V179.609L2302.76 175.504H2553.19C2554.56 182.151 2555.44 188.407 2555.83 194.271C2556.22 200.136 2556.42 205.61 2556.42 210.693C2556.42 215.776 2555.73 222.032 2554.37 229.461C2553.19 236.694 2551.43 243.732 2549.09 250.574H2426.51C2417.13 250.574 2403.83 250.379 2386.63 249.988C2386.63 258.003 2386.73 265.138 2386.92 271.394C2387.12 277.455 2387.22 284.395 2387.22 292.214V338.547C2394.84 338.547 2402.27 338.547 2409.5 338.547C2416.74 338.351 2422.41 338.254 2426.51 338.254H2518.88C2520.64 343.727 2521.91 349.983 2522.7 357.021C2523.67 363.863 2524.16 369.728 2524.16 374.616C2524.16 379.699 2523.67 385.661 2522.7 392.504C2521.91 399.15 2520.64 405.308 2518.88 410.978H2426.51C2422.41 410.978 2416.74 410.978 2409.5 410.978C2402.27 410.978 2394.84 410.88 2387.22 410.685V462.882C2387.22 470.115 2387.12 476.762 2386.92 482.822C2386.73 488.883 2386.63 495.725 2386.63 503.349V503.642C2393.28 503.447 2400.02 503.251 2406.86 503.056C2413.9 502.665 2421.43 502.47 2429.44 502.47H2567.56Z" fill="#2C2E33"/>
<path d="M2241.47 500.417C2241.47 528.959 2236.88 548.998 2227.69 560.532C2218.5 571.87 2202.86 577.54 2180.77 577.54H2045.29C2029.46 577.54 2016.85 572.946 2007.46 563.757C1998.08 554.374 1993.39 541.471 1993.39 525.049V175.797L1997.49 171.692H2030.34C2047.73 171.692 2060.83 176.188 2069.63 185.181C2078.62 194.174 2083.12 208.64 2083.12 228.581V502.47C2102.08 501.101 2120.26 500.417 2137.66 500.417H2241.47Z" fill="#2C2E33"/>
<path d="M1580.48 375.496C1580.48 333.855 1586.73 297.395 1599.25 266.116C1611.76 234.837 1630.72 210.498 1656.14 193.099C1681.75 175.7 1714.1 167 1753.2 167C1792.69 167 1825.14 175.797 1850.56 193.392C1876.16 210.986 1895.13 235.423 1907.44 266.703C1919.96 297.982 1926.21 334.246 1926.21 375.496C1926.21 417.136 1919.96 453.694 1907.44 485.168C1894.93 516.448 1875.87 540.884 1850.26 558.479C1824.85 575.878 1792.49 584.578 1753.2 584.578C1713.9 584.578 1681.45 575.78 1655.84 558.186C1630.23 540.591 1611.27 516.057 1598.95 484.582C1586.64 453.107 1580.48 416.745 1580.48 375.496ZM1673.73 375.496C1673.73 391.331 1674.61 407.459 1676.37 423.881C1678.32 440.107 1682.04 455.258 1687.51 469.333C1692.99 483.213 1700.9 494.454 1711.26 503.056C1721.82 511.462 1735.8 515.666 1753.2 515.666C1770.79 515.666 1784.77 511.462 1795.13 503.056C1805.69 494.454 1813.7 483.213 1819.18 469.333C1824.65 455.258 1828.27 440.107 1830.03 423.881C1831.79 407.459 1832.67 391.331 1832.67 375.496C1832.67 359.66 1831.79 343.63 1830.03 327.404C1828.27 310.982 1824.65 295.929 1819.18 282.244C1813.7 268.364 1805.69 257.221 1795.13 248.815C1784.77 240.213 1770.79 235.912 1753.2 235.912C1735.8 235.912 1721.82 240.213 1711.26 248.815C1700.9 257.221 1692.99 268.364 1687.51 282.244C1682.04 295.929 1678.32 310.982 1676.37 327.404C1674.61 343.63 1673.73 359.66 1673.73 375.496Z" fill="#2C2E33"/>
<path d="M1396 303.358C1401.67 295.538 1409 286.056 1418 274.913C1427.18 263.574 1435.59 253.702 1443.22 245.296L1441.46 243.536C1432.66 244.709 1422.59 245.687 1411.25 246.469C1400.11 247.251 1389.16 247.837 1378.41 248.228C1367.66 248.424 1358.47 248.521 1350.84 248.521H1265.22C1263.85 243.243 1262.97 238.16 1262.58 233.273C1262.19 228.385 1261.99 223.498 1261.99 218.611C1261.99 210.791 1262.48 203.557 1263.46 196.911C1264.44 190.068 1265.9 182.933 1267.86 175.504H1525.03C1528.94 189.384 1531.77 199.941 1533.53 207.174C1535.29 214.212 1536.37 219.295 1536.76 222.423C1537.15 225.551 1537.35 228.288 1537.35 230.634C1537.35 235.716 1536.66 240.897 1535.29 246.175C1533.93 251.454 1531.29 256.83 1527.38 262.304L1394.54 447.34C1388.67 455.355 1381.44 464.739 1372.84 475.491C1364.24 486.048 1356.12 495.432 1348.5 503.643L1350.26 505.402C1362.96 504.425 1377.43 503.545 1393.66 502.763C1409.88 501.785 1423.96 501.297 1435.88 501.297H1472.54C1487.01 501.297 1499.71 500.026 1510.66 497.484C1521.8 494.943 1531.29 491.815 1539.11 488.101C1540.67 493.574 1542.04 499.928 1543.21 507.161C1544.58 514.395 1545.26 521.53 1545.26 528.568C1545.26 544.599 1539.79 556.524 1528.84 564.344C1517.89 572.164 1503.72 576.073 1486.32 576.073H1261.99C1259.06 562.975 1256.91 553.005 1255.54 546.163C1254.17 539.32 1253.29 534.238 1252.9 530.914C1252.51 527.591 1252.31 524.658 1252.31 522.117C1252.31 516.643 1253.19 510.974 1254.95 505.109C1256.71 499.048 1259.45 493.575 1263.16 488.687L1396 303.358Z" fill="#2C2E33"/>
<path d="M872 375.496C872 333.855 878.256 297.395 890.768 266.116C903.279 234.837 922.242 210.498 947.657 193.099C973.266 175.7 1005.62 167 1044.72 167C1084.21 167 1116.66 175.797 1142.08 193.392C1167.69 210.986 1186.65 235.423 1198.97 266.703C1211.48 297.982 1217.73 334.246 1217.73 375.496C1217.73 417.136 1211.48 453.694 1198.97 485.168C1186.45 516.448 1167.39 540.884 1141.78 558.479C1116.37 575.878 1084.01 584.578 1044.72 584.578C1005.43 584.578 972.973 575.78 947.363 558.186C921.754 540.591 902.79 516.057 890.474 484.582C878.158 453.107 872 416.745 872 375.496ZM965.251 375.496C965.251 391.331 966.131 407.459 967.89 423.881C969.845 440.107 973.56 455.258 979.034 469.333C984.507 483.213 992.425 494.454 1002.79 503.056C1013.34 511.462 1027.32 515.666 1044.72 515.666C1062.31 515.666 1076.29 511.462 1086.65 503.056C1097.21 494.454 1105.23 483.213 1110.7 469.333C1116.17 455.258 1119.79 440.107 1121.55 423.881C1123.31 407.459 1124.19 391.331 1124.19 375.496C1124.19 359.66 1123.31 343.63 1121.55 327.404C1119.79 310.982 1116.17 295.929 1110.7 282.244C1105.23 268.364 1097.21 257.221 1086.65 248.815C1076.29 240.213 1062.31 235.912 1044.72 235.912C1027.32 235.912 1013.34 240.213 1002.79 248.815C992.425 257.221 984.507 268.364 979.034 282.244C973.56 295.929 969.845 310.982 967.89 327.404C966.131 343.63 965.251 359.66 965.251 375.496Z" fill="#2C2E33"/>
</g>
<defs>
<linearGradient id="paint0_linear_211_2" x1="557.998" y1="338.639" x2="188.592" y2="395.077" gradientUnits="userSpaceOnUse">
<stop stop-color="#FD5623"/>
<stop offset="0.46875" stop-color="#FF2480"/>
<stop offset="1" stop-color="#FFC224"/>
</linearGradient>
<linearGradient id="paint1_linear_211_2" x1="140.119" y1="38.2218" x2="592.217" y2="650.742" gradientUnits="userSpaceOnUse">
<stop offset="0.000422723" stop-color="#31F981"/>
<stop offset="0.231414" stop-color="#318DF9"/>
<stop offset="1" stop-color="#F44BBF"/>
</linearGradient>
<linearGradient id="paint2_linear_211_2" x1="398.446" y1="694.21" x2="124.895" y2="141.146" gradientUnits="userSpaceOnUse">
<stop stop-color="#C653EF"/>
<stop offset="1" stop-color="#E232AB"/>
</linearGradient>
<clipPath id="clip0_211_2">
<rect width="2584" height="734" fill="white"/>
</clipPath>
</defs>
</svg>
