<svg width="376" height="40" viewBox="0 0 376 40" fill="none" xmlns="http://www.w3.org/2000/svg">
<path d="M20.5983 17.8291C20.4274 17.2991 20.2735 16.7863 20.1026 16.2564C19.9316 15.7265 19.7778 15.2308 19.641 14.735C19.5043 14.2564 19.3846 13.812 19.265 13.4017H19.2308C19.0769 14.1368 18.8889 14.8718 18.6496 15.6068C18.3932 16.4273 18.1368 17.282 17.8632 18.1368C17.641 19.0085 17.3675 19.812 17.1111 20.5299H21.453C21.3504 20.1709 21.2137 19.7436 21.0598 19.2991C20.906 18.8376 20.7521 18.3419 20.5983 17.8291ZM35.265 17.3333C34.3248 17.282 33.4359 17.7778 32.9915 18.6325C32.7863 19.0256 32.6667 19.4359 32.6154 19.8632H36.2205C36.665 19.8632 36.9897 19.8632 37.1949 19.8462C37.3316 19.8291 37.4684 19.7949 37.588 19.7094V19.5385C37.588 19.3162 37.5521 19.1111 37.4838 18.906C37.1795 17.9487 36.2735 17.2991 35.265 17.3333ZM39.7607 0H13.265C9.24786 0 6 3.24786 6 7.26496V32.735C6 36.7521 9.24786 40 13.265 40H39.7607C43.7778 40 47.0256 36.7521 47.0256 32.735V7.26496C47.0256 3.24786 43.7778 0 39.7607 0ZM27.7265 28.2239H24.1538C24.0342 28.241 23.9145 28.1538 23.8803 28.0359L22.4786 23.9333H16.1197L14.8205 27.9675C14.7863 28.1214 14.6496 28.2239 14.4957 28.2068H11.2821C11.094 28.2068 11.0427 28.1043 11.094 27.8991L16.5983 12.1197C16.6496 11.9487 16.7009 11.7949 16.7692 11.5897C16.8376 11.2308 16.8718 10.8547 16.8718 10.4786C16.8547 10.3932 16.9231 10.3077 17.0085 10.2906H21.4359C21.5556 10.2906 21.641 10.3419 21.6581 10.4273L27.8974 27.9487C27.9487 28.1368 27.8991 28.2239 27.7265 28.2239ZM41.147 21.4017C41.1111 21.7248 41.094 21.9658 41.0769 22.1197C41.0598 22.2393 40.959 22.3419 40.8376 22.3419C40.735 22.3419 40.547 22.359 40.2735 22.3778C40.0017 22.412 39.6752 22.4273 39.2838 22.4273C38.8906 22.4273 38.4786 22.359 38.0359 22.359H32.6171C32.6838 22.8889 32.8564 23.4188 33.147 23.8803C33.4564 24.3436 33.8838 24.7009 34.3932 24.9077C35.0769 25.1983 35.8308 25.3521 36.5829 25.335C37.1812 25.3162 37.7778 25.2667 38.359 25.147C38.8906 25.0803 39.4017 24.9436 39.8821 24.7538C39.9675 24.6872 40.0188 24.7197 40.0188 24.8906V27.5077C40.0188 27.5744 40.0017 27.6444 39.9829 27.7111C39.947 27.7624 39.9145 27.7983 39.865 27.8308C39.318 28.0701 38.7538 28.241 38.1556 28.3436C37.3504 28.4974 36.5487 28.5658 35.7282 28.5487C34.4274 28.5487 33.335 28.3436 32.4462 27.9504C31.6085 27.5897 30.8718 27.0256 30.2906 26.3265C29.7453 25.6598 29.3504 24.9077 29.1111 24.0872C28.8718 23.282 28.7538 22.4444 28.7538 21.5897C28.7538 20.6684 28.8906 19.7607 29.1812 18.8718C29.4547 18.0171 29.8821 17.2308 30.4632 16.5299C31.0274 15.8462 31.7265 15.2991 32.5299 14.906C33.335 14.5128 34.2906 14.3761 35.3846 14.3761C36.2923 14.359 37.1966 14.5299 38.0342 14.906C38.735 15.2137 39.3504 15.6752 39.8291 16.2735C40.2735 16.8547 40.6325 17.5043 40.8564 18.2222C41.0769 18.906 41.1795 19.6068 41.1795 20.3077C41.1795 20.7179 41.1624 21.0769 41.147 21.4017Z" fill="#5988ED"/>
<path d="M71.9353 31.5H66.0021L64.6733 27.3282H57.4113L56.0516 31.5H50.0874L58.4311 8.66322H63.808L71.9353 31.5ZM58.8637 22.322H63.2827L61.1196 15.5544L58.8637 22.322ZM85.5693 15.7707V7.92156H91.039V31.5H85.7238V30.0167C84.4568 31.2837 82.8499 31.9326 80.9648 31.9326C78.5854 31.9326 76.5767 31.0983 75.0007 29.3986C73.4247 27.699 72.6212 25.5668 72.6212 22.971C72.6212 20.4061 73.4247 18.2738 75.0007 16.5742C76.6076 14.8746 78.5854 14.0093 80.9648 14.0093C82.7881 14.0093 84.3332 14.5965 85.5693 15.7707ZM81.8919 26.9574C84.1478 26.9574 85.7856 25.1959 85.7856 22.9401C85.7856 20.7151 84.1478 18.9846 81.8919 18.9846C80.7794 18.9846 79.8524 19.3863 79.1107 20.1589C78.3691 20.9314 77.9982 21.8585 77.9982 22.9401C77.9982 24.0835 78.3691 25.0414 79.1107 25.814C79.8524 26.5865 80.7794 26.9574 81.8919 26.9574ZM102.925 31.9635C100.175 31.9635 97.95 31.0983 96.2195 29.3677C94.5198 27.6372 93.6546 25.505 93.6546 22.971C93.6546 20.437 94.5198 18.3047 96.2195 16.5742C97.95 14.8128 100.175 13.9475 102.925 13.9475C105.676 13.9475 107.931 14.8128 109.631 16.5742C111.362 18.3047 112.227 20.437 112.227 22.971C112.227 25.505 111.362 27.6372 109.631 29.3677C107.931 31.0983 105.676 31.9635 102.925 31.9635ZM102.925 26.8647C104.007 26.8647 104.934 26.4938 105.676 25.7522C106.417 24.9796 106.788 24.0526 106.788 22.9401C106.788 21.8585 106.417 20.9314 105.645 20.1898C104.903 19.4481 104.007 19.0773 102.925 19.0773C101.844 19.0773 100.948 19.4481 100.206 20.2207C99.4642 20.9623 99.0934 21.8585 99.0934 22.9401C99.0934 24.0526 99.4642 24.9796 100.206 25.7522C100.948 26.4938 101.844 26.8647 102.925 26.8647ZM124.932 14.0093C127.373 14.0093 129.382 14.8437 130.989 16.5433C132.626 18.2429 133.43 20.3752 133.43 22.971C133.43 25.5668 132.626 27.699 131.02 29.3986C129.413 31.0983 127.404 31.9326 124.963 31.9326C123.016 31.9326 121.409 31.2837 120.142 29.9549V31.5H114.889V7.92156H120.327V15.7707C121.563 14.5965 123.109 14.0093 124.932 14.0093ZM123.974 26.9265C126.23 26.9265 127.867 25.1959 127.867 22.9401C127.867 21.8585 127.497 20.9314 126.755 20.1589C126.044 19.3863 125.117 18.9846 123.974 18.9846C122.861 18.9846 121.934 19.3863 121.193 20.1589C120.482 20.9314 120.111 21.8585 120.111 22.9401C120.111 25.1959 121.749 26.9265 123.974 26.9265ZM153.162 22.5383C153.162 23.2491 153.101 23.9598 152.977 24.7324H140.802C141.42 26.5247 142.81 27.4209 144.973 27.4209C146.858 27.4209 148.558 26.8956 150.134 25.8449L152.266 29.5223C150.072 31.0983 147.569 31.8708 144.726 31.8708C141.698 31.8708 139.38 31.0056 137.742 29.3059C136.104 27.5754 135.301 25.4741 135.301 22.971C135.301 20.4061 136.135 18.2738 137.835 16.5742C139.535 14.8746 141.729 14.0093 144.417 14.0093C146.951 14.0093 149.052 14.7819 150.69 16.2961C152.328 17.8103 153.162 19.9116 153.162 22.5383ZM144.417 18.3665C142.532 18.3665 141.327 19.2318 140.74 20.9932H147.971C147.507 19.3554 146.24 18.3665 144.417 18.3665ZM182.87 31.5H176.936L175.608 27.3282H168.346L166.986 31.5H161.022L169.365 8.66322H174.742L182.87 31.5ZM169.798 22.322H174.217L172.054 15.5544L169.798 22.322ZM193.702 11.6607C191.971 11.6607 190.92 12.5878 190.92 14.1947V14.4419H196.143V18.9537H190.92V31.5H185.482V18.9537H183.071V14.4419H185.482V14.0711C185.482 11.7534 186.162 9.96111 187.521 8.75592C188.881 7.55074 190.642 6.93269 192.805 6.93269C194.629 6.93269 196.514 7.42713 198.461 8.416L196.637 12.4951C195.494 11.9389 194.505 11.6607 193.702 11.6607ZM209.985 26.1848L211.437 30.542C209.861 31.4691 208.038 31.9326 205.998 31.9326C201.765 31.9326 199.663 29.5841 199.663 24.8869V18.9537H197.067V14.4419H199.725V8.3851H205.133V14.4419H210.479V18.9537H205.133V24.238C205.133 26.0612 205.844 26.9574 207.296 26.9574C208.099 26.9574 208.996 26.7101 209.985 26.1848ZM230.116 22.5383C230.116 23.2491 230.055 23.9598 229.931 24.7324H217.755C218.373 26.5247 219.764 27.4209 221.927 27.4209C223.812 27.4209 225.512 26.8956 227.088 25.8449L229.22 29.5223C227.026 31.0983 224.523 31.8708 221.68 31.8708C218.652 31.8708 216.334 31.0056 214.696 29.3059C213.058 27.5754 212.255 25.4741 212.255 22.971C212.255 20.4061 213.089 18.2738 214.789 16.5742C216.488 14.8746 218.683 14.0093 221.371 14.0093C223.905 14.0093 226.006 14.7819 227.644 16.2961C229.282 17.8103 230.116 19.9116 230.116 22.5383ZM221.371 18.3665C219.486 18.3665 218.281 19.2318 217.694 20.9932H224.925C224.461 19.3554 223.194 18.3665 221.371 18.3665ZM238.172 31.5H232.734V14.4419H237.956V16.5433C239.038 14.8437 240.552 13.9784 242.499 13.9784C243.24 13.9784 243.951 14.1329 244.631 14.4419L244.198 19.6335C243.395 19.3554 242.653 19.2318 241.943 19.2318C239.439 19.2318 238.172 20.8696 238.172 24.1453V31.5ZM270.372 31.5H253.901V8.66322H270.403V14.0093H259.71V17.3777H269.599V22.6929H259.71V26.1539H270.372V31.5ZM296.589 11.6607C294.858 11.6607 293.869 12.5878 293.869 14.1947V14.4419H299.061V18.9537H293.869V31.5H288.431V18.9537H280.489V31.5H275.081V18.9537H272.64V14.4419H275.081V14.1329C275.081 9.34307 278.202 6.90179 282.899 6.99449C284.815 7.0254 286.607 7.45803 288.307 8.3542L286.638 12.4951C285.526 11.9389 284.537 11.6607 283.672 11.6607C281.818 11.6607 280.489 12.5878 280.489 14.1638V14.4419H288.431V14.1329C288.431 9.43577 291.428 6.99449 295.785 6.99449C297.423 6.99449 299.216 7.48893 301.131 8.4778L299.308 12.4951C298.165 11.9389 297.238 11.6607 296.589 11.6607ZM317.693 22.5383C317.693 23.2491 317.631 23.9598 317.508 24.7324H305.332C305.95 26.5247 307.341 27.4209 309.504 27.4209C311.389 27.4209 313.088 26.8956 314.665 25.8449L316.797 29.5223C314.603 31.0983 312.1 31.8708 309.257 31.8708C306.228 31.8708 303.911 31.0056 302.273 29.3059C300.635 27.5754 299.831 25.4741 299.831 22.971C299.831 20.4061 300.666 18.2738 302.365 16.5742C304.065 14.8746 306.259 14.0093 308.948 14.0093C311.482 14.0093 313.583 14.7819 315.221 16.2961C316.859 17.8103 317.693 19.9116 317.693 22.5383ZM308.948 18.3665C307.063 18.3665 305.857 19.2318 305.27 20.9932H312.501C312.038 19.3554 310.771 18.3665 308.948 18.3665ZM328.592 31.8708C325.904 31.8708 323.74 31.0365 322.041 29.3677C320.372 27.699 319.538 25.5668 319.538 22.9401C319.538 20.3134 320.372 18.1811 322.072 16.5124C323.771 14.8437 325.965 14.0093 328.685 14.0093C332.238 14.0093 335.36 15.7398 336.812 18.9846L332.455 21.2713C331.59 19.8189 330.384 19.0773 328.808 19.0773C327.665 19.0773 326.738 19.4481 325.996 20.1898C325.285 20.9314 324.915 21.8585 324.915 22.9401C324.915 25.1959 326.552 26.8647 328.747 26.8647C330.323 26.8647 331.775 25.9994 332.393 24.6706L336.75 27.2664C335.267 30.1094 332.208 31.8708 328.592 31.8708ZM350.886 26.1848L352.338 30.542C350.762 31.4691 348.939 31.9326 346.899 31.9326C342.666 31.9326 340.564 29.5841 340.564 24.8869V18.9537H337.968V14.4419H340.626V8.3851H346.034V14.4419H351.38V18.9537H346.034V24.238C346.034 26.0612 346.745 26.9574 348.197 26.9574C349.001 26.9574 349.897 26.7101 350.886 26.1848ZM360.567 31.9635C357.569 31.9635 355.066 30.9747 352.996 29.0278L355.437 25.3504C357.075 26.772 358.774 27.4827 360.536 27.4827C361.741 27.4827 362.359 27.1119 362.359 26.4011C362.359 25.9994 362.05 25.6904 361.432 25.4432C361.339 25.4123 360.721 25.2268 359.547 24.8251C358.404 24.4234 357.6 24.1453 357.198 23.9598C355.066 22.971 354.015 21.4259 354.015 19.3245C354.015 17.7176 354.664 16.4197 355.931 15.4308C357.198 14.411 358.929 13.9166 361.061 13.9166C363.502 13.9166 365.604 14.6583 367.427 16.1416L365.078 19.7262C363.657 18.7683 362.297 18.2738 360.968 18.2738C360.072 18.2738 359.423 18.7065 359.423 19.2318C359.423 19.788 359.949 20.1898 360.968 20.4679C362.606 20.9314 363.966 21.4259 364.986 21.9512C367.056 22.971 367.891 24.2998 367.891 26.2775C367.891 27.9462 367.242 29.3059 365.913 30.3875C364.584 31.4382 362.823 31.9635 360.567 31.9635Z" fill="#15161B"/>
</svg>
