<svg width="343" height="40" viewBox="0 0 343 40" fill="none" xmlns="http://www.w3.org/2000/svg">
<g clip-path="url(#clip0_1055_1115)">
<path d="M18.3295 14.8304C19.505 14.6581 21.0244 14.6855 22.1134 15.1384C23.1109 15.5266 23.6971 16.5585 23.6634 17.6339C23.6633 18.8961 22.9964 19.9489 21.7795 20.3C20.6772 20.6665 19.4767 20.6581 18.3295 20.5741V14.8304Z" fill="#5988ED"/>
<path fill-rule="evenodd" clip-rule="evenodd" d="M31.6491 1.08022e-10C36.7159 3.77113e-10 39.2496 -0.000297764 41.1848 0.985714C42.8873 1.85314 44.2719 3.23776 45.1393 4.94018C46.1253 6.8755 46.125 9.40918 46.125 14.4759V25.5241C46.125 30.5909 46.1253 33.1246 45.1393 35.0598C44.2719 36.7623 42.8873 38.1469 41.1848 39.0143C39.2496 40.0003 36.7159 40 31.6491 40H20.6009C15.5342 40 13.0005 40.0003 11.0652 39.0143C9.36276 38.1469 7.97814 36.7623 7.11071 35.0598C6.1247 33.1246 6.125 30.5909 6.125 25.5241V14.4759C6.125 9.40917 6.12473 6.8755 7.11071 4.94018C7.97814 3.23776 9.36276 1.85314 11.0652 0.985714C13.0005 -0.000274985 15.5342 3.74215e-10 20.6009 1.08022e-10H31.6491ZM34.3107 15.5857C31.8158 15.5863 29.0451 16.8995 29.0509 19.8241C29.0335 21.1135 29.6769 22.286 30.7018 23.017C31.4349 23.5378 32.2335 23.9547 33.0759 24.2554C33.6571 24.4756 35.1157 24.8742 35.1161 25.7411C35.1252 26.6448 33.9061 26.7045 33.2911 26.7045C31.8978 26.6856 30.4704 26.3319 29.2661 25.6036C29.1662 25.5181 29.0379 25.6221 29.0509 25.7411V28.7134C29.0459 28.8488 29.1219 28.9816 29.2393 29.0438C30.4684 29.6203 31.8677 29.8281 33.2107 29.8143C35.7905 29.8139 38.8002 28.5722 38.7384 25.4661C38.7833 22.9709 36.4941 21.7301 34.4714 21.0357C33.8953 20.801 32.5911 20.3982 32.5661 19.5768C32.5672 18.1057 35.3805 18.6927 36.0946 18.8607C36.6499 18.9784 37.1877 19.1734 37.692 19.4393C37.8216 19.5052 38.0133 19.4465 38.0036 19.2741V16.4946C38.0041 16.3474 37.9713 16.1825 37.8152 16.1366C36.7295 15.6629 35.477 15.576 34.3107 15.5857ZM20.0295 11.4286C18.3069 11.4286 16.5855 11.5312 14.8634 11.5313C14.7468 11.5313 14.6965 11.5994 14.6964 11.7188V29.3089C14.6964 29.4627 14.7631 29.5312 14.8964 29.5313H18.0634C18.1974 29.5312 18.3359 29.4542 18.3134 29.292V23.8045C21.2066 23.8045 24.4342 23.8461 26.2964 21.1723C26.9631 20.2151 27.2964 19.0013 27.2964 17.5313C27.2964 16.762 27.1634 16.0269 26.9134 15.3089C25.8524 12.3845 22.825 11.4286 20.0295 11.4286Z" fill="#5988ED"/>
</g>
<path d="M71.9097 31.5H65.9765L64.6477 27.3282H57.3856L56.0259 31.5H50.0618L58.4054 8.66322H63.7824L71.9097 31.5ZM58.8381 22.322H63.2571L61.0939 15.5544L58.8381 22.322ZM85.5437 15.7707V7.92156H91.0134V31.5H85.6982V30.0167C84.4312 31.2837 82.8243 31.9326 80.9392 31.9326C78.5597 31.9326 76.5511 31.0983 74.9751 29.3986C73.3991 27.699 72.5956 25.5668 72.5956 22.971C72.5956 20.4061 73.3991 18.2738 74.9751 16.5742C76.582 14.8746 78.5597 14.0093 80.9392 14.0093C82.7624 14.0093 84.3076 14.5965 85.5437 15.7707ZM81.8663 26.9574C84.1221 26.9574 85.76 25.1959 85.76 22.9401C85.76 20.7151 84.1221 18.9846 81.8663 18.9846C80.7538 18.9846 79.8267 19.3863 79.0851 20.1589C78.3434 20.9314 77.9726 21.8585 77.9726 22.9401C77.9726 24.0835 78.3434 25.0414 79.0851 25.814C79.8267 26.5865 80.7538 26.9574 81.8663 26.9574ZM102.9 31.9635C100.149 31.9635 97.9244 31.0983 96.1938 29.3677C94.4942 27.6372 93.6289 25.505 93.6289 22.971C93.6289 20.437 94.4942 18.3047 96.1938 16.5742C97.9244 14.8128 100.149 13.9475 102.9 13.9475C105.65 13.9475 107.906 14.8128 109.605 16.5742C111.336 18.3047 112.201 20.437 112.201 22.971C112.201 25.505 111.336 27.6372 109.605 29.3677C107.906 31.0983 105.65 31.9635 102.9 31.9635ZM102.9 26.8647C103.981 26.8647 104.908 26.4938 105.65 25.7522C106.392 24.9796 106.762 24.0526 106.762 22.9401C106.762 21.8585 106.392 20.9314 105.619 20.1898C104.877 19.4481 103.981 19.0773 102.9 19.0773C101.818 19.0773 100.922 19.4481 100.18 20.2207C99.4386 20.9623 99.0677 21.8585 99.0677 22.9401C99.0677 24.0526 99.4386 24.9796 100.18 25.7522C100.922 26.4938 101.818 26.8647 102.9 26.8647ZM124.906 14.0093C127.347 14.0093 129.356 14.8437 130.963 16.5433C132.601 18.2429 133.404 20.3752 133.404 22.971C133.404 25.5668 132.601 27.699 130.994 29.3986C129.387 31.0983 127.378 31.9326 124.937 31.9326C122.99 31.9326 121.383 31.2837 120.116 29.9549V31.5H114.863V7.92156H120.302V15.7707C121.538 14.5965 123.083 14.0093 124.906 14.0093ZM123.948 26.9265C126.204 26.9265 127.842 25.1959 127.842 22.9401C127.842 21.8585 127.471 20.9314 126.729 20.1589C126.019 19.3863 125.092 18.9846 123.948 18.9846C122.836 18.9846 121.909 19.3863 121.167 20.1589C120.456 20.9314 120.085 21.8585 120.085 22.9401C120.085 25.1959 121.723 26.9265 123.948 26.9265ZM153.137 22.5383C153.137 23.2491 153.075 23.9598 152.951 24.7324H140.776C141.394 26.5247 142.785 27.4209 144.948 27.4209C146.833 27.4209 148.532 26.8956 150.108 25.8449L152.241 29.5223C150.047 31.0983 147.544 31.8708 144.701 31.8708C141.672 31.8708 139.354 31.0056 137.717 29.3059C136.079 27.5754 135.275 25.4741 135.275 22.971C135.275 20.4061 136.11 18.2738 137.809 16.5742C139.509 14.8746 141.703 14.0093 144.391 14.0093C146.925 14.0093 149.027 14.7819 150.665 16.2961C152.302 17.8103 153.137 19.9116 153.137 22.5383ZM144.391 18.3665C142.506 18.3665 141.301 19.2318 140.714 20.9932H147.945C147.482 19.3554 146.215 18.3665 144.391 18.3665ZM163.914 8.66322H173C175.905 8.66322 178.068 9.43577 179.458 10.95C180.88 12.4642 181.591 14.3492 181.591 16.6051C181.591 18.861 180.849 20.7151 179.397 22.1675C177.944 23.6199 175.657 24.3307 172.598 24.3307H169.693V31.5H163.914V8.66322ZM169.693 19.1391H172.876C174.699 19.1391 175.657 17.9957 175.657 16.5433C175.657 15.06 174.607 13.9475 173 13.9475H169.693V19.1391ZM189.349 31.5H183.91V7.92156H189.225V16.7596C190.06 15.2454 192.099 13.9784 194.571 13.9784C196.395 13.9784 197.971 14.5965 199.238 15.8016C200.505 17.0068 201.154 18.7683 201.154 21.0241V31.5H195.684V22.4765C195.684 20.2516 194.541 18.9537 192.686 18.9537C190.709 18.9537 189.349 20.4061 189.349 22.6001V31.5ZM212.868 31.9635C210.118 31.9635 207.893 31.0983 206.162 29.3677C204.463 27.6372 203.598 25.505 203.598 22.971C203.598 20.437 204.463 18.3047 206.162 16.5742C207.893 14.8128 210.118 13.9475 212.868 13.9475C215.619 13.9475 217.874 14.8128 219.574 16.5742C221.305 18.3047 222.17 20.437 222.17 22.971C222.17 25.505 221.305 27.6372 219.574 29.3677C217.874 31.0983 215.619 31.9635 212.868 31.9635ZM212.868 26.8647C213.95 26.8647 214.877 26.4938 215.619 25.7522C216.36 24.9796 216.731 24.0526 216.731 22.9401C216.731 21.8585 216.36 20.9314 215.588 20.1898C214.846 19.4481 213.95 19.0773 212.868 19.0773C211.787 19.0773 210.891 19.4481 210.149 20.2207C209.407 20.9623 209.036 21.8585 209.036 22.9401C209.036 24.0526 209.407 24.9796 210.149 25.7522C210.891 26.4938 211.787 26.8647 212.868 26.8647ZM236.365 26.1848L237.817 30.542C236.241 31.4691 234.418 31.9326 232.378 31.9326C228.145 31.9326 226.043 29.5841 226.043 24.8869V18.9537H223.447V14.4419H226.105V8.3851H231.513V14.4419H236.859V18.9537H231.513V24.238C231.513 26.0612 232.224 26.9574 233.676 26.9574C234.48 26.9574 235.376 26.7101 236.365 26.1848ZM247.875 31.9635C245.124 31.9635 242.899 31.0983 241.169 29.3677C239.469 27.6372 238.604 25.505 238.604 22.971C238.604 20.437 239.469 18.3047 241.169 16.5742C242.899 14.8128 245.124 13.9475 247.875 13.9475C250.625 13.9475 252.881 14.8128 254.581 16.5742C256.311 18.3047 257.176 20.437 257.176 22.971C257.176 25.505 256.311 27.6372 254.581 29.3677C252.881 31.0983 250.625 31.9635 247.875 31.9635ZM247.875 26.8647C248.956 26.8647 249.883 26.4938 250.625 25.7522C251.367 24.9796 251.738 24.0526 251.738 22.9401C251.738 21.8585 251.367 20.9314 250.594 20.1898C249.852 19.4481 248.956 19.0773 247.875 19.0773C246.793 19.0773 245.897 19.4481 245.155 20.2207C244.414 20.9623 244.043 21.8585 244.043 22.9401C244.043 24.0526 244.414 24.9796 245.155 25.7522C245.897 26.4938 246.793 26.8647 247.875 26.8647ZM266.024 31.9635C263.026 31.9635 260.523 30.9747 258.452 29.0278L260.894 25.3504C262.532 26.772 264.231 27.4827 265.993 27.4827C267.198 27.4827 267.816 27.1119 267.816 26.4011C267.816 25.9994 267.507 25.6904 266.889 25.4432C266.796 25.4123 266.178 25.2268 265.004 24.8251C263.86 24.4234 263.057 24.1453 262.655 23.9598C260.523 22.971 259.472 21.4259 259.472 19.3245C259.472 17.7176 260.121 16.4197 261.388 15.4308C262.655 14.411 264.386 13.9166 266.518 13.9166C268.959 13.9166 271.061 14.6583 272.884 16.1416L270.535 19.7262C269.114 18.7683 267.754 18.2738 266.425 18.2738C265.529 18.2738 264.88 18.7065 264.88 19.2318C264.88 19.788 265.406 20.1898 266.425 20.4679C268.063 20.9314 269.423 21.4259 270.443 21.9512C272.513 22.971 273.347 24.2998 273.347 26.2775C273.347 27.9462 272.698 29.3059 271.37 30.3875C270.041 31.4382 268.279 31.9635 266.024 31.9635ZM281.452 31.5H276.013V7.92156H281.329V16.7596C282.163 15.2454 284.203 13.9784 286.675 13.9784C288.498 13.9784 290.074 14.5965 291.341 15.8016C292.608 17.0068 293.257 18.7683 293.257 21.0241V31.5H287.787V22.4765C287.787 20.2516 286.644 18.9537 284.79 18.9537C282.812 18.9537 281.452 20.4061 281.452 22.6001V31.5ZM304.972 31.9635C302.221 31.9635 299.996 31.0983 298.266 29.3677C296.566 27.6372 295.701 25.505 295.701 22.971C295.701 20.437 296.566 18.3047 298.266 16.5742C299.996 14.8128 302.221 13.9475 304.972 13.9475C307.722 13.9475 309.978 14.8128 311.677 16.5742C313.408 18.3047 314.273 20.437 314.273 22.971C314.273 25.505 313.408 27.6372 311.677 29.3677C309.978 31.0983 307.722 31.9635 304.972 31.9635ZM304.972 26.8647C306.053 26.8647 306.98 26.4938 307.722 25.7522C308.463 24.9796 308.834 24.0526 308.834 22.9401C308.834 21.8585 308.463 20.9314 307.691 20.1898C306.949 19.4481 306.053 19.0773 304.972 19.0773C303.89 19.0773 302.994 19.4481 302.252 20.2207C301.51 20.9623 301.14 21.8585 301.14 22.9401C301.14 24.0526 301.51 24.9796 302.252 25.7522C302.994 26.4938 303.89 26.8647 304.972 26.8647ZM327.225 14.0093C329.667 14.0093 331.644 14.8746 333.22 16.6051C334.796 18.3047 335.569 20.437 335.569 22.9401C335.569 25.4432 334.765 27.5754 333.189 29.3368C331.613 31.0674 329.636 31.9326 327.256 31.9326C325.371 31.9326 323.733 31.3146 322.405 30.0785V38.5148H316.935V14.4419H322.312V16.018C323.641 14.6892 325.278 14.0093 327.225 14.0093ZM330.006 23.0019C330.006 20.7769 328.4 19.0773 326.175 19.0773C323.95 19.0773 322.312 20.7769 322.312 23.0019C322.312 24.0835 322.683 25.0105 323.393 25.7831C324.135 26.5556 325.062 26.9265 326.175 26.9265C327.287 26.9265 328.214 26.5556 328.925 25.7831C329.636 25.0105 330.006 24.0835 330.006 23.0019Z" fill="#15161B"/>
<defs>
<clipPath id="clip0_1055_1115">
<rect width="41" height="40" fill="white" transform="translate(6)"/>
</clipPath>
</defs>
</svg>
