<svg width="314" height="40" viewBox="0 0 314 40" fill="none" xmlns="http://www.w3.org/2000/svg">
<g clip-path="url(#clip0_1055_1144)">
<path d="M22.9167 14.0333C22.291 13.7881 21.6215 13.6746 20.95 13.7C20.3442 13.6874 19.7382 13.6985 19.1333 13.7333V19.3333L19.7833 19.3667H20.6667C21.3167 19.3667 21.9667 19.2667 22.5833 19.0667C23.1167 18.9167 23.5833 18.6 23.95 18.1833C24.3 17.7667 24.4667 17.2 24.4667 16.4667C24.5043 15.9483 24.3738 15.4317 24.0946 14.9933C23.8154 14.555 23.4023 14.2183 22.9167 14.0333ZM38.9167 0.500001H13.0833C11.2047 0.500001 9.40304 1.24628 8.07466 2.57466C6.74628 3.90304 6 5.70472 6 7.58333L6 32.4167C6 36.3333 9.16667 39.5 13.0833 39.5H38.9167C42.8333 39.5 46 36.3333 46 32.4167V7.58333C46 3.66667 42.8333 0.500001 38.9167 0.500001ZM27.1 19.9167C26.4333 20.85 25.5 21.55 24.4167 21.95C23.2833 22.3667 22.0333 22.5167 20.6667 22.5167L19.8333 22.5L19.1167 22.4833V27.8333C19.1214 27.8609 19.1203 27.8891 19.1134 27.9162C19.1066 27.9434 19.0941 27.9687 19.0768 27.9907C19.0595 28.0127 19.0378 28.0308 19.0131 28.0439C18.9884 28.057 18.9612 28.0647 18.9333 28.0667H15.7C15.5667 28.0667 15.5 28 15.5 27.85V10.7C15.5 10.5833 15.55 10.5167 15.6667 10.5167L16.6 10.5L17.8667 10.4667L19.3167 10.4333L20.8333 10.4167C22.2 10.4167 23.3333 10.5833 24.2667 10.9333C25.1 11.2167 25.8667 11.6833 26.5 12.3C27.0333 12.8333 27.45 13.4833 27.7167 14.2C27.9667 14.9 28.1 15.6167 28.1 16.3667C28.1 17.8 27.7667 18.9833 27.1 19.9167ZM38.4667 14.6667V17.9167C38.4667 18.05 38.3833 18.1 38.2 18.1C37.1004 18.0601 36.006 18.2709 35 18.7167C34.6833 18.8667 34.3833 19.0667 34.15 19.3333V27.8333C34.15 28 34.0833 28.0667 33.9333 28.0667H30.65C30.6193 28.0714 30.588 28.0699 30.5579 28.0624C30.5278 28.0548 30.4995 28.0413 30.4746 28.0227C30.4498 28.0041 30.4289 27.9807 30.4133 27.9539C30.3976 27.9271 30.3874 27.8974 30.3833 27.8667V18.5667L30.3667 17.3167L30.3333 16.0167C30.3333 15.6333 30.3 15.2667 30.2667 14.8833C30.261 14.8439 30.2696 14.8037 30.291 14.77C30.3124 14.7364 30.3452 14.7116 30.3833 14.7H33.35C33.5167 14.7 33.65 14.8167 33.6833 14.9667C33.834 15.4636 33.907 15.9808 33.9 16.5C34.4 15.9167 35.0167 15.4333 35.7 15.0667C36.4747 14.6363 37.3471 14.4125 38.2333 14.4167C38.35 14.4 38.45 14.4833 38.4667 14.6V14.6667Z" fill="#5988ED"/>
</g>
<path d="M70.9097 31.5H64.9765L63.6477 27.3282H56.3856L55.0259 31.5H49.0618L57.4054 8.66322H62.7824L70.9097 31.5ZM57.8381 22.322H62.2571L60.0939 15.5544L57.8381 22.322ZM84.5437 15.7707V7.92156H90.0134V31.5H84.6982V30.0167C83.4312 31.2837 81.8243 31.9326 79.9392 31.9326C77.5597 31.9326 75.5511 31.0983 73.9751 29.3986C72.3991 27.699 71.5956 25.5668 71.5956 22.971C71.5956 20.4061 72.3991 18.2738 73.9751 16.5742C75.582 14.8746 77.5597 14.0093 79.9392 14.0093C81.7624 14.0093 83.3076 14.5965 84.5437 15.7707ZM80.8663 26.9574C83.1221 26.9574 84.76 25.1959 84.76 22.9401C84.76 20.7151 83.1221 18.9846 80.8663 18.9846C79.7538 18.9846 78.8267 19.3863 78.0851 20.1589C77.3434 20.9314 76.9726 21.8585 76.9726 22.9401C76.9726 24.0835 77.3434 25.0414 78.0851 25.814C78.8267 26.5865 79.7538 26.9574 80.8663 26.9574ZM101.9 31.9635C99.1493 31.9635 96.9244 31.0983 95.1938 29.3677C93.4942 27.6372 92.6289 25.505 92.6289 22.971C92.6289 20.437 93.4942 18.3047 95.1938 16.5742C96.9244 14.8128 99.1493 13.9475 101.9 13.9475C104.65 13.9475 106.906 14.8128 108.605 16.5742C110.336 18.3047 111.201 20.437 111.201 22.971C111.201 25.505 110.336 27.6372 108.605 29.3677C106.906 31.0983 104.65 31.9635 101.9 31.9635ZM101.9 26.8647C102.981 26.8647 103.908 26.4938 104.65 25.7522C105.392 24.9796 105.762 24.0526 105.762 22.9401C105.762 21.8585 105.392 20.9314 104.619 20.1898C103.877 19.4481 102.981 19.0773 101.9 19.0773C100.818 19.0773 99.9219 19.4481 99.1802 20.2207C98.4386 20.9623 98.0677 21.8585 98.0677 22.9401C98.0677 24.0526 98.4386 24.9796 99.1802 25.7522C99.9219 26.4938 100.818 26.8647 101.9 26.8647ZM123.906 14.0093C126.347 14.0093 128.356 14.8437 129.963 16.5433C131.601 18.2429 132.404 20.3752 132.404 22.971C132.404 25.5668 131.601 27.699 129.994 29.3986C128.387 31.0983 126.378 31.9326 123.937 31.9326C121.99 31.9326 120.383 31.2837 119.116 29.9549V31.5H113.863V7.92156H119.302V15.7707C120.538 14.5965 122.083 14.0093 123.906 14.0093ZM122.948 26.9265C125.204 26.9265 126.842 25.1959 126.842 22.9401C126.842 21.8585 126.471 20.9314 125.729 20.1589C125.019 19.3863 124.092 18.9846 122.948 18.9846C121.836 18.9846 120.909 19.3863 120.167 20.1589C119.456 20.9314 119.085 21.8585 119.085 22.9401C119.085 25.1959 120.723 26.9265 122.948 26.9265ZM152.137 22.5383C152.137 23.2491 152.075 23.9598 151.951 24.7324H139.776C140.394 26.5247 141.785 27.4209 143.948 27.4209C145.833 27.4209 147.532 26.8956 149.108 25.8449L151.241 29.5223C149.047 31.0983 146.544 31.8708 143.701 31.8708C140.672 31.8708 138.354 31.0056 136.717 29.3059C135.079 27.5754 134.275 25.4741 134.275 22.971C134.275 20.4061 135.11 18.2738 136.809 16.5742C138.509 14.8746 140.703 14.0093 143.391 14.0093C145.925 14.0093 148.027 14.7819 149.665 16.2961C151.302 17.8103 152.137 19.9116 152.137 22.5383ZM143.391 18.3665C141.506 18.3665 140.301 19.2318 139.714 20.9932H146.945C146.482 19.3554 145.215 18.3665 143.391 18.3665ZM162.914 8.66322H172C174.905 8.66322 177.068 9.43577 178.458 10.95C179.88 12.4642 180.591 14.3492 180.591 16.6051C180.591 18.861 179.849 20.7151 178.397 22.1675C176.944 23.6199 174.657 24.3307 171.598 24.3307H168.693V31.5H162.914V8.66322ZM168.693 19.1391H171.876C173.699 19.1391 174.657 17.9957 174.657 16.5433C174.657 15.06 173.607 13.9475 172 13.9475H168.693V19.1391ZM188.349 31.5H182.91V14.4419H188.133V16.5433C189.214 14.8437 190.728 13.9784 192.675 13.9784C193.417 13.9784 194.128 14.1329 194.808 14.4419L194.375 19.6335C193.571 19.3554 192.83 19.2318 192.119 19.2318C189.616 19.2318 188.349 20.8696 188.349 24.1453V31.5ZM213.368 22.5383C213.368 23.2491 213.306 23.9598 213.183 24.7324H201.007C201.625 26.5247 203.016 27.4209 205.179 27.4209C207.064 27.4209 208.764 26.8956 210.34 25.8449L212.472 29.5223C210.278 31.0983 207.775 31.8708 204.932 31.8708C201.903 31.8708 199.586 31.0056 197.948 29.3059C196.31 27.5754 195.506 25.4741 195.506 22.971C195.506 20.4061 196.341 18.2738 198.04 16.5742C199.74 14.8746 201.934 14.0093 204.623 14.0093C207.157 14.0093 209.258 14.7819 210.896 16.2961C212.534 17.8103 213.368 19.9116 213.368 22.5383ZM204.623 18.3665C202.738 18.3665 201.532 19.2318 200.945 20.9932H208.176C207.713 19.3554 206.446 18.3665 204.623 18.3665ZM237.308 13.9475C239.286 13.9475 240.954 14.5656 242.314 15.8016C243.705 17.0068 244.384 18.7683 244.384 21.0859V31.5H238.915V22.1675C238.915 20.0353 237.71 18.9537 236.072 18.9537C234.218 18.9537 232.889 20.2207 232.889 22.3529V31.5H227.45V22.1675C227.45 20.1589 226.245 18.9537 224.514 18.9537C222.753 18.9537 221.424 20.2207 221.424 22.3529V31.5H215.985V14.4419H221.3V16.8214C222.258 15.06 224.391 13.9166 226.585 13.9475C228.872 13.9784 230.448 14.9364 231.313 16.7905C232.58 14.9364 234.867 13.9475 237.308 13.9475ZM250.515 12.9277C248.692 12.9277 247.363 11.5989 247.363 9.7757C247.363 8.01427 248.754 6.68547 250.515 6.68547C252.277 6.68547 253.636 8.01427 253.636 9.7757C253.636 11.5989 252.277 12.9277 250.515 12.9277ZM253.265 14.4419V31.5H247.796V14.4419H253.265ZM273.664 22.5383C273.664 23.2491 273.602 23.9598 273.478 24.7324H261.303C261.921 26.5247 263.311 27.4209 265.475 27.4209C267.36 27.4209 269.059 26.8956 270.635 25.8449L272.767 29.5223C270.573 31.0983 268.07 31.8708 265.227 31.8708C262.199 31.8708 259.881 31.0056 258.243 29.3059C256.606 27.5754 255.802 25.4741 255.802 22.971C255.802 20.4061 256.636 18.2738 258.336 16.5742C260.036 14.8746 262.23 14.0093 264.918 14.0093C267.452 14.0093 269.554 14.7819 271.191 16.2961C272.829 17.8103 273.664 19.9116 273.664 22.5383ZM264.918 18.3665C263.033 18.3665 261.828 19.2318 261.241 20.9932H268.472C268.009 19.3554 266.742 18.3665 264.918 18.3665ZM281.72 31.5H276.281V14.4419H281.503V16.5433C282.585 14.8437 284.099 13.9784 286.046 13.9784C286.788 13.9784 287.498 14.1329 288.178 14.4419L287.746 19.6335C286.942 19.3554 286.201 19.2318 285.49 19.2318C282.987 19.2318 281.72 20.8696 281.72 24.1453V31.5ZM306.739 22.5383C306.739 23.2491 306.677 23.9598 306.553 24.7324H294.378C294.996 26.5247 296.386 27.4209 298.55 27.4209C300.435 27.4209 302.134 26.8956 303.71 25.8449L305.843 29.5223C303.649 31.0983 301.145 31.8708 298.302 31.8708C295.274 31.8708 292.956 31.0056 291.319 29.3059C289.681 27.5754 288.877 25.4741 288.877 22.971C288.877 20.4061 289.712 18.2738 291.411 16.5742C293.111 14.8746 295.305 14.0093 297.993 14.0093C300.527 14.0093 302.629 14.7819 304.267 16.2961C305.904 17.8103 306.739 19.9116 306.739 22.5383ZM297.993 18.3665C296.108 18.3665 294.903 19.2318 294.316 20.9932H301.547C301.084 19.3554 299.817 18.3665 297.993 18.3665Z" fill="#15161B"/>
<defs>
<clipPath id="clip0_1055_1144">
<rect width="40" height="40" fill="white" transform="translate(6)"/>
</clipPath>
</defs>
</svg>
