<svg width="229" height="40" viewBox="0 0 229 40" fill="none" xmlns="http://www.w3.org/2000/svg">
<g clip-path="url(#clip0_1055_1061)">
<path d="M45.4567 7.48828L42.7399 31.3545L27.3356 40L11.9303 31.3545L9.2135 7.48828L27.3356 1L45.4567 7.48828ZM15.3053 30.7461H19.5104L22.024 25.1162H32.6471L35.1608 30.7461H39.3668L27.3356 5.62109L15.3053 30.7461ZM31.1276 21.5469H23.5406L27.3346 13.5625L31.1276 21.5469Z" fill="#5988ED"/>
</g>
<path d="M72.9097 31.5H66.9765L65.6477 27.3282H58.3856L57.0259 31.5H51.0618L59.4054 8.66322H64.7824L72.9097 31.5ZM59.8381 22.322H64.2571L62.0939 15.5544L59.8381 22.322ZM80.1993 31.5H74.7605V14.4419H80.0757V16.8214C80.91 15.2145 82.9496 13.9784 85.4218 13.9784C87.245 13.9784 88.821 14.5965 90.088 15.8016C91.355 17.0068 92.0039 18.7683 92.0039 21.0241V31.5H86.5342V22.4765C86.5342 20.2516 85.3909 18.9537 83.5367 18.9537C81.559 18.9537 80.1993 20.4061 80.1993 22.631V31.5ZM107.982 15.8634V14.4419H112.896V29.8622C112.896 32.5507 111.969 34.7138 110.146 36.3208C108.322 37.9277 106.005 38.7311 103.192 38.7311C100.133 38.7311 97.4447 37.8659 95.127 36.1662L97.1047 32.1799C99.0825 33.4777 101.029 34.1267 102.976 34.1267C106.036 34.1267 107.704 32.458 107.704 30.2021V29.8313C106.499 30.9747 104.923 31.5309 102.945 31.5309C100.411 31.5309 98.3717 30.7274 96.8266 29.0896C95.2815 27.4518 94.509 25.3813 94.509 22.8165C94.509 20.1898 95.3433 18.0884 96.9811 16.4506C98.619 14.8128 100.689 14.0093 103.192 14.0093C105.078 14.0093 106.684 14.6274 107.982 15.8634ZM107.735 22.8783C107.735 20.6533 106.097 19.0155 103.872 19.0155C101.647 19.0155 100.01 20.6224 100.01 22.8783C100.01 25.1341 101.647 26.8338 103.872 26.8338C106.097 26.8338 107.735 25.1341 107.735 22.8783ZM116.099 24.0526V14.4419H121.569V24.1144C121.569 25.814 122.651 26.9574 124.288 26.9574C125.988 26.9574 127.039 25.814 127.039 24.1144V14.4419H132.508V24.0526C132.508 29.0896 129.387 31.9326 124.288 31.9326C119.189 31.9326 116.099 29.0896 116.099 24.0526ZM141.189 7.92156V31.5H135.75V7.92156H141.189ZM157.231 15.9871V14.4419H162.36V31.5H157.231V30.0167C155.84 31.2837 154.171 31.9326 152.194 31.9326C149.752 31.9326 147.775 31.0674 146.199 29.3368C144.623 27.6063 143.85 25.4741 143.85 22.9092C143.85 20.3443 144.623 18.212 146.199 16.5433C147.775 14.8437 149.783 14.0093 152.194 14.0093C154.171 14.0093 155.84 14.6583 157.231 15.9871ZM157.169 22.9401C157.169 21.8585 156.798 20.9314 156.025 20.1589C155.253 19.3863 154.326 18.9846 153.213 18.9846C152.07 18.9846 151.143 19.3863 150.401 20.1589C149.66 20.9314 149.289 21.8585 149.289 22.9401C149.289 24.0526 149.66 25.0105 150.401 25.7831C151.174 26.5556 152.101 26.9574 153.213 26.9574C154.326 26.9574 155.253 26.5556 156.025 25.7831C156.798 25.0105 157.169 24.0526 157.169 22.9401ZM171.246 31.5H165.808V14.4419H171.03V16.5433C172.112 14.8437 173.626 13.9784 175.573 13.9784C176.314 13.9784 177.025 14.1329 177.705 14.4419L177.272 19.6335C176.469 19.3554 175.727 19.2318 175.016 19.2318C172.513 19.2318 171.246 20.8696 171.246 24.1453V31.5ZM191.078 31.8708C188.081 31.8708 185.578 30.9747 183.631 29.1514L186.103 24.5161C187.494 25.7213 188.946 26.3393 190.46 26.3393C193.087 26.3393 194.632 24.5779 194.632 21.8585V8.66322H200.411V22.0439C200.411 29.2132 195.992 31.8708 191.078 31.8708ZM211.986 31.9017C208.185 31.9017 205.064 30.5729 202.684 27.9462L205.589 23.7126C207.505 25.6286 209.668 26.5865 212.078 26.5865C213.469 26.5865 214.643 25.9994 214.643 24.9178C214.643 24.2071 214.025 23.6199 212.789 23.1564L210.75 22.4765C209.483 22.013 208.494 21.6422 207.845 21.3022C205.342 19.9735 204.075 17.9957 204.075 15.369C204.075 13.3604 204.878 11.6607 206.454 10.3319C208.03 9.00314 210.07 8.32329 212.573 8.32329C215.694 8.32329 218.382 9.28126 220.7 11.1972L218.012 15.5853C216.652 14.4728 214.396 13.7003 212.665 13.7003C211.089 13.7003 210.224 14.3492 210.224 15.1836C210.224 15.8634 210.842 16.4197 212.047 16.8832L214.056 17.6249C215.199 18.0266 216.096 18.3665 216.683 18.6138C219.588 19.8498 221.04 21.8585 221.04 24.6088C221.04 26.741 220.206 28.4716 218.568 29.8622C216.93 31.2219 214.736 31.9017 211.986 31.9017Z" fill="#15161B"/>
<defs>
<clipPath id="clip0_1055_1061">
<rect width="36.243" height="39" fill="white" transform="translate(9.2135 1)"/>
</clipPath>
</defs>
</svg>
