<svg width="123" height="40" viewBox="0 0 123 40" fill="none" xmlns="http://www.w3.org/2000/svg">
<g clip-path="url(#clip0_85_606)">
<g clip-path="url(#clip1_85_606)">
<g clip-path="url(#clip2_85_606)">
<path d="M23.9683 8.41127C22.7384 13.462 22.8171 13.1921 21.7016 17.8116C21.6772 18.2372 21.3248 18.5728 20.8954 18.5728C20.8486 18.5728 20.8017 18.5691 20.7567 18.5616H20.7623H19.4968C19.4593 18.5691 19.4143 18.5728 19.3712 18.5728C18.9906 18.5728 18.6775 18.2897 18.6288 17.9241V17.9204C17.547 14.4595 16.0978 9.65241 15.1229 6.43708C14.7629 5.25032 14.9991 5.27844 15.9403 5.30282C16.2665 5.31219 16.5815 5.30282 16.9058 5.30282C16.9283 5.30094 16.9546 5.29907 16.9827 5.29907C17.3502 5.29907 17.6539 5.57092 17.7045 5.92338V5.92713C18.0213 7.0614 18.2313 7.93132 20.0405 15.0763C20.0743 15.2169 20.1193 15.35 20.1643 15.4794H20.2599C20.303 15.3031 20.3555 15.1381 20.4005 14.96C21.0854 12.0691 21.7679 9.17558 22.4478 6.2796C22.6597 5.37968 23.0365 5.29532 23.9477 5.29532H24.6151C25.215 5.30469 25.4063 5.42656 25.5563 6.02462C26.0831 8.08131 27.6223 14.9675 27.9017 15.725C28.3516 14.1164 27.7442 16.4186 30.4064 6.14836C30.5902 5.4378 30.7664 5.29719 31.4882 5.29719H32.5962C33.0705 5.30657 33.2112 5.45468 33.0968 5.92151C32.8849 6.75768 32.8418 6.79143 29.469 17.5979C29.1953 18.4678 29.0997 18.5466 28.1866 18.5466H27.2548C26.6137 18.5466 26.4468 18.4322 26.2893 17.8079C25.9106 16.3849 24.242 9.3993 23.9683 8.41502V8.41127ZM12.0369 18.181C12.1644 18.4416 12.4269 18.6178 12.7306 18.6178C12.9443 18.6178 13.1355 18.5316 13.2762 18.391L13.8292 18.0216C14.4292 17.626 14.4704 17.4685 14.1461 16.8349C13.7974 16.1712 13.5911 15.3856 13.5911 14.5513C13.5911 14.5232 13.5911 14.4951 13.5911 14.467V14.4707C13.5911 14.197 13.6436 9.57741 13.5124 8.60251C13.3961 6.97141 12.2656 5.63279 10.7545 5.2072L10.7283 5.20158C10.0665 5.01784 9.30716 4.91285 8.52161 4.91285C8.28538 4.91285 8.04915 4.92223 7.81855 4.94098L7.84855 4.9391C6.46868 4.99347 5.1863 5.35906 4.05203 5.96463L4.0989 5.94213C3.92829 6.034 3.8008 6.18586 3.74081 6.36772L3.73893 6.37334C3.69019 6.59457 3.66207 6.84955 3.66207 7.11015C3.66207 7.22451 3.66769 7.33887 3.67706 7.45136L3.67519 7.43637C3.72768 7.95569 3.90392 8.05131 4.39512 7.88632C4.84508 7.73634 5.27441 7.5451 5.7225 7.41199C6.36931 7.17202 7.11549 7.03328 7.89542 7.03328C8.50098 7.03328 9.08593 7.11765 9.64088 7.27326L9.59588 7.26201C10.1902 7.44012 10.6533 7.8882 10.8483 8.46002L10.852 8.47314C10.9964 8.95685 11.0807 9.51179 11.0807 10.0874C11.0807 10.2636 11.0732 10.4398 11.0582 10.6123L11.0601 10.5898C11.0601 11.0735 11.0507 11.0735 10.5764 10.9854C9.77024 10.7848 8.84595 10.6686 7.89354 10.6686C7.54295 10.6686 7.19423 10.6836 6.85114 10.7154L6.89614 10.7117C5.53501 10.811 4.34638 11.4729 3.54583 12.4609L3.53833 12.4703C3.05087 13.1452 2.7584 13.9907 2.7584 14.9038C2.7584 15.2731 2.80527 15.6293 2.89526 15.9706L2.88964 15.9406C3.08462 17.2192 3.99203 18.2428 5.1863 18.6066L5.20879 18.6122C5.73375 18.7997 6.33931 18.9084 6.97113 18.9084C8.22164 18.9084 9.37465 18.4828 10.2896 17.7685L10.2783 17.7779C10.612 17.5323 10.912 17.2342 11.2532 16.9417C11.5269 17.3804 11.7632 17.7929 12.035 18.1716L12.0369 18.181ZM10.687 12.7684H10.6964C10.9045 12.7684 11.0732 12.9371 11.0732 13.1452C11.0732 13.1714 11.0714 13.1958 11.0657 13.2221V13.2202C11.047 13.5539 11.0751 13.8876 11.0395 14.2214C10.9458 15.2019 10.3327 16.0193 9.48339 16.4036L9.46652 16.4111C8.91532 16.6999 8.26476 16.8705 7.57295 16.8705C7.43234 16.8705 7.2936 16.863 7.15674 16.8499L7.17361 16.8517C6.18183 16.7936 5.40003 15.9762 5.40003 14.975C5.40003 14.8213 5.41877 14.6713 5.4544 14.5269L5.45252 14.5401C5.50127 13.5127 6.31494 12.6896 7.33484 12.6259H7.34047C7.73418 12.5621 8.18789 12.5265 8.6491 12.5265C9.37653 12.5265 10.0852 12.6165 10.7601 12.7852L10.7002 12.7721L10.687 12.7684ZM41.3329 18.4884C42.8796 17.9691 43.9726 16.533 43.9726 14.8419C43.9726 14.5776 43.9464 14.3188 43.8958 14.0695L43.8995 14.0939C43.6989 12.8696 42.8421 11.8872 41.7079 11.5085L41.6854 11.501C39.9755 10.9648 38.575 10.423 37.2177 9.80427L37.4595 9.90363C37.0677 9.70678 36.8014 9.31306 36.7921 8.85561C36.7808 8.78624 36.7752 8.70562 36.7752 8.625C36.7752 7.83945 37.3714 7.19451 38.1363 7.11577H38.1419C38.5375 7.02203 38.9912 6.96953 39.4581 6.96953C39.8649 6.96953 40.2642 7.01078 40.6486 7.08765L40.6111 7.08202C41.2523 7.20576 41.8672 7.45136 42.4915 7.6351C42.7371 7.71384 43.0109 7.81883 43.1777 7.49449C43.264 7.31263 43.3146 7.0989 43.3146 6.87579C43.3146 6.3171 43.0034 5.83152 42.544 5.58404L42.5365 5.58029C41.6104 5.13783 40.523 4.88098 39.3756 4.88098C38.3519 4.88098 37.377 5.08721 36.4883 5.45843L36.5371 5.43968C35.1778 5.97963 34.2348 7.2845 34.2348 8.80874C34.2348 10.2692 35.101 11.5291 36.3477 12.0991L36.3702 12.1084C37.047 12.4346 37.7839 12.6278 38.4963 12.8902C39.2087 13.1527 39.9193 13.4002 40.6148 13.6889C41.0948 13.9551 41.4154 14.4595 41.4154 15.0388C41.4154 15.575 41.1417 16.0456 40.7254 16.3212L40.7198 16.3249C38.2863 17.6748 35.0204 16.113 34.6398 15.9912C34.3511 15.8956 34.1748 16.0099 34.0867 16.3174C34.0155 16.4843 33.9742 16.6792 33.9742 16.8836C33.9742 17.5754 34.4523 18.1566 35.0972 18.3103L35.1066 18.3122C36.1021 18.7116 37.2551 18.9422 38.4625 18.9422C39.4862 18.9422 40.4723 18.7753 41.3929 18.4678L41.3273 18.4866L41.3329 18.4884ZM27.0205 32.784C31.7038 32.2815 35.9559 30.8117 39.6999 28.5769L39.5574 28.6556C40.2605 28.2432 40.9186 27.7557 41.586 27.2757C42.2272 26.8258 41.8672 25.6596 40.5923 26.2033C36.1977 28.1325 31.0945 29.3662 25.7344 29.6174L25.6387 29.6211C25.0763 29.6493 24.4182 29.6643 23.7564 29.6643C21.5966 29.6643 19.4743 29.4993 17.4026 29.1806L17.6333 29.2106C11.7894 28.3688 6.5268 26.4771 1.83036 23.723L2.03472 23.8336C1.86973 23.723 1.68038 23.633 1.4779 23.573L1.4629 23.5692C1.03169 23.4736 0.786086 23.9817 1.25104 24.4204C7.00488 29.7411 14.7291 33.0033 23.2165 33.0033H23.2427H23.2408C24.5064 32.9321 25.7719 32.9246 27.0186 32.784H27.0205ZM42.3697 24.6847C43.6708 24.756 44.0739 25.2041 43.7495 26.4583C43.4158 27.7594 42.9321 29.025 42.529 30.3073C42.4503 30.5623 42.1597 30.8604 42.4578 31.0816C42.784 31.3104 43.0296 30.9935 43.249 30.7929C44.102 29.9811 44.7732 28.9893 45.2063 27.8776L45.225 27.8232C45.7087 26.7658 45.99 25.5284 45.99 24.2254C45.99 24.1954 45.99 24.1673 45.99 24.1373V24.141C45.9712 23.5973 45.8325 23.3667 45.3038 23.2186C44.8838 23.0893 44.3907 22.9899 43.8845 22.9412L43.8545 22.9393C43.5114 22.8962 43.1158 22.8718 42.7128 22.8718C41.1454 22.8718 39.6643 23.2411 38.35 23.8954L38.4063 23.8692C38.1157 24.0267 37.8645 24.1992 37.6339 24.3941L37.6414 24.3885C37.5457 24.4673 37.3601 24.8535 37.8532 24.9247C37.8982 24.9285 37.9526 24.9303 38.0051 24.9303C38.1344 24.9303 38.2619 24.9191 38.3838 24.8966L38.3707 24.8985C39.3568 24.7579 40.4967 24.6772 41.6535 24.6772C41.9047 24.6772 42.1541 24.681 42.4034 24.6885H42.3678L42.3697 24.6847Z" fill="#5988ED"/>
<path d="M23.9683 8.41127C22.7384 13.462 22.8171 13.1921 21.7016 17.8116C21.6772 18.2372 21.3248 18.5728 20.8954 18.5728C20.8486 18.5728 20.8017 18.5691 20.7567 18.5616H20.7623H19.4968C19.4593 18.5691 19.4143 18.5728 19.3712 18.5728C18.9906 18.5728 18.6775 18.2897 18.6288 17.9241V17.9204C17.547 14.4595 16.0978 9.65241 15.1229 6.43708C14.7629 5.25032 14.9991 5.27844 15.9403 5.30282C16.2665 5.31219 16.5815 5.30282 16.9058 5.30282C16.9283 5.30094 16.9546 5.29907 16.9827 5.29907C17.3502 5.29907 17.6539 5.57092 17.7045 5.92338V5.92713C18.0213 7.0614 18.2313 7.93132 20.0405 15.0763C20.0743 15.2169 20.1193 15.35 20.1643 15.4794H20.2599C20.303 15.3031 20.3555 15.1381 20.4005 14.96C21.0854 12.0691 21.7679 9.17558 22.4478 6.2796C22.6597 5.37968 23.0365 5.29532 23.9477 5.29532H24.6151C25.215 5.30469 25.4063 5.42656 25.5563 6.02462C26.0831 8.08131 27.6223 14.9675 27.9017 15.725C28.3516 14.1164 27.7442 16.4186 30.4064 6.14836C30.5902 5.4378 30.7664 5.29719 31.4882 5.29719H32.5962C33.0705 5.30657 33.2112 5.45468 33.0968 5.92151C32.8849 6.75768 32.8418 6.79143 29.469 17.5979C29.1953 18.4678 29.0997 18.5466 28.1866 18.5466H27.2548C26.6137 18.5466 26.4468 18.4322 26.2893 17.8079C25.9106 16.3849 24.242 9.3993 23.9683 8.41502V8.41127ZM12.0369 18.181C12.1644 18.4416 12.4269 18.6178 12.7306 18.6178C12.9443 18.6178 13.1355 18.5316 13.2762 18.391L13.8292 18.0216C14.4292 17.626 14.4704 17.4685 14.1461 16.8349C13.7974 16.1712 13.5911 15.3856 13.5911 14.5513C13.5911 14.5232 13.5911 14.4951 13.5911 14.467V14.4707C13.5911 14.197 13.6436 9.57741 13.5124 8.60251C13.3961 6.97141 12.2656 5.63279 10.7545 5.2072L10.7283 5.20158C10.0665 5.01784 9.30716 4.91285 8.52161 4.91285C8.28538 4.91285 8.04915 4.92223 7.81855 4.94098L7.84855 4.9391C6.46868 4.99347 5.1863 5.35906 4.05203 5.96463L4.0989 5.94213C3.92829 6.034 3.8008 6.18586 3.74081 6.36772L3.73893 6.37334C3.69019 6.59457 3.66207 6.84955 3.66207 7.11015C3.66207 7.22451 3.66769 7.33887 3.67706 7.45136L3.67519 7.43637C3.72768 7.95569 3.90392 8.05131 4.39512 7.88632C4.84508 7.73634 5.27441 7.5451 5.7225 7.41199C6.36931 7.17202 7.11549 7.03328 7.89542 7.03328C8.50098 7.03328 9.08593 7.11765 9.64088 7.27326L9.59588 7.26201C10.1902 7.44012 10.6533 7.8882 10.8483 8.46002L10.852 8.47314C10.9964 8.95685 11.0807 9.51179 11.0807 10.0874C11.0807 10.2636 11.0732 10.4398 11.0582 10.6123L11.0601 10.5898C11.0601 11.0735 11.0507 11.0735 10.5764 10.9854C9.77024 10.7848 8.84595 10.6686 7.89354 10.6686C7.54295 10.6686 7.19423 10.6836 6.85114 10.7154L6.89614 10.7117C5.53501 10.811 4.34638 11.4729 3.54583 12.4609L3.53833 12.4703C3.05087 13.1452 2.7584 13.9907 2.7584 14.9038C2.7584 15.2731 2.80527 15.6293 2.89526 15.9706L2.88964 15.9406C3.08462 17.2192 3.99203 18.2428 5.1863 18.6066L5.20879 18.6122C5.73375 18.7997 6.33931 18.9084 6.97113 18.9084C8.22164 18.9084 9.37465 18.4828 10.2896 17.7685L10.2783 17.7779C10.612 17.5323 10.912 17.2342 11.2532 16.9417C11.5269 17.3804 11.7632 17.7929 12.035 18.1716L12.0369 18.181ZM10.687 12.7684H10.6964C10.9045 12.7684 11.0732 12.9371 11.0732 13.1452C11.0732 13.1714 11.0714 13.1958 11.0657 13.2221V13.2202C11.047 13.5539 11.0751 13.8876 11.0395 14.2214C10.9458 15.2019 10.3327 16.0193 9.48339 16.4036L9.46652 16.4111C8.91532 16.6999 8.26476 16.8705 7.57295 16.8705C7.43234 16.8705 7.2936 16.863 7.15674 16.8499L7.17361 16.8517C6.18183 16.7936 5.40003 15.9762 5.40003 14.975C5.40003 14.8213 5.41877 14.6713 5.4544 14.5269L5.45252 14.5401C5.50127 13.5127 6.31494 12.6896 7.33484 12.6259H7.34047C7.73418 12.5621 8.18789 12.5265 8.6491 12.5265C9.37653 12.5265 10.0852 12.6165 10.7601 12.7852L10.7002 12.7721L10.687 12.7684ZM41.3329 18.4884C42.8796 17.9691 43.9726 16.533 43.9726 14.8419C43.9726 14.5776 43.9464 14.3188 43.8958 14.0695L43.8995 14.0939C43.6989 12.8696 42.8421 11.8872 41.7079 11.5085L41.6854 11.501C39.9755 10.9648 38.575 10.423 37.2177 9.80427L37.4595 9.90363C37.0677 9.70678 36.8014 9.31306 36.7921 8.85561C36.7808 8.78624 36.7752 8.70562 36.7752 8.625C36.7752 7.83945 37.3714 7.19451 38.1363 7.11577H38.1419C38.5375 7.02203 38.9912 6.96953 39.4581 6.96953C39.8649 6.96953 40.2642 7.01078 40.6486 7.08765L40.6111 7.08202C41.2523 7.20576 41.8672 7.45136 42.4915 7.6351C42.7371 7.71384 43.0109 7.81883 43.1777 7.49449C43.264 7.31263 43.3146 7.0989 43.3146 6.87579C43.3146 6.3171 43.0034 5.83152 42.544 5.58404L42.5365 5.58029C41.6104 5.13783 40.523 4.88098 39.3756 4.88098C38.3519 4.88098 37.377 5.08721 36.4883 5.45843L36.5371 5.43968C35.1778 5.97963 34.2348 7.2845 34.2348 8.80874C34.2348 10.2692 35.101 11.5291 36.3477 12.0991L36.3702 12.1084C37.047 12.4346 37.7839 12.6278 38.4963 12.8902C39.2087 13.1527 39.9193 13.4002 40.6148 13.6889C41.0948 13.9551 41.4154 14.4595 41.4154 15.0388C41.4154 15.575 41.1417 16.0456 40.7254 16.3212L40.7198 16.3249C38.2863 17.6748 35.0204 16.113 34.6398 15.9912C34.3511 15.8956 34.1748 16.0099 34.0867 16.3174C34.0155 16.4843 33.9742 16.6792 33.9742 16.8836C33.9742 17.5754 34.4523 18.1566 35.0972 18.3103L35.1066 18.3122C36.1021 18.7116 37.2551 18.9422 38.4625 18.9422C39.4862 18.9422 40.4723 18.7753 41.3929 18.4678L41.3273 18.4866L41.3329 18.4884ZM27.0205 32.784C31.7038 32.2815 35.9559 30.8117 39.6999 28.5769L39.5574 28.6556C40.2605 28.2432 40.9186 27.7557 41.586 27.2757C42.2272 26.8258 41.8672 25.6596 40.5923 26.2033C36.1977 28.1325 31.0945 29.3662 25.7344 29.6174L25.6387 29.6211C25.0763 29.6493 24.4182 29.6643 23.7564 29.6643C21.5966 29.6643 19.4743 29.4993 17.4026 29.1806L17.6333 29.2106C11.7894 28.3688 6.5268 26.4771 1.83036 23.723L2.03472 23.8336C1.86973 23.723 1.68038 23.633 1.4779 23.573L1.4629 23.5692C1.03169 23.4736 0.786086 23.9817 1.25104 24.4204C7.00488 29.7411 14.7291 33.0033 23.2165 33.0033H23.2427H23.2408C24.5064 32.9321 25.7719 32.9246 27.0186 32.784H27.0205ZM42.3697 24.6847C43.6708 24.756 44.0739 25.2041 43.7495 26.4583C43.4158 27.7594 42.9321 29.025 42.529 30.3073C42.4503 30.5623 42.1597 30.8604 42.4578 31.0816C42.784 31.3104 43.0296 30.9935 43.249 30.7929C44.102 29.9811 44.7732 28.9893 45.2063 27.8776L45.225 27.8232C45.7087 26.7658 45.99 25.5284 45.99 24.2254C45.99 24.1954 45.99 24.1673 45.99 24.1373V24.141C45.9712 23.5973 45.8325 23.3667 45.3038 23.2186C44.8838 23.0893 44.3907 22.9899 43.8845 22.9412L43.8545 22.9393C43.5114 22.8962 43.1158 22.8718 42.7128 22.8718C41.1454 22.8718 39.6643 23.2411 38.35 23.8954L38.4063 23.8692C38.1157 24.0267 37.8645 24.1992 37.6339 24.3941L37.6414 24.3885C37.5457 24.4673 37.3601 24.8535 37.8532 24.9247C37.8982 24.9285 37.9526 24.9303 38.0051 24.9303C38.1344 24.9303 38.2619 24.9191 38.3838 24.8966L38.3707 24.8985C39.3568 24.7579 40.4967 24.6772 41.6535 24.6772C41.9047 24.6772 42.1541 24.681 42.4034 24.6885H42.3678L42.3697 24.6847Z" fill="url(#paint0_linear_85_606)"/>
</g>
</g>
<path d="M70.9097 31.5H64.9765L63.6477 27.3282H56.3856L55.0259 31.5H49.0618L57.4054 8.66322H62.7824L70.9097 31.5ZM57.8381 22.322H62.2571L60.0939 15.5544L57.8381 22.322ZM82.5898 31.5H77.0274L69.6727 8.66322H76.0694L79.9631 22.9401L84.4748 8.66322H88.5848L93.1275 22.9401L96.9903 8.66322H103.387L96.0323 31.5H90.5008L86.5453 18.212L82.5898 31.5ZM112.42 31.9017C108.619 31.9017 105.498 30.5729 103.119 27.9462L106.023 23.7126C107.939 25.6286 110.102 26.5865 112.513 26.5865C113.903 26.5865 115.078 25.9994 115.078 24.9178C115.078 24.2071 114.46 23.6199 113.224 23.1564L111.184 22.4765C109.917 22.013 108.928 21.6422 108.279 21.3022C105.776 19.9735 104.509 17.9957 104.509 15.369C104.509 13.3604 105.313 11.6607 106.889 10.3319C108.465 9.00314 110.504 8.32329 113.007 8.32329C116.128 8.32329 118.817 9.28126 121.135 11.1972L118.446 15.5853C117.086 14.4728 114.831 13.7003 113.1 13.7003C111.524 13.7003 110.659 14.3492 110.659 15.1836C110.659 15.8634 111.277 16.4197 112.482 16.8832L114.491 17.6249C115.634 18.0266 116.53 18.3665 117.117 18.6138C120.022 19.8498 121.475 21.8585 121.475 24.6088C121.475 26.741 120.64 28.4716 119.002 29.8622C117.365 31.2219 115.17 31.9017 112.42 31.9017Z" fill="#15161B"/>
</g>
<defs>
<linearGradient id="paint0_linear_85_606" x1="6.68602" y1="2.30602" x2="46.2325" y2="36.2155" gradientUnits="userSpaceOnUse">
<stop stop-color="#0C93FF"/>
<stop offset="1" stop-color="#B153F0"/>
</linearGradient>
<clipPath id="clip0_85_606">
<rect width="123" height="40" fill="white"/>
</clipPath>
<clipPath id="clip1_85_606">
<rect width="46" height="40" fill="white"/>
</clipPath>
<clipPath id="clip2_85_606">
<rect width="50" height="40" fill="white" transform="translate(-4)"/>
</clipPath>
</defs>
</svg>
