<svg width="299" height="42" viewBox="0 0 299 42" fill="none" xmlns="http://www.w3.org/2000/svg">
<g clip-path="url(#clip0_1055_1225)">
<path d="M21.606 41.45H20.4206C20.3651 41.4296 20.3104 41.4249 20.2549 41.4249C19.622 41.3945 18.9937 41.3445 18.3709 41.2593C17.2058 41.1085 16.0603 40.8522 14.9452 40.4958C13.0315 39.8832 11.2483 39.0041 9.5956 37.8586C8.06324 36.7935 6.70748 35.5377 5.52675 34.0913C4.13505 32.3933 3.05044 30.5195 2.28153 28.4604C1.5931 26.6319 1.18129 24.7385 1.05548 22.7842C1.05079 22.6787 1.03516 22.5732 1 22.4677V20.4032C1.03516 20.3126 1.05001 20.2173 1.05548 20.1219C1.08049 19.6546 1.1305 19.1874 1.19145 18.7255C1.49307 16.4954 2.15572 14.3801 3.17547 12.3757C3.87874 10.9942 4.73283 9.70876 5.73695 8.52256C6.7317 7.34731 7.84678 6.29709 9.0822 5.37814C11.0967 3.88094 13.312 2.80102 15.7329 2.13838C16.9081 1.81722 18.1091 1.60623 19.3242 1.50543C19.5399 1.48511 19.7665 1.50074 19.9822 1.44995H22.0115C22.167 1.49527 22.328 1.47027 22.4835 1.48511C23.2876 1.55544 24.0862 1.65625 24.8793 1.81175C27.376 2.30404 29.6913 3.23862 31.8316 4.61938C33.4945 5.68914 34.9612 6.98005 36.2419 8.48193C37.2719 9.68766 38.1455 10.9989 38.8589 12.4148C39.7028 14.0878 40.3053 15.8405 40.6476 17.6839C40.8281 18.6583 40.9641 19.6429 40.9687 20.6377C40.9687 20.7033 40.9836 20.7736 40.9891 20.8385V22.0239C40.9687 22.0989 40.9687 22.1794 40.9641 22.2599C40.9641 22.4506 40.9641 22.642 40.9492 22.8327C40.8586 24.0486 40.6679 25.2488 40.3663 26.4342C39.7888 28.6597 38.8589 30.7242 37.568 32.6277C36.6084 34.0445 35.4887 35.3205 34.2024 36.4504C32.9217 37.5757 31.5198 38.5251 29.9976 39.2932C28.2441 40.177 26.4008 40.7904 24.4668 41.1264C23.7236 41.2569 22.975 41.3421 22.2217 41.3874C22.0233 41.4101 21.8123 41.4054 21.606 41.45ZM13.5238 31.9057C13.8551 31.9159 14.2271 31.8752 14.599 31.7955C15.6993 31.5541 16.6338 31.0524 17.352 30.1632C17.7888 29.6208 18.156 29.0332 18.4725 28.4151C18.8445 27.6868 19.1555 26.9281 19.4266 26.1599C19.7579 25.2308 20.0392 24.2814 20.2557 23.3218C20.376 22.7842 20.2409 22.4474 19.6478 22.2622C18.8945 22.0262 18.1357 21.8153 17.3621 21.6441C16.0814 21.3628 14.7905 21.1823 13.4738 21.2269C13.1018 21.2417 12.7306 21.2823 12.3634 21.3472C11.2983 21.5332 10.3942 22.0255 9.65576 22.8038C8.39456 24.1298 7.89289 25.7122 8.20389 27.5157C8.65086 30.0928 10.9318 31.926 13.5238 31.9057ZM15.6485 13.4307C15.6336 13.8073 15.7039 14.2191 15.8196 14.6309C16.0407 15.4147 16.4072 16.1328 16.8393 16.8111C17.8239 18.3536 19.0648 19.6742 20.4112 20.9002C20.5214 21.001 20.6527 21.0862 20.7933 21.1511C20.934 21.2214 21.0746 21.2214 21.22 21.1612C21.3606 21.101 21.4864 21.0159 21.5919 20.9049C22.0592 20.4431 22.521 19.9805 22.9633 19.503C23.5861 18.8248 24.1792 18.127 24.7168 17.3784C25.2044 16.7001 25.6412 15.9867 25.9624 15.2131C26.2836 14.4442 26.4398 13.651 26.3343 12.8172C26.1585 11.4412 25.5709 10.2753 24.5207 9.36103C23.279 8.28189 21.8326 7.84976 20.2049 8.09044C17.5575 8.48271 15.6383 10.8137 15.6485 13.4307ZM28.6989 31.876C28.8294 31.8713 29.0654 31.876 29.3014 31.8409C30.8885 31.6049 32.1442 30.836 33.0288 29.4904C33.7219 28.4307 34.0032 27.2547 33.8727 25.9943C33.7523 24.8136 33.2749 23.779 32.4661 22.91C31.7629 22.1567 30.9236 21.634 29.9093 21.4128C29.3514 21.2925 28.7841 21.2417 28.2168 21.2323C27.544 21.2222 26.8759 21.2823 26.2124 21.373C24.8864 21.559 23.59 21.8754 22.3147 22.2771C22.1842 22.3169 22.0639 22.3779 21.9584 22.4631C21.8224 22.5732 21.7474 22.7092 21.7474 22.885C21.7474 23.0358 21.7623 23.1867 21.7974 23.3375C21.8779 23.6391 21.9482 23.9399 22.0287 24.2369C22.4007 25.5934 22.8524 26.9195 23.4705 28.1854C23.8268 28.9137 24.2394 29.6021 24.7668 30.2202C25.1685 30.6875 25.6358 31.0688 26.1937 31.3353C26.9564 31.7002 27.7495 31.8963 28.6989 31.876Z" fill="#5988ED"/>
<path d="M56.4647 32.5H47.2559V9.66322H56.5575C60.1112 9.66322 62.8924 10.683 64.9011 12.7225C66.9097 14.7621 67.9295 17.5433 67.9295 21.0971C67.9295 24.6199 66.9097 27.4011 64.8702 29.4407C62.8615 31.4802 60.0494 32.5 56.4647 32.5ZM53.0346 15.1947V26.9685H56.7429C58.3807 26.9685 59.6786 26.4123 60.5747 25.2689C61.4709 24.1255 61.9344 22.704 61.9344 21.0662C61.9344 19.4283 61.4709 18.0377 60.5747 16.8944C59.6786 15.751 58.4116 15.1947 56.7429 15.1947H53.0346ZM83.4509 16.9871V15.4419H88.5807V32.5H83.4509V31.0167C82.0603 32.2837 80.3916 32.9326 78.4138 32.9326C75.9725 32.9326 73.9948 32.0674 72.4188 30.3368C70.8428 28.6063 70.0702 26.4741 70.0702 23.9092C70.0702 21.3443 70.8428 19.212 72.4188 17.5433C73.9948 15.8437 76.0034 15.0093 78.4138 15.0093C80.3916 15.0093 82.0603 15.6583 83.4509 16.9871ZM83.3891 23.9401C83.3891 22.8585 83.0182 21.9314 82.2457 21.1589C81.4731 20.3863 80.5461 19.9846 79.4336 19.9846C78.2902 19.9846 77.3631 20.3863 76.6215 21.1589C75.8798 21.9314 75.509 22.8585 75.509 23.9401C75.509 25.0526 75.8798 26.0105 76.6215 26.7831C77.394 27.5556 78.3211 27.9574 79.4336 27.9574C80.5461 27.9574 81.4731 27.5556 82.2457 26.7831C83.0182 26.0105 83.3891 25.0526 83.3891 23.9401ZM100 25.1762L103.462 15.4419H109.426L102.102 32.4691H97.7137L90.4208 15.4419H96.4158L100 25.1762ZM114.094 13.9277C112.271 13.9277 110.942 12.5989 110.942 10.7757C110.942 9.01427 112.333 7.68547 114.094 7.68547C115.856 7.68547 117.215 9.01427 117.215 10.7757C117.215 12.5989 115.856 13.9277 114.094 13.9277ZM116.844 15.4419V32.5H111.375V15.4419H116.844ZM125.592 32.5H120.154V15.4419H125.469V17.8214C126.303 16.2145 128.343 14.9784 130.815 14.9784C132.638 14.9784 134.214 15.5965 135.481 16.8016C136.748 18.0068 137.397 19.7683 137.397 22.0241V32.5H131.927V23.4765C131.927 21.2516 130.784 19.9537 128.93 19.9537C126.952 19.9537 125.592 21.4061 125.592 23.631V32.5ZM148.956 32.8708C146.268 32.8708 144.105 32.0365 142.405 30.3677C140.736 28.699 139.902 26.5668 139.902 23.9401C139.902 21.3134 140.736 19.1811 142.436 17.5124C144.136 15.8437 146.33 15.0093 149.049 15.0093C152.603 15.0093 155.724 16.7398 157.176 19.9846L152.819 22.2713C151.954 20.8189 150.749 20.0773 149.173 20.0773C148.029 20.0773 147.102 20.4481 146.361 21.1898C145.65 21.9314 145.279 22.8585 145.279 23.9401C145.279 26.1959 146.917 27.8647 149.111 27.8647C150.687 27.8647 152.139 26.9994 152.757 25.6706L157.115 28.2664C155.631 31.1094 152.572 32.8708 148.956 32.8708ZM162.288 13.9277C160.465 13.9277 159.136 12.5989 159.136 10.7757C159.136 9.01427 160.527 7.68547 162.288 7.68547C164.05 7.68547 165.41 9.01427 165.41 10.7757C165.41 12.5989 164.05 13.9277 162.288 13.9277ZM165.039 15.4419V32.5H159.569V15.4419H165.039ZM195.173 32.5H188.56L184.543 24.9289H182.287V32.5H176.508V9.66322H186.026C188.776 9.66322 190.847 10.374 192.268 11.8264C193.69 13.2479 194.401 15.0402 194.401 17.2343C194.401 20.1082 193.041 22.704 190.229 24.0328L195.173 32.5ZM185.964 14.9475H182.287V19.8919H185.748C189.456 20.0773 189.178 14.7003 185.964 14.9475ZM214.136 23.5383C214.136 24.2491 214.074 24.9598 213.951 25.7324H201.775C202.393 27.5247 203.784 28.4209 205.947 28.4209C207.832 28.4209 209.532 27.8956 211.108 26.8449L213.24 30.5223C211.046 32.0983 208.543 32.8708 205.7 32.8708C202.671 32.8708 200.354 32.0056 198.716 30.3059C197.078 28.5754 196.275 26.4741 196.275 23.971C196.275 21.4061 197.109 19.2738 198.809 17.5742C200.508 15.8746 202.702 15.0093 205.391 15.0093C207.925 15.0093 210.026 15.7819 211.664 17.2961C213.302 18.8103 214.136 20.9116 214.136 23.5383ZM205.391 19.3665C203.506 19.3665 202.301 20.2318 201.713 21.9932H208.945C208.481 20.3554 207.214 19.3665 205.391 19.3665ZM222.999 32.9635C220.002 32.9635 217.499 31.9747 215.428 30.0278L217.869 26.3504C219.507 27.772 221.207 28.4827 222.968 28.4827C224.174 28.4827 224.792 28.1119 224.792 27.4011C224.792 26.9994 224.483 26.6904 223.865 26.4432C223.772 26.4123 223.154 26.2268 221.98 25.8251C220.836 25.4234 220.033 25.1453 219.631 24.9598C217.499 23.971 216.448 22.4259 216.448 20.3245C216.448 18.7176 217.097 17.4197 218.364 16.4308C219.631 15.411 221.361 14.9166 223.494 14.9166C225.935 14.9166 228.036 15.6583 229.86 17.1416L227.511 20.7262C226.09 19.7683 224.73 19.2738 223.401 19.2738C222.505 19.2738 221.856 19.7065 221.856 20.2318C221.856 20.788 222.381 21.1898 223.401 21.4679C225.039 21.9314 226.399 22.4259 227.418 22.9512C229.489 23.971 230.323 25.2998 230.323 27.2775C230.323 28.9462 229.674 30.3059 228.345 31.3875C227.017 32.4382 225.255 32.9635 222.999 32.9635ZM241.366 32.9635C238.616 32.9635 236.391 32.0983 234.66 30.3677C232.96 28.6372 232.095 26.505 232.095 23.971C232.095 21.437 232.96 19.3047 234.66 17.5742C236.391 15.8128 238.616 14.9475 241.366 14.9475C244.116 14.9475 246.372 15.8128 248.072 17.5742C249.802 19.3047 250.667 21.437 250.667 23.971C250.667 26.505 249.802 28.6372 248.072 30.3677C246.372 32.0983 244.116 32.9635 241.366 32.9635ZM241.366 27.8647C242.447 27.8647 243.374 27.4938 244.116 26.7522C244.858 25.9796 245.229 25.0526 245.229 23.9401C245.229 22.8585 244.858 21.9314 244.085 21.1898C243.344 20.4481 242.447 20.0773 241.366 20.0773C240.284 20.0773 239.388 20.4481 238.646 21.2207C237.905 21.9623 237.534 22.8585 237.534 23.9401C237.534 25.0526 237.905 25.9796 238.646 26.7522C239.388 27.4938 240.284 27.8647 241.366 27.8647ZM258.768 8.92156V32.5H253.329V8.92156H258.768ZM270.174 25.1762L273.635 15.4419H279.599L272.276 32.4691H267.887L260.595 15.4419H266.59L270.174 25.1762ZM297.548 23.5383C297.548 24.2491 297.486 24.9598 297.363 25.7324H285.187C285.805 27.5247 287.196 28.4209 289.359 28.4209C291.244 28.4209 292.944 27.8956 294.52 26.8449L296.652 30.5223C294.458 32.0983 291.955 32.8708 289.112 32.8708C286.083 32.8708 283.766 32.0056 282.128 30.3059C280.49 28.5754 279.687 26.4741 279.687 23.971C279.687 21.4061 280.521 19.2738 282.221 17.5742C283.92 15.8746 286.114 15.0093 288.803 15.0093C291.337 15.0093 293.438 15.7819 295.076 17.2961C296.714 18.8103 297.548 20.9116 297.548 23.5383ZM288.803 19.3665C286.918 19.3665 285.713 20.2318 285.125 21.9932H292.357C291.893 20.3554 290.626 19.3665 288.803 19.3665Z" fill="#15161B"/>
</g>
<defs>
<clipPath id="clip0_1055_1225">
<rect width="299" height="42" fill="white"/>
</clipPath>
</defs>
</svg>
