<svg width="203" height="40" viewBox="0 0 203 40" fill="none" xmlns="http://www.w3.org/2000/svg">
<g clip-path="url(#clip0_87_5)">
<path d="M39.5803 7.47086C39.1566 7.2632 38.9742 7.65893 38.7265 7.85982C38.6417 7.92463 38.5699 8.00882 38.4984 8.08655C37.8791 8.74799 37.1555 9.18248 36.2103 9.13059C34.8286 9.05287 33.6484 9.48726 32.6055 10.5441C32.3839 9.24083 31.6474 8.46238 30.5262 7.96339C29.9396 7.70405 29.3464 7.44449 28.9357 6.88037C28.6489 6.47849 28.5706 6.03097 28.4272 5.59001C28.3361 5.32431 28.2446 5.05184 27.9382 5.0063C27.6058 4.95441 27.4752 5.23314 27.3451 5.46685C26.8235 6.42014 26.6215 7.47054 26.6412 8.53386C26.6869 10.9268 27.6972 12.833 29.705 14.1885C29.9331 14.3441 29.9917 14.4997 29.9202 14.7267C29.7833 15.1937 29.6203 15.6474 29.4769 16.1144C29.3856 16.4128 29.2485 16.4776 28.9292 16.3479C27.8277 15.8877 26.8757 15.2066 26.0348 14.3832C24.6072 13.0019 23.3166 11.478 21.7064 10.2848C21.3338 10.0092 20.9511 9.74749 20.5591 9.50018C18.9165 7.90504 20.7743 6.59498 21.2045 6.43952C21.6542 6.27729 21.361 5.71974 19.9071 5.7262C18.4535 5.73266 17.1236 6.21894 15.4289 6.86745C15.1811 6.96488 14.9205 7.03615 14.6531 7.09429C13.1148 6.80243 11.5177 6.73763 9.84887 6.92559C6.70678 7.27559 4.19732 8.76069 2.35258 11.2962C0.136356 14.3445 -0.385296 17.807 0.253585 21.419C0.924976 25.2252 2.86746 28.3769 5.85303 30.8411C8.94937 33.3957 12.5152 34.6474 16.5826 34.4074C19.0531 34.2649 21.8041 33.9343 24.9069 31.3078C25.6892 31.6968 26.5104 31.8525 27.8729 31.9692C28.9224 32.0667 29.9328 31.9173 30.7151 31.7554C31.9406 31.4961 31.8559 30.3612 31.4125 30.1538C27.821 28.481 28.6094 29.1618 27.8925 28.6106C29.7176 26.4513 32.4686 24.2077 33.5441 16.9383C33.6288 16.3614 33.5569 15.9983 33.5441 15.5313C33.5377 15.2462 33.6027 15.1358 33.9287 15.1033C34.8282 14.9994 35.7017 14.7533 36.5035 14.3122C38.8306 13.0412 39.7694 10.9532 39.9911 8.4502C40.0236 8.0677 39.9846 7.67175 39.5803 7.47086ZM19.3011 29.9977C15.82 27.2616 14.1318 26.3599 13.4344 26.3989C12.7826 26.4379 12.8998 27.1836 13.0432 27.6699C13.193 28.1498 13.3888 28.4804 13.6625 28.9019C13.8515 29.1808 13.982 29.5956 13.4735 29.9072C12.3524 30.6008 10.4032 29.6737 10.3119 29.6282C8.04342 28.2924 6.14647 26.5286 4.81005 24.1165C3.51947 21.7948 2.76971 19.305 2.64603 16.6463C2.61341 16.0044 2.80254 15.7772 3.44121 15.6607C4.28204 15.5049 5.14902 15.4724 5.98996 15.5955C9.54251 16.1144 12.5671 17.7031 15.1029 20.219C16.5501 21.6519 17.6452 23.3641 18.7731 25.037C19.9725 26.8137 21.2632 28.5063 22.9058 29.894C23.4861 30.3802 23.9487 30.7499 24.3921 31.0224C23.0557 31.1714 20.8262 31.2039 19.3011 29.9977ZM20.9848 19.1412C21.0399 18.9177 21.2411 18.7538 21.4848 18.7538C21.5449 18.754 21.6045 18.7649 21.6607 18.7861C21.7325 18.8122 21.7976 18.8512 21.8498 18.9093C21.941 19.0003 21.9932 19.1299 21.9932 19.266C21.9932 19.5514 21.7651 19.7782 21.4783 19.7782C21.3573 19.7793 21.2399 19.7367 21.1477 19.6582C21.0556 19.5798 20.9948 19.4707 20.9766 19.351C20.9653 19.2812 20.9681 19.2099 20.9848 19.1412ZM25.984 21.9914C25.708 22.0969 25.4333 22.1797 25.1678 22.1905C24.6723 22.2164 24.1314 22.0154 23.8382 21.769C23.382 21.3865 23.056 21.1726 22.9191 20.5044C22.8604 20.219 22.8929 19.7782 22.9451 19.5253C23.0625 18.9806 22.932 18.6304 22.5476 18.3127C22.2348 18.0533 21.8369 17.9821 21.4003 17.9821C21.2373 17.9821 21.0875 17.9108 20.9766 17.8524C20.794 17.7618 20.6442 17.5347 20.7876 17.2558C20.8333 17.1652 21.055 16.9446 21.1072 16.9058C21.7002 16.5685 22.3848 16.6788 23.0169 16.9317C23.6036 17.1716 24.047 17.6125 24.6858 18.2349C25.3376 18.987 25.4549 19.1947 25.8266 19.7588C26.12 20.1997 26.3872 20.6537 26.5698 21.1723C26.6627 21.4435 26.5773 21.6743 26.3219 21.837C26.218 21.9032 26.0986 21.9476 25.984 21.9914Z" fill="#4D6BFE"/>
<path d="M39.5803 7.47086C39.1566 7.2632 38.9742 7.65893 38.7265 7.85982C38.6417 7.92463 38.5699 8.00882 38.4984 8.08655C37.8791 8.74799 37.1555 9.18248 36.2103 9.13059C34.8286 9.05287 33.6484 9.48726 32.6055 10.5441C32.3839 9.24083 31.6474 8.46238 30.5262 7.96339C29.9396 7.70405 29.3464 7.44449 28.9357 6.88037C28.6489 6.47849 28.5706 6.03097 28.4272 5.59001C28.3361 5.32431 28.2446 5.05184 27.9382 5.0063C27.6058 4.95441 27.4752 5.23314 27.3451 5.46685C26.8235 6.42014 26.6215 7.47054 26.6412 8.53386C26.6869 10.9268 27.6972 12.833 29.705 14.1885C29.9331 14.3441 29.9917 14.4997 29.9202 14.7267C29.7833 15.1937 29.6203 15.6474 29.4769 16.1144C29.3856 16.4128 29.2485 16.4776 28.9292 16.3479C27.8277 15.8877 26.8757 15.2066 26.0348 14.3832C24.6072 13.0019 23.3166 11.478 21.7064 10.2848C21.3338 10.0092 20.9511 9.74749 20.5591 9.50018C18.9165 7.90504 20.7743 6.59498 21.2045 6.43952C21.6542 6.27729 21.361 5.71974 19.9071 5.7262C18.4535 5.73266 17.1236 6.21894 15.4289 6.86745C15.1811 6.96488 14.9205 7.03615 14.6531 7.09429C13.1148 6.80243 11.5177 6.73763 9.84887 6.92559C6.70678 7.27559 4.19732 8.76069 2.35258 11.2962C0.136356 14.3445 -0.385296 17.807 0.253585 21.419C0.924976 25.2252 2.86746 28.3769 5.85303 30.8411C8.94937 33.3957 12.5152 34.6474 16.5826 34.4074C19.0531 34.2649 21.8041 33.9343 24.9069 31.3078C25.6892 31.6968 26.5104 31.8525 27.8729 31.9692C28.9224 32.0667 29.9328 31.9173 30.7151 31.7554C31.9406 31.4961 31.8559 30.3612 31.4125 30.1538C27.821 28.481 28.6094 29.1618 27.8925 28.6106C29.7176 26.4513 32.4686 24.2077 33.5441 16.9383C33.6288 16.3614 33.5569 15.9983 33.5441 15.5313C33.5377 15.2462 33.6027 15.1358 33.9287 15.1033C34.8282 14.9994 35.7017 14.7533 36.5035 14.3122C38.8306 13.0412 39.7694 10.9532 39.9911 8.4502C40.0236 8.0677 39.9846 7.67175 39.5803 7.47086ZM19.3011 29.9977C15.82 27.2616 14.1318 26.3599 13.4344 26.3989C12.7826 26.4379 12.8998 27.1836 13.0432 27.6699C13.193 28.1498 13.3888 28.4804 13.6625 28.9019C13.8515 29.1808 13.982 29.5956 13.4735 29.9072C12.3524 30.6008 10.4032 29.6737 10.3119 29.6282C8.04342 28.2924 6.14647 26.5286 4.81005 24.1165C3.51947 21.7948 2.76971 19.305 2.64603 16.6463C2.61341 16.0044 2.80254 15.7772 3.44121 15.6607C4.28204 15.5049 5.14902 15.4724 5.98996 15.5955C9.54251 16.1144 12.5671 17.7031 15.1029 20.219C16.5501 21.6519 17.6452 23.3641 18.7731 25.037C19.9725 26.8137 21.2632 28.5063 22.9058 29.894C23.4861 30.3802 23.9487 30.7499 24.3921 31.0224C23.0557 31.1714 20.8262 31.2039 19.3011 29.9977ZM20.9848 19.1412C21.0399 18.9177 21.2411 18.7538 21.4848 18.7538C21.5449 18.754 21.6045 18.7649 21.6607 18.7861C21.7325 18.8122 21.7976 18.8512 21.8498 18.9093C21.941 19.0003 21.9932 19.1299 21.9932 19.266C21.9932 19.5514 21.7651 19.7782 21.4783 19.7782C21.3573 19.7793 21.2399 19.7367 21.1477 19.6582C21.0556 19.5798 20.9948 19.4707 20.9766 19.351C20.9653 19.2812 20.9681 19.2099 20.9848 19.1412ZM25.984 21.9914C25.708 22.0969 25.4333 22.1797 25.1678 22.1905C24.6723 22.2164 24.1314 22.0154 23.8382 21.769C23.382 21.3865 23.056 21.1726 22.9191 20.5044C22.8604 20.219 22.8929 19.7782 22.9451 19.5253C23.0625 18.9806 22.932 18.6304 22.5476 18.3127C22.2348 18.0533 21.8369 17.9821 21.4003 17.9821C21.2373 17.9821 21.0875 17.9108 20.9766 17.8524C20.794 17.7618 20.6442 17.5347 20.7876 17.2558C20.8333 17.1652 21.055 16.9446 21.1072 16.9058C21.7002 16.5685 22.3848 16.6788 23.0169 16.9317C23.6036 17.1716 24.047 17.6125 24.6858 18.2349C25.3376 18.987 25.4549 19.1947 25.8266 19.7588C26.12 20.1997 26.3872 20.6537 26.5698 21.1723C26.6627 21.4435 26.5773 21.6743 26.3219 21.837C26.218 21.9032 26.0986 21.9476 25.984 21.9914Z" fill="url(#paint0_linear_87_5)"/>
<path d="M54.4647 31.5H45.2559V8.66322H54.5575C58.1112 8.66322 60.8924 9.68299 62.9011 11.7225C64.9097 13.7621 65.9295 16.5433 65.9295 20.0971C65.9295 23.6199 64.9097 26.4011 62.8702 28.4407C60.8615 30.4802 58.0494 31.5 54.4647 31.5ZM51.0346 14.1947V25.9685H54.7429C56.3807 25.9685 57.6786 25.4123 58.5747 24.2689C59.4709 23.1255 59.9344 21.704 59.9344 20.0662C59.9344 18.4283 59.4709 17.0377 58.5747 15.8944C57.6786 14.751 56.4116 14.1947 54.7429 14.1947H51.0346ZM85.9317 22.5383C85.9317 23.2491 85.8699 23.9598 85.7463 24.7324H73.5708C74.1888 26.5247 75.5794 27.4209 77.7426 27.4209C79.6276 27.4209 81.3273 26.8956 82.9033 25.8449L85.0355 29.5223C82.8415 31.0983 80.3384 31.8708 77.4954 31.8708C74.467 31.8708 72.1493 31.0056 70.5115 29.3059C68.8737 27.5754 68.0702 25.4741 68.0702 22.971C68.0702 20.4061 68.9046 18.2738 70.6042 16.5742C72.3038 14.8746 74.4979 14.0093 77.1864 14.0093C79.7204 14.0093 81.8217 14.7819 83.4595 16.2961C85.0973 17.8103 85.9317 19.9116 85.9317 22.5383ZM77.1864 18.3665C75.3013 18.3665 74.0961 19.2318 73.509 20.9932H80.7401C80.2766 19.3554 79.0096 18.3665 77.1864 18.3665ZM105.638 22.5383C105.638 23.2491 105.576 23.9598 105.453 24.7324H93.277C93.8951 26.5247 95.2857 27.4209 97.4488 27.4209C99.3339 27.4209 101.034 26.8956 102.61 25.8449L104.742 29.5223C102.548 31.0983 100.045 31.8708 97.2016 31.8708C94.1732 31.8708 91.8555 31.0056 90.2177 29.3059C88.5799 27.5754 87.7764 25.4741 87.7764 22.971C87.7764 20.4061 88.6108 18.2738 90.3104 16.5742C92.01 14.8746 94.2041 14.0093 96.8926 14.0093C99.4266 14.0093 101.528 14.7819 103.166 16.2961C104.804 17.8103 105.638 19.9116 105.638 22.5383ZM96.8926 18.3665C95.0076 18.3665 93.8024 19.2318 93.2152 20.9932H100.446C99.9828 19.3554 98.7158 18.3665 96.8926 18.3665ZM118.546 14.0093C120.987 14.0093 122.965 14.8746 124.541 16.6051C126.117 18.3047 126.889 20.437 126.889 22.9401C126.889 25.4432 126.086 27.5754 124.51 29.3368C122.934 31.0674 120.956 31.9326 118.577 31.9326C116.692 31.9326 115.054 31.3146 113.725 30.0785V38.5148H108.255V14.4419H113.632V16.018C114.961 14.6892 116.599 14.0093 118.546 14.0093ZM121.327 23.0019C121.327 20.7769 119.72 19.0773 117.495 19.0773C115.27 19.0773 113.632 20.7769 113.632 23.0019C113.632 24.0835 114.003 25.0105 114.714 25.7831C115.455 26.5556 116.383 26.9265 117.495 26.9265C118.607 26.9265 119.535 26.5556 120.245 25.7831C120.956 25.0105 121.327 24.0835 121.327 23.0019ZM135.746 31.9635C132.749 31.9635 130.246 30.9747 128.175 29.0278L130.617 25.3504C132.254 26.772 133.954 27.4827 135.716 27.4827C136.921 27.4827 137.539 27.1119 137.539 26.4011C137.539 25.9994 137.23 25.6904 136.612 25.4432C136.519 25.4123 135.901 25.2268 134.727 24.8251C133.583 24.4234 132.78 24.1453 132.378 23.9598C130.246 22.971 129.195 21.4259 129.195 19.3245C129.195 17.7176 129.844 16.4197 131.111 15.4308C132.378 14.411 134.109 13.9166 136.241 13.9166C138.682 13.9166 140.783 14.6583 142.607 16.1416L140.258 19.7262C138.837 18.7683 137.477 18.2738 136.148 18.2738C135.252 18.2738 134.603 18.7065 134.603 19.2318C134.603 19.788 135.128 20.1898 136.148 20.4679C137.786 20.9314 139.146 21.4259 140.165 21.9512C142.236 22.971 143.07 24.2998 143.07 26.2775C143.07 27.9462 142.421 29.3059 141.093 30.3875C139.764 31.4382 138.002 31.9635 135.746 31.9635ZM162.735 22.5383C162.735 23.2491 162.673 23.9598 162.549 24.7324H150.374C150.992 26.5247 152.382 27.4209 154.546 27.4209C156.431 27.4209 158.13 26.8956 159.706 25.8449L161.839 29.5223C159.644 31.0983 157.141 31.8708 154.298 31.8708C151.27 31.8708 148.952 31.0056 147.314 29.3059C145.677 27.5754 144.873 25.4741 144.873 22.971C144.873 20.4061 145.708 18.2738 147.407 16.5742C149.107 14.8746 151.301 14.0093 153.989 14.0093C156.523 14.0093 158.625 14.7819 160.263 16.2961C161.9 17.8103 162.735 19.9116 162.735 22.5383ZM153.989 18.3665C152.104 18.3665 150.899 19.2318 150.312 20.9932H157.543C157.08 19.3554 155.813 18.3665 153.989 18.3665ZM182.441 22.5383C182.441 23.2491 182.379 23.9598 182.256 24.7324H170.08C170.698 26.5247 172.089 27.4209 174.252 27.4209C176.137 27.4209 177.837 26.8956 179.413 25.8449L181.545 29.5223C179.351 31.0983 176.848 31.8708 174.005 31.8708C170.976 31.8708 168.659 31.0056 167.021 29.3059C165.383 27.5754 164.579 25.4741 164.579 22.971C164.579 20.4061 165.414 18.2738 167.113 16.5742C168.813 14.8746 171.007 14.0093 173.696 14.0093C176.23 14.0093 178.331 14.7819 179.969 16.2961C181.607 17.8103 182.441 19.9116 182.441 22.5383ZM173.696 18.3665C171.811 18.3665 170.605 19.2318 170.018 20.9932H177.249C176.786 19.3554 175.519 18.3665 173.696 18.3665ZM202.827 31.5H196.338L191.301 24.7324L190.497 25.4741V31.5H185.058V7.92156H190.497V19.3863L195.627 14.4419H202.271L194.947 21.3022L202.827 31.5Z" fill="#15161B"/>
</g>
<defs>
<linearGradient id="paint0_linear_87_5" x1="8.84805" y1="7.95891" x2="35.7248" y2="15.7566" gradientUnits="userSpaceOnUse">
<stop stop-color="#0C93FF"/>
<stop offset="1" stop-color="#B153F0"/>
</linearGradient>
<clipPath id="clip0_87_5">
<rect width="203" height="40" fill="white"/>
</clipPath>
</defs>
</svg>
