<svg width="173" height="40" viewBox="0 0 173 40" fill="none" xmlns="http://www.w3.org/2000/svg">
<g clip-path="url(#clip0_85_598)">
<g clip-path="url(#clip1_85_598)">
<g clip-path="url(#clip2_85_598)">
<path d="M54.2088 15.2426C52.9624 14.3778 50.106 14.0535 47.8729 14.4859C47.6132 12.3238 46.4188 10.432 44.3414 8.7564L43.1469 7.89157L42.316 9.13477C41.2773 10.7563 40.758 13.0265 40.9138 15.1886C40.9657 15.9453 41.2254 17.2966 42.0044 18.4857C41.2773 18.9182 39.7712 19.4587 37.7978 19.4587H0.24968L0.145813 19.8911C-0.217723 22.0532 -0.217724 28.8097 4.04084 33.9986C7.26073 37.9444 12.0386 39.9443 18.3226 39.9443C31.9292 39.9443 42.0044 33.4041 46.7304 21.5667C48.6 21.6208 52.5989 21.5667 54.6243 17.5128C54.6762 17.4047 54.7801 17.1885 55.1436 16.3777L55.3514 15.9453L54.2088 15.2426ZM30.2674 0H24.5547V5.40519H30.2674V0ZM30.2674 6.48623H24.5547V11.8914H30.2674V6.48623ZM23.516 6.48623H17.8033V11.8914H23.516V6.48623ZM16.7646 6.48623H11.0519V11.8914H16.7646V6.48623ZM10.0132 12.9725H4.30051V18.3776H10.0132V12.9725ZM16.7646 12.9725H11.0519V18.3776H16.7646V12.9725ZM23.516 12.9725H17.8033V18.3776H23.516V12.9725ZM30.2674 12.9725H24.5547V18.3776H30.2674V12.9725ZM37.0188 12.9725H31.306V18.3776H37.0188V12.9725Z" fill="#5988ED"/>
<path d="M54.2088 15.2426C52.9624 14.3778 50.106 14.0535 47.8729 14.4859C47.6132 12.3238 46.4188 10.432 44.3414 8.7564L43.1469 7.89157L42.316 9.13477C41.2773 10.7563 40.758 13.0265 40.9138 15.1886C40.9657 15.9453 41.2254 17.2966 42.0044 18.4857C41.2773 18.9182 39.7712 19.4587 37.7978 19.4587H0.24968L0.145813 19.8911C-0.217723 22.0532 -0.217724 28.8097 4.04084 33.9986C7.26073 37.9444 12.0386 39.9443 18.3226 39.9443C31.9292 39.9443 42.0044 33.4041 46.7304 21.5667C48.6 21.6208 52.5989 21.5667 54.6243 17.5128C54.6762 17.4047 54.7801 17.1885 55.1436 16.3777L55.3514 15.9453L54.2088 15.2426ZM30.2674 0H24.5547V5.40519H30.2674V0ZM30.2674 6.48623H24.5547V11.8914H30.2674V6.48623ZM23.516 6.48623H17.8033V11.8914H23.516V6.48623ZM16.7646 6.48623H11.0519V11.8914H16.7646V6.48623ZM10.0132 12.9725H4.30051V18.3776H10.0132V12.9725ZM16.7646 12.9725H11.0519V18.3776H16.7646V12.9725ZM23.516 12.9725H17.8033V18.3776H23.516V12.9725ZM30.2674 12.9725H24.5547V18.3776H30.2674V12.9725ZM37.0188 12.9725H31.306V18.3776H37.0188V12.9725Z" fill="url(#paint0_linear_85_598)"/>
</g>
</g>
<path d="M69.4647 31.5H60.2559V8.66322H69.5575C73.1112 8.66322 75.8924 9.68299 77.9011 11.7225C79.9097 13.7621 80.9295 16.5433 80.9295 20.0971C80.9295 23.6199 79.9097 26.4011 77.8702 28.4407C75.8615 30.4802 73.0494 31.5 69.4647 31.5ZM66.0346 14.1947V25.9685H69.7429C71.3807 25.9685 72.6786 25.4123 73.5747 24.2689C74.4709 23.1255 74.9344 21.704 74.9344 20.0662C74.9344 18.4283 74.4709 17.0377 73.5747 15.8944C72.6786 14.751 71.4116 14.1947 69.7429 14.1947H66.0346ZM92.31 31.9635C89.5597 31.9635 87.3347 31.0983 85.6042 29.3677C83.9046 27.6372 83.0393 25.505 83.0393 22.971C83.0393 20.437 83.9046 18.3047 85.6042 16.5742C87.3347 14.8128 89.5597 13.9475 92.31 13.9475C95.0603 13.9475 97.3161 14.8128 99.0158 16.5742C100.746 18.3047 101.612 20.437 101.612 22.971C101.612 25.505 100.746 27.6372 99.0158 29.3677C97.3161 31.0983 95.0603 31.9635 92.31 31.9635ZM92.31 26.8647C93.3916 26.8647 94.3186 26.4938 95.0603 25.7522C95.8019 24.9796 96.1728 24.0526 96.1728 22.9401C96.1728 21.8585 95.8019 20.9314 95.0294 20.1898C94.2877 19.4481 93.3916 19.0773 92.31 19.0773C91.2284 19.0773 90.3322 19.4481 89.5906 20.2207C88.8489 20.9623 88.4781 21.8585 88.4781 22.9401C88.4781 24.0526 88.8489 24.9796 89.5906 25.7522C90.3322 26.4938 91.2284 26.8647 92.31 26.8647ZM112.555 31.8708C109.867 31.8708 107.703 31.0365 106.004 29.3677C104.335 27.699 103.501 25.5668 103.501 22.9401C103.501 20.3134 104.335 18.1811 106.035 16.5124C107.734 14.8437 109.928 14.0093 112.648 14.0093C116.202 14.0093 119.323 15.7398 120.775 18.9846L116.418 21.2713C115.553 19.8189 114.347 19.0773 112.771 19.0773C111.628 19.0773 110.701 19.4481 109.959 20.1898C109.249 20.9314 108.878 21.8585 108.878 22.9401C108.878 25.1959 110.516 26.8647 112.71 26.8647C114.286 26.8647 115.738 25.9994 116.356 24.6706L120.713 27.2664C119.23 30.1094 116.171 31.8708 112.555 31.8708ZM140.813 31.5H134.323L129.286 24.7324L128.483 25.4741V31.5H123.044V7.92156H128.483V19.3863L133.613 14.4419H140.257L132.933 21.3022L140.813 31.5ZM157.817 22.5383C157.817 23.2491 157.755 23.9598 157.632 24.7324H145.456C146.074 26.5247 147.465 27.4209 149.628 27.4209C151.513 27.4209 153.213 26.8956 154.789 25.8449L156.921 29.5223C154.727 31.0983 152.224 31.8708 149.381 31.8708C146.352 31.8708 144.035 31.0056 142.397 29.3059C140.759 27.5754 139.956 25.4741 139.956 22.971C139.956 20.4061 140.79 18.2738 142.49 16.5742C144.189 14.8746 146.383 14.0093 149.072 14.0093C151.606 14.0093 153.707 14.7819 155.345 16.2961C156.983 17.8103 157.817 19.9116 157.817 22.5383ZM149.072 18.3665C147.187 18.3665 145.982 19.2318 145.395 20.9932H152.626C152.162 19.3554 150.895 18.3665 149.072 18.3665ZM165.873 31.5H160.435V14.4419H165.657V16.5433C166.739 14.8437 168.253 13.9784 170.2 13.9784C170.941 13.9784 171.652 14.1329 172.332 14.4419L171.899 19.6335C171.096 19.3554 170.354 19.2318 169.643 19.2318C167.14 19.2318 165.873 20.8696 165.873 24.1453V31.5Z" fill="#15161B"/>
</g>
<defs>
<linearGradient id="paint0_linear_85_598" x1="6.99553" y1="-3.65741" x2="70.1112" y2="19.8622" gradientUnits="userSpaceOnUse">
<stop stop-color="#0C93FF"/>
<stop offset="1" stop-color="#B153F0"/>
</linearGradient>
<clipPath id="clip0_85_598">
<rect width="173" height="40" fill="white"/>
</clipPath>
<clipPath id="clip1_85_598">
<rect width="55" height="40" fill="white"/>
</clipPath>
<clipPath id="clip2_85_598">
<rect width="55.3514" height="40" fill="white"/>
</clipPath>
</defs>
</svg>
