<svg width="202" height="40" viewBox="0 0 202 40" fill="none" xmlns="http://www.w3.org/2000/svg">
<path d="M0 0H8.32113V40H0V0Z" fill="black"/>
<path d="M0 0H8.32113V40H0V0Z" fill="url(#paint0_linear_87_30)"/>
<path d="M16.5308 1.52588e-05H24.8519V40H16.5308V1.52588e-05Z" fill="black"/>
<path d="M16.5308 1.52588e-05H24.8519V40H16.5308V1.52588e-05Z" fill="url(#paint1_linear_87_30)"/>
<path d="M46.5786 31.5H30.1077V8.66322H46.6095V14.0093H35.9173V17.3777H45.806V22.6929H35.9173V26.1539H46.5786V31.5ZM55.3913 7.92156V31.5H49.9525V7.92156H55.3913ZM75.9138 22.5383C75.9138 23.2491 75.852 23.9598 75.7284 24.7324H63.5529C64.1709 26.5247 65.5615 27.4209 67.7247 27.4209C69.6097 27.4209 71.3093 26.8956 72.8854 25.8449L75.0176 29.5223C72.8235 31.0983 70.3205 31.8708 67.4775 31.8708C64.449 31.8708 62.1314 31.0056 60.4935 29.3059C58.8557 27.5754 58.0523 25.4741 58.0523 22.971C58.0523 20.4061 58.8866 18.2738 60.5862 16.5742C62.2859 14.8746 64.4799 14.0093 67.1684 14.0093C69.7024 14.0093 71.8038 14.7819 73.4416 16.2961C75.0794 17.8103 75.9138 19.9116 75.9138 22.5383ZM67.1684 18.3665C65.2834 18.3665 64.0782 19.2318 63.4911 20.9932H70.7222C70.2587 19.3554 68.9917 18.3665 67.1684 18.3665ZM85.5381 24.1762L88.9992 14.4419H94.9633L87.6395 31.4691H83.2514L75.9584 14.4419H81.9535L85.5381 24.1762ZM112.912 22.5383C112.912 23.2491 112.85 23.9598 112.727 24.7324H100.551C101.169 26.5247 102.56 27.4209 104.723 27.4209C106.608 27.4209 108.308 26.8956 109.884 25.8449L112.016 29.5223C109.822 31.0983 107.319 31.8708 104.476 31.8708C101.447 31.8708 99.1296 31.0056 97.4918 29.3059C95.854 27.5754 95.0505 25.4741 95.0505 22.971C95.0505 20.4061 95.8849 18.2738 97.5845 16.5742C99.2841 14.8746 101.478 14.0093 104.167 14.0093C106.701 14.0093 108.802 14.7819 110.44 16.2961C112.078 17.8103 112.912 19.9116 112.912 22.5383ZM104.167 18.3665C102.282 18.3665 101.076 19.2318 100.489 20.9932H107.72C107.257 19.3554 105.99 18.3665 104.167 18.3665ZM120.968 31.5H115.529V14.4419H120.844V16.8214C121.679 15.2145 123.718 13.9784 126.191 13.9784C128.014 13.9784 129.59 14.5965 130.857 15.8016C132.124 17.0068 132.773 18.7683 132.773 21.0241V31.5H127.303V22.4765C127.303 20.2516 126.16 18.9537 124.306 18.9537C122.328 18.9537 120.968 20.4061 120.968 22.631V31.5ZM141.489 7.92156V31.5H136.05V7.92156H141.489ZM157.531 15.9871V14.4419H162.661V31.5H157.531V30.0167C156.14 31.2837 154.471 31.9326 152.494 31.9326C150.052 31.9326 148.075 31.0674 146.499 29.3368C144.923 27.6063 144.15 25.4741 144.15 22.9092C144.15 20.3443 144.923 18.212 146.499 16.5433C148.075 14.8437 150.083 14.0093 152.494 14.0093C154.471 14.0093 156.14 14.6583 157.531 15.9871ZM157.469 22.9401C157.469 21.8585 157.098 20.9314 156.326 20.1589C155.553 19.3863 154.626 18.9846 153.513 18.9846C152.37 18.9846 151.443 19.3863 150.701 20.1589C149.96 20.9314 149.589 21.8585 149.589 22.9401C149.589 24.0526 149.96 25.0105 150.701 25.7831C151.474 26.5556 152.401 26.9574 153.513 26.9574C154.626 26.9574 155.553 26.5556 156.326 25.7831C157.098 25.0105 157.469 24.0526 157.469 22.9401ZM176.151 14.0093C178.592 14.0093 180.601 14.8437 182.208 16.5433C183.846 18.2429 184.649 20.3752 184.649 22.971C184.649 25.5668 183.846 27.699 182.239 29.3986C180.632 31.0983 178.623 31.9326 176.182 31.9326C174.235 31.9326 172.628 31.2837 171.361 29.9549V31.5H166.108V7.92156H171.546V15.7707C172.783 14.5965 174.328 14.0093 176.151 14.0093ZM175.193 26.9265C177.449 26.9265 179.087 25.1959 179.087 22.9401C179.087 21.8585 178.716 20.9314 177.974 20.1589C177.263 19.3863 176.336 18.9846 175.193 18.9846C174.08 18.9846 173.153 19.3863 172.412 20.1589C171.701 20.9314 171.33 21.8585 171.33 22.9401C171.33 25.1959 172.968 26.9265 175.193 26.9265ZM193.478 31.9635C190.481 31.9635 187.977 30.9747 185.907 29.0278L188.348 25.3504C189.986 26.772 191.686 27.4827 193.447 27.4827C194.652 27.4827 195.27 27.1119 195.27 26.4011C195.27 25.9994 194.961 25.6904 194.343 25.4432C194.251 25.4123 193.633 25.2268 192.458 24.8251C191.315 24.4234 190.511 24.1453 190.11 23.9598C187.977 22.971 186.927 21.4259 186.927 19.3245C186.927 17.7176 187.576 16.4197 188.843 15.4308C190.11 14.411 191.84 13.9166 193.973 13.9166C196.414 13.9166 198.515 14.6583 200.338 16.1416L197.99 19.7262C196.568 18.7683 195.209 18.2738 193.88 18.2738C192.984 18.2738 192.335 18.7065 192.335 19.2318C192.335 19.788 192.86 20.1898 193.88 20.4679C195.518 20.9314 196.877 21.4259 197.897 21.9512C199.968 22.971 200.802 24.2998 200.802 26.2775C200.802 27.9462 200.153 29.3059 198.824 30.3875C197.495 31.4382 195.734 31.9635 193.478 31.9635Z" fill="#15161B"/>
<defs>
<linearGradient id="paint0_linear_87_30" x1="4.19813" y1="-7.00302" x2="34.4554" y2="-4.01106" gradientUnits="userSpaceOnUse">
<stop stop-color="#0C93FF"/>
<stop offset="1" stop-color="#B153F0"/>
</linearGradient>
<linearGradient id="paint1_linear_87_30" x1="4.19813" y1="-7.00302" x2="34.4554" y2="-4.01106" gradientUnits="userSpaceOnUse">
<stop stop-color="#0C93FF"/>
<stop offset="1" stop-color="#B153F0"/>
</linearGradient>
</defs>
</svg>
