<svg width="167" height="40" viewBox="0 0 167 40" fill="none" xmlns="http://www.w3.org/2000/svg">
<g clip-path="url(#clip0_85_557)">
<g clip-path="url(#clip1_85_557)">
<path d="M20 0C8.95833 0 0 8.95833 0 20C0 31.045 8.95833 40 20 40C31.0433 40 40 31.045 40 20C40 8.95833 31.045 0 20 0ZM18.96 36.0333V23.4867H11.9833L22.005 3.96667V16.5133H28.72L18.96 36.0333Z" fill="black"/>
<path d="M20 0C8.95833 0 0 8.95833 0 20C0 31.045 8.95833 40 20 40C31.0433 40 40 31.045 40 20C40 8.95833 31.045 0 20 0ZM18.96 36.0333V23.4867H11.9833L22.005 3.96667V16.5133H28.72L18.96 36.0333Z" fill="url(#paint0_linear_85_557)"/>
</g>
<path d="M51.0346 31.5H45.2559V8.66322H61.4796V14.0711H51.0346V17.8721H60.2744V23.2182H51.0346V31.5ZM76.1396 15.9871V14.4419H81.2693V31.5H76.1396V30.0167C74.7489 31.2837 73.0802 31.9326 71.1025 31.9326C68.6612 31.9326 66.6835 31.0674 65.1074 29.3368C63.5314 27.6063 62.7589 25.4741 62.7589 22.9092C62.7589 20.3443 63.5314 18.212 65.1074 16.5433C66.6835 14.8437 68.6921 14.0093 71.1025 14.0093C73.0802 14.0093 74.7489 14.6583 76.1396 15.9871ZM76.0777 22.9401C76.0777 21.8585 75.7069 20.9314 74.9344 20.1589C74.1618 19.3863 73.2347 18.9846 72.1223 18.9846C70.9789 18.9846 70.0518 19.3863 69.3101 20.1589C68.5685 20.9314 68.1977 21.8585 68.1977 22.9401C68.1977 24.0526 68.5685 25.0105 69.3101 25.7831C70.0827 26.5556 71.0098 26.9574 72.1223 26.9574C73.2347 26.9574 74.1618 26.5556 74.9344 25.7831C75.7069 25.0105 76.0777 24.0526 76.0777 22.9401ZM91.1132 31.9635C88.1156 31.9635 85.6125 30.9747 83.5421 29.0278L85.9834 25.3504C87.6212 26.772 89.3208 27.4827 91.0823 27.4827C92.2874 27.4827 92.9055 27.1119 92.9055 26.4011C92.9055 25.9994 92.5965 25.6904 91.9784 25.4432C91.8857 25.4123 91.2677 25.2268 90.0934 24.8251C88.95 24.4234 88.1465 24.1453 87.7448 23.9598C85.6125 22.971 84.5619 21.4259 84.5619 19.3245C84.5619 17.7176 85.2108 16.4197 86.4778 15.4308C87.7448 14.411 89.4753 13.9166 91.6076 13.9166C94.0489 13.9166 96.1502 14.6583 97.9735 16.1416L95.6249 19.7262C94.2034 18.7683 92.8437 18.2738 91.5149 18.2738C90.6187 18.2738 89.9698 18.7065 89.9698 19.2318C89.9698 19.788 90.4951 20.1898 91.5149 20.4679C93.1527 20.9314 94.5124 21.4259 95.5322 21.9512C97.6026 22.971 98.437 24.2998 98.437 26.2775C98.437 27.9462 97.788 29.3059 96.4592 30.3875C95.1304 31.4382 93.369 31.9635 91.1132 31.9635ZM112.515 26.1848L113.968 30.542C112.392 31.4691 110.569 31.9326 108.529 31.9326C104.295 31.9326 102.194 29.5841 102.194 24.8869V18.9537H99.5982V14.4419H102.256V8.3851H107.664V14.4419H113.01V18.9537H107.664V24.238C107.664 26.0612 108.374 26.9574 109.827 26.9574C110.63 26.9574 111.527 26.7101 112.515 26.1848ZM135.979 31.5H130.046L128.717 27.3282H121.455L120.095 31.5H114.131L122.475 8.66322H127.852L135.979 31.5ZM122.907 22.322H127.326L125.163 15.5544L122.907 22.322ZM138.355 8.66322H147.44C150.345 8.66322 152.508 9.43577 153.899 10.95C155.32 12.4642 156.031 14.3492 156.031 16.6051C156.031 18.861 155.289 20.7151 153.837 22.1675C152.385 23.6199 150.098 24.3307 147.039 24.3307H144.134V31.5H138.355V8.66322ZM144.134 19.1391H147.317C149.14 19.1391 150.098 17.9957 150.098 16.5433C150.098 15.06 149.047 13.9475 147.44 13.9475H144.134V19.1391ZM158.876 31.5V8.66322H164.686V31.5H158.876Z" fill="#15161B"/>
</g>
<defs>
<linearGradient id="paint0_linear_85_557" x1="5.05537" y1="-3.66251" x2="53.4968" y2="9.3643" gradientUnits="userSpaceOnUse">
<stop stop-color="#0C93FF"/>
<stop offset="1" stop-color="#B153F0"/>
</linearGradient>
<clipPath id="clip0_85_557">
<rect width="167" height="40" fill="white"/>
</clipPath>
<clipPath id="clip1_85_557">
<rect width="40" height="40" fill="white"/>
</clipPath>
</defs>
</svg>
