<svg width="146" height="40" viewBox="0 0 146 40" fill="none" xmlns="http://www.w3.org/2000/svg">
<g clip-path="url(#clip0_1055_1086)">
<path fill-rule="evenodd" clip-rule="evenodd" d="M13.4286 0C9.23291 0 5.83167 3.40125 5.83167 7.59689C5.83167 10.1575 7.09849 12.4222 9.03959 13.7985C7.09849 15.1747 5.83167 17.4394 5.83167 20C5.83167 22.5606 7.09849 24.8253 9.03961 26.2015C7.09849 27.5779 5.83167 29.8424 5.83167 32.4032C5.83167 36.5987 9.23291 40 13.4286 40C17.6242 40 21.0255 36.5987 21.0255 32.4032V25.8835C22.3347 26.9544 24.0082 27.5968 25.8317 27.5968C30.0274 27.5968 33.4285 24.1957 33.4285 20C33.4285 17.4394 32.1617 15.1747 30.2207 13.7984C32.1617 12.4222 33.4285 10.1575 33.4285 7.59689C33.4285 3.40125 30.0274 0 25.8317 0H13.4286ZM18.2348 24.8061H13.4286C10.7742 24.8061 8.62236 22.6543 8.62236 20C8.62236 17.3457 10.7742 15.1938 13.4286 15.1938L18.2348 15.1938V20V24.8061ZM13.4286 12.4031H18.2348V2.7907H13.4286C10.7742 2.7907 8.62236 4.94251 8.62236 7.59689C8.62236 10.2513 10.7742 12.4031 13.4286 12.4031ZM30.6378 7.59689C30.6378 10.2496 28.4888 12.4003 25.8369 12.4031L23.4311 12.4031H21.0255V2.7907H25.8317C28.486 2.7907 30.6378 4.94251 30.6378 7.59689ZM21.0255 19.994C21.0287 17.3444 23.176 15.197 25.8257 15.1938H25.8363C28.4886 15.1963 30.6378 17.3472 30.6378 20C30.6378 22.6543 28.486 24.8061 25.8317 24.8061C23.1792 24.8061 21.0287 22.6575 21.0255 20.006V19.994ZM13.4286 27.5968C10.7742 27.5968 8.62236 29.7487 8.62236 32.4032C8.62236 35.0575 10.7742 37.2093 13.4286 37.2093C16.083 37.2093 18.2348 35.0575 18.2348 32.4032V27.5968H13.4286Z" fill="#5988ED"/>
</g>
<path d="M45.0346 31.5H39.2559V8.66322H55.4796V14.0711H45.0346V17.8721H54.2744V23.2182H45.0346V31.5ZM60.9478 12.9277C59.1246 12.9277 57.7958 11.5989 57.7958 9.7757C57.7958 8.01427 59.1864 6.68547 60.9478 6.68547C62.7092 6.68547 64.0689 8.01427 64.0689 9.7757C64.0689 11.5989 62.7092 12.9277 60.9478 12.9277ZM63.6981 14.4419V31.5H58.2284V14.4419H63.6981ZM79.7081 15.8634V14.4419H84.6216V29.8622C84.6216 32.5507 83.6945 34.7138 81.8713 36.3208C80.0481 37.9277 77.7304 38.7311 74.9183 38.7311C71.859 38.7311 69.1705 37.8659 66.8528 36.1662L68.8305 32.1799C70.8083 33.4777 72.7551 34.1267 74.702 34.1267C77.7613 34.1267 79.43 32.458 79.43 30.2021V29.8313C78.2248 30.9747 76.6488 31.5309 74.6711 31.5309C72.1371 31.5309 70.0975 30.7274 68.5524 29.0896C67.0073 27.4518 66.2348 25.3813 66.2348 22.8165C66.2348 20.1898 67.0691 18.0884 68.7069 16.4506C70.3448 14.8128 72.4152 14.0093 74.9183 14.0093C76.8033 14.0093 78.4103 14.6274 79.7081 15.8634ZM79.4609 22.8783C79.4609 20.6533 77.8231 19.0155 75.5981 19.0155C73.3732 19.0155 71.7354 20.6224 71.7354 22.8783C71.7354 25.1341 73.3732 26.8338 75.5981 26.8338C77.8231 26.8338 79.4609 25.1341 79.4609 22.8783ZM109.364 13.9475C111.342 13.9475 113.01 14.5656 114.37 15.8016C115.761 17.0068 116.441 18.7683 116.441 21.0859V31.5H110.971V22.1675C110.971 20.0353 109.766 18.9537 108.128 18.9537C106.274 18.9537 104.945 20.2207 104.945 22.3529V31.5H99.5061V22.1675C99.5061 20.1589 98.3009 18.9537 96.5704 18.9537C94.809 18.9537 93.4802 20.2207 93.4802 22.3529V31.5H88.0414V14.4419H93.3566V16.8214C94.3145 15.06 96.4468 13.9166 98.6409 13.9475C100.928 13.9784 102.504 14.9364 103.369 16.7905C104.636 14.9364 106.923 13.9475 109.364 13.9475ZM132.336 15.9871V14.4419H137.466V31.5H132.336V30.0167C130.946 31.2837 129.277 31.9326 127.299 31.9326C124.858 31.9326 122.88 31.0674 121.304 29.3368C119.728 27.6063 118.956 25.4741 118.956 22.9092C118.956 20.3443 119.728 18.212 121.304 16.5433C122.88 14.8437 124.889 14.0093 127.299 14.0093C129.277 14.0093 130.946 14.6583 132.336 15.9871ZM132.275 22.9401C132.275 21.8585 131.904 20.9314 131.131 20.1589C130.359 19.3863 129.432 18.9846 128.319 18.9846C127.176 18.9846 126.249 19.3863 125.507 20.1589C124.765 20.9314 124.395 21.8585 124.395 22.9401C124.395 24.0526 124.765 25.0105 125.507 25.7831C126.28 26.5556 127.207 26.9574 128.319 26.9574C129.432 26.9574 130.359 26.5556 131.131 25.7831C131.904 25.0105 132.275 24.0526 132.275 22.9401Z" fill="#15161B"/>
<defs>
<clipPath id="clip0_1055_1086">
<rect width="28" height="40" fill="white" transform="translate(6)"/>
</clipPath>
</defs>
</svg>
