<svg width="252" height="42" viewBox="0 0 252 42" fill="none" xmlns="http://www.w3.org/2000/svg">
<g clip-path="url(#clip0_1055_1237)">
<path d="M35.3561 4.19038C25.7048 7.066 16.1587 9.90797 6.61463 12.7499C6.62304 12.7878 6.62935 12.8236 6.63777 12.8614C16.5478 11.5298 26.4558 10.1983 36.4479 8.85406C36.6351 10.3539 36.8097 11.776 36.9906 13.1959C37.5502 17.5483 38.1056 21.9027 38.6735 26.2551C38.9638 28.4828 39.2794 30.7084 39.576 32.9382C39.7779 34.4591 38.6651 35.8833 37.0538 36.102C32.9055 36.6658 28.755 37.2001 24.6046 37.7534C19.1332 38.4833 13.6617 39.2133 8.19233 39.9558C6.15183 40.2314 4.80973 39.1964 4.53837 37.1349C3.72848 30.9945 2.90808 24.8562 2.08978 18.7158C1.73216 16.0189 1.37034 13.3242 1.01063 10.6295C0.909656 9.88062 1.61016 8.96976 2.67879 8.60373C3.79369 8.22088 4.93385 7.91586 6.06348 7.57928C14.3012 5.11596 22.5536 2.69261 30.7745 0.168288C32.7161 -0.427031 34.46 0.616356 34.8324 2.36655C34.9565 2.95135 35.1605 3.51933 35.3561 4.19038ZM25.9068 2.15619C27.4571 3.16592 28.8707 4.09151 30.2928 5.00447C30.4085 5.0781 30.5978 5.11386 30.7261 5.0781C31.8684 4.75414 33.0064 4.41125 34.3086 4.02419C32.7414 2.99974 31.332 2.06363 29.8973 1.1654C29.7206 1.05601 29.3945 1.11491 29.161 1.18012C28.1303 1.47042 27.1079 1.79227 25.9068 2.15409V2.15619ZM27.1058 6.16566C25.5534 5.14541 24.1629 4.23034 22.7682 3.32159C22.6651 3.25427 22.5094 3.18906 22.4064 3.21851C21.2515 3.55088 20.1029 3.90429 18.7945 4.29976C20.3385 5.3116 21.708 6.22035 23.0942 7.09966C23.2625 7.20694 23.5507 7.21536 23.7527 7.16066C24.8066 6.87037 25.8521 6.5422 27.1058 6.16566ZM4.41426 8.63319C5.94358 9.63871 7.31302 10.5454 8.69509 11.4331C8.82762 11.5193 9.05901 11.5319 9.21678 11.4857C10.317 11.1743 11.4108 10.8378 12.6646 10.4633C11.1479 9.46832 9.76162 8.54483 8.35641 7.6487C8.21126 7.55614 7.94831 7.56876 7.7653 7.62135C6.7135 7.92217 5.668 8.25033 4.41426 8.63319ZM25.0485 14.8704C26.4095 14.6958 27.5918 14.5506 28.7719 14.3844C28.9086 14.3655 29.0664 14.2603 29.1484 14.1488C30.1455 12.7773 31.13 11.3994 32.2071 9.89535C30.8671 10.072 29.6827 10.2193 28.5026 10.3897C28.3406 10.4128 28.145 10.5243 28.0503 10.6569C27.0743 12.0032 26.1171 13.3642 25.0485 14.8683V14.8704ZM17.3577 15.8927C18.6998 15.716 19.8379 15.5688 20.9738 15.4089C21.119 15.3879 21.3104 15.3437 21.3861 15.2406C22.4001 13.8606 23.3951 12.4702 24.5142 10.9198C23.1132 11.1154 21.9267 11.2753 20.7403 11.4541C20.5994 11.4752 20.4311 11.5656 20.3511 11.6771C19.3772 13.0318 18.4158 14.395 17.3577 15.8927ZM16.8465 11.9485C16.0472 12.06 15.475 12.2346 14.9133 12.203C13.2599 12.1125 12.2838 12.975 11.516 14.315C11.0238 15.1754 10.3801 15.9495 9.70482 16.9046C11.0532 16.7236 12.1934 16.5764 13.3293 16.4081C13.4955 16.3829 13.7059 16.305 13.7963 16.1809C14.7829 14.8346 15.7527 13.4736 16.8465 11.9485ZM19.8778 8.32185C18.3422 7.31843 16.9665 6.41599 15.5844 5.52406C15.4624 5.44412 15.2752 5.36629 15.1531 5.40205C14.0382 5.7239 12.9296 6.0731 11.678 6.45596C13.201 7.45306 14.5726 8.36182 15.9567 9.24954C16.0893 9.33579 16.3101 9.36734 16.4616 9.32527C17.5407 9.02446 18.6136 8.6984 19.8778 8.32396V8.32185ZM9.21047 12.9813C7.85575 13.1622 6.7156 13.299 5.58596 13.482C5.36298 13.5177 5.11055 13.6945 4.96961 13.8817C4.21862 14.8872 3.48867 15.9095 2.77555 16.9403C2.61988 17.1654 2.55467 17.4515 2.3927 17.847C3.65065 17.6913 4.70876 17.5714 5.76477 17.422C5.92675 17.3989 6.11818 17.2832 6.21494 17.1507C7.1826 15.8254 8.13343 14.4875 9.21258 12.9834L9.21047 12.9813ZM36.5405 13.3621C36.3701 11.9989 36.2144 10.7368 36.0566 9.47252C35.9914 9.46621 35.9283 9.462 35.8631 9.45569C34.8513 10.884 33.8416 12.3124 32.7309 13.8817C34.1108 13.6945 35.2741 13.5346 36.5405 13.3621ZM5.45133 12.6637C4.0293 11.7423 2.81762 10.9556 1.41873 10.0489C1.58702 11.3258 1.72585 12.3818 1.88152 13.5745C3.07847 13.2674 4.15131 12.994 5.44923 12.6616L5.45133 12.6637Z" fill="#5988ED"/>
<path d="M53.0346 32.5H47.2559V9.66322H63.4796V15.0711H53.0346V18.8721H62.2744V24.2182H53.0346V32.5ZM68.9478 13.9277C67.1246 13.9277 65.7958 12.5989 65.7958 10.7757C65.7958 9.01427 67.1864 7.68547 68.9478 7.68547C70.7092 7.68547 72.0689 9.01427 72.0689 10.7757C72.0689 12.5989 70.7092 13.9277 68.9478 13.9277ZM71.6981 15.4419V32.5H66.2284V15.4419H71.6981ZM80.4461 32.5H75.0073V15.4419H80.3225V17.8214C81.1569 16.2145 83.1964 14.9784 85.6686 14.9784C87.4918 14.9784 89.0679 15.5965 90.3348 16.8016C91.6018 18.0068 92.2508 19.7683 92.2508 22.0241V32.5H86.7811V23.4765C86.7811 21.2516 85.6377 19.9537 83.7836 19.9537C81.8058 19.9537 80.4461 21.4061 80.4461 23.631V32.5ZM108.136 16.9871V15.4419H113.266V32.5H108.136V31.0167C106.746 32.2837 105.077 32.9326 103.099 32.9326C100.658 32.9326 98.6804 32.0674 97.1044 30.3368C95.5284 28.6063 94.7558 26.4741 94.7558 23.9092C94.7558 21.3443 95.5284 19.212 97.1044 17.5433C98.6804 15.8437 100.689 15.0093 103.099 15.0093C105.077 15.0093 106.746 15.6583 108.136 16.9871ZM108.075 23.9401C108.075 22.8585 107.704 21.9314 106.931 21.1589C106.159 20.3863 105.232 19.9846 104.119 19.9846C102.976 19.9846 102.049 20.3863 101.307 21.1589C100.565 21.9314 100.195 22.8585 100.195 23.9401C100.195 25.0526 100.565 26.0105 101.307 26.7831C102.08 27.5556 103.007 27.9574 104.119 27.9574C105.232 27.9574 106.159 27.5556 106.931 26.7831C107.704 26.0105 108.075 25.0526 108.075 23.9401ZM122.152 8.92156V32.5H116.713V8.92156H122.152ZM144.346 32.8399C141.008 32.8399 138.227 31.7583 135.971 29.5952C133.715 27.4011 132.603 24.589 132.603 21.1589C132.603 17.6978 133.746 14.8548 136.002 12.6298C138.289 10.374 141.07 9.26149 144.376 9.26149C148.456 9.26149 152.071 11.0229 154.172 13.7732L150.495 17.636C148.734 15.751 146.818 14.793 144.747 14.793C142.986 14.793 141.533 15.3801 140.328 16.5853C139.154 17.7905 138.567 19.3047 138.567 21.128C138.567 22.8894 139.154 24.3727 140.328 25.5779C141.533 26.7522 142.986 27.3393 144.716 27.3393C146.972 27.3393 148.95 26.3504 150.588 24.4036L154.42 28.081C153.369 29.4716 151.947 30.615 150.186 31.5111C148.425 32.4073 146.478 32.8399 144.346 32.8399ZM156.211 25.0526V15.4419H161.681V25.1144C161.681 26.814 162.763 27.9574 164.4 27.9574C166.1 27.9574 167.151 26.814 167.151 25.1144V15.4419H172.62V25.0526C172.62 30.0896 169.499 32.9326 164.4 32.9326C159.301 32.9326 156.211 30.0896 156.211 25.0526ZM187.667 27.1848L189.119 31.542C187.543 32.4691 185.72 32.9326 183.68 32.9326C179.447 32.9326 177.346 30.5841 177.346 25.8869V19.9537H174.75V15.4419H177.407V9.3851H182.815V15.4419H188.161V19.9537H182.815V25.238C182.815 27.0612 183.526 27.9574 184.978 27.9574C185.782 27.9574 186.678 27.7101 187.667 27.1848ZM199.112 9.66322H208.197C211.102 9.66322 213.265 10.4358 214.655 11.95C216.077 13.4642 216.788 15.3492 216.788 17.6051C216.788 19.861 216.046 21.7151 214.594 23.1675C213.141 24.6199 210.854 25.3307 207.795 25.3307H204.89V32.5H199.112V9.66322ZM204.89 20.1391H208.073C209.896 20.1391 210.854 18.9957 210.854 17.5433C210.854 16.06 209.804 14.9475 208.197 14.9475H204.89V20.1391ZM224.546 32.5H219.107V15.4419H224.33V17.5433C225.411 15.8437 226.926 14.9784 228.872 14.9784C229.614 14.9784 230.325 15.1329 231.005 15.4419L230.572 20.6335C229.769 20.3554 229.027 20.2318 228.316 20.2318C225.813 20.2318 224.546 21.8696 224.546 25.1453V32.5ZM240.943 32.9635C238.193 32.9635 235.968 32.0983 234.238 30.3677C232.538 28.6372 231.673 26.505 231.673 23.971C231.673 21.437 232.538 19.3047 234.238 17.5742C235.968 15.8128 238.193 14.9475 240.943 14.9475C243.694 14.9475 245.95 15.8128 247.649 17.5742C249.38 19.3047 250.245 21.437 250.245 23.971C250.245 26.505 249.38 28.6372 247.649 30.3677C245.95 32.0983 243.694 32.9635 240.943 32.9635ZM240.943 27.8647C242.025 27.8647 242.952 27.4938 243.694 26.7522C244.435 25.9796 244.806 25.0526 244.806 23.9401C244.806 22.8585 244.435 21.9314 243.663 21.1898C242.921 20.4481 242.025 20.0773 240.943 20.0773C239.862 20.0773 238.966 20.4481 238.224 21.2207C237.482 21.9623 237.111 22.8585 237.111 23.9401C237.111 25.0526 237.482 25.9796 238.224 26.7522C238.966 27.4938 239.862 27.8647 240.943 27.8647Z" fill="#15161B"/>
</g>
<defs>
<clipPath id="clip0_1055_1237">
<rect width="252" height="42" fill="white"/>
</clipPath>
</defs>
</svg>
