<svg width="155" height="40" viewBox="0 0 155 40" fill="none" xmlns="http://www.w3.org/2000/svg">
<g clip-path="url(#clip0_1055_1020)">
<g clip-path="url(#clip1_1055_1020)">
<path d="M23.2272 18.0137L12.867 28.3534L23.2259 38.7123H35.0313L24.6878 28.356L35.0313 18.0125H23.2284L23.2272 18.0137ZM23.2054 0.286373L3.96997 19.5L9.89447 25.4245L35.0057 0.308155H23.2259L23.2054 0.286373Z" fill="#5988ED"/>
</g>
<path d="M51.0346 31.5H45.2559V8.66322H61.4796V14.0711H51.0346V17.8721H60.2744V23.2182H51.0346V31.5ZM69.5436 7.92156V31.5H64.1048V7.92156H69.5436ZM72.7608 24.0526V14.4419H78.2305V24.1144C78.2305 25.814 79.3121 26.9574 80.9499 26.9574C82.6495 26.9574 83.7002 25.814 83.7002 24.1144V14.4419H89.1699V24.0526C89.1699 29.0896 86.0488 31.9326 80.9499 31.9326C75.851 31.9326 72.7608 29.0896 72.7608 24.0526ZM104.216 26.1848L105.669 30.542C104.093 31.4691 102.27 31.9326 100.23 31.9326C95.9964 31.9326 93.8951 29.5841 93.8951 24.8869V18.9537H91.2993V14.4419H93.9569V8.3851H99.3648V14.4419H104.711V18.9537H99.3648V24.238C99.3648 26.0612 100.076 26.9574 101.528 26.9574C102.331 26.9574 103.228 26.7101 104.216 26.1848ZM119.305 26.1848L120.758 30.542C119.182 31.4691 117.359 31.9326 115.319 31.9326C111.085 31.9326 108.984 29.5841 108.984 24.8869V18.9537H106.388V14.4419H109.046V8.3851H114.454V14.4419H119.8V18.9537H114.454V24.238C114.454 26.0612 115.165 26.9574 116.617 26.9574C117.42 26.9574 118.317 26.7101 119.305 26.1848ZM139.437 22.5383C139.437 23.2491 139.376 23.9598 139.252 24.7324H127.076C127.694 26.5247 129.085 27.4209 131.248 27.4209C133.133 27.4209 134.833 26.8956 136.409 25.8449L138.541 29.5223C136.347 31.0983 133.844 31.8708 131.001 31.8708C127.973 31.8708 125.655 31.0056 124.017 29.3059C122.379 27.5754 121.576 25.4741 121.576 22.971C121.576 20.4061 122.41 18.2738 124.11 16.5742C125.809 14.8746 128.003 14.0093 130.692 14.0093C133.226 14.0093 135.327 14.7819 136.965 16.2961C138.603 17.8103 139.437 19.9116 139.437 22.5383ZM130.692 18.3665C128.807 18.3665 127.602 19.2318 127.015 20.9932H134.246C133.782 19.3554 132.515 18.3665 130.692 18.3665ZM147.493 31.5H142.055V14.4419H147.277V16.5433C148.359 14.8437 149.873 13.9784 151.82 13.9784C152.561 13.9784 153.272 14.1329 153.952 14.4419L153.519 19.6335C152.716 19.3554 151.974 19.2318 151.263 19.2318C148.76 19.2318 147.493 20.8696 147.493 24.1453V31.5Z" fill="#15161B"/>
</g>
<defs>
<clipPath id="clip0_1055_1020">
<rect width="155" height="40" fill="white"/>
</clipPath>
<clipPath id="clip1_1055_1020">
<rect width="40" height="40" fill="white"/>
</clipPath>
</defs>
</svg>
