<svg width="215" height="40" viewBox="0 0 215 40" fill="none" xmlns="http://www.w3.org/2000/svg">
<path d="M8.07983 14.7487C7.87131 14.7487 7.81919 14.6444 7.92344 14.4881L9.01813 13.0806C9.12238 12.9242 9.38302 12.82 9.59153 12.82H28.2012C28.4097 12.82 28.4618 12.9763 28.3576 13.1327L27.4714 14.4881C27.3672 14.6444 27.1065 14.8008 26.9501 14.8008L8.07983 14.7487Z" fill="#5988ED"/>
<path d="M0.208512 19.5445C4.34989e-07 19.5445 -0.0521281 19.4402 0.0521277 19.2838L1.14681 17.8764C1.25107 17.72 1.51171 17.6157 1.72022 17.6157H25.4905C25.6991 17.6157 25.8033 17.7721 25.7512 17.9285L25.3342 19.1796C25.282 19.3881 25.0735 19.4923 24.865 19.4923L0.208512 19.5445Z" fill="#5988ED"/>
<path d="M12.8235 24.3402C12.615 24.3402 12.5628 24.1838 12.6671 24.0275L13.3969 22.7243C13.5011 22.5679 13.7096 22.4115 13.9182 22.4115H24.3437C24.5522 22.4115 24.6565 22.5679 24.6565 22.7764L24.5522 24.0275C24.5522 24.236 24.3437 24.3924 24.1873 24.3924L12.8235 24.3402Z" fill="#5988ED"/>
<path d="M54.9603 13.8213C52.6615 14.4051 51.0924 14.843 48.8301 15.4268C48.2827 15.5728 48.2462 15.6093 47.7719 15.0619C47.2245 14.4416 46.8231 14.0402 46.0569 13.6753C43.758 12.5442 41.5322 12.8726 39.4523 14.2227C36.971 15.8282 35.6938 18.2 35.7303 21.1557C35.7668 24.0748 37.7737 26.4832 40.6564 26.8845C43.1377 27.2129 45.2176 26.3372 46.8596 24.4762C47.188 24.0748 47.48 23.637 47.8449 23.1261C46.5312 23.1261 44.8892 23.1261 40.8024 23.1261C40.0361 23.1261 39.8536 22.6518 40.1091 22.0314C40.5834 20.9003 41.4592 19.0028 41.97 18.0541C42.0795 17.8351 42.3349 17.4702 42.8823 17.4702C44.7432 17.4702 51.6033 17.4702 56.1645 17.4702C56.0915 18.4555 56.0915 19.4407 55.9455 20.4259C55.5441 23.0531 54.5589 25.4614 52.9534 27.5778C50.3261 31.0443 46.8961 33.1972 42.5539 33.7811C38.9779 34.2554 35.6574 33.5621 32.7382 31.3727C30.038 29.3293 28.5054 26.6291 28.104 23.2721C27.6297 19.2947 28.7973 15.7187 31.2056 12.5806C33.7964 9.18712 37.2264 7.03423 41.4227 6.26795C44.8527 5.64763 48.1368 6.04902 51.0924 8.05594C53.0264 9.33307 54.413 11.0846 55.3252 13.201C55.5441 13.5294 55.3982 13.7118 54.9603 13.8213Z" fill="#5988ED"/>
<path d="M67.2763 34C63.9606 33.9261 60.9364 32.9658 58.3859 30.7497C56.2362 28.866 54.888 26.4652 54.4508 23.6212C53.795 19.4475 54.9245 15.754 57.4021 12.4668C60.062 8.92097 63.2683 7.0742 67.6042 6.29856C71.3207 5.63373 74.8186 6.00308 77.9885 8.18226C80.867 10.1768 82.6524 12.873 83.126 16.4188C83.7454 21.4051 82.3244 25.468 78.9359 28.9399C76.5311 31.4145 73.5798 32.9658 70.1912 33.6676C69.2074 33.8523 68.2237 33.8892 67.2763 34ZM75.9481 19.0782C75.9117 18.598 75.9117 18.2286 75.8388 17.8593C75.1829 14.2027 71.8673 12.1343 68.4058 12.9469C65.0173 13.7225 62.8311 15.9017 62.0295 19.3736C61.3737 22.2546 62.7582 25.1725 65.3816 26.3544C67.3856 27.2408 69.3896 27.13 71.3207 26.1328C74.1992 24.6184 75.7659 22.2546 75.9481 19.0782Z" fill="#5988ED"/>
<path d="M99.4317 31.8399C95.8779 31.8399 92.9731 30.7274 90.7172 28.5334C88.4614 26.3084 87.3489 23.4963 87.3489 20.0971C87.3489 16.6669 88.5232 13.8239 90.8408 11.5989C93.1894 9.37397 96.1251 8.26149 99.6171 8.26149C103.202 8.26149 106.508 9.62119 108.61 11.5989L104.932 15.8944C103.356 14.5037 101.564 13.793 99.5553 13.793C97.7011 13.793 96.1869 14.3801 95.0126 15.5853C93.8384 16.7905 93.2512 18.2738 93.2512 20.0353C93.2512 21.7658 93.8384 23.2491 94.9817 24.4852C96.1251 25.7213 97.6702 26.3393 99.5553 26.3393C101.564 26.3393 103.573 25.5359 104.685 24.5161V22.5383H99.4935V17.594H109.908V27.4827C106.91 30.3875 103.418 31.8399 99.4317 31.8399ZM121.452 31.9635C118.702 31.9635 116.477 31.0983 114.747 29.3677C113.047 27.6372 112.182 25.505 112.182 22.971C112.182 20.437 113.047 18.3047 114.747 16.5742C116.477 14.8128 118.702 13.9475 121.452 13.9475C124.203 13.9475 126.459 14.8128 128.158 16.5742C129.889 18.3047 130.754 20.437 130.754 22.971C130.754 25.505 129.889 27.6372 128.158 29.3677C126.459 31.0983 124.203 31.9635 121.452 31.9635ZM121.452 26.8647C122.534 26.8647 123.461 26.4938 124.203 25.7522C124.944 24.9796 125.315 24.0526 125.315 22.9401C125.315 21.8585 124.944 20.9314 124.172 20.1898C123.43 19.4481 122.534 19.0773 121.452 19.0773C120.371 19.0773 119.475 19.4481 118.733 20.2207C117.991 20.9623 117.621 21.8585 117.621 22.9401C117.621 24.0526 117.991 24.9796 118.733 25.7522C119.475 26.4938 120.371 26.8647 121.452 26.8647ZM150.845 31.5H133.941V8.66322H139.751V25.9994H150.845V31.5ZM165.519 15.9871V14.4419H170.649V31.5H165.519V30.0167C164.128 31.2837 162.46 31.9326 160.482 31.9326C158.04 31.9326 156.063 31.0674 154.487 29.3368C152.911 27.6063 152.138 25.4741 152.138 22.9092C152.138 20.3443 152.911 18.212 154.487 16.5433C156.063 14.8437 158.071 14.0093 160.482 14.0093C162.46 14.0093 164.128 14.6583 165.519 15.9871ZM165.457 22.9401C165.457 21.8585 165.086 20.9314 164.314 20.1589C163.541 19.3863 162.614 18.9846 161.502 18.9846C160.358 18.9846 159.431 19.3863 158.689 20.1589C157.948 20.9314 157.577 21.8585 157.577 22.9401C157.577 24.0526 157.948 25.0105 158.689 25.7831C159.462 26.5556 160.389 26.9574 161.502 26.9574C162.614 26.9574 163.541 26.5556 164.314 25.7831C165.086 25.0105 165.457 24.0526 165.457 22.9401ZM179.534 31.5H174.096V14.4419H179.411V16.8214C180.245 15.2145 182.285 13.9784 184.757 13.9784C186.58 13.9784 188.156 14.5965 189.423 15.8016C190.69 17.0068 191.339 18.7683 191.339 21.0241V31.5H185.869V22.4765C185.869 20.2516 184.726 18.9537 182.872 18.9537C180.894 18.9537 179.534 20.4061 179.534 22.631V31.5ZM207.318 15.8634V14.4419H212.231V29.8622C212.231 32.5507 211.304 34.7138 209.481 36.3208C207.657 37.9277 205.34 38.7311 202.528 38.7311C199.468 38.7311 196.78 37.8659 194.462 36.1662L196.44 32.1799C198.418 33.4777 200.365 34.1267 202.311 34.1267C205.371 34.1267 207.039 32.458 207.039 30.2021V29.8313C205.834 30.9747 204.258 31.5309 202.28 31.5309C199.746 31.5309 197.707 30.7274 196.162 29.0896C194.617 27.4518 193.844 25.3813 193.844 22.8165C193.844 20.1898 194.679 18.0884 196.316 16.4506C197.954 14.8128 200.025 14.0093 202.528 14.0093C204.413 14.0093 206.02 14.6274 207.318 15.8634ZM207.07 22.8783C207.07 20.6533 205.433 19.0155 203.208 19.0155C200.983 19.0155 199.345 20.6224 199.345 22.8783C199.345 25.1341 200.983 26.8338 203.208 26.8338C205.433 26.8338 207.07 25.1341 207.07 22.8783Z" fill="#15161B"/>
</svg>
