<svg width="166" height="40" viewBox="0 0 166 40" fill="none" xmlns="http://www.w3.org/2000/svg">
<g clip-path="url(#clip0_1055_995)">
<g clip-path="url(#clip1_1055_995)">
<g clip-path="url(#clip2_1055_995)">
<path d="M39.4067 9.05C39.4217 9.10333 39.43 9.15833 39.43 9.215V17.7983C39.43 18.0233 39.3083 18.2317 39.115 18.3417L31.91 22.4917V30.715C31.91 30.94 31.79 31.145 31.5967 31.2583L16.5517 39.9167C16.5167 39.9367 16.48 39.95 16.4417 39.9617C16.4283 39.965 16.415 39.975 16.4017 39.9783C16.2967 40.0083 16.185 40.0083 16.0817 39.9783C16.0633 39.975 16.0483 39.965 16.0333 39.9583C15.9983 39.945 15.9617 39.935 15.9283 39.9167L0.890012 31.2583C0.695012 31.145 0.575012 30.94 0.575012 30.715V4.95667C0.575012 4.90167 0.583346 4.84667 0.598346 4.79333C0.603346 4.77333 0.615012 4.75833 0.621679 4.74C0.631679 4.70667 0.645012 4.67333 0.660012 4.64333C0.666679 4.62167 0.685012 4.60667 0.698346 4.58833C0.718346 4.56167 0.733346 4.53667 0.753346 4.51333C0.773346 4.49667 0.795012 4.48333 0.815012 4.46833C0.838345 4.44833 0.860012 4.42833 0.883345 4.41167H0.885012L8.40668 0.0833342C8.59835 -0.0283325 8.83835 -0.0283325 9.03168 0.0833342L16.5517 4.41167H16.555C16.58 4.42833 16.6 4.44667 16.6233 4.46667C16.6433 4.48167 16.665 4.49667 16.685 4.51167C16.7067 4.535 16.72 4.56 16.74 4.58667C16.7533 4.605 16.7733 4.62167 16.7817 4.64167C16.8 4.67333 16.81 4.705 16.8217 4.73833C16.8267 4.75667 16.84 4.77333 16.8433 4.79167C16.86 4.84333 16.8667 4.89833 16.8667 4.955V21.0417L23.1333 17.435V9.21167C23.1333 9.15667 23.1417 9.10167 23.1567 9.04833C23.1617 9.03 23.1717 9.01333 23.1783 8.995C23.19 8.96167 23.2017 8.93 23.2183 8.89667C23.23 8.87667 23.2483 8.86167 23.26 8.84167C23.28 8.81667 23.295 8.79167 23.315 8.77C23.335 8.75 23.3567 8.73667 23.3767 8.72333C23.4 8.705 23.42 8.685 23.445 8.67L30.9683 4.34C31.1617 4.22833 31.4 4.22833 31.5933 4.34L39.115 8.67C39.1417 8.68667 39.16 8.705 39.185 8.72167C39.205 8.73833 39.2267 8.75167 39.245 8.76833C39.2667 8.79167 39.2817 8.81667 39.3017 8.84167C39.315 8.86167 39.3333 8.87667 39.3417 8.89667C39.36 8.93 39.3717 8.96167 39.3817 8.995C39.3917 9.01333 39.4017 9.03167 39.4067 9.05ZM38.1733 17.4367V10.2983L35.5433 11.8117L31.9067 13.905V21.0433L38.1733 17.4367ZM30.655 30.3533V23.2083L27.0783 25.25L16.8667 31.08V38.29L30.655 30.3533ZM1.82501 6.04V30.3533L15.6133 38.29V31.08L8.41001 27.005L8.40668 27H8.40334C8.38001 26.9833 8.36168 26.965 8.33668 26.9483C8.31835 26.9317 8.29668 26.9183 8.27835 26.9033L8.27668 26.9C8.25501 26.88 8.24168 26.8583 8.22501 26.835C8.20834 26.815 8.19001 26.7967 8.17835 26.7733H8.17501C8.16168 26.75 8.15335 26.7217 8.14168 26.695C8.13168 26.6683 8.11835 26.65 8.11168 26.6233C8.10501 26.5933 8.10168 26.5617 8.09835 26.5283C8.09501 26.505 8.08835 26.4833 8.08835 26.46V9.64833L4.45501 7.55333L1.82501 6.04ZM8.71834 1.35L2.45168 4.95667L8.71834 8.56333L14.9817 4.95667L8.71834 1.35ZM11.9783 23.8583L15.615 21.765V6.04L12.9817 7.555L9.34501 9.64833V25.3733L11.9783 23.8583ZM31.2817 5.60667L25.015 9.21333L31.2817 12.8183L37.5467 9.21167L31.2817 5.60667ZM30.655 13.905L27.0183 11.8117L24.3867 10.2983V17.4367L28.0233 19.53L30.655 21.0433V13.905ZM16.2383 29.995L25.4283 24.7483L30.0217 22.1283L23.76 18.5233L16.5533 22.6717L9.98501 26.455L16.2383 29.995Z" fill="#5988ED" stroke="#5988ED"/>
</g>
</g>
<path d="M62.1594 31.5H45.2559V8.66322H51.0655V25.9994H62.1594V31.5ZM76.8336 15.9871V14.4419H81.9634V31.5H76.8336V30.0167C75.443 31.2837 73.7743 31.9326 71.7966 31.9326C69.3553 31.9326 67.3775 31.0674 65.8015 29.3368C64.2255 27.6063 63.453 25.4741 63.453 22.9092C63.453 20.3443 64.2255 18.212 65.8015 16.5433C67.3775 14.8437 69.3862 14.0093 71.7966 14.0093C73.7743 14.0093 75.443 14.6583 76.8336 15.9871ZM76.7718 22.9401C76.7718 21.8585 76.401 20.9314 75.6285 20.1589C74.8559 19.3863 73.9288 18.9846 72.8163 18.9846C71.673 18.9846 70.7459 19.3863 70.0042 20.1589C69.2626 20.9314 68.8918 21.8585 68.8918 22.9401C68.8918 24.0526 69.2626 25.0105 70.0042 25.7831C70.7768 26.5556 71.7039 26.9574 72.8163 26.9574C73.9288 26.9574 74.8559 26.5556 75.6285 25.7831C76.401 25.0105 76.7718 24.0526 76.7718 22.9401ZM90.8493 31.5H85.4105V14.4419H90.633V16.5433C91.7145 14.8437 93.2288 13.9784 95.1756 13.9784C95.9172 13.9784 96.628 14.1329 97.3079 14.4419L96.8752 19.6335C96.0718 19.3554 95.3301 19.2318 94.6194 19.2318C92.1163 19.2318 90.8493 20.8696 90.8493 24.1453V31.5ZM111.387 15.9871V14.4419H116.517V31.5H111.387V30.0167C109.997 31.2837 108.328 31.9326 106.35 31.9326C103.909 31.9326 101.931 31.0674 100.355 29.3368C98.7793 27.6063 98.0068 25.4741 98.0068 22.9092C98.0068 20.3443 98.7793 18.212 100.355 16.5433C101.931 14.8437 103.94 14.0093 106.35 14.0093C108.328 14.0093 109.997 14.6583 111.387 15.9871ZM111.326 22.9401C111.326 21.8585 110.955 20.9314 110.182 20.1589C109.41 19.3863 108.483 18.9846 107.37 18.9846C106.227 18.9846 105.3 19.3863 104.558 20.1589C103.816 20.9314 103.446 21.8585 103.446 22.9401C103.446 24.0526 103.816 25.0105 104.558 25.7831C105.331 26.5556 106.258 26.9574 107.37 26.9574C108.483 26.9574 109.41 26.5556 110.182 25.7831C110.955 25.0105 111.326 24.0526 111.326 22.9401ZM127.937 24.1762L131.398 14.4419H137.362L130.038 31.4691H125.65L118.357 14.4419H124.352L127.937 24.1762ZM155.311 22.5383C155.311 23.2491 155.249 23.9598 155.126 24.7324H142.95C143.568 26.5247 144.959 27.4209 147.122 27.4209C149.007 27.4209 150.707 26.8956 152.283 25.8449L154.415 29.5223C152.221 31.0983 149.718 31.8708 146.875 31.8708C143.846 31.8708 141.529 31.0056 139.891 29.3059C138.253 27.5754 137.449 25.4741 137.449 22.971C137.449 20.4061 138.284 18.2738 139.983 16.5742C141.683 14.8746 143.877 14.0093 146.566 14.0093C149.1 14.0093 151.201 14.7819 152.839 16.2961C154.477 17.8103 155.311 19.9116 155.311 22.5383ZM146.566 18.3665C144.681 18.3665 143.475 19.2318 142.888 20.9932H150.119C149.656 19.3554 148.389 18.3665 146.566 18.3665ZM163.367 7.92156V31.5H157.928V7.92156H163.367Z" fill="#15161B"/>
</g>
<defs>
<clipPath id="clip0_1055_995">
<rect width="166" height="40" fill="white"/>
</clipPath>
<clipPath id="clip1_1055_995">
<rect width="40" height="40" fill="white"/>
</clipPath>
<clipPath id="clip2_1055_995">
<rect width="40" height="40" fill="white"/>
</clipPath>
</defs>
</svg>
