<svg width="321" height="40" viewBox="0 0 321 40" fill="none" xmlns="http://www.w3.org/2000/svg">
<g clip-path="url(#clip0_1055_1184)">
<path d="M32.6299 0.52L19.3404 12.0155L8 32.3197H18.225L32.6299 0.52ZM34.3977 3.20961L28.7261 19.1553L39.6009 32.7842L18.5039 36.4H53.08L34.3977 3.20961Z" fill="#5988ED"/>
<path d="M66.911 31.5H61.2559V8.66322H65.5204L73.7404 20.4061L81.9295 8.66322H86.2249V31.5H80.508V20.5297L74.7911 28.5334H72.6279L66.911 20.5297V31.5ZM92.9066 12.9277C91.0833 12.9277 89.7545 11.5989 89.7545 9.7757C89.7545 8.01427 91.1451 6.68547 92.9066 6.68547C94.668 6.68547 96.0277 8.01427 96.0277 9.7757C96.0277 11.5989 94.668 12.9277 92.9066 12.9277ZM95.6569 14.4419V31.5H90.1872V14.4419H95.6569ZM107.248 31.8708C104.559 31.8708 102.396 31.0365 100.697 29.3677C99.0279 27.699 98.1935 25.5668 98.1935 22.9401C98.1935 20.3134 99.0279 18.1811 100.727 16.5124C102.427 14.8437 104.621 14.0093 107.341 14.0093C110.894 14.0093 114.015 15.7398 115.468 18.9846L111.111 21.2713C110.245 19.8189 109.04 19.0773 107.464 19.0773C106.321 19.0773 105.394 19.4481 104.652 20.1898C103.941 20.9314 103.57 21.8585 103.57 22.9401C103.57 25.1959 105.208 26.8647 107.402 26.8647C108.978 26.8647 110.431 25.9994 111.049 24.6706L115.406 27.2664C113.923 30.1094 110.863 31.8708 107.248 31.8708ZM123.176 31.5H117.737V14.4419H122.959V16.5433C124.041 14.8437 125.555 13.9784 127.502 13.9784C128.244 13.9784 128.954 14.1329 129.634 14.4419L129.202 19.6335C128.398 19.3554 127.656 19.2318 126.946 19.2318C124.443 19.2318 123.176 20.8696 123.176 24.1453V31.5ZM139.573 31.9635C136.823 31.9635 134.598 31.0983 132.867 29.3677C131.167 27.6372 130.302 25.505 130.302 22.971C130.302 20.437 131.167 18.3047 132.867 16.5742C134.598 14.8128 136.823 13.9475 139.573 13.9475C142.323 13.9475 144.579 14.8128 146.279 16.5742C148.009 18.3047 148.874 20.437 148.874 22.971C148.874 25.505 148.009 27.6372 146.279 29.3677C144.579 31.0983 142.323 31.9635 139.573 31.9635ZM139.573 26.8647C140.654 26.8647 141.582 26.4938 142.323 25.7522C143.065 24.9796 143.436 24.0526 143.436 22.9401C143.436 21.8585 143.065 20.9314 142.292 20.1898C141.551 19.4481 140.654 19.0773 139.573 19.0773C138.491 19.0773 137.595 19.4481 136.853 20.2207C136.112 20.9623 135.741 21.8585 135.741 22.9401C135.741 24.0526 136.112 24.9796 136.853 25.7522C137.595 26.4938 138.491 26.8647 139.573 26.8647ZM157.722 31.9635C154.724 31.9635 152.221 30.9747 150.151 29.0278L152.592 25.3504C154.23 26.772 155.929 27.4827 157.691 27.4827C158.896 27.4827 159.514 27.1119 159.514 26.4011C159.514 25.9994 159.205 25.6904 158.587 25.4432C158.494 25.4123 157.876 25.2268 156.702 24.8251C155.558 24.4234 154.755 24.1453 154.353 23.9598C152.221 22.971 151.17 21.4259 151.17 19.3245C151.17 17.7176 151.819 16.4197 153.086 15.4308C154.353 14.411 156.084 13.9166 158.216 13.9166C160.657 13.9166 162.759 14.6583 164.582 16.1416L162.233 19.7262C160.812 18.7683 159.452 18.2738 158.123 18.2738C157.227 18.2738 156.578 18.7065 156.578 19.2318C156.578 19.788 157.104 20.1898 158.123 20.4679C159.761 20.9314 161.121 21.4259 162.141 21.9512C164.211 22.971 165.045 24.2998 165.045 26.2775C165.045 27.9462 164.397 29.3059 163.068 30.3875C161.739 31.4382 159.978 31.9635 157.722 31.9635ZM176.088 31.9635C173.338 31.9635 171.113 31.0983 169.382 29.3677C167.683 27.6372 166.818 25.505 166.818 22.971C166.818 20.437 167.683 18.3047 169.382 16.5742C171.113 14.8128 173.338 13.9475 176.088 13.9475C178.839 13.9475 181.094 14.8128 182.794 16.5742C184.525 18.3047 185.39 20.437 185.39 22.971C185.39 25.505 184.525 27.6372 182.794 29.3677C181.094 31.0983 178.839 31.9635 176.088 31.9635ZM176.088 26.8647C177.17 26.8647 178.097 26.4938 178.839 25.7522C179.58 24.9796 179.951 24.0526 179.951 22.9401C179.951 21.8585 179.58 20.9314 178.808 20.1898C178.066 19.4481 177.17 19.0773 176.088 19.0773C175.007 19.0773 174.11 19.4481 173.369 20.2207C172.627 20.9623 172.256 21.8585 172.256 22.9401C172.256 24.0526 172.627 24.9796 173.369 25.7522C174.11 26.4938 175.007 26.8647 176.088 26.8647ZM197.516 11.6607C195.785 11.6607 194.734 12.5878 194.734 14.1947V14.4419H199.957V18.9537H194.734V31.5H189.296V18.9537H186.885V14.4419H189.296V14.0711C189.296 11.7534 189.975 9.96111 191.335 8.75592C192.695 7.55074 194.456 6.93269 196.619 6.93269C198.443 6.93269 200.328 7.42713 202.275 8.416L200.451 12.4951C199.308 11.9389 198.319 11.6607 197.516 11.6607ZM213.798 26.1848L215.251 30.542C213.675 31.4691 211.852 31.9326 209.812 31.9326C205.578 31.9326 203.477 29.5841 203.477 24.8869V18.9537H200.881V14.4419H203.539V8.3851H208.947V14.4419H214.293V18.9537H208.947V24.238C208.947 26.0612 209.658 26.9574 211.11 26.9574C211.913 26.9574 212.81 26.7101 213.798 26.1848ZM244.173 31.5H238.239L236.911 27.3282H229.649L228.289 31.5H222.325L230.668 8.66322H236.045L244.173 31.5ZM231.101 22.322H235.52L233.357 15.5544L231.101 22.322ZM260.269 18.3665L252.884 27.0192H260.609V31.5H245.344V27.6681L252.976 18.9537H245.684V14.4728H260.269V18.3665ZM263.16 24.0526V14.4419H268.629V24.1144C268.629 25.814 269.711 26.9574 271.349 26.9574C273.048 26.9574 274.099 25.814 274.099 24.1144V14.4419H279.569V24.0526C279.569 29.0896 276.447 31.9326 271.349 31.9326C266.25 31.9326 263.16 29.0896 263.16 24.0526ZM288.249 31.5H282.81V14.4419H288.033V16.5433C289.115 14.8437 290.629 13.9784 292.576 13.9784C293.317 13.9784 294.028 14.1329 294.708 14.4419L294.275 19.6335C293.472 19.3554 292.73 19.2318 292.019 19.2318C289.516 19.2318 288.249 20.8696 288.249 24.1453V31.5ZM313.268 22.5383C313.268 23.2491 313.206 23.9598 313.083 24.7324H300.907C301.525 26.5247 302.916 27.4209 305.079 27.4209C306.964 27.4209 308.664 26.8956 310.24 25.8449L312.372 29.5223C310.178 31.0983 307.675 31.8708 304.832 31.8708C301.804 31.8708 299.486 31.0056 297.848 29.3059C296.21 27.5754 295.407 25.4741 295.407 22.971C295.407 20.4061 296.241 18.2738 297.941 16.5742C299.64 14.8746 301.834 14.0093 304.523 14.0093C307.057 14.0093 309.158 14.7819 310.796 16.2961C312.434 17.8103 313.268 19.9116 313.268 22.5383ZM304.523 18.3665C302.638 18.3665 301.433 19.2318 300.846 20.9932H308.077C307.613 19.3554 306.346 18.3665 304.523 18.3665Z" fill="#15161B"/>
</g>
<defs>
<clipPath id="clip0_1055_1184">
<rect width="321" height="40" fill="white"/>
</clipPath>
</defs>
</svg>
