<svg width="163" height="40" viewBox="0 0 163 40" fill="none" xmlns="http://www.w3.org/2000/svg">
<g clip-path="url(#clip0_85_587)">
<g clip-path="url(#clip1_85_587)">
<path d="M19.8051 0.00338161C16.0658 0.0533269 12.4148 1.14683 9.26368 3.16062C6.11258 5.1744 3.58666 8.02839 1.9707 11.4008C0.354735 14.7733 -0.287023 18.5301 0.117774 22.2478C0.52257 25.9654 1.95782 29.4961 4.26173 32.4417L10.3751 27.9517C8.88954 26.1061 7.95346 23.8797 7.67389 21.5271C7.39431 19.1745 7.78253 16.7906 8.79415 14.6483C9.80577 12.506 11.3999 10.6916 13.3943 9.41275C15.3887 8.13389 17.7027 7.44217 20.0717 7.41672V12.195L31.5851 3.62838C28.1379 1.21009 24.0154 -0.0584999 19.8051 0.00338161ZM35.7417 7.55838L29.6284 12.05C31.1144 13.8956 32.0509 16.1222 32.3308 18.4751C32.6106 20.828 32.2225 23.2121 31.2108 25.3547C30.1991 27.4974 28.6048 29.312 26.6101 30.5909C24.6155 31.8699 22.3011 32.5615 19.9317 32.5867V27.8084L8.4184 36.3751C12.36 39.1313 17.1602 40.381 21.9454 39.8966C26.7307 39.4122 31.1831 37.226 34.4924 33.7358C37.8018 30.2456 39.7481 25.6833 39.9774 20.8791C40.2067 16.0748 38.7037 11.3479 35.7417 7.55838Z" fill="black"/>
<path d="M19.8051 0.00338161C16.0658 0.0533269 12.4148 1.14683 9.26368 3.16062C6.11258 5.1744 3.58666 8.02839 1.9707 11.4008C0.354735 14.7733 -0.287023 18.5301 0.117774 22.2478C0.52257 25.9654 1.95782 29.4961 4.26173 32.4417L10.3751 27.9517C8.88954 26.1061 7.95346 23.8797 7.67389 21.5271C7.39431 19.1745 7.78253 16.7906 8.79415 14.6483C9.80577 12.506 11.3999 10.6916 13.3943 9.41275C15.3887 8.13389 17.7027 7.44217 20.0717 7.41672V12.195L31.5851 3.62838C28.1379 1.21009 24.0154 -0.0584999 19.8051 0.00338161ZM35.7417 7.55838L29.6284 12.05C31.1144 13.8956 32.0509 16.1222 32.3308 18.4751C32.6106 20.828 32.2225 23.2121 31.2108 25.3547C30.1991 27.4974 28.6048 29.312 26.6101 30.5909C24.6155 31.8699 22.3011 32.5615 19.9317 32.5867V27.8084L8.4184 36.3751C12.36 39.1313 17.1602 40.381 21.9454 39.8966C26.7307 39.4122 31.1831 37.226 34.4924 33.7358C37.8018 30.2456 39.7481 25.6833 39.9774 20.8791C40.2067 16.0748 38.7037 11.3479 35.7417 7.55838Z" fill="url(#paint0_linear_85_587)"/>
</g>
<path d="M50.911 31.5H45.2559V8.66322H49.5204L57.7404 20.4061L65.9295 8.66322H70.2249V31.5H64.508V20.5297L58.7911 28.5334H56.6279L50.911 20.5297V31.5ZM91.6433 31.5H74.7398V8.66322H80.5494V25.9994H91.6433V31.5ZM103.288 11.6607C101.773 11.6607 100.785 12.5569 100.785 14.1638V14.4419H106.038V18.9537H100.785V31.5H95.3458V18.9537H92.9354V14.4419H95.3458C95.4076 9.46668 97.6944 6.99449 102.206 6.99449C103.937 6.99449 105.544 7.42713 107.058 8.26149L105.945 12.4333C104.956 11.908 104.06 11.6607 103.288 11.6607ZM108.047 31.5V7.92156H113.485V31.5H108.047ZM125.414 31.9635C122.663 31.9635 120.438 31.0983 118.708 29.3677C117.008 27.6372 116.143 25.505 116.143 22.971C116.143 20.437 117.008 18.3047 118.708 16.5742C120.438 14.8128 122.663 13.9475 125.414 13.9475C128.164 13.9475 130.42 14.8128 132.12 16.5742C133.85 18.3047 134.715 20.437 134.715 22.971C134.715 25.505 133.85 27.6372 132.12 29.3677C130.42 31.0983 128.164 31.9635 125.414 31.9635ZM125.414 26.8647C126.495 26.8647 127.422 26.4938 128.164 25.7522C128.906 24.9796 129.276 24.0526 129.276 22.9401C129.276 21.8585 128.906 20.9314 128.133 20.1898C127.391 19.4481 126.495 19.0773 125.414 19.0773C124.332 19.0773 123.436 19.4481 122.694 20.2207C121.953 20.9623 121.582 21.8585 121.582 22.9401C121.582 24.0526 121.953 24.9796 122.694 25.7522C123.436 26.4938 124.332 26.8647 125.414 26.8647ZM145.768 31.4691H140.917L135.107 14.4419H140.855L143.79 24.3616L147.035 14.4419H150.867L154.174 24.3616L157.078 14.4419H162.826L157.017 31.4691H152.165L148.951 22.4147L145.768 31.4691Z" fill="#15161B"/>
</g>
<defs>
<linearGradient id="paint0_linear_85_587" x1="5.05524" y1="-3.66106" x2="53.4968" y2="9.36674" gradientUnits="userSpaceOnUse">
<stop stop-color="#0C93FF"/>
<stop offset="1" stop-color="#B153F0"/>
</linearGradient>
<clipPath id="clip0_85_587">
<rect width="163" height="40" fill="white"/>
</clipPath>
<clipPath id="clip1_85_587">
<rect width="40" height="40" fill="white"/>
</clipPath>
</defs>
</svg>
