<svg width="164" height="40" viewBox="0 0 164 40" fill="none" xmlns="http://www.w3.org/2000/svg">
<g clip-path="url(#clip0_1062_4)">
<g clip-path="url(#clip1_1062_4)">
<path d="M23.5517 0.0783386C23.2634 0.0783386 22.9951 0.140005 22.7467 0.223339C23.2734 0.573339 23.5634 1.04001 23.7067 1.56667C23.7184 1.63834 23.7384 1.69001 23.7484 1.76167C23.7608 1.82319 23.768 1.88562 23.7701 1.94834C23.8101 2.85667 23.5317 2.97167 23.3367 3.50834C23.0367 4.20001 23.1201 4.94334 23.4801 5.54167C23.513 5.62191 23.5544 5.69844 23.6034 5.77001C23.2117 3.15667 25.3917 2.76501 25.7934 1.94834C25.8251 1.23501 25.2367 0.760005 24.7717 0.430005C24.4063 0.200387 23.9833 0.0790315 23.5517 0.0800053V0.0783386ZM26.8367 0.666672C26.7967 0.905005 26.8267 0.843339 26.8167 0.966672C26.8067 1.05001 26.8067 1.15334 26.7967 1.23501C26.7751 1.31834 26.7551 1.40167 26.7234 1.48334C26.7034 1.56667 26.6734 1.65001 26.6401 1.73167L26.5284 1.96834C26.4951 2.01001 26.4767 2.05167 26.4451 2.09334L26.3834 2.18501C26.3342 2.25573 26.2825 2.32467 26.2284 2.39167C26.1667 2.45501 26.1151 2.52667 26.0417 2.57834V2.58834C25.9801 2.64001 25.9184 2.70167 25.8451 2.75501C25.6284 2.92001 25.3817 3.04334 25.1534 3.19834C25.0817 3.24834 25.0084 3.29167 24.9467 3.35334C24.8766 3.40266 24.8108 3.45786 24.7501 3.51834C24.6784 3.58001 24.6267 3.64167 24.5651 3.71501C24.5134 3.77667 24.4517 3.84834 24.4101 3.92167C24.3582 3.99146 24.3098 4.06377 24.2651 4.13834C24.2234 4.22167 24.1934 4.29334 24.1517 4.37501C24.1201 4.45834 24.0901 4.53001 24.0684 4.61334C24.0411 4.69846 24.0172 4.78464 23.9967 4.87167C23.9867 4.91334 23.9867 4.96501 23.9767 5.00501C23.9651 5.04667 23.9651 5.08834 23.9551 5.13001C23.9551 5.21334 23.9451 5.30501 23.9451 5.38834C23.9451 5.45001 23.9451 5.51167 23.9551 5.57334C23.9551 5.65667 23.9651 5.74001 23.9867 5.83167C23.9967 5.91501 24.0167 5.99834 24.0367 6.08167C24.0701 6.16334 24.0901 6.24501 24.1201 6.32834C24.1417 6.37834 24.1717 6.43167 24.1934 6.47334L21.8167 5.55334C21.4151 5.44001 21.0217 5.33667 20.6184 5.24334L19.9684 5.08834C19.3484 4.96501 18.7184 4.87167 18.0884 4.81001C18.0667 4.81001 18.0567 4.80001 18.0367 4.80001C16.9722 4.69337 15.9004 4.67942 14.8334 4.75834C14.2034 4.80001 13.5734 4.88167 12.9434 4.98501C12.4752 5.06567 12.0099 5.1624 11.5484 5.27501L11.0834 5.39834C10.9301 5.46001 10.7834 5.53167 10.6401 5.59501L10.2984 5.75001C10.2784 5.76001 10.2584 5.76001 10.2484 5.77001C10.1434 5.82167 10.0517 5.86334 9.95839 5.91501C9.8242 5.9742 9.69294 6.03983 9.56506 6.11167C9.49339 6.14167 9.42173 6.18334 9.35839 6.21501C9.3288 6.23337 9.29819 6.25007 9.26673 6.26501C9.17339 6.31834 9.08006 6.37001 8.99673 6.42167C8.91167 6.46869 8.82932 6.52044 8.75006 6.57667C8.67673 6.62667 8.60506 6.66834 8.54339 6.72001C8.53339 6.73167 8.52173 6.73167 8.51173 6.74167C8.45006 6.78334 8.37839 6.83501 8.31506 6.88667L8.29506 6.90667L8.14006 7.03001C8.12006 7.04167 8.09839 7.06167 8.07839 7.07167C8.02673 7.11334 7.97506 7.16501 7.92339 7.20501C7.91339 7.22667 7.89173 7.23834 7.88173 7.24667C7.82006 7.31001 7.75839 7.36167 7.69673 7.42334C7.68506 7.42334 7.68506 7.43334 7.67506 7.44334C7.61083 7.49948 7.5491 7.55843 7.49006 7.62001C7.47839 7.63001 7.47839 7.64001 7.46839 7.64001C7.41415 7.6931 7.36242 7.74872 7.31339 7.80667C7.29339 7.82667 7.26339 7.84667 7.24173 7.86667C7.18638 7.93215 7.1274 7.99447 7.06506 8.05334C7.05506 8.07334 7.03506 8.08501 7.02506 8.10334C6.94173 8.18667 6.87006 8.27001 6.78673 8.35334L6.75673 8.38334C6.59006 8.56001 6.41506 8.73501 6.2284 8.89001C6.0434 9.05667 5.84673 9.21 5.65006 9.345C5.25519 9.62706 4.82903 9.86251 4.38006 10.0467C4.1634 10.14 3.93506 10.2233 3.7084 10.295C3.27506 10.3883 2.83006 10.5633 2.4484 10.595C2.36506 10.595 2.2734 10.615 2.19006 10.625L1.93173 10.6867L1.6834 10.78C1.60006 10.8117 1.5184 10.8533 1.43673 10.8933C1.3634 10.945 1.28173 10.9867 1.2084 11.0383C1.13486 11.0916 1.06575 11.1506 1.00173 11.215C0.930062 11.265 0.856729 11.3383 0.795062 11.4C0.733396 11.4717 0.671729 11.5333 0.620062 11.6067C0.568396 11.69 0.506729 11.7617 0.465062 11.845C0.410775 11.9201 0.362301 11.9992 0.320062 12.0817C0.278396 12.175 0.236729 12.2583 0.206729 12.35C0.175062 12.4333 0.145062 12.5267 0.113396 12.6183C0.0933957 12.7017 0.071729 12.785 0.0633956 12.8683C0.0633956 12.8767 0.051729 12.8883 0.051729 12.8983C0.031729 12.9917 0.031729 13.115 0.0200623 13.1767C0.0100623 13.25 6.23237e-05 13.31 6.23237e-05 13.3833C-0.00185521 13.5631 0.0405021 13.7405 0.123396 13.9V13.91C0.155062 13.9717 0.196729 14.035 0.238396 14.0967C0.278396 14.1583 0.321729 14.22 0.371729 14.2817C0.423396 14.3333 0.485062 14.3967 0.548396 14.4483C0.608619 14.5087 0.673852 14.5639 0.743396 14.6133C0.991729 14.83 1.0534 14.9017 1.3734 15.0667C1.42506 15.0983 1.47673 15.1183 1.54006 15.15C1.55006 15.15 1.56006 15.16 1.57006 15.16C1.57006 15.1817 1.57006 15.1917 1.58006 15.2117C1.60419 15.382 1.64896 15.5488 1.7134 15.7083C1.74673 15.77 1.76673 15.8317 1.79673 15.8933C1.8084 15.915 1.8184 15.935 1.83006 15.945C1.87006 16.0283 1.91173 16.1 1.95173 16.1733L2.10673 16.39C2.1584 16.4517 2.22173 16.5233 2.2834 16.5867C2.34506 16.6483 2.40673 16.7 2.48006 16.7617C2.48006 16.7617 2.49006 16.7717 2.50006 16.7717C2.56173 16.8233 2.6234 16.875 2.68673 16.9167C2.7586 16.9671 2.8344 17.0117 2.9134 17.05C2.98506 17.0917 3.0684 17.1333 3.15006 17.165C3.21666 17.1951 3.28583 17.219 3.35673 17.2367C3.3684 17.2467 3.3784 17.2467 3.3984 17.2567C3.44006 17.2683 3.49173 17.2783 3.53173 17.2883C3.50173 17.8467 3.49173 18.3717 3.57506 18.5583C3.66673 18.765 4.12173 18.135 4.57506 17.4117C4.51506 18.125 4.4734 18.9617 4.57506 19.21C4.69006 19.4683 5.3084 18.6617 5.84673 17.7733C13.1717 16.08 19.8551 21.14 20.5567 28.29C20.4234 27.1733 19.0484 26.555 18.4184 26.71C18.1084 27.4733 17.5817 28.455 16.7351 29.065C16.8067 28.3817 16.7767 27.6817 16.6317 26.9983C16.4004 27.9495 15.9628 28.8383 15.3501 29.6017C14.3701 29.6733 13.3884 29.1983 12.8717 28.485C12.8301 28.455 12.8201 28.3933 12.7884 28.3517C12.7584 28.28 12.7267 28.2067 12.7051 28.135C12.6751 28.0658 12.6543 27.993 12.6434 27.9183C12.6334 27.845 12.6334 27.7733 12.6334 27.69V27.535C12.6457 27.4617 12.663 27.3893 12.6851 27.3183C12.7067 27.2467 12.7267 27.175 12.7584 27.1017C12.7984 27.03 12.8301 26.9567 12.8817 26.885C13.0567 26.3883 13.0567 25.985 12.7367 25.7483C12.6746 25.7078 12.6087 25.6732 12.5401 25.645C12.5001 25.635 12.4484 25.615 12.4067 25.6033L12.3234 25.5733C12.2526 25.5504 12.1802 25.5332 12.1067 25.5217C12.0363 25.5011 11.9634 25.4904 11.8901 25.49C11.815 25.4782 11.7393 25.4716 11.6634 25.47C11.6117 25.47 11.5601 25.48 11.5084 25.48C11.4312 25.4796 11.3543 25.4902 11.2801 25.5117C11.2084 25.5217 11.1367 25.5317 11.0634 25.5517C10.9897 25.5714 10.9173 25.5959 10.8467 25.625C10.7751 25.655 10.7134 25.6867 10.6401 25.7183C10.5784 25.7483 10.5167 25.79 10.4434 25.8217C8.03673 27.3917 9.47339 31.0683 11.1151 32.1333C10.4951 32.2467 9.86506 32.38 9.69006 32.515L9.66839 32.535C10.1134 32.8033 10.5784 33.0317 11.0634 33.2283C11.7251 33.445 12.4267 33.64 12.7367 33.7233V33.7333C13.5926 33.9091 14.4679 33.9719 15.3401 33.92C19.9167 33.6 23.6667 30.1183 24.3484 25.5317L24.4101 25.8C24.4417 25.9867 24.4817 26.1833 24.5034 26.3783V26.3883C24.5234 26.4817 24.5334 26.575 24.5451 26.6583V26.6983C24.5551 26.7917 24.5651 26.885 24.5651 26.9683C24.5751 27.0817 24.5851 27.195 24.5851 27.3083V27.475C24.5851 27.525 24.5967 27.5867 24.5967 27.6383C24.5967 27.7017 24.5851 27.7633 24.5851 27.825V27.97C24.5851 28.0417 24.5751 28.1033 24.5751 28.1767C24.5751 28.2183 24.5751 28.26 24.5651 28.31C24.5651 28.3833 24.5551 28.455 24.5551 28.5383C24.5451 28.5683 24.5451 28.6 24.5451 28.63L24.5117 28.8683C24.5117 28.9 24.5117 28.93 24.5034 28.9617C24.4917 29.065 24.4717 29.1583 24.4617 29.2617V29.2817L24.4001 29.5717V29.6017L24.3384 29.88C24.3384 29.8917 24.3267 29.9133 24.3267 29.9217C24.3077 30.0162 24.2838 30.1096 24.2551 30.2017V30.2317C24.2234 30.335 24.1934 30.4283 24.1717 30.5217C24.1617 30.5317 24.1617 30.5417 24.1617 30.5417L24.0684 30.8517C24.0284 30.955 23.9967 31.0483 23.9551 31.1517C23.9134 31.255 23.8834 31.3583 23.8417 31.4517C23.8001 31.555 23.7584 31.6467 23.7184 31.7517H23.7067C23.6667 31.8433 23.6234 31.9467 23.5734 32.04C23.5647 32.0647 23.5541 32.0886 23.5417 32.1117C23.5317 32.1217 23.5317 32.1333 23.5217 32.1433C22.8385 33.5111 21.8441 34.6995 20.6184 35.6133C20.5351 35.665 20.4534 35.7283 20.3701 35.79C20.3501 35.81 20.3201 35.82 20.2984 35.84C20.2245 35.8946 20.1489 35.9469 20.0717 35.9967L20.1017 36.0583H20.1134L20.5467 35.9967H20.5567C20.8251 35.955 21.0934 35.9033 21.3617 35.8517C21.4351 35.8417 21.5167 35.82 21.5901 35.8L21.7351 35.7683C21.8067 35.7583 21.8784 35.7383 21.9517 35.7283C22.0134 35.7067 22.0751 35.695 22.1367 35.6767C23.1701 35.4267 24.1717 35.0867 25.1334 34.685C23.4731 36.9464 21.265 38.7484 18.7167 39.9217C19.9067 39.8383 21.0934 39.6433 22.2401 39.3117C26.3904 38.0914 29.8958 35.2905 32.0017 31.5117C31.5764 33.9038 30.6277 36.1723 29.2234 38.155C30.2246 37.4946 31.1497 36.7255 31.9817 35.8617C34.294 33.4477 35.812 30.3838 36.3317 27.0817C36.6817 28.715 36.7851 30.3983 36.6317 32.06C44.0884 21.6583 37.2501 10.8733 34.3884 8.03334C34.3784 8.01167 34.3684 8.00167 34.3684 7.98167C34.3584 7.99167 34.3584 7.99167 34.3584 8.00167C34.3584 7.99167 34.3584 7.99167 34.3467 7.98167C34.3467 8.10501 34.3367 8.22834 34.3267 8.35334C34.2981 8.58472 34.2636 8.81535 34.2234 9.04501C34.1734 9.27167 34.1101 9.50001 34.0484 9.72834C33.9751 9.945 33.8934 10.1717 33.7984 10.3883C33.704 10.6023 33.6011 10.8125 33.4901 11.0183C33.2594 11.4233 32.9934 11.807 32.6951 12.165C32.5401 12.35 32.3751 12.515 32.2084 12.6817C32.111 12.7707 32.0109 12.8569 31.9084 12.94L31.6717 13.1467C31.4873 13.2922 31.2942 13.4264 31.0934 13.5483C30.896 13.6755 30.6924 13.7929 30.4834 13.9C30.2667 14.0033 30.0501 14.0967 29.8334 14.19C29.3921 14.3579 28.9355 14.4823 28.4701 14.5617C28.2317 14.6033 27.9951 14.6233 27.7667 14.645C27.602 14.6567 27.4369 14.6633 27.2717 14.665C27.0368 14.6618 26.8021 14.6479 26.5684 14.6233C26.3324 14.6048 26.098 14.5703 25.8667 14.52C25.6325 14.4775 25.4014 14.419 25.1751 14.345H25.1634C25.3917 14.3233 25.6184 14.3033 25.8467 14.2617C26.3119 14.181 26.7683 14.0566 27.2101 13.89C27.4367 13.8067 27.6534 13.7033 27.8601 13.6C28.0767 13.4967 28.2734 13.3833 28.4801 13.26C28.6767 13.1267 28.8717 12.9917 29.0584 12.8467C29.2451 12.7017 29.4201 12.5467 29.5851 12.3817C29.7601 12.2267 29.9151 12.0517 30.0701 11.875C30.2251 11.69 30.3701 11.5033 30.5034 11.3183C30.5251 11.2867 30.5467 11.245 30.5667 11.215C30.6701 11.0483 30.7734 10.8833 30.8667 10.7183C31.0945 10.3072 31.2809 9.87454 31.4234 9.42667C31.4967 9.21001 31.5484 8.98334 31.6001 8.755C31.6417 8.51834 31.6834 8.29167 31.7034 8.06334C31.7234 7.82667 31.7451 7.58834 31.7451 7.36167C31.7451 7.195 31.7334 7.03001 31.7234 6.86501C31.7028 6.63364 31.675 6.40298 31.6401 6.17334C31.5999 5.94049 31.5487 5.70968 31.4867 5.48167C31.4134 5.26501 31.3417 5.03667 31.2584 4.82001C31.1751 4.60334 31.0734 4.38667 30.9701 4.18001C30.8551 3.97334 30.7417 3.76667 30.6184 3.57001C30.4865 3.37692 30.3486 3.18795 30.2051 3.00334C30.0501 2.82667 29.8951 2.65001 29.7301 2.47501C29.6431 2.38633 29.5536 2.30019 29.4617 2.21667C28.9951 1.85501 28.5117 1.51501 28.0251 1.20501C27.9583 1.16645 27.8893 1.13194 27.8184 1.10167C27.512 0.914061 27.1818 0.766655 26.8367 0.666672Z" fill="#5988ED"/>
</g>
<path d="M59.9653 21.055V8.66322H65.6514V31.5H61.2941L50.911 19.2627V31.5H45.2559V8.66322H49.3968L59.9653 21.055ZM86.4146 22.5383C86.4146 23.2491 86.3528 23.9598 86.2291 24.7324H74.0536C74.6717 26.5247 76.0623 27.4209 78.2255 27.4209C80.1105 27.4209 81.8101 26.8956 83.3861 25.8449L85.5184 29.5223C83.3243 31.0983 80.8212 31.8708 77.9782 31.8708C74.9498 31.8708 72.6321 31.0056 70.9943 29.3059C69.3565 27.5754 68.553 25.4741 68.553 22.971C68.553 20.4061 69.3874 18.2738 71.087 16.5742C72.7867 14.8746 74.9807 14.0093 77.6692 14.0093C80.2032 14.0093 82.3046 14.7819 83.9424 16.2961C85.5802 17.8103 86.4146 19.9116 86.4146 22.5383ZM77.6692 18.3665C75.7842 18.3665 74.579 19.2318 73.9918 20.9932H81.223C80.7594 19.3554 79.4924 18.3665 77.6692 18.3665ZM95.2777 31.9635C92.2802 31.9635 89.7771 30.9747 87.7067 29.0278L90.1479 25.3504C91.7858 26.772 93.4854 27.4827 95.2468 27.4827C96.452 27.4827 97.07 27.1119 97.07 26.4011C97.07 25.9994 96.761 25.6904 96.143 25.4432C96.0503 25.4123 95.4322 25.2268 94.2579 24.8251C93.1146 24.4234 92.3111 24.1453 91.9094 23.9598C89.7771 22.971 88.7264 21.4259 88.7264 19.3245C88.7264 17.7176 89.3754 16.4197 90.6424 15.4308C91.9094 14.411 93.6399 13.9166 95.7722 13.9166C98.2134 13.9166 100.315 14.6583 102.138 16.1416L99.7894 19.7262C98.3679 18.7683 97.0082 18.2738 95.6794 18.2738C94.7833 18.2738 94.1343 18.7065 94.1343 19.2318C94.1343 19.788 94.6597 20.1898 95.6794 20.4679C97.3173 20.9314 98.677 21.4259 99.6967 21.9512C101.767 22.971 102.602 24.2998 102.602 26.2775C102.602 27.9462 101.953 29.3059 100.624 30.3875C99.295 31.4382 97.5336 31.9635 95.2777 31.9635ZM116.68 26.1848L118.132 30.542C116.556 31.4691 114.733 31.9326 112.694 31.9326C108.46 31.9326 106.359 29.5841 106.359 24.8869V18.9537H103.763V14.4419H106.42V8.3851H111.828V14.4419H117.174V18.9537H111.828V24.238C111.828 26.0612 112.539 26.9574 113.991 26.9574C114.795 26.9574 115.691 26.7101 116.68 26.1848ZM132.228 31.8708C129.231 31.8708 126.728 30.9747 124.781 29.1514L127.253 24.5161C128.644 25.7213 130.096 26.3393 131.61 26.3393C134.237 26.3393 135.782 24.5779 135.782 21.8585V8.66322H141.561V22.0439C141.561 29.2132 137.142 31.8708 132.228 31.8708ZM153.136 31.9017C149.335 31.9017 146.214 30.5729 143.834 27.9462L146.739 23.7126C148.655 25.6286 150.818 26.5865 153.228 26.5865C154.619 26.5865 155.793 25.9994 155.793 24.9178C155.793 24.2071 155.175 23.6199 153.939 23.1564L151.9 22.4765C150.633 22.013 149.644 21.6422 148.995 21.3022C146.492 19.9735 145.225 17.9957 145.225 15.369C145.225 13.3604 146.028 11.6607 147.604 10.3319C149.18 9.00314 151.22 8.32329 153.723 8.32329C156.844 8.32329 159.532 9.28126 161.85 11.1972L159.162 15.5853C157.802 14.4728 155.546 13.7003 153.816 13.7003C152.24 13.7003 151.374 14.3492 151.374 15.1836C151.374 15.8634 151.992 16.4197 153.198 16.8832L155.206 17.6249C156.35 18.0266 157.246 18.3665 157.833 18.6138C160.738 19.8498 162.19 21.8585 162.19 24.6088C162.19 26.741 161.356 28.4716 159.718 29.8622C158.08 31.2219 155.886 31.9017 153.136 31.9017Z" fill="#15161B"/>
</g>
<defs>
<clipPath id="clip0_1062_4">
<rect width="164" height="40" fill="white"/>
</clipPath>
<clipPath id="clip1_1062_4">
<rect width="40" height="40" fill="white"/>
</clipPath>
</defs>
</svg>
