<svg width="174" height="40" viewBox="0 0 174 40" fill="none" xmlns="http://www.w3.org/2000/svg">
<g clip-path="url(#clip0_85_345)">
<path d="M18.303 1.98364C19.3328 1.39497 20.6642 1.3909 21.6956 1.98267L35.1604 9.58813H35.1594C36.14 10.1405 36.7977 11.2267 36.7893 12.3684V27.6223C36.7967 28.8112 36.0774 29.9173 35.054 30.4573L35.0549 30.4583C30.5818 32.9802 26.1127 35.5025 21.6399 38.0247L21.6409 38.0256C20.5864 38.6284 19.2297 38.5838 18.2102 37.9417L14.1848 35.6145L14.1799 35.6116C14.1187 35.5751 14.0562 35.5398 13.9817 35.4983C13.9104 35.4586 13.8298 35.414 13.7502 35.3635C13.5909 35.2623 13.4125 35.1273 13.2688 34.9299L13.0735 34.6614L13.2717 34.3948C13.4324 34.1782 13.6458 34.0734 13.8088 34.012C13.8891 33.9817 13.971 33.9567 14.0325 33.9377C14.0999 33.9169 14.1488 33.902 14.1907 33.885L14.2063 33.8782L14.2229 33.8733C14.7339 33.7108 15.2079 33.4487 15.7336 33.1653V33.1663C16.0554 32.9723 16.3913 33.0775 16.5862 33.1956L18.3049 34.1917C18.8664 34.5187 19.4273 34.844 19.9963 35.1663C19.9986 35.1655 20.0014 35.1653 20.0042 35.1643C20.0305 35.1546 20.0649 35.138 20.1135 35.1106C20.1375 35.0971 20.1616 35.0822 20.1897 35.0657C20.2157 35.0504 20.2461 35.0329 20.2766 35.0159C24.6697 32.533 29.0583 30.0653 33.4495 27.5823L33.4602 27.5754L33.4592 27.5627V27.5461C33.4623 22.5134 33.4604 17.4798 33.4612 12.4465V12.426L33.4631 12.4055V12.4045C33.4631 12.4043 33.4622 12.4034 33.4612 12.4016C33.4589 12.3978 33.4542 12.3918 33.4456 12.3879L33.428 12.3801L33.4104 12.3704C28.953 9.86014 24.4965 7.34584 20.0403 4.83521L20.0227 4.82446L20.0061 4.81372C20.0041 4.81234 20.0017 4.81079 19.9993 4.81079C19.9968 4.81082 19.9944 4.81235 19.9924 4.81372L19.9768 4.82446L19.9592 4.83423C15.5035 7.34539 11.0474 9.86234 6.59106 12.3723L6.57446 12.3821L6.55688 12.3899C6.55094 12.3926 6.54594 12.3964 6.54224 12.3997C6.53977 12.4018 6.53746 12.4031 6.53638 12.4045L6.53833 12.4231V27.5676L6.53735 27.5696L6.552 27.5774C7.74039 28.2513 8.92979 28.9197 10.1204 29.592C10.7378 29.9229 11.4127 30.0721 11.9729 29.8625L11.9788 29.8606C12.4471 29.6926 12.7844 29.2026 12.7756 28.7034V28.6946C12.7787 26.1959 12.7782 23.6927 12.7776 21.1897L12.7805 13.6838C12.7642 13.1863 13.2028 12.8295 13.6428 12.8469C14.2125 12.8431 14.789 12.8396 15.3655 12.8489H15.3645C15.9099 12.8466 16.2065 13.3447 16.1838 13.759L16.1799 28.8655C16.1811 30.301 15.5921 31.9588 14.1477 32.7229L14.1448 32.7249C12.4584 33.5984 10.4129 33.3992 8.80493 32.5911V32.592C7.49546 31.9385 6.20641 31.1459 4.95825 30.4661C3.92352 29.9303 3.20298 28.8144 3.21021 27.6233V12.3684C3.20107 11.2034 3.88468 10.0973 4.89575 9.55298C9.36531 7.0306 13.834 4.50628 18.303 1.98267V1.98364Z" fill="#5988ED"/>
<path d="M18.303 1.98364C19.3328 1.39497 20.6642 1.3909 21.6956 1.98267L35.1604 9.58813H35.1594C36.14 10.1405 36.7977 11.2267 36.7893 12.3684V27.6223C36.7967 28.8112 36.0774 29.9173 35.054 30.4573L35.0549 30.4583C30.5818 32.9802 26.1127 35.5025 21.6399 38.0247L21.6409 38.0256C20.5864 38.6284 19.2297 38.5838 18.2102 37.9417L14.1848 35.6145L14.1799 35.6116C14.1187 35.5751 14.0562 35.5398 13.9817 35.4983C13.9104 35.4586 13.8298 35.414 13.7502 35.3635C13.5909 35.2623 13.4125 35.1273 13.2688 34.9299L13.0735 34.6614L13.2717 34.3948C13.4324 34.1782 13.6458 34.0734 13.8088 34.012C13.8891 33.9817 13.971 33.9567 14.0325 33.9377C14.0999 33.9169 14.1488 33.902 14.1907 33.885L14.2063 33.8782L14.2229 33.8733C14.7339 33.7108 15.2079 33.4487 15.7336 33.1653V33.1663C16.0554 32.9723 16.3913 33.0775 16.5862 33.1956L18.3049 34.1917C18.8664 34.5187 19.4273 34.844 19.9963 35.1663C19.9986 35.1655 20.0014 35.1653 20.0042 35.1643C20.0305 35.1546 20.0649 35.138 20.1135 35.1106C20.1375 35.0971 20.1616 35.0822 20.1897 35.0657C20.2157 35.0504 20.2461 35.0329 20.2766 35.0159C24.6697 32.533 29.0583 30.0653 33.4495 27.5823L33.4602 27.5754L33.4592 27.5627V27.5461C33.4623 22.5134 33.4604 17.4798 33.4612 12.4465V12.426L33.4631 12.4055V12.4045C33.4631 12.4043 33.4622 12.4034 33.4612 12.4016C33.4589 12.3978 33.4542 12.3918 33.4456 12.3879L33.428 12.3801L33.4104 12.3704C28.953 9.86014 24.4965 7.34584 20.0403 4.83521L20.0227 4.82446L20.0061 4.81372C20.0041 4.81234 20.0017 4.81079 19.9993 4.81079C19.9968 4.81082 19.9944 4.81235 19.9924 4.81372L19.9768 4.82446L19.9592 4.83423C15.5035 7.34539 11.0474 9.86234 6.59106 12.3723L6.57446 12.3821L6.55688 12.3899C6.55094 12.3926 6.54594 12.3964 6.54224 12.3997C6.53977 12.4018 6.53746 12.4031 6.53638 12.4045L6.53833 12.4231V27.5676L6.53735 27.5696L6.552 27.5774C7.74039 28.2513 8.92979 28.9197 10.1204 29.592C10.7378 29.9229 11.4127 30.0721 11.9729 29.8625L11.9788 29.8606C12.4471 29.6926 12.7844 29.2026 12.7756 28.7034V28.6946C12.7787 26.1959 12.7782 23.6927 12.7776 21.1897L12.7805 13.6838C12.7642 13.1863 13.2028 12.8295 13.6428 12.8469C14.2125 12.8431 14.789 12.8396 15.3655 12.8489H15.3645C15.9099 12.8466 16.2065 13.3447 16.1838 13.759L16.1799 28.8655C16.1811 30.301 15.5921 31.9588 14.1477 32.7229L14.1448 32.7249C12.4584 33.5984 10.4129 33.3992 8.80493 32.5911V32.592C7.49546 31.9385 6.20641 31.1459 4.95825 30.4661C3.92352 29.9303 3.20298 28.8144 3.21021 27.6233V12.3684C3.20107 11.2034 3.88468 10.0973 4.89575 9.55298C9.36531 7.0306 13.834 4.50628 18.303 1.98267V1.98364Z" fill="url(#paint0_linear_85_345)"/>
<path d="M18.303 1.98364C19.3328 1.39497 20.6642 1.3909 21.6956 1.98267L35.1604 9.58813H35.1594C36.14 10.1405 36.7977 11.2267 36.7893 12.3684V27.6223C36.7967 28.8112 36.0774 29.9173 35.054 30.4573L35.0549 30.4583C30.5818 32.9802 26.1127 35.5025 21.6399 38.0247L21.6409 38.0256C20.5864 38.6284 19.2297 38.5838 18.2102 37.9417L14.1848 35.6145L14.1799 35.6116C14.1187 35.5751 14.0562 35.5398 13.9817 35.4983C13.9104 35.4586 13.8298 35.414 13.7502 35.3635C13.5909 35.2623 13.4125 35.1273 13.2688 34.9299L13.0735 34.6614L13.2717 34.3948C13.4324 34.1782 13.6458 34.0734 13.8088 34.012C13.8891 33.9817 13.971 33.9567 14.0325 33.9377C14.0999 33.9169 14.1488 33.902 14.1907 33.885L14.2063 33.8782L14.2229 33.8733C14.7339 33.7108 15.2079 33.4487 15.7336 33.1653V33.1663C16.0554 32.9723 16.3913 33.0775 16.5862 33.1956L18.3049 34.1917C18.8664 34.5187 19.4273 34.844 19.9963 35.1663C19.9986 35.1655 20.0014 35.1653 20.0042 35.1643C20.0305 35.1546 20.0649 35.138 20.1135 35.1106C20.1375 35.0971 20.1616 35.0822 20.1897 35.0657C20.2157 35.0504 20.2461 35.0329 20.2766 35.0159C24.6697 32.533 29.0583 30.0653 33.4495 27.5823L33.4602 27.5754L33.4592 27.5627V27.5461C33.4623 22.5134 33.4604 17.4798 33.4612 12.4465V12.426L33.4631 12.4055V12.4045C33.4631 12.4043 33.4622 12.4034 33.4612 12.4016C33.4589 12.3978 33.4542 12.3918 33.4456 12.3879L33.428 12.3801L33.4104 12.3704C28.953 9.86014 24.4965 7.34584 20.0403 4.83521L20.0227 4.82446L20.0061 4.81372C20.0041 4.81234 20.0017 4.81079 19.9993 4.81079C19.9968 4.81082 19.9944 4.81235 19.9924 4.81372L19.9768 4.82446L19.9592 4.83423C15.5035 7.34539 11.0474 9.86234 6.59106 12.3723L6.57446 12.3821L6.55688 12.3899C6.55094 12.3926 6.54594 12.3964 6.54224 12.3997C6.53977 12.4018 6.53746 12.4031 6.53638 12.4045L6.53833 12.4231V27.5676L6.53735 27.5696L6.552 27.5774C7.74039 28.2513 8.92979 28.9197 10.1204 29.592C10.7378 29.9229 11.4127 30.0721 11.9729 29.8625L11.9788 29.8606C12.4471 29.6926 12.7844 29.2026 12.7756 28.7034V28.6946C12.7787 26.1959 12.7782 23.6927 12.7776 21.1897L12.7805 13.6838C12.7642 13.1863 13.2028 12.8295 13.6428 12.8469C14.2125 12.8431 14.789 12.8396 15.3655 12.8489H15.3645C15.9099 12.8466 16.2065 13.3447 16.1838 13.759L16.1799 28.8655C16.1811 30.301 15.5921 31.9588 14.1477 32.7229L14.1448 32.7249C12.4584 33.5984 10.4129 33.3992 8.80493 32.5911V32.592C7.49546 31.9385 6.20641 31.1459 4.95825 30.4661C3.92352 29.9303 3.20298 28.8144 3.21021 27.6233V12.3684C3.20107 11.2034 3.88468 10.0973 4.89575 9.55298C9.36531 7.0306 13.834 4.50628 18.303 1.98267V1.98364Z" stroke="#5988ED" stroke-width="0.904107"/>
<path d="M18.303 1.98364C19.3328 1.39497 20.6642 1.3909 21.6956 1.98267L35.1604 9.58813H35.1594C36.14 10.1405 36.7977 11.2267 36.7893 12.3684V27.6223C36.7967 28.8112 36.0774 29.9173 35.054 30.4573L35.0549 30.4583C30.5818 32.9802 26.1127 35.5025 21.6399 38.0247L21.6409 38.0256C20.5864 38.6284 19.2297 38.5838 18.2102 37.9417L14.1848 35.6145L14.1799 35.6116C14.1187 35.5751 14.0562 35.5398 13.9817 35.4983C13.9104 35.4586 13.8298 35.414 13.7502 35.3635C13.5909 35.2623 13.4125 35.1273 13.2688 34.9299L13.0735 34.6614L13.2717 34.3948C13.4324 34.1782 13.6458 34.0734 13.8088 34.012C13.8891 33.9817 13.971 33.9567 14.0325 33.9377C14.0999 33.9169 14.1488 33.902 14.1907 33.885L14.2063 33.8782L14.2229 33.8733C14.7339 33.7108 15.2079 33.4487 15.7336 33.1653V33.1663C16.0554 32.9723 16.3913 33.0775 16.5862 33.1956L18.3049 34.1917C18.8664 34.5187 19.4273 34.844 19.9963 35.1663C19.9986 35.1655 20.0014 35.1653 20.0042 35.1643C20.0305 35.1546 20.0649 35.138 20.1135 35.1106C20.1375 35.0971 20.1616 35.0822 20.1897 35.0657C20.2157 35.0504 20.2461 35.0329 20.2766 35.0159C24.6697 32.533 29.0583 30.0653 33.4495 27.5823L33.4602 27.5754L33.4592 27.5627V27.5461C33.4623 22.5134 33.4604 17.4798 33.4612 12.4465V12.426L33.4631 12.4055V12.4045C33.4631 12.4043 33.4622 12.4034 33.4612 12.4016C33.4589 12.3978 33.4542 12.3918 33.4456 12.3879L33.428 12.3801L33.4104 12.3704C28.953 9.86014 24.4965 7.34584 20.0403 4.83521L20.0227 4.82446L20.0061 4.81372C20.0041 4.81234 20.0017 4.81079 19.9993 4.81079C19.9968 4.81082 19.9944 4.81235 19.9924 4.81372L19.9768 4.82446L19.9592 4.83423C15.5035 7.34539 11.0474 9.86234 6.59106 12.3723L6.57446 12.3821L6.55688 12.3899C6.55094 12.3926 6.54594 12.3964 6.54224 12.3997C6.53977 12.4018 6.53746 12.4031 6.53638 12.4045L6.53833 12.4231V27.5676L6.53735 27.5696L6.552 27.5774C7.74039 28.2513 8.92979 28.9197 10.1204 29.592C10.7378 29.9229 11.4127 30.0721 11.9729 29.8625L11.9788 29.8606C12.4471 29.6926 12.7844 29.2026 12.7756 28.7034V28.6946C12.7787 26.1959 12.7782 23.6927 12.7776 21.1897L12.7805 13.6838C12.7642 13.1863 13.2028 12.8295 13.6428 12.8469C14.2125 12.8431 14.789 12.8396 15.3655 12.8489H15.3645C15.9099 12.8466 16.2065 13.3447 16.1838 13.759L16.1799 28.8655C16.1811 30.301 15.5921 31.9588 14.1477 32.7229L14.1448 32.7249C12.4584 33.5984 10.4129 33.3992 8.80493 32.5911V32.592C7.49546 31.9385 6.20641 31.1459 4.95825 30.4661C3.92352 29.9303 3.20298 28.8144 3.21021 27.6233V12.3684C3.20107 11.2034 3.88468 10.0973 4.89575 9.55298C9.36531 7.0306 13.834 4.50628 18.303 1.98267V1.98364Z" stroke="url(#paint1_linear_85_345)" stroke-width="0.904107"/>
<path d="M23.4053 12.945C25.3559 12.8194 27.444 12.8706 29.1993 13.8315C30.5583 14.5679 31.3117 16.1133 31.3357 17.6231C31.2977 17.8268 31.0848 17.9391 30.8904 17.9252C30.3245 17.9244 29.7584 17.9328 29.1925 17.9213C28.9524 17.9305 28.8129 17.7092 28.7827 17.4969C28.6201 16.7746 28.2262 16.0591 27.5462 15.7107C26.5025 15.1881 25.2923 15.2144 24.1541 15.2253C23.3232 15.2694 22.4298 15.3413 21.7258 15.8299C21.1854 16.2 21.0213 16.9472 21.2141 17.5489C21.396 17.9809 21.8947 18.1203 22.3028 18.2488C24.6535 18.8636 27.1445 18.8025 29.4502 19.6115C30.4049 19.9414 31.3387 20.5826 31.6655 21.5821C32.0929 22.9217 31.9056 24.523 30.9525 25.5984C30.1796 26.4834 29.0539 26.9651 27.9311 27.2267C26.4375 27.5597 24.8874 27.5682 23.3705 27.4203C21.9442 27.2577 20.46 26.883 19.3589 25.9112C18.4173 25.0936 17.9574 23.8198 18.0031 22.5903C18.014 22.3827 18.2207 22.2379 18.4196 22.255C18.9895 22.2504 19.5594 22.2488 20.1294 22.2558C20.357 22.2395 20.5257 22.4362 20.5374 22.6507C20.6426 23.339 20.9012 24.0614 21.5014 24.4695C22.6597 25.2167 24.1131 25.1656 25.4393 25.1865C26.5381 25.1377 27.7716 25.123 28.6682 24.3968C29.1413 23.9825 29.2815 23.2895 29.1536 22.6933C29.0151 22.19 28.4886 21.9554 28.0364 21.802C25.7158 21.068 23.197 21.3343 20.8989 20.5042C19.966 20.1745 19.0638 19.5511 18.7053 18.5927C18.2052 17.2361 18.4344 15.5582 19.4874 14.519C20.5141 13.4854 21.9962 13.0875 23.4053 12.945Z" fill="#5988ED"/>
<path d="M23.4053 12.945C25.3559 12.8194 27.444 12.8706 29.1993 13.8315C30.5583 14.5679 31.3117 16.1133 31.3357 17.6231C31.2977 17.8268 31.0848 17.9391 30.8904 17.9252C30.3245 17.9244 29.7584 17.9328 29.1925 17.9213C28.9524 17.9305 28.8129 17.7092 28.7827 17.4969C28.6201 16.7746 28.2262 16.0591 27.5462 15.7107C26.5025 15.1881 25.2923 15.2144 24.1541 15.2253C23.3232 15.2694 22.4298 15.3413 21.7258 15.8299C21.1854 16.2 21.0213 16.9472 21.2141 17.5489C21.396 17.9809 21.8947 18.1203 22.3028 18.2488C24.6535 18.8636 27.1445 18.8025 29.4502 19.6115C30.4049 19.9414 31.3387 20.5826 31.6655 21.5821C32.0929 22.9217 31.9056 24.523 30.9525 25.5984C30.1796 26.4834 29.0539 26.9651 27.9311 27.2267C26.4375 27.5597 24.8874 27.5682 23.3705 27.4203C21.9442 27.2577 20.46 26.883 19.3589 25.9112C18.4173 25.0936 17.9574 23.8198 18.0031 22.5903C18.014 22.3827 18.2207 22.2379 18.4196 22.255C18.9895 22.2504 19.5594 22.2488 20.1294 22.2558C20.357 22.2395 20.5257 22.4362 20.5374 22.6507C20.6426 23.339 20.9012 24.0614 21.5014 24.4695C22.6597 25.2167 24.1131 25.1656 25.4393 25.1865C26.5381 25.1377 27.7716 25.123 28.6682 24.3968C29.1413 23.9825 29.2815 23.2895 29.1536 22.6933C29.0151 22.19 28.4886 21.9554 28.0364 21.802C25.7158 21.068 23.197 21.3343 20.8989 20.5042C19.966 20.1745 19.0638 19.5511 18.7053 18.5927C18.2052 17.2361 18.4344 15.5582 19.4874 14.519C20.5141 13.4854 21.9962 13.0875 23.4053 12.945Z" fill="url(#paint2_linear_85_345)"/>
<path d="M23.4053 12.945C25.3559 12.8194 27.444 12.8706 29.1993 13.8315C30.5583 14.5679 31.3117 16.1133 31.3357 17.6231C31.2977 17.8268 31.0848 17.9391 30.8904 17.9252C30.3245 17.9244 29.7584 17.9328 29.1925 17.9213C28.9524 17.9305 28.8129 17.7092 28.7827 17.4969C28.6201 16.7746 28.2262 16.0591 27.5462 15.7107C26.5025 15.1881 25.2923 15.2144 24.1541 15.2253C23.3232 15.2694 22.4298 15.3413 21.7258 15.8299C21.1854 16.2 21.0213 16.9472 21.2141 17.5489C21.396 17.9809 21.8947 18.1203 22.3028 18.2488C24.6535 18.8636 27.1445 18.8025 29.4502 19.6115C30.4049 19.9414 31.3387 20.5826 31.6655 21.5821C32.0929 22.9217 31.9056 24.523 30.9525 25.5984C30.1796 26.4834 29.0539 26.9651 27.9311 27.2267C26.4375 27.5597 24.8874 27.5682 23.3705 27.4203C21.9442 27.2577 20.46 26.883 19.3589 25.9112C18.4173 25.0936 17.9574 23.8198 18.0031 22.5903C18.014 22.3827 18.2207 22.2379 18.4196 22.255C18.9895 22.2504 19.5594 22.2488 20.1294 22.2558C20.357 22.2395 20.5257 22.4362 20.5374 22.6507C20.6426 23.339 20.9012 24.0614 21.5014 24.4695C22.6597 25.2167 24.1131 25.1656 25.4393 25.1865C26.5381 25.1377 27.7716 25.123 28.6682 24.3968C29.1413 23.9825 29.2815 23.2895 29.1536 22.6933C29.0151 22.19 28.4886 21.9554 28.0364 21.802C25.7158 21.068 23.197 21.3343 20.8989 20.5042C19.966 20.1745 19.0638 19.5511 18.7053 18.5927C18.2052 17.2361 18.4344 15.5582 19.4874 14.519C20.5141 13.4854 21.9962 13.0875 23.4053 12.945Z" stroke="#5988ED" stroke-width="0.904107"/>
<path d="M23.4053 12.945C25.3559 12.8194 27.444 12.8706 29.1993 13.8315C30.5583 14.5679 31.3117 16.1133 31.3357 17.6231C31.2977 17.8268 31.0848 17.9391 30.8904 17.9252C30.3245 17.9244 29.7584 17.9328 29.1925 17.9213C28.9524 17.9305 28.8129 17.7092 28.7827 17.4969C28.6201 16.7746 28.2262 16.0591 27.5462 15.7107C26.5025 15.1881 25.2923 15.2144 24.1541 15.2253C23.3232 15.2694 22.4298 15.3413 21.7258 15.8299C21.1854 16.2 21.0213 16.9472 21.2141 17.5489C21.396 17.9809 21.8947 18.1203 22.3028 18.2488C24.6535 18.8636 27.1445 18.8025 29.4502 19.6115C30.4049 19.9414 31.3387 20.5826 31.6655 21.5821C32.0929 22.9217 31.9056 24.523 30.9525 25.5984C30.1796 26.4834 29.0539 26.9651 27.9311 27.2267C26.4375 27.5597 24.8874 27.5682 23.3705 27.4203C21.9442 27.2577 20.46 26.883 19.3589 25.9112C18.4173 25.0936 17.9574 23.8198 18.0031 22.5903C18.014 22.3827 18.2207 22.2379 18.4196 22.255C18.9895 22.2504 19.5594 22.2488 20.1294 22.2558C20.357 22.2395 20.5257 22.4362 20.5374 22.6507C20.6426 23.339 20.9012 24.0614 21.5014 24.4695C22.6597 25.2167 24.1131 25.1656 25.4393 25.1865C26.5381 25.1377 27.7716 25.123 28.6682 24.3968C29.1413 23.9825 29.2815 23.2895 29.1536 22.6933C29.0151 22.19 28.4886 21.9554 28.0364 21.802C25.7158 21.068 23.197 21.3343 20.8989 20.5042C19.966 20.1745 19.0638 19.5511 18.7053 18.5927C18.2052 17.2361 18.4344 15.5582 19.4874 14.519C20.5141 13.4854 21.9962 13.0875 23.4053 12.945Z" stroke="url(#paint3_linear_85_345)" stroke-width="0.904107"/>
<path d="M59.9653 21.055V8.66322H65.6514V31.5H61.2941L50.911 19.2627V31.5H45.2559V8.66322H49.3968L59.9653 21.055ZM77.7928 31.9635C75.0425 31.9635 72.8176 31.0983 71.087 29.3677C69.3874 27.6372 68.5221 25.505 68.5221 22.971C68.5221 20.437 69.3874 18.3047 71.087 16.5742C72.8176 14.8128 75.0425 13.9475 77.7928 13.9475C80.5431 13.9475 82.799 14.8128 84.4986 16.5742C86.2291 18.3047 87.0944 20.437 87.0944 22.971C87.0944 25.505 86.2291 27.6372 84.4986 29.3677C82.799 31.0983 80.5431 31.9635 77.7928 31.9635ZM77.7928 26.8647C78.8744 26.8647 79.8015 26.4938 80.5431 25.7522C81.2848 24.9796 81.6556 24.0526 81.6556 22.9401C81.6556 21.8585 81.2848 20.9314 80.5122 20.1898C79.7706 19.4481 78.8744 19.0773 77.7928 19.0773C76.7112 19.0773 75.8151 19.4481 75.0734 20.2207C74.3318 20.9623 73.9609 21.8585 73.9609 22.9401C73.9609 24.0526 74.3318 24.9796 75.0734 25.7522C75.8151 26.4938 76.7112 26.8647 77.7928 26.8647ZM101.932 15.7707V7.92156H107.401V31.5H102.086V30.0167C100.819 31.2837 99.2122 31.9326 97.3272 31.9326C94.9477 31.9326 92.939 31.0983 91.363 29.3986C89.787 27.699 88.9836 25.5668 88.9836 22.971C88.9836 20.4061 89.787 18.2738 91.363 16.5742C92.9699 14.8746 94.9477 14.0093 97.3272 14.0093C99.1504 14.0093 100.696 14.5965 101.932 15.7707ZM98.2542 26.9574C100.51 26.9574 102.148 25.1959 102.148 22.9401C102.148 20.7151 100.51 18.9846 98.2542 18.9846C97.1418 18.9846 96.2147 19.3863 95.473 20.1589C94.7314 20.9314 94.3605 21.8585 94.3605 22.9401C94.3605 24.0835 94.7314 25.0414 95.473 25.814C96.2147 26.5865 97.1418 26.9574 98.2542 26.9574ZM127.909 22.5383C127.909 23.2491 127.848 23.9598 127.724 24.7324H115.548C116.166 26.5247 117.557 27.4209 119.72 27.4209C121.605 27.4209 123.305 26.8956 124.881 25.8449L127.013 29.5223C124.819 31.0983 122.316 31.8708 119.473 31.8708C116.445 31.8708 114.127 31.0056 112.489 29.3059C110.851 27.5754 110.048 25.4741 110.048 22.971C110.048 20.4061 110.882 18.2738 112.582 16.5742C114.281 14.8746 116.475 14.0093 119.164 14.0093C121.698 14.0093 123.799 14.7819 125.437 16.2961C127.075 17.8103 127.909 19.9116 127.909 22.5383ZM119.164 18.3665C117.279 18.3665 116.074 19.2318 115.487 20.9932H122.718C122.254 19.3554 120.987 18.3665 119.164 18.3665ZM142.791 31.8708C139.793 31.8708 137.29 30.9747 135.343 29.1514L137.815 24.5161C139.206 25.7213 140.658 26.3393 142.173 26.3393C144.799 26.3393 146.344 24.5779 146.344 21.8585V8.66322H152.123V22.0439C152.123 29.2132 147.704 31.8708 142.791 31.8708ZM163.698 31.9017C159.897 31.9017 156.776 30.5729 154.396 27.9462L157.301 23.7126C159.217 25.6286 161.38 26.5865 163.791 26.5865C165.181 26.5865 166.356 25.9994 166.356 24.9178C166.356 24.2071 165.738 23.6199 164.501 23.1564L162.462 22.4765C161.195 22.013 160.206 21.6422 159.557 21.3022C157.054 19.9735 155.787 17.9957 155.787 15.369C155.787 13.3604 156.59 11.6607 158.166 10.3319C159.743 9.00314 161.782 8.32329 164.285 8.32329C167.406 8.32329 170.095 9.28126 172.412 11.1972L169.724 15.5853C168.364 14.4728 166.108 13.7003 164.378 13.7003C162.802 13.7003 161.937 14.3492 161.937 15.1836C161.937 15.8634 162.555 16.4197 163.76 16.8832L165.768 17.6249C166.912 18.0266 167.808 18.3665 168.395 18.6138C171.3 19.8498 172.752 21.8585 172.752 24.6088C172.752 26.741 171.918 28.4716 170.28 29.8622C168.642 31.2219 166.448 31.9017 163.698 31.9017Z" fill="#15161B"/>
</g>
<defs>
<linearGradient id="paint0_linear_85_345" x1="7.79199" y1="-1.30452" x2="47.8397" y2="8.4684" gradientUnits="userSpaceOnUse">
<stop stop-color="#0C93FF"/>
<stop offset="1" stop-color="#B153F0"/>
</linearGradient>
<linearGradient id="paint1_linear_85_345" x1="7.79199" y1="-1.30452" x2="47.8397" y2="8.4684" gradientUnits="userSpaceOnUse">
<stop stop-color="#0C93FF"/>
<stop offset="1" stop-color="#B153F0"/>
</linearGradient>
<linearGradient id="paint2_linear_85_345" x1="19.7545" y1="11.5569" x2="36.6784" y2="15.8794" gradientUnits="userSpaceOnUse">
<stop stop-color="#0C93FF"/>
<stop offset="1" stop-color="#B153F0"/>
</linearGradient>
<linearGradient id="paint3_linear_85_345" x1="19.7545" y1="11.5569" x2="36.6784" y2="15.8794" gradientUnits="userSpaceOnUse">
<stop stop-color="#0C93FF"/>
<stop offset="1" stop-color="#B153F0"/>
</linearGradient>
<clipPath id="clip0_85_345">
<rect width="174" height="40" fill="white"/>
</clipPath>
</defs>
</svg>
