<svg width="163" height="40" viewBox="0 0 163 40" fill="none" xmlns="http://www.w3.org/2000/svg">
<g clip-path="url(#clip0_86_631)">
<g clip-path="url(#clip1_86_631)">
<path d="M37.1365 16.3685C37.5837 15.0216 37.7384 13.5948 37.5902 12.1834C37.442 10.772 36.9943 9.40844 36.277 8.18385C35.2136 6.3329 33.5899 4.86745 31.64 3.99878C29.69 3.13012 27.5146 2.90312 25.4273 3.35052C24.2415 2.03146 22.7295 1.04764 21.0431 0.497873C19.3567 -0.0518918 17.5554 -0.148247 15.82 0.218484C14.0846 0.585216 12.4762 1.40212 11.1564 2.58716C9.83666 3.7722 8.85193 5.28364 8.30116 6.96969C6.9106 7.25483 5.59692 7.8335 4.44792 8.66701C3.29891 9.50052 2.34104 10.5697 1.63832 11.803C0.563382 13.6509 0.103959 15.7927 0.326476 17.9189C0.548992 20.0451 1.44192 22.0454 2.87616 23.6307C2.42727 24.9769 2.27103 26.4035 2.41791 27.8149C2.56478 29.2264 3.01138 30.5902 3.72782 31.8152C4.79256 33.6668 6.41769 35.1326 8.36901 36.0013C10.3203 36.8699 12.4971 37.0966 14.5855 36.6487C15.5276 37.7096 16.6852 38.5573 17.981 39.1353C19.2768 39.7132 20.681 40.008 22.0998 40C24.2392 40.002 26.3239 39.3241 28.0529 38.0642C29.782 36.8042 31.0659 35.0275 31.7195 32.9904C33.1099 32.7047 34.4234 32.1258 35.5723 31.2923C36.7213 30.4588 37.6792 29.3899 38.3823 28.1569C39.4446 26.3117 39.8961 24.1779 39.6723 22.0606C39.4485 19.9433 38.561 17.9509 37.1365 16.3685ZM22.0998 37.382C20.3477 37.3848 18.6505 36.7707 17.3058 35.6474L17.5423 35.5134L25.5062 30.9164C25.7044 30.8001 25.8689 30.6343 25.9837 30.4352C26.0984 30.2361 26.1594 30.0106 26.1607 29.7809V18.5527L29.5273 20.5004C29.544 20.5088 29.5584 20.521 29.5694 20.5361C29.5804 20.5512 29.5877 20.5686 29.5907 20.587V29.8914C29.5864 31.8767 28.7959 33.7796 27.392 35.1834C25.9881 36.5873 24.0852 37.3778 22.0998 37.382ZM5.99866 30.5064C5.11994 28.9891 4.80444 27.2105 5.10766 25.4835L5.34432 25.6255L13.316 30.2225C13.5132 30.3383 13.7378 30.3993 13.9665 30.3993C14.1952 30.3993 14.4197 30.3383 14.617 30.2225L24.355 24.6084V28.4957C24.3541 28.5158 24.3486 28.5355 24.339 28.5533C24.3295 28.571 24.316 28.5864 24.2997 28.5982L16.2333 33.2504C14.5119 34.242 12.4672 34.5101 10.5483 33.9956C8.62944 33.4811 6.99313 32.2262 5.99866 30.5064ZM3.90132 13.1594C4.78613 11.6323 6.18271 10.4676 7.84382 9.87135V19.3334C7.84083 19.5619 7.89923 19.7872 8.01295 19.9855C8.12667 20.1838 8.29153 20.348 8.49032 20.4609L18.181 26.0514L14.8142 27.9989C14.7959 28.0085 14.7756 28.0136 14.755 28.0136C14.7344 28.0136 14.714 28.0085 14.6958 27.9989L6.64532 23.3547C4.92709 22.3587 3.67357 20.7224 3.15927 18.8041C2.64496 16.8859 2.91179 14.842 3.90132 13.12V13.1594ZM31.5618 19.5857L21.8397 13.94L25.1987 12C25.2169 11.9903 25.2372 11.9853 25.2578 11.9853C25.2785 11.9853 25.2988 11.9903 25.317 12L33.3675 16.6522C34.5984 17.3624 35.6019 18.4082 36.2608 19.6674C36.9196 20.9265 37.2067 22.3472 37.0885 23.7634C36.9703 25.1796 36.4516 26.5329 35.5931 27.6654C34.7346 28.7979 33.5716 29.6628 32.24 30.1592V20.6972C32.233 20.469 32.1668 20.2465 32.0479 20.0516C31.929 19.8567 31.7616 19.6963 31.5618 19.5857ZM34.913 14.5472L34.6763 14.4052L26.7205 9.76885C26.522 9.65239 26.2961 9.59099 26.066 9.59099C25.8359 9.59099 25.6099 9.65239 25.4115 9.76885L15.6817 15.3829V11.4957C15.6796 11.4759 15.6829 11.456 15.6912 11.4379C15.6996 11.4199 15.7126 11.4044 15.729 11.3932L23.7795 6.74885C25.0133 6.03805 26.4241 5.69325 27.8467 5.75478C29.2693 5.81632 30.645 6.28164 31.8129 7.09632C32.9808 7.91101 33.8925 9.04139 34.4415 10.3552C34.9906 11.6691 35.1541 13.1121 34.9132 14.5155L34.913 14.5472ZM13.8442 21.4384L10.4775 19.4987C10.4606 19.4885 10.4462 19.4748 10.4353 19.4585C10.4244 19.4422 10.4171 19.4236 10.4142 19.4042V10.1237C10.416 8.69998 10.8231 7.30621 11.5879 6.10535C12.3527 4.90449 13.4435 3.94617 14.7329 3.34242C16.0223 2.73867 17.4568 2.51445 18.8689 2.69598C20.281 2.87751 21.6123 3.45729 22.707 4.36752L22.4703 4.50169L14.5067 9.09835C14.3084 9.2146 14.1439 9.38041 14.0291 9.57949C13.9144 9.77857 13.8534 10.0041 13.8522 10.2339L13.8442 21.4384ZM15.6735 17.496L20.0102 14.9964L24.355 17.496V22.495L20.026 24.9945L15.6815 22.495L15.6735 17.496Z" fill="black"/>
<path d="M37.1365 16.3685C37.5837 15.0216 37.7384 13.5948 37.5902 12.1834C37.442 10.772 36.9943 9.40844 36.277 8.18385C35.2136 6.3329 33.5899 4.86745 31.64 3.99878C29.69 3.13012 27.5146 2.90312 25.4273 3.35052C24.2415 2.03146 22.7295 1.04764 21.0431 0.497873C19.3567 -0.0518918 17.5554 -0.148247 15.82 0.218484C14.0846 0.585216 12.4762 1.40212 11.1564 2.58716C9.83666 3.7722 8.85193 5.28364 8.30116 6.96969C6.9106 7.25483 5.59692 7.8335 4.44792 8.66701C3.29891 9.50052 2.34104 10.5697 1.63832 11.803C0.563382 13.6509 0.103959 15.7927 0.326476 17.9189C0.548992 20.0451 1.44192 22.0454 2.87616 23.6307C2.42727 24.9769 2.27103 26.4035 2.41791 27.8149C2.56478 29.2264 3.01138 30.5902 3.72782 31.8152C4.79256 33.6668 6.41769 35.1326 8.36901 36.0013C10.3203 36.8699 12.4971 37.0966 14.5855 36.6487C15.5276 37.7096 16.6852 38.5573 17.981 39.1353C19.2768 39.7132 20.681 40.008 22.0998 40C24.2392 40.002 26.3239 39.3241 28.0529 38.0642C29.782 36.8042 31.0659 35.0275 31.7195 32.9904C33.1099 32.7047 34.4234 32.1258 35.5723 31.2923C36.7213 30.4588 37.6792 29.3899 38.3823 28.1569C39.4446 26.3117 39.8961 24.1779 39.6723 22.0606C39.4485 19.9433 38.561 17.9509 37.1365 16.3685ZM22.0998 37.382C20.3477 37.3848 18.6505 36.7707 17.3058 35.6474L17.5423 35.5134L25.5062 30.9164C25.7044 30.8001 25.8689 30.6343 25.9837 30.4352C26.0984 30.2361 26.1594 30.0106 26.1607 29.7809V18.5527L29.5273 20.5004C29.544 20.5088 29.5584 20.521 29.5694 20.5361C29.5804 20.5512 29.5877 20.5686 29.5907 20.587V29.8914C29.5864 31.8767 28.7959 33.7796 27.392 35.1834C25.9881 36.5873 24.0852 37.3778 22.0998 37.382ZM5.99866 30.5064C5.11994 28.9891 4.80444 27.2105 5.10766 25.4835L5.34432 25.6255L13.316 30.2225C13.5132 30.3383 13.7378 30.3993 13.9665 30.3993C14.1952 30.3993 14.4197 30.3383 14.617 30.2225L24.355 24.6084V28.4957C24.3541 28.5158 24.3486 28.5355 24.339 28.5533C24.3295 28.571 24.316 28.5864 24.2997 28.5982L16.2333 33.2504C14.5119 34.242 12.4672 34.5101 10.5483 33.9956C8.62944 33.4811 6.99313 32.2262 5.99866 30.5064ZM3.90132 13.1594C4.78613 11.6323 6.18271 10.4676 7.84382 9.87135V19.3334C7.84083 19.5619 7.89923 19.7872 8.01295 19.9855C8.12667 20.1838 8.29153 20.348 8.49032 20.4609L18.181 26.0514L14.8142 27.9989C14.7959 28.0085 14.7756 28.0136 14.755 28.0136C14.7344 28.0136 14.714 28.0085 14.6958 27.9989L6.64532 23.3547C4.92709 22.3587 3.67357 20.7224 3.15927 18.8041C2.64496 16.8859 2.91179 14.842 3.90132 13.12V13.1594ZM31.5618 19.5857L21.8397 13.94L25.1987 12C25.2169 11.9903 25.2372 11.9853 25.2578 11.9853C25.2785 11.9853 25.2988 11.9903 25.317 12L33.3675 16.6522C34.5984 17.3624 35.6019 18.4082 36.2608 19.6674C36.9196 20.9265 37.2067 22.3472 37.0885 23.7634C36.9703 25.1796 36.4516 26.5329 35.5931 27.6654C34.7346 28.7979 33.5716 29.6628 32.24 30.1592V20.6972C32.233 20.469 32.1668 20.2465 32.0479 20.0516C31.929 19.8567 31.7616 19.6963 31.5618 19.5857ZM34.913 14.5472L34.6763 14.4052L26.7205 9.76885C26.522 9.65239 26.2961 9.59099 26.066 9.59099C25.8359 9.59099 25.6099 9.65239 25.4115 9.76885L15.6817 15.3829V11.4957C15.6796 11.4759 15.6829 11.456 15.6912 11.4379C15.6996 11.4199 15.7126 11.4044 15.729 11.3932L23.7795 6.74885C25.0133 6.03805 26.4241 5.69325 27.8467 5.75478C29.2693 5.81632 30.645 6.28164 31.8129 7.09632C32.9808 7.91101 33.8925 9.04139 34.4415 10.3552C34.9906 11.6691 35.1541 13.1121 34.9132 14.5155L34.913 14.5472ZM13.8442 21.4384L10.4775 19.4987C10.4606 19.4885 10.4462 19.4748 10.4353 19.4585C10.4244 19.4422 10.4171 19.4236 10.4142 19.4042V10.1237C10.416 8.69998 10.8231 7.30621 11.5879 6.10535C12.3527 4.90449 13.4435 3.94617 14.7329 3.34242C16.0223 2.73867 17.4568 2.51445 18.8689 2.69598C20.281 2.87751 21.6123 3.45729 22.707 4.36752L22.4703 4.50169L14.5067 9.09835C14.3084 9.2146 14.1439 9.38041 14.0291 9.57949C13.9144 9.77857 13.8534 10.0041 13.8522 10.2339L13.8442 21.4384ZM15.6735 17.496L20.0102 14.9964L24.355 17.496V22.495L20.026 24.9945L15.6815 22.495L15.6735 17.496Z" fill="url(#paint0_linear_86_631)"/>
</g>
<path d="M56.0408 31.8708C52.6106 31.8708 49.7676 30.7274 47.4808 28.4716C45.225 26.2157 44.0816 23.4036 44.0816 20.0971C44.0816 16.7905 45.225 13.9784 47.5117 11.6916C49.7985 9.40487 52.6415 8.26149 56.0099 8.26149C59.4091 8.26149 62.2521 9.40487 64.5389 11.6916C66.8257 13.9784 67.969 16.7905 67.969 20.0971C67.969 23.4036 66.8257 26.1848 64.5389 28.4716C62.283 30.7274 59.44 31.8708 56.0408 31.8708ZM56.0099 26.1539C57.7095 26.1539 59.131 25.5668 60.2744 24.4234C61.4178 23.28 62.0049 21.8276 62.0049 20.0662C61.974 18.3047 61.3869 16.8523 60.2126 15.7089C59.0692 14.5656 57.6477 13.9784 56.0099 13.9784C54.3411 13.9784 52.9196 14.5656 51.7762 15.7398C50.6329 16.8832 50.0457 18.3356 50.0457 20.0662C50.0457 21.8276 50.6329 23.28 51.7762 24.4234C52.9196 25.5668 54.3411 26.1539 56.0099 26.1539ZM80.9439 14.0093C83.3852 14.0093 85.3629 14.8746 86.9389 16.6051C88.5149 18.3047 89.2875 20.437 89.2875 22.9401C89.2875 25.4432 88.484 27.5754 86.908 29.3368C85.332 31.0674 83.3543 31.9326 80.9748 31.9326C79.0898 31.9326 77.4519 31.3146 76.1231 30.0785V38.5148H70.6534V14.4419H76.0304V16.018C77.3592 14.6892 78.997 14.0093 80.9439 14.0093ZM83.7251 23.0019C83.7251 20.7769 82.1182 19.0773 79.8932 19.0773C77.6682 19.0773 76.0304 20.7769 76.0304 23.0019C76.0304 24.0835 76.4013 25.0105 77.112 25.7831C77.8537 26.5556 78.7807 26.9265 79.8932 26.9265C81.0057 26.9265 81.9328 26.5556 82.6435 25.7831C83.3543 25.0105 83.7251 24.0835 83.7251 23.0019ZM109.048 22.5383C109.048 23.2491 108.986 23.9598 108.863 24.7324H96.6872C97.3052 26.5247 98.6958 27.4209 100.859 27.4209C102.744 27.4209 104.444 26.8956 106.02 25.8449L108.152 29.5223C105.958 31.0983 103.455 31.8708 100.612 31.8708C97.5833 31.8708 95.2656 31.0056 93.6278 29.3059C91.99 27.5754 91.1865 25.4741 91.1865 22.971C91.1865 20.4061 92.0209 18.2738 93.7205 16.5742C95.4202 14.8746 97.6142 14.0093 100.303 14.0093C102.837 14.0093 104.938 14.7819 106.576 16.2961C108.214 17.8103 109.048 19.9116 109.048 22.5383ZM100.303 18.3665C98.4177 18.3665 97.2125 19.2318 96.6253 20.9932H103.856C103.393 19.3554 102.126 18.3665 100.303 18.3665ZM117.104 31.5H111.665V14.4419H116.981V16.8214C117.815 15.2145 119.854 13.9784 122.327 13.9784C124.15 13.9784 125.726 14.5965 126.993 15.8016C128.26 17.0068 128.909 18.7683 128.909 21.0241V31.5H123.439V22.4765C123.439 20.2516 122.296 18.9537 120.442 18.9537C118.464 18.9537 117.104 20.4061 117.104 22.631V31.5ZM152.366 31.5H146.432L145.104 27.3282H137.842L136.482 31.5H130.518L138.861 8.66322H144.238L152.366 31.5ZM139.294 22.322H143.713L141.55 15.5544L139.294 22.322ZM154.742 31.5V8.66322H160.551V31.5H154.742Z" fill="#15161B"/>
</g>
<defs>
<linearGradient id="paint0_linear_86_631" x1="5.2584" y1="-3.66246" x2="54.3854" y2="11.823" gradientUnits="userSpaceOnUse">
<stop stop-color="#0C93FF"/>
<stop offset="1" stop-color="#B153F0"/>
</linearGradient>
<clipPath id="clip0_86_631">
<rect width="163" height="40" fill="white"/>
</clipPath>
<clipPath id="clip1_86_631">
<rect width="40" height="40" fill="white"/>
</clipPath>
</defs>
</svg>
