<svg width="234" height="40" viewBox="0 0 234 40" fill="none" xmlns="http://www.w3.org/2000/svg">
<g clip-path="url(#clip0_85_574)">
<g clip-path="url(#clip1_85_574)">
<path d="M28.5487 0C26.9925 0.01375 25.45 0.235 23.9525 0.67L23.8487 0.70375C22.91 0.54 21.9537 0.45 21.0037 0.43C19.0375 0.39625 17.35 0.87125 15.99 1.66625C14.6487 1.205 11.8687 0.39625 8.93873 0.56C6.90248 0.67 4.67498 1.28875 3.01998 3.03375C1.37998 4.7725 0.508726 7.4675 0.689976 11.14C0.741226 12.1487 1.02873 13.795 1.50998 15.9362C1.98498 18.0725 2.65623 20.5725 3.49623 22.8575C4.33623 25.1362 5.25248 27.1863 6.68623 28.5788C7.40123 29.275 8.39123 29.8688 9.55623 29.8175C10.3712 29.7838 11.1062 29.4262 11.745 28.8987C12.0562 29.3087 12.39 29.4838 12.6887 29.6475C13.0737 29.8563 13.4375 29.9987 13.8225 30.0912C14.5125 30.2662 15.6912 30.495 17.0712 30.26C17.54 30.1813 18.035 30.0263 18.53 29.8113C18.55 30.3575 18.57 30.8975 18.5887 31.445C18.66 33.17 18.7075 34.765 19.22 36.165C19.305 36.3937 19.5337 37.565 20.4312 38.6063C21.3362 39.6475 23.0925 40.2925 25.105 39.8625C26.5187 39.5625 28.3212 39.0163 29.52 37.3113C30.705 35.6313 31.2387 33.2163 31.3437 29.2963C31.3687 29.0813 31.4025 28.9063 31.4337 28.7363L31.7137 28.7625H31.7475C33.2575 28.8275 34.8987 28.6125 36.2725 27.9737C37.4825 27.4137 38.4012 26.8475 39.0712 25.8387C39.235 25.59 39.4225 25.285 39.47 24.7638C39.5212 24.25 39.2212 23.435 38.7262 23.0588C37.7375 22.3038 37.1125 22.59 36.4412 22.7338C35.785 22.8775 35.1125 22.9537 34.4425 22.9737C36.3687 19.7325 37.7487 16.2825 38.5375 13.2337C39.0062 11.43 39.2675 9.77 39.2862 8.31875C39.3125 6.8675 39.19 5.585 38.3225 4.4725C35.6012 1.0025 31.7787 0.0375 28.8237 0.00625C28.7325 0.00625 28.6425 0.00625 28.55 0.00625L28.5487 0ZM28.47 1.06875C31.2637 1.0425 34.8362 1.82375 37.4012 5.10375C37.9812 5.84 38.1512 6.91375 38.1312 8.2425C38.1112 9.57125 37.865 11.1525 37.415 12.8912C36.55 16.265 34.9012 20.1825 32.5912 23.7063C32.67 23.765 32.76 23.8162 32.8512 23.85C33.3325 24.0512 34.4325 24.22 36.6325 23.7713C37.1862 23.6525 37.5912 23.5762 38.0137 23.895C38.2225 24.07 38.3325 24.3313 38.3187 24.605C38.2937 24.8063 38.2225 25.0012 38.0975 25.165C37.6737 25.8012 36.8362 26.4087 35.7612 26.91C34.8112 27.3512 33.4425 27.58 32.24 27.5938C31.6287 27.6 31.0687 27.5538 30.5912 27.4038L30.5662 27.3988C30.3825 29.1625 29.9612 32.6525 29.6862 34.24C29.4662 35.5213 29.0812 36.545 28.3462 37.3062C27.61 38.075 26.575 38.53 25.175 38.83C23.4437 39.2012 22.1862 38.8038 21.3737 38.12C20.5612 37.4363 20.1887 36.525 19.9675 35.9713C19.8125 35.5875 19.7337 35.0925 19.6562 34.4275C19.5775 33.7637 19.5262 32.9563 19.4862 32.0388C19.435 30.6388 19.415 29.2388 19.435 27.8325C18.7137 28.4975 17.815 28.9325 16.85 29.1025C15.6987 29.2975 14.6762 29.1025 14.065 28.9525C13.765 28.8738 13.4712 28.7638 13.1987 28.6138C12.9125 28.4638 12.645 28.295 12.4637 27.955C12.3587 27.76 12.3275 27.5337 12.3725 27.3187C12.4237 27.0975 12.5537 26.9088 12.7312 26.765C13.0625 26.4963 13.5 26.3487 14.1562 26.2112C15.355 25.9625 15.7775 25.795 16.0312 25.5912C16.2462 25.4225 16.495 25.0713 16.9225 24.5563C16.9225 24.5375 16.9225 24.5113 16.9162 24.4913C16.1425 24.4663 15.3862 24.265 14.7025 23.8925C14.4562 24.1525 13.1725 25.5075 11.6175 27.3825C10.9662 28.1625 10.2437 28.6125 9.47623 28.6462C8.71498 28.6775 8.02248 28.295 7.43748 27.7275C6.26623 26.5875 5.32748 24.6275 4.51373 22.4137C3.69998 20.2 3.04248 17.7338 2.56748 15.6375C2.09873 13.5338 1.81873 11.8412 1.77873 11.0275C1.60373 7.5575 2.41748 5.22125 3.80998 3.7425C5.20248 2.26375 7.11123 1.71125 8.97373 1.60125C12.3137 1.4125 15.49 2.5775 16.1287 2.825C17.365 1.985 18.96 1.465 20.9525 1.49625C21.8975 1.51 22.8337 1.6325 23.7525 1.86125L23.7862 1.84125C24.19 1.705 24.6 1.58125 25.0162 1.49125C26.15 1.2225 27.3075 1.08625 28.4662 1.0675L28.47 1.06875ZM28.7237 2.18125H28.4775C27.5275 2.1925 26.5687 2.305 25.6387 2.50625C27.715 3.425 29.2837 4.83625 30.39 6.25625C31.1587 7.2325 31.79 8.30625 32.2712 9.4525C32.4612 9.89625 32.585 10.2663 32.65 10.5525C32.6887 10.6963 32.7087 10.8187 32.7212 10.9425C32.7212 11.0075 32.7275 11.0737 32.695 11.1837C32.695 11.19 32.6887 11.2038 32.6887 11.21C32.7425 12.6688 32.3775 13.6562 32.33 15.05C32.2987 16.06 32.5587 17.245 32.6237 18.54C32.6825 19.7562 32.5337 21.0912 31.745 22.4062C31.81 22.485 31.8687 22.5625 31.9337 22.6475C34.0237 19.3525 35.5337 15.7138 36.335 12.6075C36.765 10.9338 36.9912 9.4175 37.0112 8.22125C37.0312 7.0225 36.81 6.15 36.5225 5.78625C34.2825 2.9275 31.2562 2.1975 28.7225 2.18L28.7237 2.18125ZM20.735 2.61C18.77 2.61625 17.3562 3.21 16.2837 4.10125C15.175 5.02625 14.4337 6.2825 13.9525 7.5775C13.3725 9.1075 13.1712 10.5913 13.0925 11.6013L13.1187 11.5875C13.7125 11.2563 14.4925 10.9175 15.3325 10.7288C16.1662 10.5325 17.0712 10.4738 17.8837 10.7938C18.705 11.105 19.375 11.8537 19.6225 12.98C20.7962 18.41 19.2587 20.4288 18.6925 21.9513C18.4775 22.505 18.2887 23.065 18.1387 23.6375C18.21 23.6237 18.2825 23.6038 18.3537 23.5975C18.7575 23.5663 19.0687 23.6962 19.2525 23.7737C19.8262 24.0137 20.2162 24.5087 20.4312 25.075C20.4825 25.225 20.5212 25.38 20.5475 25.55C20.5675 25.615 20.5812 25.6863 20.5812 25.7588C20.5162 27.835 20.5212 29.9125 20.6 31.9887C20.64 32.8875 20.6987 33.675 20.77 34.3C20.8412 34.9188 20.9387 35.3937 21.005 35.5562C21.2187 36.09 21.5312 36.7863 22.0987 37.2613C22.6587 37.7375 23.465 38.05 24.9437 37.7375C26.225 37.4575 27.0137 37.0787 27.54 36.5325C28.0687 35.9787 28.38 35.2175 28.5812 34.0525C28.8875 32.3013 29.4925 27.2225 29.565 26.2725C29.5337 25.5487 29.6362 24.9963 29.8712 24.5725C30.105 24.1425 30.47 23.8763 30.79 23.7325C30.945 23.6613 31.095 23.6163 31.2187 23.5763C31.0887 23.395 30.9525 23.2125 30.815 23.0363C30.36 22.4825 29.9812 21.865 29.7012 21.2075C29.5712 20.9325 29.4275 20.6588 29.2712 20.3988C29.0512 20.0025 28.7712 19.5 28.4775 18.9338C27.8912 17.8138 27.2537 16.4475 26.9212 15.1188C26.59 13.79 26.545 12.4175 27.3912 11.4538C28.14 10.5938 29.4612 10.2375 31.4325 10.4387C31.3737 10.2625 31.3425 10.1125 31.2437 9.885C30.795 8.83 30.2087 7.84 29.505 6.94125C27.8312 4.8 25.1162 2.67625 20.9312 2.605L20.735 2.61ZM9.66873 2.695C9.45998 2.695 9.24498 2.70125 9.03748 2.715C7.35123 2.81375 5.76248 3.3 4.62248 4.505C3.48373 5.71625 2.73623 7.68875 2.89748 10.9637C2.93123 11.5887 3.19748 13.32 3.65873 15.3838C4.12248 17.4488 4.77873 19.8775 5.56748 22.025C6.35373 24.1663 7.30623 26.035 8.21748 26.92C8.67248 27.3562 9.06873 27.5387 9.42748 27.5262C9.78623 27.5062 10.2225 27.2975 10.7562 26.66C11.7262 25.4887 12.73 24.355 13.7712 23.2488C12.2725 21.94 11.5375 19.9625 11.8312 17.995C12 16.765 12.0262 15.6113 12 14.7C11.9812 13.815 11.9212 13.23 11.9212 12.8587C11.9212 12.845 11.9212 12.8388 11.9212 12.825V12.8188L11.915 12.8075C11.915 10.8863 12.255 8.98625 12.905 7.1825C13.3737 5.9375 14.065 4.6825 15.105 3.65875C14.0837 3.32 12.2662 2.81375 10.3012 2.715C10.0925 2.70125 9.87623 2.695 9.66873 2.695ZM30.3312 11.4962C29.2 11.5162 28.5675 11.81 28.23 12.1862C27.76 12.7275 27.715 13.6775 28.0087 14.85C28.3 16.0213 28.9075 17.33 29.4737 18.4187C29.7537 18.965 30.0275 19.4538 30.2475 19.85C30.4762 20.2538 30.6387 20.5338 30.7362 20.7812C30.8275 21.0025 30.9325 21.1975 31.0362 21.38C31.4725 20.455 31.5512 19.55 31.505 18.6C31.4462 17.4288 31.1737 16.23 31.2187 15.02C31.265 13.6 31.545 12.675 31.565 11.5813C31.16 11.53 30.7437 11.4962 30.3337 11.4962H30.3312ZM16.6087 11.6937C16.2637 11.6937 15.9187 11.7388 15.58 11.8175C14.9087 11.9813 14.265 12.2275 13.6587 12.5663C13.4575 12.6763 13.2625 12.8012 13.08 12.945L13.04 12.9762C13.0537 13.225 13.0987 13.81 13.1187 14.6825C13.1387 15.6325 13.1187 16.8425 12.9375 18.1525C12.5337 21.0038 14.6037 23.3613 17.0325 23.3675C17.1762 22.7813 17.4087 22.1875 17.6437 21.5637C18.32 19.74 19.6487 18.4125 18.5287 13.2175C18.3475 12.3713 17.9825 12.0263 17.48 11.8313C17.2 11.7325 16.9087 11.6875 16.6087 11.695V11.6937ZM29.805 12.0312H29.89C29.9937 12.0375 30.0987 12.045 30.1887 12.07C30.2737 12.09 30.3525 12.1163 30.4175 12.1613C30.4825 12.2 30.5275 12.265 30.5412 12.3425V12.3563C30.5412 12.435 30.5212 12.5125 30.4825 12.585C30.4312 12.675 30.3725 12.76 30.3012 12.8313C30.1312 13.02 29.9025 13.145 29.6562 13.1825C29.415 13.2162 29.175 13.1513 28.9725 13.0138C28.8937 12.9538 28.8162 12.8887 28.7575 12.8175C28.6987 12.7587 28.6662 12.6812 28.6525 12.6025C28.6475 12.5262 28.6662 12.4475 28.7175 12.3888C28.7775 12.3288 28.8425 12.2775 28.9137 12.2388C29.075 12.1475 29.29 12.0825 29.5387 12.0487C29.6287 12.0375 29.72 12.03 29.805 12.0238V12.0312ZM16.77 12.3112C16.855 12.3112 16.9537 12.3175 17.045 12.33C17.305 12.37 17.5262 12.435 17.7012 12.5388C17.7862 12.5788 17.865 12.6437 17.9225 12.715C17.9875 12.7937 18.0187 12.89 18.0137 12.995C17.9937 13.0912 17.9537 13.1838 17.8887 13.255C17.8175 13.34 17.74 13.4113 17.6487 13.47C17.4337 13.6263 17.1675 13.6913 16.9 13.6588C16.6312 13.6138 16.385 13.4838 16.2037 13.2825C16.125 13.1975 16.06 13.1062 16.0075 13.0087C15.9487 12.9175 15.9237 12.8137 15.9362 12.7087C15.9625 12.5337 16.1125 12.435 16.2562 12.3837C16.42 12.33 16.595 12.3125 16.77 12.3187V12.3112ZM31.8687 24.55H31.8625C31.6225 24.6412 31.4212 24.675 31.2512 24.7537C31.0762 24.8187 30.9375 24.9487 30.855 25.11C30.7437 25.3 30.66 25.6387 30.685 26.2162C30.7562 26.27 30.8412 26.3075 30.9337 26.335C31.2137 26.42 31.695 26.4788 32.2287 26.4713C33.29 26.4575 34.5987 26.2113 35.295 25.885C35.8612 25.625 36.395 25.2738 36.8637 24.8638C34.54 25.3388 33.2325 25.215 32.4237 24.8837C32.2287 24.7987 32.0387 24.6875 31.8687 24.55ZM18.4837 24.7062H18.45C18.36 24.7125 18.235 24.7463 17.9812 25.02C17.4012 25.67 17.2 26.08 16.725 26.4587C16.2437 26.8425 15.625 27.045 14.3812 27.2988C13.9912 27.3775 13.7625 27.4675 13.6125 27.5388C13.6575 27.5788 13.6575 27.5925 13.7287 27.6238C13.9125 27.7288 14.145 27.8137 14.335 27.865C14.8687 27.995 15.74 28.1512 16.6587 27.995C17.57 27.8387 18.52 27.4012 19.335 26.2637C19.4787 26.0687 19.49 25.775 19.3737 25.4625C19.2575 25.1575 19.0025 24.8838 18.8275 24.8125C18.7162 24.7588 18.5987 24.7275 18.4825 24.7075L18.4837 24.7062Z" fill="black"/>
<path d="M28.5487 0C26.9925 0.01375 25.45 0.235 23.9525 0.67L23.8487 0.70375C22.91 0.54 21.9537 0.45 21.0037 0.43C19.0375 0.39625 17.35 0.87125 15.99 1.66625C14.6487 1.205 11.8687 0.39625 8.93873 0.56C6.90248 0.67 4.67498 1.28875 3.01998 3.03375C1.37998 4.7725 0.508726 7.4675 0.689976 11.14C0.741226 12.1487 1.02873 13.795 1.50998 15.9362C1.98498 18.0725 2.65623 20.5725 3.49623 22.8575C4.33623 25.1362 5.25248 27.1863 6.68623 28.5788C7.40123 29.275 8.39123 29.8688 9.55623 29.8175C10.3712 29.7838 11.1062 29.4262 11.745 28.8987C12.0562 29.3087 12.39 29.4838 12.6887 29.6475C13.0737 29.8563 13.4375 29.9987 13.8225 30.0912C14.5125 30.2662 15.6912 30.495 17.0712 30.26C17.54 30.1813 18.035 30.0263 18.53 29.8113C18.55 30.3575 18.57 30.8975 18.5887 31.445C18.66 33.17 18.7075 34.765 19.22 36.165C19.305 36.3937 19.5337 37.565 20.4312 38.6063C21.3362 39.6475 23.0925 40.2925 25.105 39.8625C26.5187 39.5625 28.3212 39.0163 29.52 37.3113C30.705 35.6313 31.2387 33.2163 31.3437 29.2963C31.3687 29.0813 31.4025 28.9063 31.4337 28.7363L31.7137 28.7625H31.7475C33.2575 28.8275 34.8987 28.6125 36.2725 27.9737C37.4825 27.4137 38.4012 26.8475 39.0712 25.8387C39.235 25.59 39.4225 25.285 39.47 24.7638C39.5212 24.25 39.2212 23.435 38.7262 23.0588C37.7375 22.3038 37.1125 22.59 36.4412 22.7338C35.785 22.8775 35.1125 22.9537 34.4425 22.9737C36.3687 19.7325 37.7487 16.2825 38.5375 13.2337C39.0062 11.43 39.2675 9.77 39.2862 8.31875C39.3125 6.8675 39.19 5.585 38.3225 4.4725C35.6012 1.0025 31.7787 0.0375 28.8237 0.00625C28.7325 0.00625 28.6425 0.00625 28.55 0.00625L28.5487 0ZM28.47 1.06875C31.2637 1.0425 34.8362 1.82375 37.4012 5.10375C37.9812 5.84 38.1512 6.91375 38.1312 8.2425C38.1112 9.57125 37.865 11.1525 37.415 12.8912C36.55 16.265 34.9012 20.1825 32.5912 23.7063C32.67 23.765 32.76 23.8162 32.8512 23.85C33.3325 24.0512 34.4325 24.22 36.6325 23.7713C37.1862 23.6525 37.5912 23.5762 38.0137 23.895C38.2225 24.07 38.3325 24.3313 38.3187 24.605C38.2937 24.8063 38.2225 25.0012 38.0975 25.165C37.6737 25.8012 36.8362 26.4087 35.7612 26.91C34.8112 27.3512 33.4425 27.58 32.24 27.5938C31.6287 27.6 31.0687 27.5538 30.5912 27.4038L30.5662 27.3988C30.3825 29.1625 29.9612 32.6525 29.6862 34.24C29.4662 35.5213 29.0812 36.545 28.3462 37.3062C27.61 38.075 26.575 38.53 25.175 38.83C23.4437 39.2012 22.1862 38.8038 21.3737 38.12C20.5612 37.4363 20.1887 36.525 19.9675 35.9713C19.8125 35.5875 19.7337 35.0925 19.6562 34.4275C19.5775 33.7637 19.5262 32.9563 19.4862 32.0388C19.435 30.6388 19.415 29.2388 19.435 27.8325C18.7137 28.4975 17.815 28.9325 16.85 29.1025C15.6987 29.2975 14.6762 29.1025 14.065 28.9525C13.765 28.8738 13.4712 28.7638 13.1987 28.6138C12.9125 28.4638 12.645 28.295 12.4637 27.955C12.3587 27.76 12.3275 27.5337 12.3725 27.3187C12.4237 27.0975 12.5537 26.9088 12.7312 26.765C13.0625 26.4963 13.5 26.3487 14.1562 26.2112C15.355 25.9625 15.7775 25.795 16.0312 25.5912C16.2462 25.4225 16.495 25.0713 16.9225 24.5563C16.9225 24.5375 16.9225 24.5113 16.9162 24.4913C16.1425 24.4663 15.3862 24.265 14.7025 23.8925C14.4562 24.1525 13.1725 25.5075 11.6175 27.3825C10.9662 28.1625 10.2437 28.6125 9.47623 28.6462C8.71498 28.6775 8.02248 28.295 7.43748 27.7275C6.26623 26.5875 5.32748 24.6275 4.51373 22.4137C3.69998 20.2 3.04248 17.7338 2.56748 15.6375C2.09873 13.5338 1.81873 11.8412 1.77873 11.0275C1.60373 7.5575 2.41748 5.22125 3.80998 3.7425C5.20248 2.26375 7.11123 1.71125 8.97373 1.60125C12.3137 1.4125 15.49 2.5775 16.1287 2.825C17.365 1.985 18.96 1.465 20.9525 1.49625C21.8975 1.51 22.8337 1.6325 23.7525 1.86125L23.7862 1.84125C24.19 1.705 24.6 1.58125 25.0162 1.49125C26.15 1.2225 27.3075 1.08625 28.4662 1.0675L28.47 1.06875ZM28.7237 2.18125H28.4775C27.5275 2.1925 26.5687 2.305 25.6387 2.50625C27.715 3.425 29.2837 4.83625 30.39 6.25625C31.1587 7.2325 31.79 8.30625 32.2712 9.4525C32.4612 9.89625 32.585 10.2663 32.65 10.5525C32.6887 10.6963 32.7087 10.8187 32.7212 10.9425C32.7212 11.0075 32.7275 11.0737 32.695 11.1837C32.695 11.19 32.6887 11.2038 32.6887 11.21C32.7425 12.6688 32.3775 13.6562 32.33 15.05C32.2987 16.06 32.5587 17.245 32.6237 18.54C32.6825 19.7562 32.5337 21.0912 31.745 22.4062C31.81 22.485 31.8687 22.5625 31.9337 22.6475C34.0237 19.3525 35.5337 15.7138 36.335 12.6075C36.765 10.9338 36.9912 9.4175 37.0112 8.22125C37.0312 7.0225 36.81 6.15 36.5225 5.78625C34.2825 2.9275 31.2562 2.1975 28.7225 2.18L28.7237 2.18125ZM20.735 2.61C18.77 2.61625 17.3562 3.21 16.2837 4.10125C15.175 5.02625 14.4337 6.2825 13.9525 7.5775C13.3725 9.1075 13.1712 10.5913 13.0925 11.6013L13.1187 11.5875C13.7125 11.2563 14.4925 10.9175 15.3325 10.7288C16.1662 10.5325 17.0712 10.4738 17.8837 10.7938C18.705 11.105 19.375 11.8537 19.6225 12.98C20.7962 18.41 19.2587 20.4288 18.6925 21.9513C18.4775 22.505 18.2887 23.065 18.1387 23.6375C18.21 23.6237 18.2825 23.6038 18.3537 23.5975C18.7575 23.5663 19.0687 23.6962 19.2525 23.7737C19.8262 24.0137 20.2162 24.5087 20.4312 25.075C20.4825 25.225 20.5212 25.38 20.5475 25.55C20.5675 25.615 20.5812 25.6863 20.5812 25.7588C20.5162 27.835 20.5212 29.9125 20.6 31.9887C20.64 32.8875 20.6987 33.675 20.77 34.3C20.8412 34.9188 20.9387 35.3937 21.005 35.5562C21.2187 36.09 21.5312 36.7863 22.0987 37.2613C22.6587 37.7375 23.465 38.05 24.9437 37.7375C26.225 37.4575 27.0137 37.0787 27.54 36.5325C28.0687 35.9787 28.38 35.2175 28.5812 34.0525C28.8875 32.3013 29.4925 27.2225 29.565 26.2725C29.5337 25.5487 29.6362 24.9963 29.8712 24.5725C30.105 24.1425 30.47 23.8763 30.79 23.7325C30.945 23.6613 31.095 23.6163 31.2187 23.5763C31.0887 23.395 30.9525 23.2125 30.815 23.0363C30.36 22.4825 29.9812 21.865 29.7012 21.2075C29.5712 20.9325 29.4275 20.6588 29.2712 20.3988C29.0512 20.0025 28.7712 19.5 28.4775 18.9338C27.8912 17.8138 27.2537 16.4475 26.9212 15.1188C26.59 13.79 26.545 12.4175 27.3912 11.4538C28.14 10.5938 29.4612 10.2375 31.4325 10.4387C31.3737 10.2625 31.3425 10.1125 31.2437 9.885C30.795 8.83 30.2087 7.84 29.505 6.94125C27.8312 4.8 25.1162 2.67625 20.9312 2.605L20.735 2.61ZM9.66873 2.695C9.45998 2.695 9.24498 2.70125 9.03748 2.715C7.35123 2.81375 5.76248 3.3 4.62248 4.505C3.48373 5.71625 2.73623 7.68875 2.89748 10.9637C2.93123 11.5887 3.19748 13.32 3.65873 15.3838C4.12248 17.4488 4.77873 19.8775 5.56748 22.025C6.35373 24.1663 7.30623 26.035 8.21748 26.92C8.67248 27.3562 9.06873 27.5387 9.42748 27.5262C9.78623 27.5062 10.2225 27.2975 10.7562 26.66C11.7262 25.4887 12.73 24.355 13.7712 23.2488C12.2725 21.94 11.5375 19.9625 11.8312 17.995C12 16.765 12.0262 15.6113 12 14.7C11.9812 13.815 11.9212 13.23 11.9212 12.8587C11.9212 12.845 11.9212 12.8388 11.9212 12.825V12.8188L11.915 12.8075C11.915 10.8863 12.255 8.98625 12.905 7.1825C13.3737 5.9375 14.065 4.6825 15.105 3.65875C14.0837 3.32 12.2662 2.81375 10.3012 2.715C10.0925 2.70125 9.87623 2.695 9.66873 2.695ZM30.3312 11.4962C29.2 11.5162 28.5675 11.81 28.23 12.1862C27.76 12.7275 27.715 13.6775 28.0087 14.85C28.3 16.0213 28.9075 17.33 29.4737 18.4187C29.7537 18.965 30.0275 19.4538 30.2475 19.85C30.4762 20.2538 30.6387 20.5338 30.7362 20.7812C30.8275 21.0025 30.9325 21.1975 31.0362 21.38C31.4725 20.455 31.5512 19.55 31.505 18.6C31.4462 17.4288 31.1737 16.23 31.2187 15.02C31.265 13.6 31.545 12.675 31.565 11.5813C31.16 11.53 30.7437 11.4962 30.3337 11.4962H30.3312ZM16.6087 11.6937C16.2637 11.6937 15.9187 11.7388 15.58 11.8175C14.9087 11.9813 14.265 12.2275 13.6587 12.5663C13.4575 12.6763 13.2625 12.8012 13.08 12.945L13.04 12.9762C13.0537 13.225 13.0987 13.81 13.1187 14.6825C13.1387 15.6325 13.1187 16.8425 12.9375 18.1525C12.5337 21.0038 14.6037 23.3613 17.0325 23.3675C17.1762 22.7813 17.4087 22.1875 17.6437 21.5637C18.32 19.74 19.6487 18.4125 18.5287 13.2175C18.3475 12.3713 17.9825 12.0263 17.48 11.8313C17.2 11.7325 16.9087 11.6875 16.6087 11.695V11.6937ZM29.805 12.0312H29.89C29.9937 12.0375 30.0987 12.045 30.1887 12.07C30.2737 12.09 30.3525 12.1163 30.4175 12.1613C30.4825 12.2 30.5275 12.265 30.5412 12.3425V12.3563C30.5412 12.435 30.5212 12.5125 30.4825 12.585C30.4312 12.675 30.3725 12.76 30.3012 12.8313C30.1312 13.02 29.9025 13.145 29.6562 13.1825C29.415 13.2162 29.175 13.1513 28.9725 13.0138C28.8937 12.9538 28.8162 12.8887 28.7575 12.8175C28.6987 12.7587 28.6662 12.6812 28.6525 12.6025C28.6475 12.5262 28.6662 12.4475 28.7175 12.3888C28.7775 12.3288 28.8425 12.2775 28.9137 12.2388C29.075 12.1475 29.29 12.0825 29.5387 12.0487C29.6287 12.0375 29.72 12.03 29.805 12.0238V12.0312ZM16.77 12.3112C16.855 12.3112 16.9537 12.3175 17.045 12.33C17.305 12.37 17.5262 12.435 17.7012 12.5388C17.7862 12.5788 17.865 12.6437 17.9225 12.715C17.9875 12.7937 18.0187 12.89 18.0137 12.995C17.9937 13.0912 17.9537 13.1838 17.8887 13.255C17.8175 13.34 17.74 13.4113 17.6487 13.47C17.4337 13.6263 17.1675 13.6913 16.9 13.6588C16.6312 13.6138 16.385 13.4838 16.2037 13.2825C16.125 13.1975 16.06 13.1062 16.0075 13.0087C15.9487 12.9175 15.9237 12.8137 15.9362 12.7087C15.9625 12.5337 16.1125 12.435 16.2562 12.3837C16.42 12.33 16.595 12.3125 16.77 12.3187V12.3112ZM31.8687 24.55H31.8625C31.6225 24.6412 31.4212 24.675 31.2512 24.7537C31.0762 24.8187 30.9375 24.9487 30.855 25.11C30.7437 25.3 30.66 25.6387 30.685 26.2162C30.7562 26.27 30.8412 26.3075 30.9337 26.335C31.2137 26.42 31.695 26.4788 32.2287 26.4713C33.29 26.4575 34.5987 26.2113 35.295 25.885C35.8612 25.625 36.395 25.2738 36.8637 24.8638C34.54 25.3388 33.2325 25.215 32.4237 24.8837C32.2287 24.7987 32.0387 24.6875 31.8687 24.55ZM18.4837 24.7062H18.45C18.36 24.7125 18.235 24.7463 17.9812 25.02C17.4012 25.67 17.2 26.08 16.725 26.4587C16.2437 26.8425 15.625 27.045 14.3812 27.2988C13.9912 27.3775 13.7625 27.4675 13.6125 27.5388C13.6575 27.5788 13.6575 27.5925 13.7287 27.6238C13.9125 27.7288 14.145 27.8137 14.335 27.865C14.8687 27.995 15.74 28.1512 16.6587 27.995C17.57 27.8387 18.52 27.4012 19.335 26.2637C19.4787 26.0687 19.49 25.775 19.3737 25.4625C19.2575 25.1575 19.0025 24.8838 18.8275 24.8125C18.7162 24.7588 18.5987 24.7275 18.4825 24.7075L18.4837 24.7062Z" fill="url(#paint0_linear_85_574)"/>
</g>
<path d="M45.2559 8.66322H54.3411C57.2459 8.66322 59.4091 9.43577 60.7997 10.95C62.2212 12.4642 62.932 14.3492 62.932 16.6051C62.932 18.861 62.1903 20.7151 60.7379 22.1675C59.2855 23.6199 56.9987 24.3307 53.9394 24.3307H51.0346V31.5H45.2559V8.66322ZM51.0346 19.1391H54.2175C56.0408 19.1391 56.9987 17.9957 56.9987 16.5433C56.9987 15.06 55.9481 13.9475 54.3411 13.9475H51.0346V19.1391ZM73.4472 31.9635C70.6969 31.9635 68.4719 31.0983 66.7414 29.3677C65.0418 27.6372 64.1765 25.505 64.1765 22.971C64.1765 20.437 65.0418 18.3047 66.7414 16.5742C68.4719 14.8128 70.6969 13.9475 73.4472 13.9475C76.1975 13.9475 78.4534 14.8128 80.153 16.5742C81.8835 18.3047 82.7488 20.437 82.7488 22.971C82.7488 25.505 81.8835 27.6372 80.153 29.3677C78.4534 31.0983 76.1975 31.9635 73.4472 31.9635ZM73.4472 26.8647C74.5288 26.8647 75.4558 26.4938 76.1975 25.7522C76.9391 24.9796 77.31 24.0526 77.31 22.9401C77.31 21.8585 76.9391 20.9314 76.1666 20.1898C75.4249 19.4481 74.5288 19.0773 73.4472 19.0773C72.3656 19.0773 71.4694 19.4481 70.7278 20.2207C69.9861 20.9623 69.6153 21.8585 69.6153 22.9401C69.6153 24.0526 69.9861 24.9796 70.7278 25.7522C71.4694 26.4938 72.3656 26.8647 73.4472 26.8647ZM91.596 31.9635C88.5985 31.9635 86.0954 30.9747 84.0249 29.0278L86.4662 25.3504C88.104 26.772 89.8037 27.4827 91.5651 27.4827C92.7703 27.4827 93.3883 27.1119 93.3883 26.4011C93.3883 25.9994 93.0793 25.6904 92.4613 25.4432C92.3686 25.4123 91.7505 25.2268 90.5762 24.8251C89.4328 24.4234 88.6294 24.1453 88.2277 23.9598C86.0954 22.971 85.0447 21.4259 85.0447 19.3245C85.0447 17.7176 85.6937 16.4197 86.9607 15.4308C88.2277 14.411 89.9582 13.9166 92.0904 13.9166C94.5317 13.9166 96.6331 14.6583 98.4563 16.1416L96.1077 19.7262C94.6862 18.7683 93.3265 18.2738 91.9977 18.2738C91.1016 18.2738 90.4526 18.7065 90.4526 19.2318C90.4526 19.788 90.978 20.1898 91.9977 20.4679C93.6355 20.9314 94.9952 21.4259 96.015 21.9512C98.0855 22.971 98.9198 24.2998 98.9198 26.2775C98.9198 27.9462 98.2709 29.3059 96.9421 30.3875C95.6133 31.4382 93.8519 31.9635 91.596 31.9635ZM112.998 26.1848L114.451 30.542C112.875 31.4691 111.051 31.9326 109.012 31.9326C104.778 31.9326 102.677 29.5841 102.677 24.8869V18.9537H100.081V14.4419H102.739V8.3851H108.147V14.4419H113.493V18.9537H108.147V24.238C108.147 26.0612 108.857 26.9574 110.31 26.9574C111.113 26.9574 112.009 26.7101 112.998 26.1848ZM128.742 15.8634V14.4419H133.655V29.8622C133.655 32.5507 132.728 34.7138 130.905 36.3208C129.082 37.9277 126.764 38.7311 123.952 38.7311C120.893 38.7311 118.204 37.8659 115.887 36.1662L117.864 32.1799C119.842 33.4777 121.789 34.1267 123.736 34.1267C126.795 34.1267 128.464 32.458 128.464 30.2021V29.8313C127.259 30.9747 125.683 31.5309 123.705 31.5309C121.171 31.5309 119.131 30.7274 117.586 29.0896C116.041 27.4518 115.269 25.3813 115.269 22.8165C115.269 20.1898 116.103 18.0884 117.741 16.4506C119.379 14.8128 121.449 14.0093 123.952 14.0093C125.837 14.0093 127.444 14.6274 128.742 15.8634ZM128.495 22.8783C128.495 20.6533 126.857 19.0155 124.632 19.0155C122.407 19.0155 120.769 20.6224 120.769 22.8783C120.769 25.1341 122.407 26.8338 124.632 26.8338C126.857 26.8338 128.495 25.1341 128.495 22.8783ZM142.514 31.5H137.075V14.4419H142.298V16.5433C143.379 14.8437 144.893 13.9784 146.84 13.9784C147.582 13.9784 148.293 14.1329 148.973 14.4419L148.54 19.6335C147.737 19.3554 146.995 19.2318 146.284 19.2318C143.781 19.2318 142.514 20.8696 142.514 24.1453V31.5ZM167.533 22.5383C167.533 23.2491 167.471 23.9598 167.348 24.7324H155.172C155.79 26.5247 157.181 27.4209 159.344 27.4209C161.229 27.4209 162.929 26.8956 164.505 25.8449L166.637 29.5223C164.443 31.0983 161.94 31.8708 159.097 31.8708C156.068 31.8708 153.751 31.0056 152.113 29.3059C150.475 27.5754 149.672 25.4741 149.672 22.971C149.672 20.4061 150.506 18.2738 152.205 16.5742C153.905 14.8746 156.099 14.0093 158.788 14.0093C161.322 14.0093 163.423 14.7819 165.061 16.2961C166.699 17.8103 167.533 19.9116 167.533 22.5383ZM158.788 18.3665C156.903 18.3665 155.697 19.2318 155.11 20.9932H162.341C161.878 19.3554 160.611 18.3665 158.788 18.3665ZM177.64 31.9017C173.839 31.9017 170.718 30.5729 168.339 27.9462L171.243 23.7126C173.159 25.6286 175.323 26.5865 177.733 26.5865C179.124 26.5865 180.298 25.9994 180.298 24.9178C180.298 24.2071 179.68 23.6199 178.444 23.1564L176.404 22.4765C175.137 22.013 174.148 21.6422 173.499 21.3022C170.996 19.9735 169.729 17.9957 169.729 15.369C169.729 13.3604 170.533 11.6607 172.109 10.3319C173.685 9.00314 175.724 8.32329 178.227 8.32329C181.349 8.32329 184.037 9.28126 186.355 11.1972L183.666 15.5853C182.306 14.4728 180.051 13.7003 178.32 13.7003C176.744 13.7003 175.879 14.3492 175.879 15.1836C175.879 15.8634 176.497 16.4197 177.702 16.8832L179.711 17.6249C180.854 18.0266 181.75 18.3665 182.337 18.6138C185.242 19.8498 186.695 21.8585 186.695 24.6088C186.695 26.741 185.86 28.4716 184.222 29.8622C182.585 31.2219 180.391 31.9017 177.64 31.9017ZM212.521 31.4691L213.324 36.1353C211.687 36.6916 210.111 36.9697 208.565 36.9697C204.425 36.9697 201.242 35.2392 198.986 31.7472C195.988 31.3455 193.516 30.0476 191.569 27.8535C189.622 25.6595 188.664 23.0637 188.664 20.0662C188.664 16.7596 189.808 13.9784 192.095 11.6916C194.381 9.40487 197.224 8.26149 200.624 8.26149C203.992 8.26149 206.835 9.40487 209.122 11.6916C211.408 13.9784 212.552 16.7905 212.552 20.0971C212.552 22.5383 211.903 24.7324 210.605 26.6792C209.338 28.6261 207.607 30.0476 205.475 30.9438C206.31 31.6854 207.484 32.0562 208.936 32.0562C210.018 32.0562 211.223 31.8708 212.521 31.4691ZM196.266 15.6471C195.092 16.8523 194.505 18.3356 194.505 20.0971C194.505 21.8585 195.092 23.3418 196.266 24.547C197.472 25.7213 198.924 26.3084 200.624 26.3084C202.323 26.3084 203.776 25.7213 204.95 24.547C206.124 23.3418 206.711 21.8585 206.711 20.0971C206.711 18.3356 206.124 16.8523 204.95 15.6471C203.776 14.4419 202.323 13.8548 200.624 13.8548C198.924 13.8548 197.472 14.4419 196.266 15.6471ZM232.786 31.5H215.882V8.66322H221.692V25.9994H232.786V31.5Z" fill="#15161B"/>
</g>
<defs>
<linearGradient id="paint0_linear_85_574" x1="5.57126" y1="-3.66228" x2="52.757" y2="8.64986" gradientUnits="userSpaceOnUse">
<stop stop-color="#0C93FF"/>
<stop offset="1" stop-color="#B153F0"/>
</linearGradient>
<clipPath id="clip0_85_574">
<rect width="234" height="40" fill="white"/>
</clipPath>
<clipPath id="clip1_85_574">
<rect width="40" height="40" fill="white"/>
</clipPath>
</defs>
</svg>
