<svg width="160" height="40" viewBox="0 0 160 40" fill="none" xmlns="http://www.w3.org/2000/svg">
<g clip-path="url(#clip0_85_535)">
<g clip-path="url(#clip1_85_535)">
<g clip-path="url(#clip2_85_535)">
<path fill-rule="evenodd" clip-rule="evenodd" d="M25.488 36.916C24.524 36.916 23.744 36.1321 23.744 35.1631C23.744 34.194 24.524 33.4121 25.488 33.4121C26.452 33.4121 27.232 34.194 27.232 35.1631C27.232 36.1321 26.452 36.916 25.488 36.916ZM20.144 40C30.3 40 29.666 35.5732 29.666 35.5732L29.654 30.9873H19.964V29.6104H33.502C33.502 29.6104 40 30.3523 40 20.0527C40 9.75317 34.33 10.1162 34.33 10.1162H30.944V14.8975C30.944 14.8975 31.126 20.5967 25.364 20.5967H15.752C15.752 20.5967 10.352 20.511 10.352 25.8447V34.6621C10.352 34.6621 9.53198 40 20.144 40ZM14.514 3.08398C15.478 3.08398 16.256 3.86787 16.256 4.83691C16.256 5.80595 15.478 6.58789 14.514 6.58789C13.55 6.58789 12.77 5.80595 12.77 4.83691C12.77 3.86787 13.55 3.08398 14.514 3.08398ZM19.856 0C9.70202 0 10.336 4.42676 10.336 4.42676L10.348 9.0127H20.038V10.3896H6.49799C6.49799 10.3896 0 9.64773 0 19.9473C0 30.2468 5.672 29.8838 5.672 29.8838H9.05603V25.1025C9.05603 25.1025 8.874 19.4033 14.638 19.4033H24.248C24.248 19.4033 29.648 19.489 29.648 14.1553V5.33789C29.648 5.33789 30.468 0 19.856 0Z" fill="#5988ED"/>
<path fill-rule="evenodd" clip-rule="evenodd" d="M25.488 36.916C24.524 36.916 23.744 36.1321 23.744 35.1631C23.744 34.194 24.524 33.4121 25.488 33.4121C26.452 33.4121 27.232 34.194 27.232 35.1631C27.232 36.1321 26.452 36.916 25.488 36.916ZM20.144 40C30.3 40 29.666 35.5732 29.666 35.5732L29.654 30.9873H19.964V29.6104H33.502C33.502 29.6104 40 30.3523 40 20.0527C40 9.75317 34.33 10.1162 34.33 10.1162H30.944V14.8975C30.944 14.8975 31.126 20.5967 25.364 20.5967H15.752C15.752 20.5967 10.352 20.511 10.352 25.8447V34.6621C10.352 34.6621 9.53198 40 20.144 40ZM14.514 3.08398C15.478 3.08398 16.256 3.86787 16.256 4.83691C16.256 5.80595 15.478 6.58789 14.514 6.58789C13.55 6.58789 12.77 5.80595 12.77 4.83691C12.77 3.86787 13.55 3.08398 14.514 3.08398ZM19.856 0C9.70202 0 10.336 4.42676 10.336 4.42676L10.348 9.0127H20.038V10.3896H6.49799C6.49799 10.3896 0 9.64773 0 19.9473C0 30.2468 5.672 29.8838 5.672 29.8838H9.05603V25.1025C9.05603 25.1025 8.874 19.4033 14.638 19.4033H24.248C24.248 19.4033 29.648 19.489 29.648 14.1553V5.33789C29.648 5.33789 30.468 0 19.856 0Z" fill="url(#paint0_linear_85_535)"/>
</g>
</g>
<path d="M45.2559 8.66322H54.3411C57.2459 8.66322 59.4091 9.43577 60.7997 10.95C62.2212 12.4642 62.932 14.3492 62.932 16.6051C62.932 18.861 62.1903 20.7151 60.7379 22.1675C59.2855 23.6199 56.9987 24.3307 53.9394 24.3307H51.0346V31.5H45.2559V8.66322ZM51.0346 19.1391H54.2175C56.0408 19.1391 56.9987 17.9957 56.9987 16.5433C56.9987 15.06 55.9481 13.9475 54.3411 13.9475H51.0346V19.1391ZM73.6879 24.238L77.0562 14.4419H82.9586L76.3455 31.5309C74.4914 36.259 72.0501 38.762 68.0946 38.762C66.6731 38.762 65.437 38.453 64.4172 37.8041L65.4679 33.3232C66.2404 33.725 66.9821 33.9104 67.6928 33.9104C69.0525 33.9104 70.1341 33.076 70.9685 31.4382L71.0612 31.2219L63.6447 14.4419H69.9178L73.6879 24.238ZM96.6418 26.1848L98.0942 30.542C96.5182 31.4691 94.6949 31.9326 92.6554 31.9326C88.4218 31.9326 86.3204 29.5841 86.3204 24.8869V18.9537H83.7246V14.4419H86.3822V8.3851H91.7901V14.4419H97.1362V18.9537H91.7901V24.238C91.7901 26.0612 92.5009 26.9574 93.9533 26.9574C94.7567 26.9574 95.6529 26.7101 96.6418 26.1848ZM105.365 31.5H99.9261V7.92156H105.241V16.7596C106.076 15.2454 108.115 13.9784 110.587 13.9784C112.411 13.9784 113.987 14.5965 115.254 15.8016C116.521 17.0068 117.17 18.7683 117.17 21.0241V31.5H111.7V22.4765C111.7 20.2516 110.556 18.9537 108.702 18.9537C106.725 18.9537 105.365 20.4061 105.365 22.6001V31.5ZM128.884 31.9635C126.134 31.9635 123.909 31.0983 122.178 29.3677C120.479 27.6372 119.614 25.505 119.614 22.971C119.614 20.437 120.479 18.3047 122.178 16.5742C123.909 14.8128 126.134 13.9475 128.884 13.9475C131.634 13.9475 133.89 14.8128 135.59 16.5742C137.321 18.3047 138.186 20.437 138.186 22.971C138.186 25.505 137.321 27.6372 135.59 29.3677C133.89 31.0983 131.634 31.9635 128.884 31.9635ZM128.884 26.8647C129.966 26.8647 130.893 26.4938 131.634 25.7522C132.376 24.9796 132.747 24.0526 132.747 22.9401C132.747 21.8585 132.376 20.9314 131.604 20.1898C130.862 19.4481 129.966 19.0773 128.884 19.0773C127.803 19.0773 126.906 19.4481 126.165 20.2207C125.423 20.9623 125.052 21.8585 125.052 22.9401C125.052 24.0526 125.423 24.9796 126.165 25.7522C126.906 26.4938 127.803 26.8647 128.884 26.8647ZM146.286 31.5H140.847V14.4419H146.163V16.8214C146.997 15.2145 149.037 13.9784 151.509 13.9784C153.332 13.9784 154.908 14.5965 156.175 15.8016C157.442 17.0068 158.091 18.7683 158.091 21.0241V31.5H152.621V22.4765C152.621 20.2516 151.478 18.9537 149.624 18.9537C147.646 18.9537 146.286 20.4061 146.286 22.631V31.5Z" fill="#15161B"/>
</g>
<defs>
<linearGradient id="paint0_linear_85_535" x1="5.05537" y1="-3.66251" x2="53.4968" y2="9.3643" gradientUnits="userSpaceOnUse">
<stop stop-color="#0C93FF"/>
<stop offset="1" stop-color="#B153F0"/>
</linearGradient>
<clipPath id="clip0_85_535">
<rect width="160" height="40" fill="white"/>
</clipPath>
<clipPath id="clip1_85_535">
<rect width="40" height="40" fill="white"/>
</clipPath>
<clipPath id="clip2_85_535">
<rect width="40" height="40" fill="white"/>
</clipPath>
</defs>
</svg>
