<svg width="173" height="40" viewBox="0 0 173 40" fill="none" xmlns="http://www.w3.org/2000/svg">
<g clip-path="url(#clip0_85_523)">
<path d="M31.6492 11.6266C38.1385 18.1159 38.1385 28.5258 31.6492 35.0602C25.2951 41.5494 14.8401 41.5494 8.35085 35.0602C1.86157 28.5709 1.86157 18.1159 8.35085 11.6266L19.9775 0V5.81332L18.8959 6.89486L11.1899 14.6009C6.32295 19.3777 6.32295 27.2189 11.1899 32.0859C15.9667 36.9529 23.808 36.9529 28.6749 32.0859C33.5419 27.3091 33.5419 19.4678 28.6749 14.6009L31.6492 11.6266ZM25.8359 10.9056C24.6412 10.9056 23.6728 9.93715 23.6728 8.74251C23.6728 7.54786 24.6412 6.57941 25.8359 6.57941C27.0305 6.57941 27.999 7.54786 27.999 8.74251C27.999 9.93715 27.0305 10.9056 25.8359 10.9056Z" fill="#EE4C2C"/>
<path d="M31.6492 11.6266C38.1385 18.1159 38.1385 28.5258 31.6492 35.0602C25.2951 41.5494 14.8401 41.5494 8.35085 35.0602C1.86157 28.5709 1.86157 18.1159 8.35085 11.6266L19.9775 0V5.81332L18.8959 6.89486L11.1899 14.6009C6.32295 19.3777 6.32295 27.2189 11.1899 32.0859C15.9667 36.9529 23.808 36.9529 28.6749 32.0859C33.5419 27.3091 33.5419 19.4678 28.6749 14.6009L31.6492 11.6266ZM25.8359 10.9056C24.6412 10.9056 23.6728 9.93715 23.6728 8.74251C23.6728 7.54786 24.6412 6.57941 25.8359 6.57941C27.0305 6.57941 27.999 7.54786 27.999 8.74251C27.999 9.93715 27.0305 10.9056 25.8359 10.9056Z" fill="url(#paint0_linear_85_523)"/>
<path d="M45.2559 8.66322H54.3411C57.2459 8.66322 59.4091 9.43577 60.7997 10.95C62.2212 12.4642 62.932 14.3492 62.932 16.6051C62.932 18.861 62.1903 20.7151 60.7379 22.1675C59.2855 23.6199 56.9987 24.3307 53.9394 24.3307H51.0346V31.5H45.2559V8.66322ZM51.0346 19.1391H54.2175C56.0408 19.1391 56.9987 17.9957 56.9987 16.5433C56.9987 15.06 55.9481 13.9475 54.3411 13.9475H51.0346V19.1391ZM73.6879 24.238L77.0562 14.4419H82.9586L76.3455 31.5309C74.4914 36.259 72.0501 38.762 68.0946 38.762C66.6731 38.762 65.437 38.453 64.4172 37.8041L65.4679 33.3232C66.2404 33.725 66.9821 33.9104 67.6928 33.9104C69.0525 33.9104 70.1341 33.076 70.9685 31.4382L71.0612 31.2219L63.6447 14.4419H69.9178L73.6879 24.238ZM89.4215 31.5V14.2256H83.0865V8.66322H101.566V14.2256H95.262V31.5H89.4215ZM109.51 31.9635C106.76 31.9635 104.535 31.0983 102.804 29.3677C101.104 27.6372 100.239 25.505 100.239 22.971C100.239 20.437 101.104 18.3047 102.804 16.5742C104.535 14.8128 106.76 13.9475 109.51 13.9475C112.26 13.9475 114.516 14.8128 116.216 16.5742C117.946 18.3047 118.811 20.437 118.811 22.971C118.811 25.505 117.946 27.6372 116.216 29.3677C114.516 31.0983 112.26 31.9635 109.51 31.9635ZM109.51 26.8647C110.591 26.8647 111.519 26.4938 112.26 25.7522C113.002 24.9796 113.373 24.0526 113.373 22.9401C113.373 21.8585 113.002 20.9314 112.229 20.1898C111.488 19.4481 110.591 19.0773 109.51 19.0773C108.428 19.0773 107.532 19.4481 106.791 20.2207C106.049 20.9623 105.678 21.8585 105.678 22.9401C105.678 24.0526 106.049 24.9796 106.791 25.7522C107.532 26.4938 108.428 26.8647 109.51 26.8647ZM126.912 31.5H121.473V14.4419H126.696V16.5433C127.777 14.8437 129.291 13.9784 131.238 13.9784C131.98 13.9784 132.691 14.1329 133.371 14.4419L132.938 19.6335C132.134 19.3554 131.393 19.2318 130.682 19.2318C128.179 19.2318 126.912 20.8696 126.912 24.1453V31.5ZM143.124 31.8708C140.435 31.8708 138.272 31.0365 136.573 29.3677C134.904 27.699 134.069 25.5668 134.069 22.9401C134.069 20.3134 134.904 18.1811 136.603 16.5124C138.303 14.8437 140.497 14.0093 143.217 14.0093C146.77 14.0093 149.891 15.7398 151.344 18.9846L146.987 21.2713C146.121 19.8189 144.916 19.0773 143.34 19.0773C142.197 19.0773 141.27 19.4481 140.528 20.1898C139.817 20.9314 139.446 21.8585 139.446 22.9401C139.446 25.1959 141.084 26.8647 143.278 26.8647C144.854 26.8647 146.307 25.9994 146.925 24.6706L151.282 27.2664C149.799 30.1094 146.739 31.8708 143.124 31.8708ZM159.052 31.5H153.613V7.92156H158.928V16.7596C159.762 15.2454 161.802 13.9784 164.274 13.9784C166.097 13.9784 167.673 14.5965 168.94 15.8016C170.207 17.0068 170.856 18.7683 170.856 21.0241V31.5H165.387V22.4765C165.387 20.2516 164.243 18.9537 162.389 18.9537C160.411 18.9537 159.052 20.4061 159.052 22.6001V31.5Z" fill="#15161B"/>
</g>
<defs>
<linearGradient id="paint0_linear_85_523" x1="7.65864" y1="-3.65584" x2="48.5317" y2="5.43761" gradientUnits="userSpaceOnUse">
<stop stop-color="#0C93FF"/>
<stop offset="1" stop-color="#B153F0"/>
</linearGradient>
<clipPath id="clip0_85_523">
<rect width="173" height="40" fill="white"/>
</clipPath>
</defs>
</svg>
