<svg width="186" height="40" viewBox="0 0 186 40" fill="none" xmlns="http://www.w3.org/2000/svg">
<g clip-path="url(#clip0_1055_1034)">
<path d="M22.0921 5.02027C25.706 1.87519 29.2847 0.559419 31.4728 1.82111C33.7545 3.13693 34.4235 7.13322 33.4017 12.094C33.3395 12.3961 33.2682 12.704 33.1919 13.0154C33.6561 13.1494 34.1076 13.2909 34.5427 13.4407C39.0726 15.0001 42 17.4438 42 19.9696C41.9995 22.6034 38.871 25.178 34.0632 26.771C33.8092 26.8552 33.5489 26.9371 33.2836 27.0156C33.3783 27.396 33.4627 27.7698 33.5351 28.1357C34.4843 32.9303 33.7528 36.8713 31.5033 38.1737C29.3253 39.4346 25.8052 38.196 22.2408 35.1288C21.8645 34.8049 21.4856 34.4597 21.1068 34.0949C20.8144 34.3774 20.522 34.6467 20.2312 34.9009C16.5512 38.1177 12.7716 39.4529 10.5198 38.1543C8.33969 36.8968 7.65525 33.2283 8.53245 28.6082C8.62493 28.1209 8.73517 27.6213 8.86182 27.1115C8.47162 26.9995 8.09271 26.8804 7.7278 26.7557C3.10309 25.175 0.0583902 22.5687 0.0578613 19.9696C0.0578613 17.4529 2.89402 15.0263 7.3345 13.4782C7.83079 13.3052 8.34957 13.1415 8.88683 12.989C8.7695 12.5178 8.66571 12.0545 8.57692 11.6007C7.65696 6.89909 8.30342 3.14084 10.4892 1.87531C12.7688 0.555623 16.566 1.97286 20.3535 5.33574C20.5846 5.54095 20.8163 5.7558 21.0484 5.9778C21.3965 5.64246 21.7448 5.32251 22.0921 5.02027ZM31.5506 27.47C29.8134 27.8716 27.897 28.1656 25.8694 28.3455C24.7167 30.0142 23.5351 31.5169 22.3533 32.8094C22.7065 33.1492 23.0587 33.4704 23.4082 33.7711C26.4566 36.3943 29.2838 37.3879 30.6056 36.6228C31.2265 36.2631 31.7289 35.3659 31.9786 34.0198C32.2566 32.5214 32.1968 30.6045 31.7771 28.4845C31.7117 28.1537 31.6361 27.815 31.5506 27.47ZM10.599 27.5492C10.4811 28.0242 10.3778 28.4894 10.2919 28.9417C9.54167 32.8927 10.0919 35.8387 11.4148 36.6019C12.0365 36.9604 13.0654 36.9468 14.3568 36.4908C15.7939 35.9832 17.4242 34.9738 19.0513 33.5515C19.3162 33.3199 19.583 33.0745 19.8504 32.8163C18.6259 31.5021 17.4115 30.0006 16.251 28.3678C14.2188 28.203 12.317 27.9291 10.599 27.5492ZM23.561 28.4984C22.7293 28.5354 21.8838 28.554 21.0289 28.554C20.1968 28.554 19.3777 28.5383 18.5747 28.5068C19.4019 29.5969 20.2492 30.6104 21.0984 31.5266C21.9192 30.623 22.7443 29.6082 23.561 28.4984ZM21.0289 13.2503C19.7364 13.2503 18.4572 13.2991 17.2099 13.3934C16.5056 14.4247 15.8231 15.5083 15.1754 16.6315C14.5295 17.7515 13.934 18.8836 13.3923 20.0113C13.9342 21.1366 14.5313 22.269 15.1809 23.3911C15.8324 24.5164 16.5199 25.6053 17.2308 26.6431C18.4534 26.7225 19.7237 26.7626 21.0289 26.7626C22.3394 26.7626 23.6256 26.7168 24.8702 26.6278C25.5534 25.6036 26.2256 24.518 26.8811 23.3814C27.5358 22.246 28.1389 21.1091 28.6836 19.9863C28.1373 18.8827 27.5331 17.7576 26.8755 16.6218C26.2253 15.4985 25.5484 14.4185 24.8549 13.3948C23.608 13.2997 22.3273 13.2503 21.0289 13.2503ZM12.4418 22.1182C11.9089 23.3822 11.4531 24.6259 11.0826 25.8218C12.2788 26.0821 13.5739 26.2898 14.9475 26.443C14.4957 25.742 14.0562 25.0228 13.6314 24.2889C13.2143 23.5685 12.8172 22.8433 12.4418 22.1182ZM29.6508 22.0542C29.2673 22.7936 28.8607 23.5355 28.4334 24.2764C28.0111 25.0087 27.5819 25.7211 27.1465 26.411C28.5298 26.245 29.8427 26.0214 31.0586 25.744C30.6834 24.5685 30.2114 23.3319 29.6508 22.0542ZM9.36768 14.715C8.86711 14.8573 8.38453 15.0088 7.92375 15.1695C4.12625 16.4935 1.84923 18.4424 1.84923 19.9696C1.84956 20.6872 2.37552 21.5708 3.41546 22.4614C4.57315 23.4528 6.26223 24.3612 8.30732 25.0602C8.63971 25.1737 8.98473 25.2829 9.34128 25.3854C9.87126 23.6582 10.5704 21.8445 11.412 20.0127C10.5811 18.2077 9.89252 16.4223 9.36768 14.715ZM32.7124 14.7415C32.1965 16.411 31.5075 18.1758 30.6709 19.978C31.5476 21.8241 32.265 23.6105 32.7958 25.2909C33.0351 25.2199 33.2701 25.1471 33.499 25.0713C37.65 23.6959 40.2079 21.5909 40.2086 19.9696C40.2086 18.4475 37.8402 16.4709 33.959 15.1347C33.5578 14.9966 33.1413 14.8656 32.7124 14.7415ZM27.1507 13.6255C27.5851 14.3063 28.0115 15.0071 28.4265 15.724C28.8501 16.4558 29.2524 17.1838 29.6328 17.9059C30.1631 16.6641 30.6138 15.4525 30.9752 14.294C29.7713 14.0192 28.4888 13.7946 27.1507 13.6255ZM14.9099 13.6227C13.5802 13.7887 12.3029 14.0081 11.1062 14.2759C11.4709 15.4508 11.9186 16.6671 12.4404 17.9045C12.8147 17.1792 13.2087 16.455 13.623 15.7365C14.0387 15.0157 14.4695 14.3098 14.9099 13.6227ZM30.5778 3.37344C29.2593 2.61309 26.3655 3.67662 23.2692 6.37109C22.9487 6.65004 22.6269 6.94636 22.3047 7.25635C23.5033 8.54796 24.6976 10.0403 25.8499 11.6813C27.8281 11.8669 29.7175 12.1651 31.4575 12.5665C31.5263 12.2845 31.5902 12.0059 31.6465 11.7327C32.5288 7.44952 31.9822 4.18341 30.5778 3.37344ZM19.1639 6.67544C15.8937 3.77174 12.7901 2.61392 11.387 3.42625C10.0698 4.18891 9.54676 7.22786 10.3349 11.256C10.4174 11.6777 10.5135 12.1094 10.6226 12.5485C12.3587 12.1552 14.2479 11.8613 16.2205 11.6785C17.3706 10.0553 18.5749 8.56478 19.7935 7.25635C19.583 7.05538 19.3729 6.86104 19.1639 6.67544ZM21.0484 8.53769C20.2091 9.44326 19.3742 10.4415 18.5594 11.5159C19.3746 11.4778 20.1995 11.4575 21.0289 11.4575C21.8661 11.4575 22.6964 11.4785 23.5166 11.5173C22.7025 10.4327 21.8748 9.43303 21.0484 8.53769Z" fill="#5988ED"/>
<path d="M21.0289 16.2237C23.0973 16.2237 24.7742 17.9004 24.7742 19.9689C24.7742 22.0374 23.0973 23.7142 21.0289 23.7142C18.9605 23.7142 17.2836 22.0374 17.2836 19.9689C17.2836 17.9004 18.9605 16.2237 21.0289 16.2237Z" fill="#5988ED"/>
<path d="M65.9208 31.5H59.3078L55.2905 23.9289H53.0346V31.5H47.2559V8.66322H56.7738C59.5241 8.66322 61.5945 9.37397 63.016 10.8264C64.4375 12.2479 65.1483 14.0402 65.1483 16.2343C65.1483 19.1082 63.7886 21.704 60.9765 23.0328L65.9208 31.5ZM56.712 13.9475H53.0346V18.8919H56.4956C60.2039 19.0773 59.9258 13.7003 56.712 13.9475ZM84.8837 22.5383C84.8837 23.2491 84.8219 23.9598 84.6983 24.7324H72.5228C73.1409 26.5247 74.5315 27.4209 76.6946 27.4209C78.5797 27.4209 80.2793 26.8956 81.8553 25.8449L83.9876 29.5223C81.7935 31.0983 79.2904 31.8708 76.4474 31.8708C73.419 31.8708 71.1013 31.0056 69.4635 29.3059C67.8257 27.5754 67.0222 25.4741 67.0222 22.971C67.0222 20.4061 67.8566 18.2738 69.5562 16.5742C71.2558 14.8746 73.4499 14.0093 76.1384 14.0093C78.6724 14.0093 80.7737 14.7819 82.4116 16.2961C84.0494 17.8103 84.8837 19.9116 84.8837 22.5383ZM76.1384 18.3665C74.2533 18.3665 73.0482 19.2318 72.461 20.9932H79.6921C79.2286 19.3554 77.9616 18.3665 76.1384 18.3665ZM100.109 15.9871V14.4419H105.239V31.5H100.109V30.0167C98.7185 31.2837 97.0498 31.9326 95.0721 31.9326C92.6308 31.9326 90.653 31.0674 89.077 29.3368C87.501 27.6063 86.7285 25.4741 86.7285 22.9092C86.7285 20.3443 87.501 18.212 89.077 16.5433C90.653 14.8437 92.6617 14.0093 95.0721 14.0093C97.0498 14.0093 98.7185 14.6583 100.109 15.9871ZM100.047 22.9401C100.047 21.8585 99.6765 20.9314 98.9039 20.1589C98.1314 19.3863 97.2043 18.9846 96.0918 18.9846C94.9485 18.9846 94.0214 19.3863 93.2797 20.1589C92.5381 20.9314 92.1673 21.8585 92.1673 22.9401C92.1673 24.0526 92.5381 25.0105 93.2797 25.7831C94.0523 26.5556 94.9794 26.9574 96.0918 26.9574C97.2043 26.9574 98.1314 26.5556 98.9039 25.7831C99.6765 25.0105 100.047 24.0526 100.047 22.9401ZM116.968 31.8708C114.279 31.8708 112.116 31.0365 110.416 29.3677C108.748 27.699 107.913 25.5668 107.913 22.9401C107.913 20.3134 108.748 18.1811 110.447 16.5124C112.147 14.8437 114.341 14.0093 117.06 14.0093C120.614 14.0093 123.735 15.7398 125.188 18.9846L120.831 21.2713C119.965 19.8189 118.76 19.0773 117.184 19.0773C116.041 19.0773 115.114 19.4481 114.372 20.1898C113.661 20.9314 113.29 21.8585 113.29 22.9401C113.29 25.1959 114.928 26.8647 117.122 26.8647C118.698 26.8647 120.151 25.9994 120.769 24.6706L125.126 27.2664C123.643 30.1094 120.583 31.8708 116.968 31.8708ZM139.261 26.1848L140.714 30.542C139.138 31.4691 137.315 31.9326 135.275 31.9326C131.041 31.9326 128.94 29.5841 128.94 24.8869V18.9537H126.344V14.4419H129.002V8.3851H134.41V14.4419H139.756V18.9537H134.41V24.238C134.41 26.0612 135.12 26.9574 136.573 26.9574C137.376 26.9574 138.272 26.7101 139.261 26.1848ZM154.81 31.8708C151.812 31.8708 149.309 30.9747 147.362 29.1514L149.835 24.5161C151.225 25.7213 152.678 26.3393 154.192 26.3393C156.818 26.3393 158.364 24.5779 158.364 21.8585V8.66322H164.142V22.0439C164.142 29.2132 159.723 31.8708 154.81 31.8708ZM175.717 31.9017C171.916 31.9017 168.795 30.5729 166.416 27.9462L169.32 23.7126C171.236 25.6286 173.399 26.5865 175.81 26.5865C177.2 26.5865 178.375 25.9994 178.375 24.9178C178.375 24.2071 177.757 23.6199 176.521 23.1564L174.481 22.4765C173.214 22.013 172.225 21.6422 171.576 21.3022C169.073 19.9735 167.806 17.9957 167.806 15.369C167.806 13.3604 168.61 11.6607 170.186 10.3319C171.762 9.00314 173.801 8.32329 176.304 8.32329C179.425 8.32329 182.114 9.28126 184.432 11.1972L181.743 15.5853C180.383 14.4728 178.127 13.7003 176.397 13.7003C174.821 13.7003 173.956 14.3492 173.956 15.1836C173.956 15.8634 174.574 16.4197 175.779 16.8832L177.788 17.6249C178.931 18.0266 179.827 18.3665 180.414 18.6138C183.319 19.8498 184.771 21.8585 184.771 24.6088C184.771 26.741 183.937 28.4716 182.299 29.8622C180.661 31.2219 178.467 31.9017 175.717 31.9017Z" fill="#15161B"/>
</g>
<defs>
<clipPath id="clip0_1055_1034">
<rect width="186" height="40" fill="white"/>
</clipPath>
</defs>
</svg>
