<svg width="72" height="72" viewBox="0 0 72 72" fill="none" xmlns="http://www.w3.org/2000/svg">
<g clip-path="url(#clip0_89_146)">
<g clip-path="url(#clip1_89_146)">
<path d="M23.8417 33.0076C23.4058 32.9777 22.9685 33.0429 22.5603 33.1987C22.1521 33.3545 21.7827 33.5972 21.4776 33.91C21.1725 34.2228 20.9391 34.5982 20.7934 35.0101C20.6478 35.4221 20.5935 35.8607 20.6342 36.2958C20.7339 37.0339 21.0907 37.7131 21.6419 38.2141C22.193 38.715 22.9031 39.0056 23.6473 39.0346L28.3116 39.3018L17.821 48.5127C17.2497 49.0424 16.8938 49.7642 16.8215 50.5399C16.7492 51.3156 16.9656 52.0908 17.4292 52.7169C17.674 53.0754 18.0013 53.3699 18.3835 53.5756C18.7657 53.7814 19.1918 53.8924 19.6258 53.8994C20.4202 53.9336 21.1958 53.6525 21.7839 53.1173L32.283 43.756L32.0158 48.4202C31.9597 49.1628 32.1672 49.9015 32.6019 50.5062C33.0367 51.111 33.6708 51.543 34.3926 51.7263C34.8202 51.8165 35.2622 51.8126 35.6881 51.715C36.114 51.6174 36.5135 51.4283 36.8591 51.1609C37.2047 50.8936 37.488 50.5542 37.6894 50.1665C37.8908 49.7788 38.0055 49.3519 38.0256 48.9154L38.7151 36.8787C38.7608 36.0806 38.4876 35.2971 37.9556 34.7004C37.4236 34.1038 36.6764 33.7429 35.8783 33.6972L23.8417 33.0076Z" fill="#3F3F3F"/>
<path d="M4.09572 31.2391C3.32357 31.0322 2.66524 30.527 2.26554 29.8347C1.86585 29.1425 1.75754 28.3197 1.96443 27.5476C2.17133 26.7754 2.67649 26.1171 3.36878 25.7174C4.06107 25.3177 4.88379 25.2094 5.65594 25.4163C6.42809 25.6232 7.08642 26.1284 7.48612 26.8206C7.88581 27.5129 7.99413 28.3356 7.78723 29.1078C7.58033 29.88 7.07517 30.5383 6.38288 30.938C5.69059 31.3377 4.86787 31.446 4.09572 31.2391Z" fill="#3F3F3F"/>
<path d="M5.69797 46.8027C5.30974 46.9224 4.9013 46.9625 4.49721 46.9204C4.09311 46.8783 3.70169 46.755 3.34647 46.5578C2.99125 46.3606 2.67956 46.0936 2.43014 45.7729C2.18072 45.4522 1.99871 45.0844 1.89505 44.6915C1.71295 43.9179 1.84381 43.1036 2.25915 42.4259C2.67449 41.7482 3.3407 41.2621 4.11275 41.0732C4.48883 40.9532 4.88565 40.9124 5.27828 40.9531C5.67091 40.9938 6.05089 41.1153 6.39434 41.3099C6.73778 41.5045 7.03729 41.768 7.27404 42.0838C7.5108 42.3997 7.67969 42.7611 7.7701 43.1453C7.89005 43.5214 7.93094 43.9182 7.89021 44.3109C7.84948 44.7035 7.72801 45.0835 7.53342 45.4269C7.33884 45.7704 7.07534 46.0699 6.75948 46.3066C6.44362 46.5434 6.08222 46.7123 5.69797 46.8027Z" fill="#3F3F3F"/>
<path d="M14.7695 59.5306C14.2199 60.1048 13.4657 60.4387 12.6712 60.4595C11.8766 60.4804 11.106 60.1866 10.527 59.642C9.98113 59.0451 9.68451 58.2618 9.69812 57.453C9.71173 56.6442 10.0345 55.8713 10.6002 55.293C10.8706 55.0055 11.1976 54.7769 11.5606 54.6218C11.9235 54.4666 12.3147 54.3882 12.7094 54.3914C13.1041 54.3946 13.4939 54.4794 13.8543 54.6404C14.2147 54.8014 14.5379 55.0353 14.8036 55.3272C15.0912 55.5976 15.3197 55.9246 15.4749 56.2875C15.6301 56.6505 15.7085 57.0416 15.7053 57.4364C15.7021 57.8311 15.6173 58.2209 15.4563 58.5813C15.2952 58.9417 15.0614 59.2649 14.7695 59.5306Z" fill="#3F3F3F"/>
<path d="M14.7695 59.5306C14.2199 60.1048 13.4657 60.4387 12.6712 60.4595C11.8766 60.4804 11.106 60.1866 10.527 59.642C9.98113 59.0451 9.68451 58.2618 9.69812 57.453C9.71173 56.6442 10.0345 55.8713 10.6002 55.293C10.8706 55.0055 11.1976 54.7769 11.5606 54.6218C11.9235 54.4666 12.3147 54.3882 12.7094 54.3914C13.1041 54.3946 13.4939 54.4794 13.8543 54.6404C14.2147 54.8014 14.5379 55.0353 14.8036 55.3272C15.0912 55.5976 15.3197 55.9246 15.4749 56.2875C15.6301 56.6505 15.7085 57.0416 15.7053 57.4364C15.7021 57.8311 15.6173 58.2209 15.4563 58.5813C15.2952 58.9417 15.0614 59.2649 14.7695 59.5306Z" fill="url(#paint0_linear_89_146)"/>
<path d="M14.7695 59.5306C14.2199 60.1048 13.4657 60.4387 12.6712 60.4595C11.8766 60.4804 11.106 60.1866 10.527 59.642C9.98113 59.0451 9.68451 58.2618 9.69812 57.453C9.71173 56.6442 10.0345 55.8713 10.6002 55.293C10.8706 55.0055 11.1976 54.7769 11.5606 54.6218C11.9235 54.4666 12.3147 54.3882 12.7094 54.3914C13.1041 54.3946 13.4939 54.4794 13.8543 54.6404C14.2147 54.8014 14.5379 55.0353 14.8036 55.3272C15.0912 55.5976 15.3197 55.9246 15.4749 56.2875C15.6301 56.6505 15.7085 57.0416 15.7053 57.4364C15.7021 57.8311 15.6173 58.2209 15.4563 58.5813C15.2952 58.9417 15.0614 59.2649 14.7695 59.5306Z" fill="url(#paint1_linear_89_146)"/>
<path d="M29.1 66.0228C28.8931 66.795 28.3879 67.4533 27.6956 67.853C27.0033 68.2527 26.1806 68.361 25.4085 68.1541C24.6363 67.9472 23.978 67.4421 23.5783 66.7498C23.1786 66.0575 23.0703 65.2348 23.2772 64.4626C23.4841 63.6905 23.9892 63.0321 24.6815 62.6324C25.3738 62.2327 26.1965 62.1244 26.9687 62.3313C27.7408 62.5382 28.3992 63.0434 28.7989 63.7357C29.1986 64.428 29.3069 65.2507 29.1 66.0228Z" fill="#3F3F3F"/>
<path d="M44.6633 64.4204C44.7831 64.8086 44.8231 65.217 44.7811 65.6211C44.739 66.0252 44.6156 66.4166 44.4184 66.7719C44.2212 67.1271 43.9543 67.4388 43.6336 67.6882C43.3128 67.9376 42.945 68.1196 42.5522 68.2233C41.7785 68.4054 40.9642 68.2745 40.2865 67.8592C39.6089 67.4438 39.1227 66.7776 38.9338 66.0056C38.8139 65.6295 38.773 65.2327 38.8137 64.8401C38.8545 64.4474 38.9759 64.0674 39.1705 63.724C39.3651 63.3806 39.6286 63.081 39.9445 62.8443C40.2603 62.6075 40.6217 62.4387 41.006 62.3482C41.382 62.2283 41.7789 62.1874 42.1715 62.2281C42.5641 62.2689 42.9441 62.3903 43.2876 62.5849C43.631 62.7795 43.9305 63.043 44.1673 63.3589C44.404 63.6747 44.5729 64.0361 44.6633 64.4204Z" fill="#3F3F3F"/>
<path d="M57.3915 55.3492C57.9657 55.8988 58.2995 56.6529 58.3204 57.4475C58.3413 58.242 58.0475 59.0127 57.5029 59.5916C56.906 60.1375 56.1227 60.4342 55.3139 60.4206C54.5051 60.4069 53.7322 60.0841 53.1539 59.5185C52.8664 59.248 52.6378 58.9211 52.4827 58.5581C52.3275 58.1951 52.249 57.804 52.2523 57.4093C52.2555 57.0146 52.3402 56.6248 52.5013 56.2644C52.6623 55.904 52.8962 55.5808 53.1881 55.315C53.4585 55.0275 53.7855 54.7989 54.1484 54.6438C54.5114 54.4886 54.9025 54.4102 55.2973 54.4134C55.692 54.4166 56.0818 54.5014 56.4422 54.6624C56.8026 54.8235 57.1258 55.0573 57.3915 55.3492Z" fill="#3F3F3F"/>
<path d="M63.8837 41.0188C64.6559 41.2257 65.3142 41.7309 65.7139 42.4232C66.1136 43.1155 66.2219 43.9382 66.015 44.7103C65.8081 45.4825 65.303 46.1408 64.6107 46.5405C63.9184 46.9402 63.0957 47.0485 62.3235 46.8416C61.5514 46.6347 60.893 46.1296 60.4933 45.4373C60.0936 44.745 59.9853 43.9223 60.1922 43.1501C60.3991 42.378 60.9043 41.7196 61.5966 41.3199C62.2889 40.9202 63.1116 40.8119 63.8837 41.0188Z" fill="#3F3F3F"/>
<path d="M38.8795 6.23509C39.0864 5.46294 39.5915 4.8046 40.2838 4.4049C40.9761 4.00521 41.7988 3.8969 42.571 4.1038C43.3431 4.31069 44.0015 4.81585 44.4012 5.50814C44.8009 6.20043 44.9092 7.02315 44.7023 7.7953C44.4954 8.56745 43.9902 9.22579 43.2979 9.62548C42.6056 10.0252 41.7829 10.1335 41.0108 9.92659C40.2386 9.71969 39.5803 9.21454 39.1806 8.52225C38.7809 7.82995 38.6726 7.00724 38.8795 6.23509Z" fill="#3F3F3F"/>
<path d="M23.3158 7.83732C23.196 7.44909 23.1559 7.04066 23.198 6.63656C23.2401 6.23246 23.3634 5.84103 23.5606 5.48582C23.7578 5.1306 24.0248 4.81891 24.3455 4.56949C24.6662 4.32007 25.0341 4.13806 25.4269 4.0344C26.2006 3.8523 27.0149 3.98315 27.6925 4.3985C28.3702 4.81384 28.8564 5.48005 29.0452 6.2521C29.1652 6.62818 29.2061 7.025 29.1653 7.41763C29.1246 7.81027 29.0031 8.19024 28.8086 8.53369C28.614 8.87713 28.3505 9.17664 28.0346 9.41339C27.7188 9.65015 27.3573 9.81904 26.9731 9.90946C26.597 10.0294 26.2002 10.0703 25.8076 10.0296C25.4149 9.98884 25.035 9.86736 24.6915 9.67278C24.3481 9.47819 24.0486 9.21469 23.8118 8.89883C23.5751 8.58297 23.4062 8.22157 23.3158 7.83732Z" fill="#3F3F3F"/>
<path d="M10.5878 16.9087C10.0136 16.3591 9.67979 15.605 9.65892 14.8105C9.63805 14.0159 9.93187 13.2453 10.4764 12.6663C11.0734 12.1204 11.8567 11.8238 12.6655 11.8374C13.4743 11.851 14.2472 12.1738 14.8254 12.7395C15.113 13.0099 15.3415 13.3369 15.4967 13.6998C15.6518 14.0628 15.7303 14.4539 15.7271 14.8486C15.7239 15.2434 15.6391 15.6332 15.478 15.9936C15.317 16.354 15.0832 16.6772 14.7913 16.9429C14.5208 17.2305 14.1939 17.459 13.8309 17.6142C13.4679 17.7693 13.0768 17.8478 12.6821 17.8446C12.2873 17.8414 11.8975 17.7566 11.5372 17.5955C11.1768 17.4345 10.8535 17.2007 10.5878 16.9087Z" fill="#3F3F3F"/>
<circle cx="54.2896" cy="24.5566" r="11.5723" stroke="url(#paint2_linear_89_146)" stroke-width="3"/>
<circle cx="54.2896" cy="24.5566" r="11.5723" stroke="url(#paint3_linear_89_146)" stroke-width="3"/>
</g>
</g>
<defs>
<linearGradient id="paint0_linear_89_146" x1="11.9124" y1="60.3848" x2="13.4879" y2="54.5051" gradientUnits="userSpaceOnUse">
<stop stop-color="#6C63FF"/>
<stop offset="1" stop-color="#9A6AFF"/>
</linearGradient>
<linearGradient id="paint1_linear_89_146" x1="8.69206" y1="58.7254" x2="12.0757" y2="52.9531" gradientUnits="userSpaceOnUse">
<stop stop-color="#0C93FF"/>
<stop offset="1" stop-color="#B153F0"/>
</linearGradient>
<linearGradient id="paint2_linear_89_146" x1="42.7173" y1="24.5566" x2="65.8618" y2="24.5566" gradientUnits="userSpaceOnUse">
<stop stop-color="#6C63FF"/>
<stop offset="1" stop-color="#9A6AFF"/>
</linearGradient>
<linearGradient id="paint3_linear_89_146" x1="45.6424" y1="10.8652" x2="70.2298" y2="17.5135" gradientUnits="userSpaceOnUse">
<stop stop-color="#0C93FF"/>
<stop offset="1" stop-color="#B153F0"/>
</linearGradient>
<clipPath id="clip0_89_146">
<rect width="72" height="72" fill="white"/>
</clipPath>
<clipPath id="clip1_89_146">
<rect width="72.3384" height="72.3384" fill="white" transform="translate(-10.3086 61.7046) rotate(-75)"/>
</clipPath>
</defs>
</svg>
