<svg width="89" height="89" viewBox="0 0 89 89" fill="none" xmlns="http://www.w3.org/2000/svg">
<g clip-path="url(#clip0_76_172)">
<path d="M34.1503 41.1766C33.7143 41.1466 33.2771 41.2118 32.8689 41.3677C32.4607 41.5235 32.0913 41.7662 31.7862 42.079C31.4811 42.3917 31.2476 42.7671 31.102 43.1791C30.9564 43.591 30.9021 44.0297 30.9428 44.4647C31.0425 45.2028 31.3993 45.8821 31.9505 46.383C32.5016 46.884 33.2117 47.1745 33.9559 47.2035L38.6201 47.4707L28.1296 56.6816C27.5583 57.2113 27.2024 57.9331 27.1301 58.7089C27.0578 59.4846 27.2742 60.2597 27.7378 60.8859C27.9826 61.2443 28.3099 61.5388 28.6921 61.7446C29.0743 61.9503 29.5003 62.0614 29.9344 62.0683C30.7287 62.1025 31.5044 61.8214 32.0925 61.2863L42.5916 51.9249L42.3244 56.5891C42.2683 57.3318 42.4758 58.0704 42.9105 58.6752C43.3453 59.2799 43.9794 59.7119 44.7012 59.8953C45.1287 59.9854 45.5708 59.9816 45.9967 59.8839C46.4225 59.7863 46.8221 59.5973 47.1677 59.3299C47.5133 59.0625 47.7966 58.7232 47.998 58.3355C48.1994 57.9477 48.3141 57.5208 48.3341 57.0843L49.0237 45.0477C49.0694 44.2496 48.7962 43.466 48.2642 42.8694C47.7322 42.2727 46.985 41.9118 46.1869 41.8661L34.1503 41.1766Z" fill="#3F3F3F"/>
<path d="M14.4041 39.408C13.6319 39.2011 12.9736 38.696 12.5739 38.0037C12.1742 37.3114 12.0659 36.4887 12.2728 35.7165C12.4797 34.9444 12.9848 34.286 13.6771 33.8864C14.3694 33.4867 15.1921 33.3783 15.9643 33.5852C16.7364 33.7921 17.3948 34.2973 17.7945 34.9896C18.1942 35.6819 18.3025 36.5046 18.0956 37.2767C17.8887 38.0489 17.3835 38.7072 16.6912 39.1069C15.9989 39.5066 15.1762 39.6149 14.4041 39.408Z" fill="#3F3F3F"/>
<path d="M16.0066 54.9716C15.6183 55.0914 15.2099 55.1314 14.8058 55.0894C14.4017 55.0473 14.0103 54.9239 13.6551 54.7267C13.2998 54.5295 12.9882 54.2626 12.7387 53.9419C12.4893 53.6211 12.3073 53.2533 12.2036 52.8605C12.0215 52.0868 12.1524 51.2725 12.5677 50.5948C12.9831 49.9172 13.6493 49.431 14.4213 49.2421C14.7974 49.1222 15.1942 49.0813 15.5869 49.122C15.9795 49.1628 16.3595 49.2842 16.7029 49.4788C17.0464 49.6734 17.3459 49.9369 17.5826 50.2528C17.8194 50.5686 17.9883 50.93 18.0787 51.3143C18.1986 51.6903 18.2395 52.0872 18.1988 52.4798C18.1581 52.8724 18.0366 53.2524 17.842 53.5959C17.6474 53.9393 17.3839 54.2388 17.0681 54.4756C16.7522 54.7123 16.3908 54.8812 16.0066 54.9716Z" fill="#3F3F3F"/>
<path d="M25.0778 67.6996C24.5282 68.2737 23.7741 68.6076 22.9795 68.6285C22.185 68.6493 21.4144 68.3555 20.8354 67.811C20.2895 67.214 19.9929 66.4307 20.0065 65.6219C20.0201 64.8131 20.3429 64.0402 20.9086 63.462C21.179 63.1744 21.5059 62.9459 21.8689 62.7907C22.2319 62.6355 22.623 62.5571 23.0177 62.5603C23.4125 62.5635 23.8023 62.6483 24.1627 62.8093C24.5231 62.9704 24.8463 63.2042 25.112 63.4961C25.3995 63.7666 25.6281 64.0935 25.7832 64.4565C25.9384 64.8194 26.0169 65.2106 26.0136 65.6053C26.0104 66 25.9257 66.3898 25.7646 66.7502C25.6036 67.1106 25.3697 67.4338 25.0778 67.6996Z" fill="#3F3F3F"/>
<path d="M25.0778 67.6996C24.5282 68.2737 23.7741 68.6076 22.9795 68.6285C22.185 68.6493 21.4144 68.3555 20.8354 67.811C20.2895 67.214 19.9929 66.4307 20.0065 65.6219C20.0201 64.8131 20.3429 64.0402 20.9086 63.462C21.179 63.1744 21.5059 62.9459 21.8689 62.7907C22.2319 62.6355 22.623 62.5571 23.0177 62.5603C23.4125 62.5635 23.8023 62.6483 24.1627 62.8093C24.5231 62.9704 24.8463 63.2042 25.112 63.4961C25.3995 63.7666 25.6281 64.0935 25.7832 64.4565C25.9384 64.8194 26.0169 65.2106 26.0136 65.6053C26.0104 66 25.9257 66.3898 25.7646 66.7502C25.6036 67.1106 25.3697 67.4338 25.0778 67.6996Z" fill="url(#paint0_linear_76_172)"/>
<path d="M25.0778 67.6996C24.5282 68.2737 23.7741 68.6076 22.9795 68.6285C22.185 68.6493 21.4144 68.3555 20.8354 67.811C20.2895 67.214 19.9929 66.4307 20.0065 65.6219C20.0201 64.8131 20.3429 64.0402 20.9086 63.462C21.179 63.1744 21.5059 62.9459 21.8689 62.7907C22.2319 62.6355 22.623 62.5571 23.0177 62.5603C23.4125 62.5635 23.8023 62.6483 24.1627 62.8093C24.5231 62.9704 24.8463 63.2042 25.112 63.4961C25.3995 63.7666 25.6281 64.0935 25.7832 64.4565C25.9384 64.8194 26.0169 65.2106 26.0136 65.6053C26.0104 66 25.9257 66.3898 25.7646 66.7502C25.6036 67.1106 25.3697 67.4338 25.0778 67.6996Z" fill="url(#paint1_linear_76_172)"/>
<path d="M39.4081 74.1918C39.2012 74.9639 38.696 75.6223 38.0037 76.022C37.3114 76.4217 36.4887 76.53 35.7166 76.3231C34.9444 76.1162 34.2861 75.611 33.8864 74.9187C33.4867 74.2264 33.3784 73.4037 33.5853 72.6316C33.7922 71.8594 34.2973 71.2011 34.9896 70.8014C35.6819 70.4017 36.5046 70.2934 37.2768 70.5003C38.0489 70.7072 38.7073 71.2123 39.107 71.9046C39.5067 72.5969 39.615 73.4196 39.4081 74.1918Z" fill="#3F3F3F"/>
<path d="M54.9719 72.5893C55.0917 72.9775 55.1317 73.386 55.0897 73.7901C55.0476 74.1942 54.9242 74.5856 54.727 74.9408C54.5298 75.296 54.2629 75.6077 53.9422 75.8571C53.6214 76.1066 53.2536 76.2886 52.8608 76.3922C52.0871 76.5743 51.2728 76.4435 50.5951 76.0281C49.9175 75.6128 49.4313 74.9466 49.2424 74.1745C49.1225 73.7985 49.0816 73.4016 49.1223 73.009C49.163 72.6164 49.2845 72.2364 49.4791 71.8929C49.6737 71.5495 49.9372 71.25 50.2531 71.0132C50.5689 70.7765 50.9303 70.6076 51.3146 70.5172C51.6906 70.3972 52.0875 70.3563 52.4801 70.3971C52.8727 70.4378 53.2527 70.5593 53.5961 70.7539C53.9396 70.9484 54.2391 71.2119 54.4759 71.5278C54.7126 71.8437 54.8815 72.2051 54.9719 72.5893Z" fill="#3F3F3F"/>
<path d="M67.6998 63.5181C68.274 64.0677 68.6079 64.8219 68.6288 65.6164C68.6496 66.411 68.3558 67.1816 67.8113 67.7606C67.2143 68.3065 66.431 68.6031 65.6222 68.5895C64.8134 68.5759 64.0405 68.2531 63.4623 67.6874C63.1747 67.417 62.9462 67.09 62.791 66.7271C62.6358 66.3641 62.5574 65.973 62.5606 65.5782C62.5638 65.1835 62.6486 64.7937 62.8096 64.4333C62.9707 64.0729 63.2045 63.7497 63.4964 63.484C63.7669 63.1964 64.0938 62.9679 64.4568 62.8127C64.8197 62.6576 65.2109 62.5791 65.6056 62.5823C66.0003 62.5855 66.3901 62.6703 66.7505 62.8314C67.1109 62.9924 67.4341 63.2262 67.6998 63.5181Z" fill="#3F3F3F"/>
<path d="M74.1918 49.1878C74.964 49.3947 75.6223 49.8998 76.022 50.5921C76.4217 51.2844 76.53 52.1071 76.3231 52.8793C76.1162 53.6514 75.6111 54.3098 74.9188 54.7095C74.2265 55.1092 73.4038 55.2175 72.6316 55.0106C71.8595 54.8037 71.2011 54.2985 70.8014 53.6062C70.4017 52.9139 70.2934 52.0912 70.5003 51.3191C70.7072 50.5469 71.2124 49.8886 71.9047 49.4889C72.597 49.0892 73.4197 48.9809 74.1918 49.1878Z" fill="#3F3F3F"/>
<path d="M49.1878 14.404C49.3947 13.6319 49.8999 12.9735 50.5922 12.5738C51.2845 12.1742 52.1072 12.0658 52.8793 12.2727C53.6515 12.4796 54.3098 12.9848 54.7095 13.6771C55.1092 14.3694 55.2175 15.1921 55.0106 15.9642C54.8037 16.7364 54.2986 17.3947 53.6063 17.7944C52.914 18.1941 52.0913 18.3024 51.3191 18.0955C50.547 17.8886 49.8886 17.3835 49.4889 16.6912C49.0892 15.9989 48.9809 15.1762 49.1878 14.404Z" fill="#3F3F3F"/>
<path d="M33.6243 16.0063C33.5046 15.618 33.4645 15.2096 33.5066 14.8055C33.5487 14.4014 33.672 14.01 33.8692 13.6548C34.0664 13.2995 34.3334 12.9879 34.6541 12.7384C34.9748 12.489 35.3426 12.307 35.7355 12.2033C36.5092 12.0212 37.3235 12.1521 38.0011 12.5674C38.6788 12.9828 39.165 13.649 39.3538 14.4211C39.4738 14.7971 39.5147 15.1939 39.4739 15.5866C39.4332 15.9792 39.3117 16.3592 39.1172 16.7026C38.9226 17.0461 38.6591 17.3456 38.3432 17.5823C38.0273 17.8191 37.6659 17.988 37.2817 18.0784C36.9056 18.1983 36.5088 18.2392 36.1162 18.1985C35.7235 18.1578 35.3436 18.0363 35.0001 17.8417C34.6567 17.6471 34.3572 17.3836 34.1204 17.0678C33.8837 16.7519 33.7148 16.3905 33.6243 16.0063Z" fill="#3F3F3F"/>
<path d="M20.8962 25.0777C20.322 24.5281 19.9881 23.7739 19.9673 22.9794C19.9464 22.1849 20.2402 21.4142 20.7848 20.8353C21.3817 20.2893 22.165 19.9927 22.9738 20.0063C23.7826 20.0199 24.5555 20.3427 25.1338 20.9084C25.4213 21.1788 25.6499 21.5058 25.805 21.8688C25.9602 22.2317 26.0386 22.6229 26.0354 23.0176C26.0322 23.4123 25.9474 23.8021 25.7864 24.1625C25.6253 24.5229 25.3915 24.8461 25.0996 25.1118C24.8292 25.3994 24.5022 25.6279 24.1393 25.7831C23.7763 25.9383 23.3852 26.0167 22.9904 26.0135C22.5957 26.0103 22.2059 25.9255 21.8455 25.7645C21.4851 25.6034 21.1619 25.3696 20.8962 25.0777Z" fill="#3F3F3F"/>
<circle cx="64.5981" cy="32.7256" r="11.5723" stroke="url(#paint2_linear_76_172)" stroke-width="3"/>
<circle cx="64.5981" cy="32.7256" r="11.5723" stroke="url(#paint3_linear_76_172)" stroke-width="3"/>
</g>
<defs>
<linearGradient id="paint0_linear_76_172" x1="22.2208" y1="68.5537" x2="23.7962" y2="62.674" gradientUnits="userSpaceOnUse">
<stop stop-color="#6C63FF"/>
<stop offset="1" stop-color="#9A6AFF"/>
</linearGradient>
<linearGradient id="paint1_linear_76_172" x1="19.0004" y1="66.8944" x2="22.3841" y2="61.1221" gradientUnits="userSpaceOnUse">
<stop stop-color="#0C93FF"/>
<stop offset="1" stop-color="#B153F0"/>
</linearGradient>
<linearGradient id="paint2_linear_76_172" x1="53.0259" y1="32.7256" x2="76.1704" y2="32.7256" gradientUnits="userSpaceOnUse">
<stop stop-color="#6C63FF"/>
<stop offset="1" stop-color="#9A6AFF"/>
</linearGradient>
<linearGradient id="paint3_linear_76_172" x1="55.951" y1="19.0341" x2="80.5384" y2="25.6824" gradientUnits="userSpaceOnUse">
<stop stop-color="#0C93FF"/>
<stop offset="1" stop-color="#B153F0"/>
</linearGradient>
<clipPath id="clip0_76_172">
<rect width="72.3384" height="72.3384" fill="white" transform="translate(0 69.8735) rotate(-75)"/>
</clipPath>
</defs>
</svg>
