<svg width="128" height="128" viewBox="0 0 128 128" fill="none" xmlns="http://www.w3.org/2000/svg">
<g clip-path="url(#clip0_82_225)">
<mask id="mask0_82_225" style="mask-type:luminance" maskUnits="userSpaceOnUse" x="0" y="0" width="128" height="128">
<path d="M128 0H0V128H128V0Z" fill="white"/>
</mask>
<g mask="url(#mask0_82_225)">
<path fill-rule="evenodd" clip-rule="evenodd" d="M68.4136 49.9613C67.1062 50.0165 66.1151 49.8789 65.3031 49.5208C64.2706 49.0668 63.3623 48.1996 62.4813 46.5479L62.3026 46.2037C58.1872 37.9868 51.6081 31.8618 43.2808 27.8565C40.8033 26.6729 38.1195 25.6819 35.1463 25.5305C31.2374 25.324 27.9479 26.4801 25.8558 28.9026C23.7636 31.325 23.103 34.7523 23.8875 38.6199L24.0389 39.3082C24.8097 42.7627 26.1173 46.1764 28.5672 49.0254C28.7049 49.1906 28.7875 49.3145 28.8425 49.3969C28.7324 49.4521 28.581 49.5346 28.3746 49.6036C27.7276 49.8237 27.2184 50.3056 26.9155 50.6081C26.8192 50.6909 26.7504 50.7733 26.6679 50.8423L26.5852 50.9248L26.5577 50.9661L26.4751 51.0349C26.3926 51.1314 26.2962 51.2001 26.2136 51.2825H26.1999C26.1999 51.2825 26.1586 51.3239 26.1311 51.3515C26.1173 51.3653 26.1035 51.3791 26.0898 51.3929H26.0622C26.0071 51.3377 25.9383 51.269 25.8695 51.1587C21.9468 45.6945 19.0702 40.0789 19.9648 33.5135C20.5704 29.1779 22.7727 25.8057 25.8971 23.81C29.0352 21.8005 33.2195 21.0847 37.8853 22.2684C52.7917 26.0397 62.1235 36.0185 68.4136 49.9475V49.9613Z" fill="white"/>
<path fill-rule="evenodd" clip-rule="evenodd" d="M61.2706 108.086C61.1467 108.431 60.9129 108.719 60.6786 108.939C60.4448 109.173 60.1695 109.394 59.908 109.587C51.6082 115.683 42.6206 120.322 31.8572 120.075C26.3103 119.937 21.5618 118.491 17.6254 115.794C13.6889 113.11 10.5782 109.215 8.25215 104.274C3.97156 95.1617 5.7471 86.2289 9.69735 77.8191C16.1664 64.0417 26.8609 54.5722 40.721 48.6261C41.0928 48.4747 41.4643 48.3784 41.8497 48.2956C42.2215 48.227 42.5517 48.1718 42.9784 48.0755C42.9922 48.0617 43.0335 48.0617 43.0608 48.0617H43.0884C43.3226 47.9927 43.5566 48.0617 43.7218 48.227C43.8594 48.3646 43.9281 48.5433 43.9281 48.7361C43.8456 51.1447 43.4051 53.113 42.414 54.7785C41.423 56.4439 39.9227 57.7379 37.8582 58.9076C26.2828 65.4043 17.5978 74.5985 14.4734 87.9081C12.7667 95.0929 14.377 101.451 18.1758 105.843C21.9747 110.233 28.0308 112.752 35.3807 112.118C41.2166 111.623 46.5432 109.518 51.1405 105.898C51.8835 105.319 52.6683 104.92 53.4114 104.563C54.1686 104.204 54.8567 103.902 55.5174 103.503C56.2194 103.063 56.8799 102.883 57.4991 103.021C58.1187 103.159 58.5592 103.558 58.8618 103.943C59.1646 104.315 59.4537 104.796 59.6741 105.141C59.9218 105.512 60.1281 105.774 60.3347 105.911C60.7476 106.187 61.064 106.503 61.243 106.889C61.422 107.302 61.4082 107.715 61.2568 108.086H61.2706Z" fill="white"/>
<path fill-rule="evenodd" clip-rule="evenodd" d="M83.4998 56.1004C83.2934 56.7058 82.867 57.2428 82.2062 57.6968C81.5038 58.1788 80.6646 58.6465 79.7973 58.977C78.9439 59.2936 78.008 59.5 77.1131 59.4037C76.5215 59.3347 76.0672 59.0732 75.7644 58.6465C75.4891 58.2612 75.3928 57.7934 75.3515 57.394C75.3239 56.9811 75.3376 56.5547 75.3376 56.1828C75.3376 55.8112 75.3376 55.4946 75.2966 55.2607C73.6035 45.8599 68.0703 36.473 60.7207 29.192C53.3706 21.8971 44.2453 16.7632 35.4638 15.7446C21.8788 14.1893 11.5697 25.338 14.1573 38.7854C15.2171 44.2772 17.3093 49.3698 20.6814 53.7191C21.3559 54.5863 21.7275 55.3846 21.7825 56.128C21.8513 56.9124 21.6036 57.5454 21.2182 58.0549C20.8466 58.5503 20.3511 58.9494 19.8968 59.2799C19.4289 59.6376 19.0297 59.9128 18.7269 60.2157C18.1763 60.7387 17.6121 61.0692 17.0203 61.0692C16.4008 61.0829 15.9467 60.7249 15.6576 60.3809C15.3548 60.0367 15.1346 59.61 14.9556 59.2523C14.763 58.8669 14.6391 58.6055 14.5152 58.4264C9.24363 51.3516 6.10547 42.3226 6.10547 34.6975C6.22934 25.4895 10.0007 18.0156 15.9329 13.3222C21.8788 8.64244 29.917 6.75682 38.5193 8.60116C61.9867 13.6525 75.5029 29.6048 82.5086 51.6269C82.6326 51.985 82.8118 52.3703 83.0182 52.8522C83.211 53.3062 83.431 53.8292 83.5414 54.3662C83.6654 54.903 83.7062 55.5084 83.4998 56.1004Z" fill="white"/>
<path fill-rule="evenodd" clip-rule="evenodd" d="M104.559 37.2697C105.04 33.8149 104.325 30.8006 102.398 28.681C100.608 26.6853 97.9241 25.6529 94.7585 25.5979H94.1257C88.6201 25.7081 83.9817 28.0479 79.8935 31.0897C79.4807 31.4062 79.1781 31.5714 78.9715 31.654C78.9166 31.6815 78.8752 31.6953 78.8476 31.6953C78.8063 31.7091 78.779 31.7091 78.779 31.7091C78.7514 31.7091 78.7238 31.6815 78.6686 31.6265C78.5447 31.4889 78.366 31.2411 78.1319 30.8006C77.9117 30.374 77.6227 29.961 77.4026 29.6582C77.3887 29.6307 77.375 29.6032 77.3612 29.5894C77.3474 29.5619 77.3198 29.5344 77.306 29.5069C77.0445 29.1214 76.9207 28.9013 76.8658 28.7498C76.8382 28.6673 76.8658 28.6535 76.8658 28.6535C76.9069 28.5846 77.0859 28.3232 77.7051 27.9378C83.0593 24.5657 88.2073 21.7716 94.3593 21.7578H94.8553C99.6729 21.8541 103.554 23.9049 105.907 27.0156C108.275 30.1262 109.21 34.393 107.944 39.1003L107.821 39.5544C103.347 54.5985 92.5705 63.545 78.187 69.0368L77.829 69.1744C77.829 69.1744 77.7327 69.2158 77.6913 69.2293C77.6779 68.9678 77.664 68.7201 77.6364 68.4724V68.4173C77.6364 68.3348 77.6227 68.2523 77.6227 68.1833C77.5813 67.5641 77.5675 67.0409 77.6089 66.5593C77.6503 66.0912 77.7465 65.761 77.8842 65.513C78.0218 65.2929 78.2284 65.0728 78.6275 64.9076C83.8305 62.6226 88.6473 59.8563 93.0521 56.0849C98.8465 51.1299 103.471 45.2941 104.572 37.2697H104.559Z" fill="white"/>
<path fill-rule="evenodd" clip-rule="evenodd" d="M122.176 34.4769V34.4493C122.135 20.2725 111.785 8.95861 98.0343 7.95385C87.1887 7.15555 78.0354 11.2984 69.667 17.3684C69.4742 17.4922 69.2265 17.6299 68.8412 17.8363C68.511 18.029 68.0981 18.2905 67.7676 18.6209C67.4372 18.9649 67.1481 19.4467 67.1895 20.0661C67.2309 20.6579 67.5748 21.236 68.1254 21.8003C68.4558 22.1445 68.7449 22.516 69.1302 22.9427C69.4742 23.3419 69.8871 23.7685 70.3828 24.0713C70.9058 24.3879 71.4977 24.5669 72.2135 24.4705C72.9017 24.3741 73.6171 24.0301 74.3881 23.4382C78.5446 20.245 83.1415 17.7537 88.2759 16.4599C95.0199 14.7532 101.227 15.6892 105.921 18.5658C110.601 21.4562 113.808 26.3149 114.524 32.5774C115.198 38.5647 113.188 44.1254 110.257 49.1767C102.067 63.2984 89.8583 72.1486 73.7275 75.1215C72.8327 75.2868 72.1031 75.493 71.5663 75.7821C71.0158 76.0712 70.5891 76.4703 70.3966 77.0208C70.2175 77.5576 70.2727 78.122 70.4242 78.6588C70.5753 79.1958 70.8371 79.7875 71.1397 80.4348C71.8141 81.838 72.7226 82.5125 73.8238 82.6917C74.8286 82.8573 75.9159 82.5956 76.8242 82.4028C92.1023 79.3059 104.118 70.9237 113.422 58.8529C118.818 51.847 122.466 43.7812 122.176 34.4769ZM121.488 34.4769H120.8L121.488 34.4631V34.4769Z" fill="white"/>
<path fill-rule="evenodd" clip-rule="evenodd" d="M113.503 113.631C107.695 118.82 99.4783 121.243 90.2559 119.659C82.1359 118.27 74.7856 115.076 68.3855 109.557C55.1307 98.1195 45.6199 84.6307 44.6426 65.6502L45.0417 65.6227H45.3308L46.019 65.6364V65.5813H45.3308L44.6426 65.6088C44.7803 58.1901 46.019 50.3036 49.7904 42.9122C50.0657 42.3754 50.341 41.9214 50.6439 41.5634C50.9467 41.2056 51.3183 40.9028 51.7999 40.8065C52.3093 40.71 52.7633 40.8614 53.1762 41.1367C53.5891 41.3981 53.9883 41.7972 54.415 42.3068C55.3647 43.4628 56.2043 44.5638 56.5347 45.8716C56.8649 47.2204 56.6448 48.6792 55.7638 50.5375C51.8412 58.8235 51.7035 67.8663 54.4839 76.62C59.2047 91.5539 68.6881 102.688 82.8927 109.392C90.6967 113.08 98.4871 114.058 106.346 108.883C109.801 106.611 112.017 103.914 113.269 100.872C114.536 97.8299 114.853 94.3619 114.412 90.5219C113.724 84.4515 111.356 78.8636 107.791 73.881C106.801 72.4908 106.457 71.2796 106.856 70.1372C107.227 69.0774 108.177 68.2792 109.181 67.5358C109.911 66.999 110.572 66.71 111.205 66.6962C111.879 66.6824 112.389 66.9853 112.76 67.3706C113.118 67.7425 113.365 68.2102 113.572 68.6231C113.778 69.0637 113.916 69.3941 114.081 69.6693C118.005 76.2485 121.775 83.0611 122.189 91.1963C122.642 100.527 119.312 108.442 113.503 113.631Z" fill="white"/>
<path fill-rule="evenodd" clip-rule="evenodd" d="M60.3896 78.1508C60.1968 77.7793 60.0454 77.4626 59.9629 77.1873C60.8163 76.9672 61.6832 76.7882 62.4818 76.8572C63.2938 76.9258 63.9683 77.2287 64.4774 78.0683C65.0969 79.1143 65.6471 80.2017 66.2253 81.3305L66.3081 81.4953C66.8997 82.6657 67.5331 83.9041 68.2623 85.0745C72.6533 92.2041 78.8743 97.2553 86.2656 100.82C89.1008 102.196 92.1976 103.008 95.4872 102.774L96.052 102.719C98.8736 102.403 101.186 101.288 102.755 99.4025C104.31 97.5305 104.984 95.0393 104.806 92.2177L104.75 91.6529C104.282 87.1937 102.838 82.9681 100.126 79.3347C99.6992 78.7427 99.6304 78.4537 99.6168 78.3712H99.6304C99.6304 78.3712 99.644 78.3436 99.6576 78.3298C99.7816 78.206 100.002 78.0545 100.415 77.8069L100.498 77.7517C100.842 77.5453 101.323 77.2425 101.736 76.8845C102.259 76.4167 102.507 76.3477 102.548 76.3477C102.603 76.3753 102.838 76.5267 103.195 77.1597C106.072 82.1289 108.398 86.9737 108.384 92.5345V93.0161C108.246 97.9705 106.168 101.825 102.975 104.123C99.672 106.49 95.0056 107.317 89.6512 105.706C76.0115 101.604 66.8448 92.1625 60.9402 79.2519C60.7887 78.9217 60.5548 78.4813 60.3896 78.1508Z" fill="white"/>
<path fill-rule="evenodd" clip-rule="evenodd" d="M23.9417 89.3675C23.0057 93.4691 23.5838 97.0483 25.786 99.5115C27.9745 101.962 31.4705 102.953 35.6547 102.526C40.9401 101.989 45.3032 99.4843 49.1157 96.3595C49.4462 96.0843 49.6801 95.9611 49.8315 95.9059C49.9002 95.9883 49.9968 96.1539 50.1068 96.4427L50.2031 96.6627C50.4784 97.1859 50.8775 97.6123 51.1389 97.8739C51.1803 97.9155 51.2079 97.9563 51.2493 97.9979C51.2904 98.0251 51.318 98.0531 51.3456 98.0939C51.5933 98.3419 51.7585 98.5075 51.8685 98.6723C51.8685 98.6723 51.8733 98.6819 51.8823 98.6995C51.8272 98.7827 51.6761 98.9475 51.3593 99.1675C45.8124 103.187 40.3069 106.408 33.5213 106.339C24.5335 106.242 18.4086 99.2363 20.0189 90.4691C22.2074 78.4943 29.6261 70.3326 39.7152 63.8359C39.9215 65.1985 39.8529 66.3135 39.5362 67.2769C39.0819 68.6395 38.0635 69.9196 36.164 71.2408C29.9427 75.5767 25.6759 81.7835 23.9417 89.3675Z" fill="white"/>
</g>
</g>
<defs>
<clipPath id="clip0_82_225">
<rect width="128" height="128" fill="white"/>
</clipPath>
</defs>
</svg>
