<svg width="128" height="128" viewBox="0 0 128 128" fill="none" xmlns="http://www.w3.org/2000/svg">
<g clip-path="url(#clip0_82_225)">
<mask id="mask0_82_225" style="mask-type:luminance" maskUnits="userSpaceOnUse" x="0" y="0" width="128" height="128">
<path d="M128 0H0V128H128V0Z" fill="white"/>
</mask>
<g mask="url(#mask0_82_225)">
<path fill-rule="evenodd" clip-rule="evenodd" d="M66.1035 57.3102C65.4806 57.3365 65.0084 57.2709 64.6215 57.1003C64.1296 56.884 63.6969 56.4708 63.2771 55.6839L63.192 55.5199C61.2313 51.6051 58.0968 48.6869 54.1293 46.7787C52.949 46.2147 51.6703 45.7426 50.2538 45.6705C48.3914 45.5721 46.8242 46.1229 45.8274 47.2771C44.8307 48.4312 44.5159 50.0641 44.8897 51.9067L44.9618 52.2347C45.3291 53.8805 45.952 55.5069 47.1193 56.8643C47.1849 56.943 47.2242 57.002 47.2504 57.0413C47.198 57.0676 47.1258 57.1069 47.0275 57.1397C46.7193 57.2446 46.4767 57.4742 46.3323 57.6184C46.2865 57.6578 46.2537 57.6971 46.2143 57.7299L46.175 57.7692L46.1619 57.7889L46.1225 57.8217C46.0832 57.8677 46.0373 57.9004 45.9979 57.9397H45.9914C45.9914 57.9397 45.9717 57.9594 45.9586 57.9725C45.952 57.9791 45.9455 57.9857 45.9389 57.9922H45.9258C45.8996 57.9659 45.8668 57.9332 45.834 57.8807C43.9651 55.2773 42.5945 52.6018 43.0208 49.4739C43.3093 47.4082 44.3585 45.8016 45.8471 44.8508C47.3422 43.8934 49.3358 43.5523 51.5587 44.1163C58.6607 45.9131 63.1067 50.6674 66.1035 57.3036V57.3102Z" fill="white"/>
<path fill-rule="evenodd" clip-rule="evenodd" d="M62.7003 85.0023C62.6413 85.1666 62.5299 85.3042 62.4183 85.409C62.3069 85.5203 62.1757 85.6255 62.0511 85.7173C58.0968 88.622 53.8148 90.8319 48.6867 90.7142C46.044 90.6486 43.7817 89.9599 41.9062 88.6746C40.0307 87.3959 38.5487 85.5401 37.4405 83.1861C35.401 78.8448 36.247 74.5889 38.129 70.5822C41.2111 64.0182 46.3063 59.5066 52.9097 56.6736C53.0869 56.6015 53.2639 56.5556 53.4475 56.5162C53.6247 56.4835 53.782 56.4572 53.9853 56.4113C53.9918 56.4047 54.0115 56.4047 54.0245 56.4047H54.0377C54.1493 56.3719 54.2607 56.4047 54.3394 56.4835C54.405 56.549 54.4377 56.6342 54.4377 56.726C54.3984 57.8736 54.1886 58.8113 53.7164 59.6049C53.2442 60.3983 52.5294 61.0148 51.5458 61.5721C46.0309 64.6673 41.893 69.0478 40.4045 75.389C39.5914 78.8121 40.3586 81.8414 42.1685 83.9335C43.9784 86.0253 46.8637 87.2255 50.3655 86.9236C53.1459 86.6877 55.6837 85.6845 57.874 83.9598C58.228 83.6843 58.6019 83.4941 58.9559 83.3237C59.3167 83.153 59.6445 83.0089 59.9593 82.8187C60.2937 82.6091 60.6084 82.5237 60.9035 82.5892C61.1987 82.6548 61.4085 82.845 61.5527 83.0287C61.697 83.2056 61.8347 83.435 61.9397 83.5993C62.0577 83.7761 62.156 83.9008 62.2544 83.9663C62.4511 84.0974 62.6019 84.2484 62.6872 84.4321C62.7725 84.6288 62.7659 84.8254 62.6937 85.0023H62.7003Z" fill="white"/>
<path fill-rule="evenodd" clip-rule="evenodd" d="M73.2911 60.2347C73.1928 60.5232 72.9896 60.779 72.6748 60.9953C72.3401 61.2249 71.9403 61.4478 71.5271 61.6052C71.1205 61.7561 70.6746 61.8544 70.2483 61.8086C69.9664 61.7757 69.75 61.6511 69.6057 61.4478C69.4745 61.2642 69.4287 61.0413 69.409 60.851C69.3958 60.6543 69.4024 60.4512 69.4024 60.274C69.4024 60.097 69.4024 59.9461 69.3828 59.8347C68.5762 55.3558 65.94 50.8836 62.4383 47.4146C58.9365 43.9391 54.5889 41.4931 50.4051 41.0078C43.9327 40.2668 39.0211 45.5785 40.2539 51.9853C40.7588 54.6017 41.7556 57.028 43.3622 59.1002C43.6836 59.5134 43.8606 59.8937 43.8868 60.2479C43.9196 60.6216 43.8016 60.9232 43.618 61.1659C43.4409 61.4019 43.2048 61.5921 42.9884 61.7495C42.7655 61.92 42.5753 62.0511 42.431 62.1954C42.1687 62.4446 41.8999 62.602 41.6179 62.602C41.3228 62.6086 41.1064 62.438 40.9687 62.2741C40.8244 62.1101 40.7195 61.9068 40.6343 61.7364C40.5425 61.5528 40.4834 61.4282 40.4244 61.3429C37.9129 57.9723 36.4177 53.6705 36.4177 50.0376C36.4767 45.6506 38.2735 42.0898 41.0999 39.8537C43.9327 37.6241 47.7624 36.7257 51.8608 37.6044C63.0415 40.0111 69.4811 47.6113 72.8189 58.1034C72.8779 58.274 72.9633 58.4576 73.0616 58.6872C73.1535 58.9035 73.2583 59.1526 73.3109 59.4085C73.37 59.6642 73.3894 59.9527 73.2911 60.2347Z" fill="white"/>
<path fill-rule="evenodd" clip-rule="evenodd" d="M83.3244 51.2634C83.5538 49.6175 83.2131 48.1814 82.2949 47.1715C81.4423 46.2207 80.1635 45.7288 78.6553 45.7026H78.3538C75.7308 45.7551 73.5209 46.8699 71.5731 48.3191C71.3764 48.4699 71.2323 48.5486 71.1338 48.5879C71.1077 48.601 71.088 48.6076 71.0748 48.6076C71.0551 48.6142 71.0421 48.6142 71.0421 48.6142C71.029 48.6142 71.0158 48.601 70.9895 48.5748C70.9305 48.5093 70.8454 48.3912 70.7338 48.1814C70.6289 47.9781 70.4912 47.7813 70.3863 47.6371C70.3798 47.624 70.3732 47.6109 70.3666 47.6043C70.3601 47.5912 70.3469 47.5781 70.3403 47.565C70.2157 47.3813 70.1567 47.2764 70.1306 47.2043C70.1175 47.1649 70.1306 47.1584 70.1306 47.1584C70.1502 47.1256 70.2355 47.001 70.5305 46.8174C73.0814 45.2108 75.5341 43.8796 78.4651 43.873H78.7014C80.9967 43.9189 82.8457 44.896 83.967 46.378C85.0948 47.86 85.5408 49.8929 84.9374 52.1356L84.8787 52.352C82.7473 59.5195 77.6129 63.7819 70.7601 66.3984L70.5895 66.464C70.5895 66.464 70.5436 66.4837 70.5239 66.4901C70.5175 66.3656 70.5109 66.2475 70.4978 66.1295V66.1032C70.4978 66.064 70.4912 66.0247 70.4912 65.9918C70.4715 65.6968 70.4649 65.4475 70.4846 65.218C70.5044 64.995 70.5502 64.8377 70.6158 64.7196C70.6814 64.6147 70.7798 64.5098 70.97 64.4311C73.4488 63.3425 75.7437 62.0245 77.8423 60.2277C80.603 57.8669 82.8064 55.0866 83.3309 51.2634H83.3244Z" fill="white"/>
<path fill-rule="evenodd" clip-rule="evenodd" d="M91.7179 49.9329V49.9198C91.6985 43.1654 86.7672 37.7751 80.216 37.2964C75.0488 36.916 70.6878 38.8899 66.7008 41.7818C66.6089 41.8408 66.4909 41.9064 66.3074 42.0047C66.1501 42.0965 65.9533 42.2211 65.7959 42.3785C65.6384 42.5425 65.5007 42.772 65.5204 43.0671C65.5402 43.349 65.704 43.6245 65.9663 43.8933C66.1238 44.0573 66.2615 44.2343 66.4451 44.4376C66.6089 44.6278 66.8057 44.8311 67.0418 44.9753C67.291 45.1261 67.573 45.2114 67.9141 45.1655C68.2419 45.1196 68.5828 44.9557 68.9501 44.6737C70.9304 43.1523 73.1205 41.9654 75.5668 41.349C78.7798 40.5358 81.7372 40.9818 83.9734 42.3523C86.2031 43.7294 87.7311 46.0442 88.0722 49.0279C88.3935 51.8805 87.4357 54.5298 86.0392 56.9364C82.1374 63.6645 76.3207 67.881 68.6354 69.2974C68.2091 69.3762 67.8615 69.4744 67.6057 69.6122C67.3434 69.7499 67.1401 69.94 67.0484 70.2023C66.9631 70.4581 66.9894 70.7269 67.0615 70.9827C67.1335 71.2386 67.2583 71.5205 67.4024 71.8289C67.7238 72.4974 68.1566 72.8187 68.6812 72.9041C69.16 72.983 69.678 72.8584 70.1108 72.7665C77.3898 71.291 83.1142 67.2974 87.5474 61.5465C90.1178 58.2086 91.8559 54.3658 91.7179 49.9329ZM91.3901 49.9329H91.0623L91.3901 49.9263V49.9329Z" fill="white"/>
<path fill-rule="evenodd" clip-rule="evenodd" d="M87.5859 87.6449C84.8187 90.117 80.904 91.2711 76.5101 90.5168C72.6414 89.8547 69.1395 88.3332 66.0903 85.7037C59.7752 80.2544 55.2439 73.8278 54.7783 64.7849L54.9685 64.7718H55.1062L55.4341 64.7783V64.752H55.1062L54.7783 64.7652C54.8439 61.2306 55.4341 57.4732 57.2309 53.9517C57.3621 53.6959 57.4932 53.4796 57.6375 53.3091C57.7818 53.1386 57.9588 52.9943 58.1883 52.9485C58.431 52.9025 58.6473 52.9746 58.844 53.1058C59.0408 53.2303 59.2309 53.4205 59.4342 53.6632C59.8867 54.214 60.2867 54.7386 60.4442 55.3616C60.6015 56.0043 60.4966 56.6993 60.0769 57.5846C58.208 61.5324 58.1424 65.8407 59.4671 70.0113C61.7162 77.1263 66.2345 82.4311 73.002 85.6251C76.7201 87.3822 80.4317 87.848 84.1761 85.3824C85.8219 84.3003 86.8777 83.015 87.4746 81.5659C88.0779 80.1164 88.2289 78.4641 88.0189 76.6346C87.6911 73.7425 86.5629 71.0802 84.8645 68.7063C84.3926 68.044 84.2287 67.4669 84.4189 66.9226C84.5958 66.4177 85.0482 66.0374 85.5269 65.6832C85.8745 65.4275 86.1893 65.2898 86.4908 65.2832C86.8121 65.2766 87.0549 65.4209 87.2318 65.6045C87.4025 65.7817 87.5203 66.0046 87.6187 66.2013C87.717 66.4112 87.7825 66.5686 87.8614 66.6997C89.7306 69.8343 91.5269 73.08 91.724 76.9559C91.9401 81.4016 90.3534 85.1723 87.5859 87.6449Z" fill="white"/>
<path fill-rule="evenodd" clip-rule="evenodd" d="M62.2807 70.7404C62.1888 70.5634 62.1167 70.4126 62.0774 70.2814C62.484 70.1765 62.897 70.0912 63.2775 70.1241C63.6643 70.1568 63.9857 70.3011 64.2283 70.7011C64.5234 71.1995 64.7856 71.7175 65.061 72.2553L65.1005 72.3338C65.3823 72.8915 65.6841 73.4815 66.0315 74.0391C68.1235 77.4359 71.0875 79.8425 74.6089 81.5409C75.9597 82.1964 77.4351 82.5833 79.0024 82.472L79.2715 82.4457C80.6158 82.2952 81.7173 81.7638 82.4652 80.8655C83.2057 79.9736 83.527 78.7867 83.442 77.4424L83.4157 77.1733C83.1928 75.0488 82.5044 73.0355 81.2123 71.3045C81.0092 71.0224 80.9764 70.8847 80.9699 70.8454H80.9764C80.9764 70.8454 80.9829 70.8323 80.9894 70.8257C81.0484 70.7667 81.1536 70.6946 81.3503 70.5766L81.3896 70.5503C81.5535 70.452 81.7829 70.3077 81.9796 70.1371C82.2288 69.9142 82.347 69.8813 82.3664 69.8813C82.3927 69.8945 82.5044 69.9666 82.6748 70.2683C84.0454 72.6357 85.1534 74.944 85.1469 77.5933V77.8228C85.0814 80.1832 84.0911 82.0196 82.57 83.1146C80.9962 84.2424 78.773 84.6362 76.222 83.8689C69.7235 81.9144 65.3562 77.4161 62.543 71.265C62.4709 71.1077 62.3594 70.8979 62.2807 70.7404Z" fill="white"/>
<path fill-rule="evenodd" clip-rule="evenodd" d="M44.9155 76.0846C44.4696 78.0387 44.7451 79.744 45.7942 80.9175C46.8369 82.085 48.5026 82.5572 50.496 82.3537C53.0142 82.0979 55.093 80.9046 56.9094 79.4158C57.0668 79.2847 57.1782 79.226 57.2504 79.1997C57.2831 79.2389 57.3291 79.3178 57.3815 79.4554L57.4274 79.5603C57.5586 79.8095 57.7487 80.0127 57.8733 80.1373C57.893 80.1571 57.9061 80.1766 57.9259 80.1964C57.9454 80.2093 57.9586 80.2227 57.9717 80.2421C58.0897 80.3603 58.1684 80.4392 58.2209 80.5177C58.2209 80.5177 58.2231 80.5223 58.2274 80.5307C58.2012 80.5703 58.1292 80.6488 57.9783 80.7536C55.3355 82.6685 52.7125 84.203 49.4796 84.1702C45.1975 84.1241 42.2794 80.7864 43.0466 76.6094C44.0893 70.9042 47.6238 67.0156 52.4306 63.9204C52.5289 64.5696 52.4962 65.1008 52.3453 65.5598C52.1289 66.209 51.6437 66.8189 50.7387 67.4484C47.7746 69.5141 45.7418 72.4713 44.9155 76.0846Z" fill="white"/>
</g>
</g>
<defs>
<clipPath id="clip0_82_225">
<rect width="128" height="128" fill="white"/>
</clipPath>
</defs>
</svg>
