<svg width="72" height="72" viewBox="0 0 72 72" fill="none" xmlns="http://www.w3.org/2000/svg">
<path d="M36.0029 24.436C36.7883 23.6269 37.7537 23.2438 38.8828 23.4468V23.4478C40.0012 23.65 40.777 24.347 41.1973 25.2349C41.5809 25.2323 41.9429 25.2088 42.3037 25.1978C42.6798 25.1863 43.0476 25.1918 43.4062 25.2593L43.6572 25.313C46.2193 25.9399 47.7038 28.6286 46.957 31.2417C46.9423 31.2938 46.9378 31.372 46.9482 31.4478C46.9593 31.5278 46.9827 31.5786 47.001 31.5962H47.002C48.0905 32.6389 48.679 34.2145 48.6787 35.8198C48.6784 37.4089 48.0993 39.035 46.8477 40.2153C46.9005 40.5207 46.9675 40.8144 47.0254 41.1147C47.0858 41.4279 47.1346 41.742 47.1406 42.0591C47.194 45.1414 44.4773 47.3746 41.5488 46.6743C41.4335 46.6467 41.3702 46.6329 41.3174 46.644C41.2766 46.6527 41.2254 46.6814 41.1592 46.7974C40.5706 47.8292 39.73 48.4363 38.8096 48.5767C37.8892 48.717 36.9066 48.3876 36.0391 47.5845L36.0381 47.5835C36.0295 47.5752 36.0174 47.5668 35.9971 47.5542C35.9956 47.5533 35.9938 47.5523 35.9922 47.5513C35.4458 48.1028 34.8058 48.5106 34.0068 48.5786C33.3144 48.6385 32.7003 48.5252 32.1719 48.2388C31.6436 47.9523 31.2079 47.4967 30.8652 46.8833C30.7949 46.7579 30.7438 46.7018 30.6914 46.6763C30.6413 46.6519 30.5692 46.6461 30.4297 46.6802C28.654 47.1164 27.1459 46.5631 25.9531 45.2046C24.7797 43.8653 24.5532 42.287 25.1055 40.605C25.1502 40.4686 25.163 40.3763 25.1484 40.2974C25.1342 40.2203 25.0915 40.1411 24.9932 40.0386C22.7589 37.7047 22.7254 34.1158 24.8838 31.7124C24.9298 31.6612 24.9787 31.5791 25.0098 31.4927C25.0422 31.4026 25.0473 31.3299 25.0352 31.2915V31.2905C24.4595 29.5256 25.0268 27.7724 26.1455 26.5972C27.2643 25.4219 28.944 24.8159 30.5996 25.3618H30.6006C30.6175 25.3676 30.6388 25.3705 30.667 25.3726C30.6732 25.373 30.6814 25.3731 30.6904 25.3735C31.8063 23.0714 34.5371 22.87 36.0029 24.436ZM38.3115 25.1675C37.8786 25.1712 37.5164 25.3403 37.2617 25.6294C37.0062 25.9194 36.8535 26.3365 36.8525 26.8413V45.1704C36.8525 45.2704 36.8511 45.3637 36.8584 45.4536H36.8574C36.9273 46.2112 37.515 46.7976 38.2246 46.8364C38.9841 46.8792 39.6308 46.3738 39.7783 45.6167C39.7896 45.5597 39.7941 45.5001 39.7998 45.4341C39.8053 45.3702 39.8121 45.2995 39.8271 45.23V45.229C39.8929 44.9406 40.0411 44.7226 40.2539 44.606C40.4405 44.5038 40.6642 44.4869 40.9004 44.5532L41.0029 44.5864L41.25 44.689C41.3311 44.725 41.4112 44.7623 41.4893 44.7974C43.0846 45.5132 44.8343 44.6772 45.3145 42.9507C45.4683 42.3976 45.4873 41.8513 45.2754 41.2954C44.1868 41.7625 43.0948 41.9496 41.9424 41.7671H41.9414C41.9082 41.7617 41.855 41.7738 41.7832 41.812C41.7147 41.8485 41.6445 41.9003 41.584 41.9487C40.8655 42.5345 40.0544 42.8979 39.1162 42.8774C38.7985 42.87 38.5353 42.7621 38.3564 42.5796C38.1773 42.3966 38.0909 42.1457 38.1123 41.8687C38.1319 41.6172 38.2427 41.4151 38.4355 41.2798C38.6252 41.1468 38.885 41.0852 39.1924 41.0903C40.3385 41.1127 41.1487 40.0892 40.8926 38.9282C40.8213 38.6073 40.8284 38.3261 40.9219 38.106C41.0175 37.881 41.1996 37.7309 41.4521 37.6704C41.7183 37.607 41.9713 37.6496 42.1729 37.8032C42.3726 37.9555 42.5091 38.2073 42.5674 38.5376C42.6531 39.0204 42.6418 39.5315 42.666 40.0454C42.7337 40.055 42.8092 40.0648 42.8887 40.0649C44.5558 40.0533 46.0891 38.9701 46.6641 37.3979C47.2868 35.6914 46.8483 33.7832 45.5791 32.646C45.4024 32.4877 45.2654 32.3639 45.168 32.2563C45.0698 32.148 45.0029 32.0464 44.9766 31.9282C44.9504 31.8103 44.9673 31.6896 45.0078 31.5503C45.048 31.4121 45.1149 31.2422 45.1992 31.0249C45.6357 29.9 45.4623 28.8527 44.708 27.9341C44.3427 27.4877 43.9252 27.1989 43.4648 27.0522C43.0042 26.9055 42.4931 26.8992 41.9375 27.0298C41.7795 27.0665 41.6679 27.1171 41.584 27.1948C41.5006 27.2721 41.435 27.3853 41.3877 27.5669C41.1042 28.652 40.414 29.4103 39.3652 29.7866C39.1301 29.8708 38.8995 29.8623 38.7031 29.772C38.507 29.6817 38.3535 29.5129 38.2646 29.2905H38.2637C38.1789 29.0762 38.175 28.8603 38.251 28.6655C38.3267 28.4716 38.4787 28.3072 38.6914 28.187L38.6924 28.186C38.7714 28.142 38.8551 28.1028 38.9307 28.0649C39.0079 28.0262 39.0796 27.9875 39.1455 27.9429C39.6859 27.5771 39.9253 26.8907 39.7363 26.2612C39.5312 25.5806 38.981 25.162 38.3115 25.1675ZM34.123 25.2437C33.5699 25.0537 33.0671 25.1657 32.6426 25.5854L32.6416 25.5845C32.2009 26.021 32.1051 26.5764 32.2334 27.0649C32.3466 27.4955 32.6331 27.8699 33.0078 28.064L33.1738 28.1362L33.2725 28.1763C33.4937 28.2778 33.6491 28.435 33.7295 28.6245C33.8209 28.8402 33.8102 29.0861 33.708 29.3188C33.607 29.5499 33.4366 29.7147 33.2197 29.7905C33.0037 29.866 32.7524 29.8504 32.4951 29.7427C31.5121 29.3303 30.8458 28.5936 30.584 27.5376C30.5416 27.3679 30.4801 27.2607 30.4014 27.187C30.3218 27.1127 30.2144 27.0634 30.0645 27.0278V27.0269C29.4888 26.891 28.9649 26.9118 28.4932 27.0747C28.0209 27.2379 27.5939 27.5467 27.2168 27.9966C26.4406 28.9196 26.3645 29.9723 26.833 31.0845C26.9789 31.4314 27.0582 31.6818 27.0078 31.9136C26.9571 32.1466 26.7813 32.3379 26.499 32.5835C24.4493 34.3698 24.5314 37.5413 26.6748 39.2007C27.4701 39.8164 28.3524 40.1288 29.293 40.0581C29.3403 39.4854 29.3561 38.935 29.4531 38.4058L29.4766 38.3003C29.541 38.0633 29.6643 37.8821 29.832 37.769C30.0001 37.6558 30.2037 37.6175 30.417 37.6499L30.5088 37.6685L30.5986 37.6948C30.8004 37.7651 30.9546 37.8949 31.0488 38.0737C31.1552 38.2758 31.1793 38.5298 31.124 38.812C30.9852 39.5197 31.0951 40.0783 31.3975 40.4604C31.6995 40.842 32.2094 41.069 32.915 41.0806C33.4284 41.0891 33.8199 41.3805 33.8672 41.8442C33.9183 42.3436 33.5877 42.8449 33.0176 42.8335C32.7404 42.8275 32.4351 42.8168 32.1426 42.771C31.8504 42.7253 31.5636 42.6432 31.3262 42.4897V42.4907C30.5011 41.9587 29.6884 41.7468 28.7158 41.7817C28.3589 41.7942 28.0025 41.7233 27.6387 41.6284C27.3056 41.5416 26.9725 41.4384 26.6104 41.3521C26.6051 41.5668 26.5912 41.79 26.584 42.0005C26.5751 42.258 26.579 42.5084 26.6279 42.7456L26.6689 42.9224C27.1424 44.717 29.0589 45.5722 30.6074 44.7563C30.8475 44.6299 31.054 44.5435 31.2324 44.5054C31.4122 44.467 31.5724 44.4758 31.71 44.5513C31.8464 44.6262 31.9449 44.7576 32.0205 44.9302C32.096 45.1025 32.1532 45.3258 32.2021 45.5972C32.3297 46.3086 32.9497 46.8342 33.6514 46.8364C34.0863 46.8364 34.4543 46.6706 34.7139 46.3843C34.9741 46.0971 35.1308 45.6838 35.1309 45.186C35.1347 39.0771 35.1309 32.9679 35.1309 26.8569C35.1309 26.7969 35.1322 26.741 35.1318 26.687L35.1221 26.5298C35.0294 25.8953 34.7128 25.4455 34.123 25.2437Z" fill="black"/>
<path d="M36.0029 24.436C36.7883 23.6269 37.7537 23.2438 38.8828 23.4468V23.4478C40.0012 23.65 40.777 24.347 41.1973 25.2349C41.5809 25.2323 41.9429 25.2088 42.3037 25.1978C42.6798 25.1863 43.0476 25.1918 43.4062 25.2593L43.6572 25.313C46.2193 25.9399 47.7038 28.6286 46.957 31.2417C46.9423 31.2938 46.9378 31.372 46.9482 31.4478C46.9593 31.5278 46.9827 31.5786 47.001 31.5962H47.002C48.0905 32.6389 48.679 34.2145 48.6787 35.8198C48.6784 37.4089 48.0993 39.035 46.8477 40.2153C46.9005 40.5207 46.9675 40.8144 47.0254 41.1147C47.0858 41.4279 47.1346 41.742 47.1406 42.0591C47.194 45.1414 44.4773 47.3746 41.5488 46.6743C41.4335 46.6467 41.3702 46.6329 41.3174 46.644C41.2766 46.6527 41.2254 46.6814 41.1592 46.7974C40.5706 47.8292 39.73 48.4363 38.8096 48.5767C37.8892 48.717 36.9066 48.3876 36.0391 47.5845L36.0381 47.5835C36.0295 47.5752 36.0174 47.5668 35.9971 47.5542C35.9956 47.5533 35.9938 47.5523 35.9922 47.5513C35.4458 48.1028 34.8058 48.5106 34.0068 48.5786C33.3144 48.6385 32.7003 48.5252 32.1719 48.2388C31.6436 47.9523 31.2079 47.4967 30.8652 46.8833C30.7949 46.7579 30.7438 46.7018 30.6914 46.6763C30.6413 46.6519 30.5692 46.6461 30.4297 46.6802C28.654 47.1164 27.1459 46.5631 25.9531 45.2046C24.7797 43.8653 24.5532 42.287 25.1055 40.605C25.1502 40.4686 25.163 40.3763 25.1484 40.2974C25.1342 40.2203 25.0915 40.1411 24.9932 40.0386C22.7589 37.7047 22.7254 34.1158 24.8838 31.7124C24.9298 31.6612 24.9787 31.5791 25.0098 31.4927C25.0422 31.4026 25.0473 31.3299 25.0352 31.2915V31.2905C24.4595 29.5256 25.0268 27.7724 26.1455 26.5972C27.2643 25.4219 28.944 24.8159 30.5996 25.3618H30.6006C30.6175 25.3676 30.6388 25.3705 30.667 25.3726C30.6732 25.373 30.6814 25.3731 30.6904 25.3735C31.8063 23.0714 34.5371 22.87 36.0029 24.436ZM38.3115 25.1675C37.8786 25.1712 37.5164 25.3403 37.2617 25.6294C37.0062 25.9194 36.8535 26.3365 36.8525 26.8413V45.1704C36.8525 45.2704 36.8511 45.3637 36.8584 45.4536H36.8574C36.9273 46.2112 37.515 46.7976 38.2246 46.8364C38.9841 46.8792 39.6308 46.3738 39.7783 45.6167C39.7896 45.5597 39.7941 45.5001 39.7998 45.4341C39.8053 45.3702 39.8121 45.2995 39.8271 45.23V45.229C39.8929 44.9406 40.0411 44.7226 40.2539 44.606C40.4405 44.5038 40.6642 44.4869 40.9004 44.5532L41.0029 44.5864L41.25 44.689C41.3311 44.725 41.4112 44.7623 41.4893 44.7974C43.0846 45.5132 44.8343 44.6772 45.3145 42.9507C45.4683 42.3976 45.4873 41.8513 45.2754 41.2954C44.1868 41.7625 43.0948 41.9496 41.9424 41.7671H41.9414C41.9082 41.7617 41.855 41.7738 41.7832 41.812C41.7147 41.8485 41.6445 41.9003 41.584 41.9487C40.8655 42.5345 40.0544 42.8979 39.1162 42.8774C38.7985 42.87 38.5353 42.7621 38.3564 42.5796C38.1773 42.3966 38.0909 42.1457 38.1123 41.8687C38.1319 41.6172 38.2427 41.4151 38.4355 41.2798C38.6252 41.1468 38.885 41.0852 39.1924 41.0903C40.3385 41.1127 41.1487 40.0892 40.8926 38.9282C40.8213 38.6073 40.8284 38.3261 40.9219 38.106C41.0175 37.881 41.1996 37.7309 41.4521 37.6704C41.7183 37.607 41.9713 37.6496 42.1729 37.8032C42.3726 37.9555 42.5091 38.2073 42.5674 38.5376C42.6531 39.0204 42.6418 39.5315 42.666 40.0454C42.7337 40.055 42.8092 40.0648 42.8887 40.0649C44.5558 40.0533 46.0891 38.9701 46.6641 37.3979C47.2868 35.6914 46.8483 33.7832 45.5791 32.646C45.4024 32.4877 45.2654 32.3639 45.168 32.2563C45.0698 32.148 45.0029 32.0464 44.9766 31.9282C44.9504 31.8103 44.9673 31.6896 45.0078 31.5503C45.048 31.4121 45.1149 31.2422 45.1992 31.0249C45.6357 29.9 45.4623 28.8527 44.708 27.9341C44.3427 27.4877 43.9252 27.1989 43.4648 27.0522C43.0042 26.9055 42.4931 26.8992 41.9375 27.0298C41.7795 27.0665 41.6679 27.1171 41.584 27.1948C41.5006 27.2721 41.435 27.3853 41.3877 27.5669C41.1042 28.652 40.414 29.4103 39.3652 29.7866C39.1301 29.8708 38.8995 29.8623 38.7031 29.772C38.507 29.6817 38.3535 29.5129 38.2646 29.2905H38.2637C38.1789 29.0762 38.175 28.8603 38.251 28.6655C38.3267 28.4716 38.4787 28.3072 38.6914 28.187L38.6924 28.186C38.7714 28.142 38.8551 28.1028 38.9307 28.0649C39.0079 28.0262 39.0796 27.9875 39.1455 27.9429C39.6859 27.5771 39.9253 26.8907 39.7363 26.2612C39.5312 25.5806 38.981 25.162 38.3115 25.1675ZM34.123 25.2437C33.5699 25.0537 33.0671 25.1657 32.6426 25.5854L32.6416 25.5845C32.2009 26.021 32.1051 26.5764 32.2334 27.0649C32.3466 27.4955 32.6331 27.8699 33.0078 28.064L33.1738 28.1362L33.2725 28.1763C33.4937 28.2778 33.6491 28.435 33.7295 28.6245C33.8209 28.8402 33.8102 29.0861 33.708 29.3188C33.607 29.5499 33.4366 29.7147 33.2197 29.7905C33.0037 29.866 32.7524 29.8504 32.4951 29.7427C31.5121 29.3303 30.8458 28.5936 30.584 27.5376C30.5416 27.3679 30.4801 27.2607 30.4014 27.187C30.3218 27.1127 30.2144 27.0634 30.0645 27.0278V27.0269C29.4888 26.891 28.9649 26.9118 28.4932 27.0747C28.0209 27.2379 27.5939 27.5467 27.2168 27.9966C26.4406 28.9196 26.3645 29.9723 26.833 31.0845C26.9789 31.4314 27.0582 31.6818 27.0078 31.9136C26.9571 32.1466 26.7813 32.3379 26.499 32.5835C24.4493 34.3698 24.5314 37.5413 26.6748 39.2007C27.4701 39.8164 28.3524 40.1288 29.293 40.0581C29.3403 39.4854 29.3561 38.935 29.4531 38.4058L29.4766 38.3003C29.541 38.0633 29.6643 37.8821 29.832 37.769C30.0001 37.6558 30.2037 37.6175 30.417 37.6499L30.5088 37.6685L30.5986 37.6948C30.8004 37.7651 30.9546 37.8949 31.0488 38.0737C31.1552 38.2758 31.1793 38.5298 31.124 38.812C30.9852 39.5197 31.0951 40.0783 31.3975 40.4604C31.6995 40.842 32.2094 41.069 32.915 41.0806C33.4284 41.0891 33.8199 41.3805 33.8672 41.8442C33.9183 42.3436 33.5877 42.8449 33.0176 42.8335C32.7404 42.8275 32.4351 42.8168 32.1426 42.771C31.8504 42.7253 31.5636 42.6432 31.3262 42.4897V42.4907C30.5011 41.9587 29.6884 41.7468 28.7158 41.7817C28.3589 41.7942 28.0025 41.7233 27.6387 41.6284C27.3056 41.5416 26.9725 41.4384 26.6104 41.3521C26.6051 41.5668 26.5912 41.79 26.584 42.0005C26.5751 42.258 26.579 42.5084 26.6279 42.7456L26.6689 42.9224C27.1424 44.717 29.0589 45.5722 30.6074 44.7563C30.8475 44.6299 31.054 44.5435 31.2324 44.5054C31.4122 44.467 31.5724 44.4758 31.71 44.5513C31.8464 44.6262 31.9449 44.7576 32.0205 44.9302C32.096 45.1025 32.1532 45.3258 32.2021 45.5972C32.3297 46.3086 32.9497 46.8342 33.6514 46.8364C34.0863 46.8364 34.4543 46.6706 34.7139 46.3843C34.9741 46.0971 35.1308 45.6838 35.1309 45.186C35.1347 39.0771 35.1309 32.9679 35.1309 26.8569C35.1309 26.7969 35.1322 26.741 35.1318 26.687L35.1221 26.5298C35.0294 25.8953 34.7128 25.4455 34.123 25.2437Z" fill="url(#paint0_linear_41_111)"/>
<path d="M36.0029 24.436C36.7883 23.6269 37.7537 23.2438 38.8828 23.4468V23.4478C40.0012 23.65 40.777 24.347 41.1973 25.2349C41.5809 25.2323 41.9429 25.2088 42.3037 25.1978C42.6798 25.1863 43.0476 25.1918 43.4062 25.2593L43.6572 25.313C46.2193 25.9399 47.7038 28.6286 46.957 31.2417C46.9423 31.2938 46.9378 31.372 46.9482 31.4478C46.9593 31.5278 46.9827 31.5786 47.001 31.5962H47.002C48.0905 32.6389 48.679 34.2145 48.6787 35.8198C48.6784 37.4089 48.0993 39.035 46.8477 40.2153C46.9005 40.5207 46.9675 40.8144 47.0254 41.1147C47.0858 41.4279 47.1346 41.742 47.1406 42.0591C47.194 45.1414 44.4773 47.3746 41.5488 46.6743C41.4335 46.6467 41.3702 46.6329 41.3174 46.644C41.2766 46.6527 41.2254 46.6814 41.1592 46.7974C40.5706 47.8292 39.73 48.4363 38.8096 48.5767C37.8892 48.717 36.9066 48.3876 36.0391 47.5845L36.0381 47.5835C36.0295 47.5752 36.0174 47.5668 35.9971 47.5542C35.9956 47.5533 35.9938 47.5523 35.9922 47.5513C35.4458 48.1028 34.8058 48.5106 34.0068 48.5786C33.3144 48.6385 32.7003 48.5252 32.1719 48.2388C31.6436 47.9523 31.2079 47.4967 30.8652 46.8833C30.7949 46.7579 30.7438 46.7018 30.6914 46.6763C30.6413 46.6519 30.5692 46.6461 30.4297 46.6802C28.654 47.1164 27.1459 46.5631 25.9531 45.2046C24.7797 43.8653 24.5532 42.287 25.1055 40.605C25.1502 40.4686 25.163 40.3763 25.1484 40.2974C25.1342 40.2203 25.0915 40.1411 24.9932 40.0386C22.7589 37.7047 22.7254 34.1158 24.8838 31.7124C24.9298 31.6612 24.9787 31.5791 25.0098 31.4927C25.0422 31.4026 25.0473 31.3299 25.0352 31.2915V31.2905C24.4595 29.5256 25.0268 27.7724 26.1455 26.5972C27.2643 25.4219 28.944 24.8159 30.5996 25.3618H30.6006C30.6175 25.3676 30.6388 25.3705 30.667 25.3726C30.6732 25.373 30.6814 25.3731 30.6904 25.3735C31.8063 23.0714 34.5371 22.87 36.0029 24.436ZM38.3115 25.1675C37.8786 25.1712 37.5164 25.3403 37.2617 25.6294C37.0062 25.9194 36.8535 26.3365 36.8525 26.8413V45.1704C36.8525 45.2704 36.8511 45.3637 36.8584 45.4536H36.8574C36.9273 46.2112 37.515 46.7976 38.2246 46.8364C38.9841 46.8792 39.6308 46.3738 39.7783 45.6167C39.7896 45.5597 39.7941 45.5001 39.7998 45.4341C39.8053 45.3702 39.8121 45.2995 39.8271 45.23V45.229C39.8929 44.9406 40.0411 44.7226 40.2539 44.606C40.4405 44.5038 40.6642 44.4869 40.9004 44.5532L41.0029 44.5864L41.25 44.689C41.3311 44.725 41.4112 44.7623 41.4893 44.7974C43.0846 45.5132 44.8343 44.6772 45.3145 42.9507C45.4683 42.3976 45.4873 41.8513 45.2754 41.2954C44.1868 41.7625 43.0948 41.9496 41.9424 41.7671H41.9414C41.9082 41.7617 41.855 41.7738 41.7832 41.812C41.7147 41.8485 41.6445 41.9003 41.584 41.9487C40.8655 42.5345 40.0544 42.8979 39.1162 42.8774C38.7985 42.87 38.5353 42.7621 38.3564 42.5796C38.1773 42.3966 38.0909 42.1457 38.1123 41.8687C38.1319 41.6172 38.2427 41.4151 38.4355 41.2798C38.6252 41.1468 38.885 41.0852 39.1924 41.0903C40.3385 41.1127 41.1487 40.0892 40.8926 38.9282C40.8213 38.6073 40.8284 38.3261 40.9219 38.106C41.0175 37.881 41.1996 37.7309 41.4521 37.6704C41.7183 37.607 41.9713 37.6496 42.1729 37.8032C42.3726 37.9555 42.5091 38.2073 42.5674 38.5376C42.6531 39.0204 42.6418 39.5315 42.666 40.0454C42.7337 40.055 42.8092 40.0648 42.8887 40.0649C44.5558 40.0533 46.0891 38.9701 46.6641 37.3979C47.2868 35.6914 46.8483 33.7832 45.5791 32.646C45.4024 32.4877 45.2654 32.3639 45.168 32.2563C45.0698 32.148 45.0029 32.0464 44.9766 31.9282C44.9504 31.8103 44.9673 31.6896 45.0078 31.5503C45.048 31.4121 45.1149 31.2422 45.1992 31.0249C45.6357 29.9 45.4623 28.8527 44.708 27.9341C44.3427 27.4877 43.9252 27.1989 43.4648 27.0522C43.0042 26.9055 42.4931 26.8992 41.9375 27.0298C41.7795 27.0665 41.6679 27.1171 41.584 27.1948C41.5006 27.2721 41.435 27.3853 41.3877 27.5669C41.1042 28.652 40.414 29.4103 39.3652 29.7866C39.1301 29.8708 38.8995 29.8623 38.7031 29.772C38.507 29.6817 38.3535 29.5129 38.2646 29.2905H38.2637C38.1789 29.0762 38.175 28.8603 38.251 28.6655C38.3267 28.4716 38.4787 28.3072 38.6914 28.187L38.6924 28.186C38.7714 28.142 38.8551 28.1028 38.9307 28.0649C39.0079 28.0262 39.0796 27.9875 39.1455 27.9429C39.6859 27.5771 39.9253 26.8907 39.7363 26.2612C39.5312 25.5806 38.981 25.162 38.3115 25.1675ZM34.123 25.2437C33.5699 25.0537 33.0671 25.1657 32.6426 25.5854L32.6416 25.5845C32.2009 26.021 32.1051 26.5764 32.2334 27.0649C32.3466 27.4955 32.6331 27.8699 33.0078 28.064L33.1738 28.1362L33.2725 28.1763C33.4937 28.2778 33.6491 28.435 33.7295 28.6245C33.8209 28.8402 33.8102 29.0861 33.708 29.3188C33.607 29.5499 33.4366 29.7147 33.2197 29.7905C33.0037 29.866 32.7524 29.8504 32.4951 29.7427C31.5121 29.3303 30.8458 28.5936 30.584 27.5376C30.5416 27.3679 30.4801 27.2607 30.4014 27.187C30.3218 27.1127 30.2144 27.0634 30.0645 27.0278V27.0269C29.4888 26.891 28.9649 26.9118 28.4932 27.0747C28.0209 27.2379 27.5939 27.5467 27.2168 27.9966C26.4406 28.9196 26.3645 29.9723 26.833 31.0845C26.9789 31.4314 27.0582 31.6818 27.0078 31.9136C26.9571 32.1466 26.7813 32.3379 26.499 32.5835C24.4493 34.3698 24.5314 37.5413 26.6748 39.2007C27.4701 39.8164 28.3524 40.1288 29.293 40.0581C29.3403 39.4854 29.3561 38.935 29.4531 38.4058L29.4766 38.3003C29.541 38.0633 29.6643 37.8821 29.832 37.769C30.0001 37.6558 30.2037 37.6175 30.417 37.6499L30.5088 37.6685L30.5986 37.6948C30.8004 37.7651 30.9546 37.8949 31.0488 38.0737C31.1552 38.2758 31.1793 38.5298 31.124 38.812C30.9852 39.5197 31.0951 40.0783 31.3975 40.4604C31.6995 40.842 32.2094 41.069 32.915 41.0806C33.4284 41.0891 33.8199 41.3805 33.8672 41.8442C33.9183 42.3436 33.5877 42.8449 33.0176 42.8335C32.7404 42.8275 32.4351 42.8168 32.1426 42.771C31.8504 42.7253 31.5636 42.6432 31.3262 42.4897V42.4907C30.5011 41.9587 29.6884 41.7468 28.7158 41.7817C28.3589 41.7942 28.0025 41.7233 27.6387 41.6284C27.3056 41.5416 26.9725 41.4384 26.6104 41.3521C26.6051 41.5668 26.5912 41.79 26.584 42.0005C26.5751 42.258 26.579 42.5084 26.6279 42.7456L26.6689 42.9224C27.1424 44.717 29.0589 45.5722 30.6074 44.7563C30.8475 44.6299 31.054 44.5435 31.2324 44.5054C31.4122 44.467 31.5724 44.4758 31.71 44.5513C31.8464 44.6262 31.9449 44.7576 32.0205 44.9302C32.096 45.1025 32.1532 45.3258 32.2021 45.5972C32.3297 46.3086 32.9497 46.8342 33.6514 46.8364C34.0863 46.8364 34.4543 46.6706 34.7139 46.3843C34.9741 46.0971 35.1308 45.6838 35.1309 45.186C35.1347 39.0771 35.1309 32.9679 35.1309 26.8569C35.1309 26.7969 35.1322 26.741 35.1318 26.687L35.1221 26.5298C35.0294 25.8953 34.7128 25.4455 34.123 25.2437Z" fill="url(#paint1_linear_41_111)"/>
<path d="M36.0029 24.436C36.7883 23.6269 37.7537 23.2438 38.8828 23.4468V23.4478C40.0012 23.65 40.777 24.347 41.1973 25.2349C41.5809 25.2323 41.9429 25.2088 42.3037 25.1978C42.6798 25.1863 43.0476 25.1918 43.4062 25.2593L43.6572 25.313C46.2193 25.9399 47.7038 28.6286 46.957 31.2417C46.9423 31.2938 46.9378 31.372 46.9482 31.4478C46.9593 31.5278 46.9827 31.5786 47.001 31.5962H47.002C48.0905 32.6389 48.679 34.2145 48.6787 35.8198C48.6784 37.4089 48.0993 39.035 46.8477 40.2153C46.9005 40.5207 46.9675 40.8144 47.0254 41.1147C47.0858 41.4279 47.1346 41.742 47.1406 42.0591C47.194 45.1414 44.4773 47.3746 41.5488 46.6743C41.4335 46.6467 41.3702 46.6329 41.3174 46.644C41.2766 46.6527 41.2254 46.6814 41.1592 46.7974C40.5706 47.8292 39.73 48.4363 38.8096 48.5767C37.8892 48.717 36.9066 48.3876 36.0391 47.5845L36.0381 47.5835C36.0295 47.5752 36.0174 47.5668 35.9971 47.5542C35.9956 47.5533 35.9938 47.5523 35.9922 47.5513C35.4458 48.1028 34.8058 48.5106 34.0068 48.5786C33.3144 48.6385 32.7003 48.5252 32.1719 48.2388C31.6436 47.9523 31.2079 47.4967 30.8652 46.8833C30.7949 46.7579 30.7438 46.7018 30.6914 46.6763C30.6413 46.6519 30.5692 46.6461 30.4297 46.6802C28.654 47.1164 27.1459 46.5631 25.9531 45.2046C24.7797 43.8653 24.5532 42.287 25.1055 40.605C25.1502 40.4686 25.163 40.3763 25.1484 40.2974C25.1342 40.2203 25.0915 40.1411 24.9932 40.0386C22.7589 37.7047 22.7254 34.1158 24.8838 31.7124C24.9298 31.6612 24.9787 31.5791 25.0098 31.4927C25.0422 31.4026 25.0473 31.3299 25.0352 31.2915V31.2905C24.4595 29.5256 25.0268 27.7724 26.1455 26.5972C27.2643 25.4219 28.944 24.8159 30.5996 25.3618H30.6006C30.6175 25.3676 30.6388 25.3705 30.667 25.3726C30.6732 25.373 30.6814 25.3731 30.6904 25.3735C31.8063 23.0714 34.5371 22.87 36.0029 24.436ZM38.3115 25.1675C37.8786 25.1712 37.5164 25.3403 37.2617 25.6294C37.0062 25.9194 36.8535 26.3365 36.8525 26.8413V45.1704C36.8525 45.2704 36.8511 45.3637 36.8584 45.4536H36.8574C36.9273 46.2112 37.515 46.7976 38.2246 46.8364C38.9841 46.8792 39.6308 46.3738 39.7783 45.6167C39.7896 45.5597 39.7941 45.5001 39.7998 45.4341C39.8053 45.3702 39.8121 45.2995 39.8271 45.23V45.229C39.8929 44.9406 40.0411 44.7226 40.2539 44.606C40.4405 44.5038 40.6642 44.4869 40.9004 44.5532L41.0029 44.5864L41.25 44.689C41.3311 44.725 41.4112 44.7623 41.4893 44.7974C43.0846 45.5132 44.8343 44.6772 45.3145 42.9507C45.4683 42.3976 45.4873 41.8513 45.2754 41.2954C44.1868 41.7625 43.0948 41.9496 41.9424 41.7671H41.9414C41.9082 41.7617 41.855 41.7738 41.7832 41.812C41.7147 41.8485 41.6445 41.9003 41.584 41.9487C40.8655 42.5345 40.0544 42.8979 39.1162 42.8774C38.7985 42.87 38.5353 42.7621 38.3564 42.5796C38.1773 42.3966 38.0909 42.1457 38.1123 41.8687C38.1319 41.6172 38.2427 41.4151 38.4355 41.2798C38.6252 41.1468 38.885 41.0852 39.1924 41.0903C40.3385 41.1127 41.1487 40.0892 40.8926 38.9282C40.8213 38.6073 40.8284 38.3261 40.9219 38.106C41.0175 37.881 41.1996 37.7309 41.4521 37.6704C41.7183 37.607 41.9713 37.6496 42.1729 37.8032C42.3726 37.9555 42.5091 38.2073 42.5674 38.5376C42.6531 39.0204 42.6418 39.5315 42.666 40.0454C42.7337 40.055 42.8092 40.0648 42.8887 40.0649C44.5558 40.0533 46.0891 38.9701 46.6641 37.3979C47.2868 35.6914 46.8483 33.7832 45.5791 32.646C45.4024 32.4877 45.2654 32.3639 45.168 32.2563C45.0698 32.148 45.0029 32.0464 44.9766 31.9282C44.9504 31.8103 44.9673 31.6896 45.0078 31.5503C45.048 31.4121 45.1149 31.2422 45.1992 31.0249C45.6357 29.9 45.4623 28.8527 44.708 27.9341C44.3427 27.4877 43.9252 27.1989 43.4648 27.0522C43.0042 26.9055 42.4931 26.8992 41.9375 27.0298C41.7795 27.0665 41.6679 27.1171 41.584 27.1948C41.5006 27.2721 41.435 27.3853 41.3877 27.5669C41.1042 28.652 40.414 29.4103 39.3652 29.7866C39.1301 29.8708 38.8995 29.8623 38.7031 29.772C38.507 29.6817 38.3535 29.5129 38.2646 29.2905H38.2637C38.1789 29.0762 38.175 28.8603 38.251 28.6655C38.3267 28.4716 38.4787 28.3072 38.6914 28.187L38.6924 28.186C38.7714 28.142 38.8551 28.1028 38.9307 28.0649C39.0079 28.0262 39.0796 27.9875 39.1455 27.9429C39.6859 27.5771 39.9253 26.8907 39.7363 26.2612C39.5312 25.5806 38.981 25.162 38.3115 25.1675ZM34.123 25.2437C33.5699 25.0537 33.0671 25.1657 32.6426 25.5854L32.6416 25.5845C32.2009 26.021 32.1051 26.5764 32.2334 27.0649C32.3466 27.4955 32.6331 27.8699 33.0078 28.064L33.1738 28.1362L33.2725 28.1763C33.4937 28.2778 33.6491 28.435 33.7295 28.6245C33.8209 28.8402 33.8102 29.0861 33.708 29.3188C33.607 29.5499 33.4366 29.7147 33.2197 29.7905C33.0037 29.866 32.7524 29.8504 32.4951 29.7427C31.5121 29.3303 30.8458 28.5936 30.584 27.5376C30.5416 27.3679 30.4801 27.2607 30.4014 27.187C30.3218 27.1127 30.2144 27.0634 30.0645 27.0278V27.0269C29.4888 26.891 28.9649 26.9118 28.4932 27.0747C28.0209 27.2379 27.5939 27.5467 27.2168 27.9966C26.4406 28.9196 26.3645 29.9723 26.833 31.0845C26.9789 31.4314 27.0582 31.6818 27.0078 31.9136C26.9571 32.1466 26.7813 32.3379 26.499 32.5835C24.4493 34.3698 24.5314 37.5413 26.6748 39.2007C27.4701 39.8164 28.3524 40.1288 29.293 40.0581C29.3403 39.4854 29.3561 38.935 29.4531 38.4058L29.4766 38.3003C29.541 38.0633 29.6643 37.8821 29.832 37.769C30.0001 37.6558 30.2037 37.6175 30.417 37.6499L30.5088 37.6685L30.5986 37.6948C30.8004 37.7651 30.9546 37.8949 31.0488 38.0737C31.1552 38.2758 31.1793 38.5298 31.124 38.812C30.9852 39.5197 31.0951 40.0783 31.3975 40.4604C31.6995 40.842 32.2094 41.069 32.915 41.0806C33.4284 41.0891 33.8199 41.3805 33.8672 41.8442C33.9183 42.3436 33.5877 42.8449 33.0176 42.8335C32.7404 42.8275 32.4351 42.8168 32.1426 42.771C31.8504 42.7253 31.5636 42.6432 31.3262 42.4897V42.4907C30.5011 41.9587 29.6884 41.7468 28.7158 41.7817C28.3589 41.7942 28.0025 41.7233 27.6387 41.6284C27.3056 41.5416 26.9725 41.4384 26.6104 41.3521C26.6051 41.5668 26.5912 41.79 26.584 42.0005C26.5751 42.258 26.579 42.5084 26.6279 42.7456L26.6689 42.9224C27.1424 44.717 29.0589 45.5722 30.6074 44.7563C30.8475 44.6299 31.054 44.5435 31.2324 44.5054C31.4122 44.467 31.5724 44.4758 31.71 44.5513C31.8464 44.6262 31.9449 44.7576 32.0205 44.9302C32.096 45.1025 32.1532 45.3258 32.2021 45.5972C32.3297 46.3086 32.9497 46.8342 33.6514 46.8364C34.0863 46.8364 34.4543 46.6706 34.7139 46.3843C34.9741 46.0971 35.1308 45.6838 35.1309 45.186C35.1347 39.0771 35.1309 32.9679 35.1309 26.8569C35.1309 26.7969 35.1322 26.741 35.1318 26.687L35.1221 26.5298C35.0294 25.8953 34.7128 25.4455 34.123 25.2437Z" stroke="black" stroke-width="0.2"/>
<path d="M36.0029 24.436C36.7883 23.6269 37.7537 23.2438 38.8828 23.4468V23.4478C40.0012 23.65 40.777 24.347 41.1973 25.2349C41.5809 25.2323 41.9429 25.2088 42.3037 25.1978C42.6798 25.1863 43.0476 25.1918 43.4062 25.2593L43.6572 25.313C46.2193 25.9399 47.7038 28.6286 46.957 31.2417C46.9423 31.2938 46.9378 31.372 46.9482 31.4478C46.9593 31.5278 46.9827 31.5786 47.001 31.5962H47.002C48.0905 32.6389 48.679 34.2145 48.6787 35.8198C48.6784 37.4089 48.0993 39.035 46.8477 40.2153C46.9005 40.5207 46.9675 40.8144 47.0254 41.1147C47.0858 41.4279 47.1346 41.742 47.1406 42.0591C47.194 45.1414 44.4773 47.3746 41.5488 46.6743C41.4335 46.6467 41.3702 46.6329 41.3174 46.644C41.2766 46.6527 41.2254 46.6814 41.1592 46.7974C40.5706 47.8292 39.73 48.4363 38.8096 48.5767C37.8892 48.717 36.9066 48.3876 36.0391 47.5845L36.0381 47.5835C36.0295 47.5752 36.0174 47.5668 35.9971 47.5542C35.9956 47.5533 35.9938 47.5523 35.9922 47.5513C35.4458 48.1028 34.8058 48.5106 34.0068 48.5786C33.3144 48.6385 32.7003 48.5252 32.1719 48.2388C31.6436 47.9523 31.2079 47.4967 30.8652 46.8833C30.7949 46.7579 30.7438 46.7018 30.6914 46.6763C30.6413 46.6519 30.5692 46.6461 30.4297 46.6802C28.654 47.1164 27.1459 46.5631 25.9531 45.2046C24.7797 43.8653 24.5532 42.287 25.1055 40.605C25.1502 40.4686 25.163 40.3763 25.1484 40.2974C25.1342 40.2203 25.0915 40.1411 24.9932 40.0386C22.7589 37.7047 22.7254 34.1158 24.8838 31.7124C24.9298 31.6612 24.9787 31.5791 25.0098 31.4927C25.0422 31.4026 25.0473 31.3299 25.0352 31.2915V31.2905C24.4595 29.5256 25.0268 27.7724 26.1455 26.5972C27.2643 25.4219 28.944 24.8159 30.5996 25.3618H30.6006C30.6175 25.3676 30.6388 25.3705 30.667 25.3726C30.6732 25.373 30.6814 25.3731 30.6904 25.3735C31.8063 23.0714 34.5371 22.87 36.0029 24.436ZM38.3115 25.1675C37.8786 25.1712 37.5164 25.3403 37.2617 25.6294C37.0062 25.9194 36.8535 26.3365 36.8525 26.8413V45.1704C36.8525 45.2704 36.8511 45.3637 36.8584 45.4536H36.8574C36.9273 46.2112 37.515 46.7976 38.2246 46.8364C38.9841 46.8792 39.6308 46.3738 39.7783 45.6167C39.7896 45.5597 39.7941 45.5001 39.7998 45.4341C39.8053 45.3702 39.8121 45.2995 39.8271 45.23V45.229C39.8929 44.9406 40.0411 44.7226 40.2539 44.606C40.4405 44.5038 40.6642 44.4869 40.9004 44.5532L41.0029 44.5864L41.25 44.689C41.3311 44.725 41.4112 44.7623 41.4893 44.7974C43.0846 45.5132 44.8343 44.6772 45.3145 42.9507C45.4683 42.3976 45.4873 41.8513 45.2754 41.2954C44.1868 41.7625 43.0948 41.9496 41.9424 41.7671H41.9414C41.9082 41.7617 41.855 41.7738 41.7832 41.812C41.7147 41.8485 41.6445 41.9003 41.584 41.9487C40.8655 42.5345 40.0544 42.8979 39.1162 42.8774C38.7985 42.87 38.5353 42.7621 38.3564 42.5796C38.1773 42.3966 38.0909 42.1457 38.1123 41.8687C38.1319 41.6172 38.2427 41.4151 38.4355 41.2798C38.6252 41.1468 38.885 41.0852 39.1924 41.0903C40.3385 41.1127 41.1487 40.0892 40.8926 38.9282C40.8213 38.6073 40.8284 38.3261 40.9219 38.106C41.0175 37.881 41.1996 37.7309 41.4521 37.6704C41.7183 37.607 41.9713 37.6496 42.1729 37.8032C42.3726 37.9555 42.5091 38.2073 42.5674 38.5376C42.6531 39.0204 42.6418 39.5315 42.666 40.0454C42.7337 40.055 42.8092 40.0648 42.8887 40.0649C44.5558 40.0533 46.0891 38.9701 46.6641 37.3979C47.2868 35.6914 46.8483 33.7832 45.5791 32.646C45.4024 32.4877 45.2654 32.3639 45.168 32.2563C45.0698 32.148 45.0029 32.0464 44.9766 31.9282C44.9504 31.8103 44.9673 31.6896 45.0078 31.5503C45.048 31.4121 45.1149 31.2422 45.1992 31.0249C45.6357 29.9 45.4623 28.8527 44.708 27.9341C44.3427 27.4877 43.9252 27.1989 43.4648 27.0522C43.0042 26.9055 42.4931 26.8992 41.9375 27.0298C41.7795 27.0665 41.6679 27.1171 41.584 27.1948C41.5006 27.2721 41.435 27.3853 41.3877 27.5669C41.1042 28.652 40.414 29.4103 39.3652 29.7866C39.1301 29.8708 38.8995 29.8623 38.7031 29.772C38.507 29.6817 38.3535 29.5129 38.2646 29.2905H38.2637C38.1789 29.0762 38.175 28.8603 38.251 28.6655C38.3267 28.4716 38.4787 28.3072 38.6914 28.187L38.6924 28.186C38.7714 28.142 38.8551 28.1028 38.9307 28.0649C39.0079 28.0262 39.0796 27.9875 39.1455 27.9429C39.6859 27.5771 39.9253 26.8907 39.7363 26.2612C39.5312 25.5806 38.981 25.162 38.3115 25.1675ZM34.123 25.2437C33.5699 25.0537 33.0671 25.1657 32.6426 25.5854L32.6416 25.5845C32.2009 26.021 32.1051 26.5764 32.2334 27.0649C32.3466 27.4955 32.6331 27.8699 33.0078 28.064L33.1738 28.1362L33.2725 28.1763C33.4937 28.2778 33.6491 28.435 33.7295 28.6245C33.8209 28.8402 33.8102 29.0861 33.708 29.3188C33.607 29.5499 33.4366 29.7147 33.2197 29.7905C33.0037 29.866 32.7524 29.8504 32.4951 29.7427C31.5121 29.3303 30.8458 28.5936 30.584 27.5376C30.5416 27.3679 30.4801 27.2607 30.4014 27.187C30.3218 27.1127 30.2144 27.0634 30.0645 27.0278V27.0269C29.4888 26.891 28.9649 26.9118 28.4932 27.0747C28.0209 27.2379 27.5939 27.5467 27.2168 27.9966C26.4406 28.9196 26.3645 29.9723 26.833 31.0845C26.9789 31.4314 27.0582 31.6818 27.0078 31.9136C26.9571 32.1466 26.7813 32.3379 26.499 32.5835C24.4493 34.3698 24.5314 37.5413 26.6748 39.2007C27.4701 39.8164 28.3524 40.1288 29.293 40.0581C29.3403 39.4854 29.3561 38.935 29.4531 38.4058L29.4766 38.3003C29.541 38.0633 29.6643 37.8821 29.832 37.769C30.0001 37.6558 30.2037 37.6175 30.417 37.6499L30.5088 37.6685L30.5986 37.6948C30.8004 37.7651 30.9546 37.8949 31.0488 38.0737C31.1552 38.2758 31.1793 38.5298 31.124 38.812C30.9852 39.5197 31.0951 40.0783 31.3975 40.4604C31.6995 40.842 32.2094 41.069 32.915 41.0806C33.4284 41.0891 33.8199 41.3805 33.8672 41.8442C33.9183 42.3436 33.5877 42.8449 33.0176 42.8335C32.7404 42.8275 32.4351 42.8168 32.1426 42.771C31.8504 42.7253 31.5636 42.6432 31.3262 42.4897V42.4907C30.5011 41.9587 29.6884 41.7468 28.7158 41.7817C28.3589 41.7942 28.0025 41.7233 27.6387 41.6284C27.3056 41.5416 26.9725 41.4384 26.6104 41.3521C26.6051 41.5668 26.5912 41.79 26.584 42.0005C26.5751 42.258 26.579 42.5084 26.6279 42.7456L26.6689 42.9224C27.1424 44.717 29.0589 45.5722 30.6074 44.7563C30.8475 44.6299 31.054 44.5435 31.2324 44.5054C31.4122 44.467 31.5724 44.4758 31.71 44.5513C31.8464 44.6262 31.9449 44.7576 32.0205 44.9302C32.096 45.1025 32.1532 45.3258 32.2021 45.5972C32.3297 46.3086 32.9497 46.8342 33.6514 46.8364C34.0863 46.8364 34.4543 46.6706 34.7139 46.3843C34.9741 46.0971 35.1308 45.6838 35.1309 45.186C35.1347 39.0771 35.1309 32.9679 35.1309 26.8569C35.1309 26.7969 35.1322 26.741 35.1318 26.687L35.1221 26.5298C35.0294 25.8953 34.7128 25.4455 34.123 25.2437Z" stroke="url(#paint2_linear_41_111)" stroke-width="0.2"/>
<path d="M71.9347 35.8483C71.9347 38.2632 71.9412 40.678 71.9347 43.0895C71.9314 44.3689 71.6893 44.6838 70.4887 44.9685C68.2773 45.4977 66.056 45.9934 63.8511 46.5594C63.5305 46.6431 63.151 46.9647 63.0234 47.2728C61.9766 49.7513 60.6713 52.0657 59.0912 54.2293C58.8949 54.4972 58.8295 54.9963 58.9211 55.3245C59.5427 57.5351 60.2264 59.7255 60.8839 61.926C61.2307 63.0882 61.0868 63.4935 60.0726 64.0963C55.9082 66.5748 51.7437 69.0533 47.5759 71.5218C46.6174 72.0911 46.1692 72.0074 45.4037 71.1567C43.876 69.4653 42.3712 67.7538 40.8107 66.0925C40.5653 65.8313 40.0681 65.6404 39.7213 65.6873C37.1042 66.0523 34.4937 66.0624 31.8733 65.7007C31.5985 65.6638 31.2026 65.848 31.0031 66.0657C29.4165 67.7739 27.8625 69.5189 26.2955 71.2438C25.4777 72.1414 25.0917 72.2017 24.0546 71.5921C19.9229 69.1672 15.7944 66.739 11.6626 64.3074C10.6976 63.738 10.5373 63.3093 10.8742 62.204C11.5514 59.9801 12.2188 57.7561 12.9254 55.5456C13.0759 55.07 13.0203 54.7451 12.7226 54.3499C11.1523 52.2834 9.88626 50.0326 8.94737 47.5943C8.75763 47.0986 8.48611 46.8776 7.98231 46.7737C5.86245 46.3249 3.74914 45.8292 1.63255 45.3603C0.238937 45.0556 -0.00641722 44.7575 0.000125558 43.3106C0.0197539 38.5914 0.0393822 33.8722 0.0590106 29.1564C0.0655533 27.5521 0.255294 27.3143 1.7405 26.966C3.87672 26.4669 6.01948 25.9846 8.14588 25.442C8.46648 25.3616 8.84269 25.0368 8.97355 24.7253C10.0171 22.2434 11.3257 19.9324 12.9058 17.7688C13.102 17.5008 13.1675 17.0018 13.0759 16.6736C12.4641 14.4898 11.7902 12.3228 11.1359 10.1525C10.7565 8.88977 10.8971 8.51465 11.9963 7.86488C16.0921 5.43329 20.1879 2.99834 24.2869 0.563397C25.4221 -0.113162 25.7983 -0.0495257 26.7077 0.961964C28.193 2.61652 29.6684 4.28782 31.1895 5.90554C31.4349 6.16678 31.9322 6.36104 32.2756 6.3108C34.8666 5.94238 37.451 5.95243 40.0419 6.28401C40.3462 6.3242 40.778 6.15674 40.9906 5.93233C42.6002 4.20744 44.1704 2.44236 45.757 0.697369C46.5062 -0.12656 46.9184 -0.196895 47.8671 0.362439C52.025 2.79738 56.1764 5.23903 60.3278 7.68402C61.2896 8.25005 61.4532 8.68881 61.1195 9.79073C60.4456 12.0147 59.7749 14.2386 59.0683 16.4491C58.9178 16.9214 58.9669 17.2496 59.2679 17.6448C60.8381 19.7114 62.1042 21.9621 63.0431 24.397C63.2328 24.8894 63.4978 25.1037 64.0048 25.2109C66.2556 25.6899 68.4965 26.2191 70.7406 26.7449C71.6926 26.9693 71.9838 27.3578 71.9838 28.3559C71.9903 30.8512 71.9838 33.3497 71.9838 35.845H71.9216L71.9347 35.8483ZM25.1407 3.10217C21.4441 5.29931 17.8161 7.46631 14.1751 9.60652C13.753 9.85437 13.8283 10.1156 13.9395 10.4874C14.5774 12.5774 15.1696 14.6841 15.8304 16.7673C16.079 17.5578 15.958 18.1774 15.4378 18.8104C13.789 20.8133 12.366 23.0037 11.5318 25.4722C10.9626 27.1602 9.99095 27.877 8.34217 28.1449C6.4284 28.4564 4.5539 29.0191 2.63032 29.4813V42.8752C4.90067 43.3876 7.14157 43.9168 9.39228 44.3957C10.2003 44.5666 10.7139 44.945 11.0051 45.7757C11.993 48.5824 13.4226 51.1446 15.2939 53.4389C15.7911 54.0518 15.9023 54.6547 15.657 55.4116C14.9831 57.4915 14.3812 59.5915 13.704 61.6681C13.5208 62.2274 13.6418 62.4753 14.1325 62.7499C15.8435 63.7112 17.525 64.7294 19.2195 65.7241C21.0711 66.8093 22.926 67.8945 24.8136 68.9997C26.4689 67.1677 28.0948 65.3858 29.6978 63.5839C30.1721 63.0514 30.6825 62.827 31.4022 62.9542C34.3039 63.4633 37.2154 63.4935 40.1106 62.9341C40.9939 62.7633 41.5827 63.0078 42.1585 63.6643C43.6928 65.4193 45.2729 67.1308 46.817 68.8423C46.9217 68.8122 46.9773 68.8088 47.0231 68.782C50.6347 66.6418 54.2496 64.5083 57.8448 62.338C58.0117 62.2375 58.1098 61.7853 58.0444 61.5542C57.4523 59.4509 56.8438 57.3475 56.1797 55.2676C55.918 54.4437 56.0456 53.814 56.5853 53.1542C58.3682 50.9738 59.788 48.5522 60.7433 45.8828C61.1293 44.801 61.7378 44.2651 62.8337 44.0441C65.0059 43.6087 67.1552 43.0493 69.3601 42.5302V29.1095C67.1585 28.6105 64.9536 28.0645 62.729 27.6224C61.7738 27.4315 61.2405 26.966 60.9167 26.0315C60.0236 23.4559 58.7412 21.0745 57.0204 18.9879C56.2222 18.02 56.0979 17.1625 56.5068 15.997C57.2363 13.9171 57.8219 11.7836 58.4827 9.62327C54.6978 7.39933 50.952 5.19548 47.1932 2.98829C45.5248 4.83376 43.9152 6.59214 42.3319 8.37732C41.8379 8.93331 41.3112 9.16776 40.5588 9.03714C37.6865 8.53474 34.7979 8.4979 31.9322 9.05388C31.0194 9.2314 30.411 8.9869 29.8156 8.30364C28.3009 6.56535 26.7405 4.8706 25.144 3.09882L25.1407 3.10217Z" fill="black"/>
<path d="M71.9347 35.8483C71.9347 38.2632 71.9412 40.678 71.9347 43.0895C71.9314 44.3689 71.6893 44.6838 70.4887 44.9685C68.2773 45.4977 66.056 45.9934 63.8511 46.5594C63.5305 46.6431 63.151 46.9647 63.0234 47.2728C61.9766 49.7513 60.6713 52.0657 59.0912 54.2293C58.8949 54.4972 58.8295 54.9963 58.9211 55.3245C59.5427 57.5351 60.2264 59.7255 60.8839 61.926C61.2307 63.0882 61.0868 63.4935 60.0726 64.0963C55.9082 66.5748 51.7437 69.0533 47.5759 71.5218C46.6174 72.0911 46.1692 72.0074 45.4037 71.1567C43.876 69.4653 42.3712 67.7538 40.8107 66.0925C40.5653 65.8313 40.0681 65.6404 39.7213 65.6873C37.1042 66.0523 34.4937 66.0624 31.8733 65.7007C31.5985 65.6638 31.2026 65.848 31.0031 66.0657C29.4165 67.7739 27.8625 69.5189 26.2955 71.2438C25.4777 72.1414 25.0917 72.2017 24.0546 71.5921C19.9229 69.1672 15.7944 66.739 11.6626 64.3074C10.6976 63.738 10.5373 63.3093 10.8742 62.204C11.5514 59.9801 12.2188 57.7561 12.9254 55.5456C13.0759 55.07 13.0203 54.7451 12.7226 54.3499C11.1523 52.2834 9.88626 50.0326 8.94737 47.5943C8.75763 47.0986 8.48611 46.8776 7.98231 46.7737C5.86245 46.3249 3.74914 45.8292 1.63255 45.3603C0.238937 45.0556 -0.00641722 44.7575 0.000125558 43.3106C0.0197539 38.5914 0.0393822 33.8722 0.0590106 29.1564C0.0655533 27.5521 0.255294 27.3143 1.7405 26.966C3.87672 26.4669 6.01948 25.9846 8.14588 25.442C8.46648 25.3616 8.84269 25.0368 8.97355 24.7253C10.0171 22.2434 11.3257 19.9324 12.9058 17.7688C13.102 17.5008 13.1675 17.0018 13.0759 16.6736C12.4641 14.4898 11.7902 12.3228 11.1359 10.1525C10.7565 8.88977 10.8971 8.51465 11.9963 7.86488C16.0921 5.43329 20.1879 2.99834 24.2869 0.563397C25.4221 -0.113162 25.7983 -0.0495257 26.7077 0.961964C28.193 2.61652 29.6684 4.28782 31.1895 5.90554C31.4349 6.16678 31.9322 6.36104 32.2756 6.3108C34.8666 5.94238 37.451 5.95243 40.0419 6.28401C40.3462 6.3242 40.778 6.15674 40.9906 5.93233C42.6002 4.20744 44.1704 2.44236 45.757 0.697369C46.5062 -0.12656 46.9184 -0.196895 47.8671 0.362439C52.025 2.79738 56.1764 5.23903 60.3278 7.68402C61.2896 8.25005 61.4532 8.68881 61.1195 9.79073C60.4456 12.0147 59.7749 14.2386 59.0683 16.4491C58.9178 16.9214 58.9669 17.2496 59.2679 17.6448C60.8381 19.7114 62.1042 21.9621 63.0431 24.397C63.2328 24.8894 63.4978 25.1037 64.0048 25.2109C66.2556 25.6899 68.4965 26.2191 70.7406 26.7449C71.6926 26.9693 71.9838 27.3578 71.9838 28.3559C71.9903 30.8512 71.9838 33.3497 71.9838 35.845H71.9216L71.9347 35.8483ZM25.1407 3.10217C21.4441 5.29931 17.8161 7.46631 14.1751 9.60652C13.753 9.85437 13.8283 10.1156 13.9395 10.4874C14.5774 12.5774 15.1696 14.6841 15.8304 16.7673C16.079 17.5578 15.958 18.1774 15.4378 18.8104C13.789 20.8133 12.366 23.0037 11.5318 25.4722C10.9626 27.1602 9.99095 27.877 8.34217 28.1449C6.4284 28.4564 4.5539 29.0191 2.63032 29.4813V42.8752C4.90067 43.3876 7.14157 43.9168 9.39228 44.3957C10.2003 44.5666 10.7139 44.945 11.0051 45.7757C11.993 48.5824 13.4226 51.1446 15.2939 53.4389C15.7911 54.0518 15.9023 54.6547 15.657 55.4116C14.9831 57.4915 14.3812 59.5915 13.704 61.6681C13.5208 62.2274 13.6418 62.4753 14.1325 62.7499C15.8435 63.7112 17.525 64.7294 19.2195 65.7241C21.0711 66.8093 22.926 67.8945 24.8136 68.9997C26.4689 67.1677 28.0948 65.3858 29.6978 63.5839C30.1721 63.0514 30.6825 62.827 31.4022 62.9542C34.3039 63.4633 37.2154 63.4935 40.1106 62.9341C40.9939 62.7633 41.5827 63.0078 42.1585 63.6643C43.6928 65.4193 45.2729 67.1308 46.817 68.8423C46.9217 68.8122 46.9773 68.8088 47.0231 68.782C50.6347 66.6418 54.2496 64.5083 57.8448 62.338C58.0117 62.2375 58.1098 61.7853 58.0444 61.5542C57.4523 59.4509 56.8438 57.3475 56.1797 55.2676C55.918 54.4437 56.0456 53.814 56.5853 53.1542C58.3682 50.9738 59.788 48.5522 60.7433 45.8828C61.1293 44.801 61.7378 44.2651 62.8337 44.0441C65.0059 43.6087 67.1552 43.0493 69.3601 42.5302V29.1095C67.1585 28.6105 64.9536 28.0645 62.729 27.6224C61.7738 27.4315 61.2405 26.966 60.9167 26.0315C60.0236 23.4559 58.7412 21.0745 57.0204 18.9879C56.2222 18.02 56.0979 17.1625 56.5068 15.997C57.2363 13.9171 57.8219 11.7836 58.4827 9.62327C54.6978 7.39933 50.952 5.19548 47.1932 2.98829C45.5248 4.83376 43.9152 6.59214 42.3319 8.37732C41.8379 8.93331 41.3112 9.16776 40.5588 9.03714C37.6865 8.53474 34.7979 8.4979 31.9322 9.05388C31.0194 9.2314 30.411 8.9869 29.8156 8.30364C28.3009 6.56535 26.7405 4.8706 25.144 3.09882L25.1407 3.10217Z" fill="#3F3F3F"/>
<path d="M53.8104 41.8967C53.149 44.2859 52.0344 46.5179 50.5311 48.465C49.0278 50.4121 47.1657 52.0357 45.0519 53.2439C42.9383 54.4521 40.6145 55.2213 38.2136 55.509C35.8127 55.7967 33.381 55.5973 31.0568 54.9229" stroke="#3F3F3F" stroke-width="2.43396"/>
<path d="M18.9387 29.8584C19.8252 27.5475 21.1474 25.4385 22.8293 23.6517C24.5112 21.8649 26.5194 20.4359 28.7385 19.4453C30.9575 18.4547 33.3439 17.9219 35.7613 17.8762C38.1786 17.8305 40.5802 18.2727 42.8295 19.1771" stroke="#3F3F3F" stroke-width="2.43396"/>
<defs>
<linearGradient id="paint0_linear_41_111" x1="23.3906" y1="36.0007" x2="48.5783" y2="36.0007" gradientUnits="userSpaceOnUse">
<stop stop-color="#6C63FF"/>
<stop offset="1" stop-color="#9A6AFF"/>
</linearGradient>
<linearGradient id="paint1_linear_41_111" x1="26.574" y1="21.2033" x2="53.3066" y2="28.4818" gradientUnits="userSpaceOnUse">
<stop stop-color="#0C93FF"/>
<stop offset="1" stop-color="#B153F0"/>
</linearGradient>
<linearGradient id="paint2_linear_41_111" x1="23.3906" y1="36.0007" x2="48.5783" y2="36.0007" gradientUnits="userSpaceOnUse">
<stop stop-color="#6C63FF"/>
<stop offset="1" stop-color="#9A6AFF"/>
</linearGradient>
</defs>
</svg>
